<svg width="32" height="32" viewBox="0 0 49 49" fill="none" xmlns="http://www.w3.org/2000/svg">
<circle cx="24.5" cy="24.5" r="24.5" fill="#161313"/>
<g clip-path="url(#clip0_167_415)">
<path d="M21.808 12.6537C21.9497 12.8259 22.0366 13.0367 22.0573 13.2588C22.078 13.4809 22.0316 13.7041 21.9242 13.8995C21.0847 15.4408 20.6463 17.1685 20.6493 18.9236C20.6493 24.7623 25.4091 29.4902 31.2753 29.4902C32.0406 29.4902 32.7855 29.4103 33.5013 29.2578C33.7208 29.2103 33.9493 29.2285 34.1585 29.3101C34.3677 29.3917 34.5482 29.5331 34.6775 29.7167C34.814 29.9075 34.8835 30.1382 34.8754 30.3727C34.8673 30.6072 34.7819 30.8324 34.6325 31.0133C33.4936 32.4123 32.0569 33.5395 30.4271 34.3127C28.7973 35.0859 27.0155 35.4856 25.2116 35.4827C18.5176 35.4827 13.0957 30.0898 13.0957 23.4453C13.0957 18.4444 16.1653 14.1551 20.536 12.3371C20.7537 12.2451 20.9954 12.2262 21.2248 12.2833C21.4541 12.3404 21.6588 12.4703 21.808 12.6537Z" fill="white"/>
</g>
<defs>
<clipPath id="clip0_167_415">
<rect width="23.2328" height="23.2328" fill="white" transform="translate(13.0957 12.25)"/>
</clipPath>
</defs>
</svg>