<svg width="32" height="32" viewBox="0 0 49 49" fill="none" xmlns="http://www.w3.org/2000/svg">
<circle cx="24.5" cy="24.5" r="23.5" fill="white" stroke="#161313" stroke-width="2"/>
<path d="M24.2874 19.8711C23.0037 19.8711 21.7726 20.381 20.8649 21.2887C19.9572 22.1964 19.4473 23.4276 19.4473 24.7113C19.4473 25.9949 19.9572 27.2261 20.8649 28.1338C21.7726 29.0415 23.0037 29.5514 24.2874 29.5514C25.5711 29.5514 26.8022 29.0415 27.7099 28.1338C28.6176 27.2261 29.1276 25.9949 29.1276 24.7113C29.1276 23.4276 28.6176 22.1964 27.7099 21.2887C26.8022 20.381 25.5711 19.8711 24.2874 19.8711Z" fill="#161313"/>
<path fill-rule="evenodd" clip-rule="evenodd" d="M24.289 14.0629C24.5457 14.0629 24.7919 14.1649 24.9735 14.3464C25.155 14.5279 25.257 14.7742 25.257 15.0309V15.9989C25.257 16.2557 25.155 16.5019 24.9735 16.6834C24.7919 16.865 24.5457 16.967 24.289 16.967C24.0322 16.967 23.786 16.865 23.6045 16.6834C23.4229 16.5019 23.3209 16.2557 23.3209 15.9989V15.0309C23.3209 14.7742 23.4229 14.5279 23.6045 14.3464C23.786 14.1649 24.0322 14.0629 24.289 14.0629ZM15.8603 16.2826C16.0419 16.1011 16.288 15.9991 16.5447 15.9991C16.8014 15.9991 17.0476 16.1011 17.2291 16.2826L18.6812 17.7346C18.8575 17.9172 18.9551 18.1617 18.9529 18.4155C18.9507 18.6693 18.8489 18.9121 18.6694 19.0916C18.4899 19.2711 18.2471 19.3729 17.9933 19.3751C17.7395 19.3773 17.4949 19.2797 17.3124 19.1034L15.8603 17.6514C15.6788 17.4698 15.5769 17.2236 15.5769 16.967C15.5769 16.7103 15.6788 16.4641 15.8603 16.2826ZM32.7176 16.2826C32.8991 16.4641 33.0011 16.7103 33.0011 16.967C33.0011 17.2236 32.8991 17.4698 32.7176 17.6514L31.2656 19.1034C31.1763 19.1959 31.0695 19.2696 30.9514 19.3203C30.8333 19.3711 30.7062 19.3978 30.5777 19.3989C30.4492 19.4 30.3217 19.3755 30.2027 19.3268C30.0838 19.2782 29.9757 19.2063 29.8848 19.1154C29.7939 19.0245 29.722 18.9164 29.6733 18.7975C29.6247 18.6785 29.6002 18.551 29.6013 18.4225C29.6024 18.294 29.6291 18.1669 29.6798 18.0488C29.7306 17.9307 29.8043 17.8239 29.8968 17.7346L31.3488 16.2826C31.5304 16.1011 31.7765 15.9991 32.0332 15.9991C32.2899 15.9991 32.5361 16.1011 32.7176 16.2826ZM13.6406 24.7112C13.6406 24.4545 13.7426 24.2083 13.9242 24.0267C14.1057 23.8452 14.3519 23.7432 14.6087 23.7432H15.5767C15.8334 23.7432 16.0796 23.8452 16.2612 24.0267C16.4427 24.2083 16.5447 24.4545 16.5447 24.7112C16.5447 24.968 16.4427 25.2142 16.2612 25.3957C16.0796 25.5773 15.8334 25.6792 15.5767 25.6792H14.6087C14.3519 25.6792 14.1057 25.5773 13.9242 25.3957C13.7426 25.2142 13.6406 24.968 13.6406 24.7112ZM32.0332 24.7112C32.0332 24.4545 32.1352 24.2083 32.3168 24.0267C32.4983 23.8452 32.7445 23.7432 33.0013 23.7432H33.9693C34.226 23.7432 34.4722 23.8452 34.6538 24.0267C34.8353 24.2083 34.9373 24.4545 34.9373 24.7112C34.9373 24.968 34.8353 25.2142 34.6538 25.3957C34.4722 25.5773 34.226 25.6792 33.9693 25.6792H33.0013C32.7445 25.6792 32.4983 25.5773 32.3168 25.3957C32.1352 25.2142 32.0332 24.968 32.0332 24.7112ZM18.6812 30.319C18.8626 30.5006 18.9646 30.7467 18.9646 31.0034C18.9646 31.2601 18.8626 31.5063 18.6812 31.6878L17.2291 33.1399C17.0465 33.3162 16.802 33.4138 16.5482 33.4116C16.2944 33.4094 16.0516 33.3076 15.8721 33.1281C15.6926 32.9486 15.5908 32.7058 15.5886 32.452C15.5864 32.1982 15.684 31.9536 15.8603 31.7711L17.3124 30.319C17.4939 30.1375 17.7401 30.0356 17.9968 30.0356C18.2535 30.0356 18.4996 30.1375 18.6812 30.319ZM29.8968 30.319C30.0783 30.1375 30.3245 30.0356 30.5812 30.0356C30.8379 30.0356 31.084 30.1375 31.2656 30.319L32.7176 31.7711C32.894 31.9536 32.9915 32.1982 32.9893 32.452C32.9871 32.7058 32.8853 32.9486 32.7058 33.1281C32.5264 33.3076 32.2836 33.4094 32.0297 33.4116C31.7759 33.4138 31.5314 33.3162 31.3488 33.1399L29.8968 31.6878C29.7153 31.5063 29.6134 31.2601 29.6134 31.0034C29.6134 30.7467 29.7153 30.5006 29.8968 30.319ZM24.289 32.4555C24.5457 32.4555 24.7919 32.5575 24.9735 32.739C25.155 32.9205 25.257 33.1668 25.257 33.4235V34.3915C25.257 34.6483 25.155 34.8945 24.9735 35.076C24.7919 35.2576 24.5457 35.3596 24.289 35.3596C24.0322 35.3596 23.786 35.2576 23.6045 35.076C23.4229 34.8945 23.3209 34.6483 23.3209 34.3915V33.4235C23.3209 33.1668 23.4229 32.9205 23.6045 32.739C23.786 32.5575 24.0322 32.4555 24.289 32.4555Z" fill="#161313"/>
</svg>
