<svg width="18" height="21" viewBox="0 0 18 21" fill="none" xmlns="http://www.w3.org/2000/svg">
<path d="M16.3559 4.95609L5.44554 8.10009H16.7975C16.9567 8.10009 17.1093 8.1633 17.2218 8.27583C17.3343 8.38835 17.3975 8.54096 17.3975 8.70009V17.1001C17.3975 17.8957 17.0815 18.6588 16.5189 19.2214C15.9562 19.784 15.1932 20.1001 14.3975 20.1001H3.59754C2.8023 20.0995 2.03986 19.7831 1.47777 19.2206C0.915678 18.658 0.599936 17.8953 0.599937 17.1001V8.78529L0.291537 7.71369C0.182357 7.33509 0.14883 6.93869 0.192869 6.54713C0.236909 6.15557 0.357654 5.77652 0.548206 5.43163C0.738759 5.08674 0.995386 4.78277 1.30343 4.53707C1.61148 4.29138 1.96491 4.10877 2.34354 3.99969L12.7199 1.00809C13.0985 0.89891 13.4949 0.865382 13.8865 0.909422C14.2781 0.953462 14.6571 1.07421 15.002 1.26476C15.3469 1.45531 15.6509 1.71194 15.8966 2.01999C16.1422 2.32803 16.3249 2.68146 16.4339 3.06009L16.7663 4.21209C16.7884 4.28789 16.7952 4.36729 16.7865 4.44573C16.7778 4.52418 16.7536 4.60014 16.7155 4.66925C16.6774 4.73836 16.626 4.79928 16.5643 4.8485C16.5026 4.89772 16.4318 4.93428 16.3559 4.95609ZM1.60794 7.95609L2.33634 7.74609L4.06674 4.75209L2.67474 5.15409C2.21647 5.2863 1.82942 5.59499 1.59857 6.01235C1.36773 6.42972 1.31197 6.92164 1.44354 7.38009L1.60914 7.95609H1.60794ZM3.99834 7.26729L6.54234 6.53289L8.27394 3.53649L5.72394 4.27209C5.71631 4.28927 5.70791 4.30609 5.69874 4.32249L3.99954 7.26849L3.99834 7.26729ZM10.7507 5.32089L12.4811 2.32329L9.92994 3.05889C9.92076 3.08067 9.91034 3.1019 9.89874 3.12249L8.20794 6.05529L10.7519 5.32209L10.7507 5.32089ZM13.9715 2.13849C13.9641 2.15319 13.9561 2.1676 13.9475 2.18169L12.4127 4.84089L15.4451 3.96729L15.2783 3.39129C15.1905 3.0855 15.0232 2.80846 14.7934 2.58839C14.5636 2.36832 14.2796 2.21308 13.9703 2.13849H13.9715ZM1.79994 9.30009V17.1001C1.79994 17.5775 1.98958 18.0353 2.32714 18.3729C2.66471 18.7104 3.12255 18.9001 3.59994 18.9001H14.3999C14.8773 18.9001 15.3352 18.7104 15.6727 18.3729C16.0103 18.0353 16.1999 17.5775 16.1999 17.1001V9.30009H1.79994Z" fill="white"/>
</svg>
