<svg width="21" height="22" viewBox="0 0 21 22" fill="none" xmlns="http://www.w3.org/2000/svg">
<path d="M7 17.5003V5.21629C6.99994 4.7385 7.17094 4.27648 7.48203 3.91384C7.79312 3.5512 8.22376 3.31192 8.696 3.23929L17.696 1.85429C17.981 1.81046 18.2721 1.82878 18.5494 1.908C18.8267 1.98722 19.0836 2.12545 19.3024 2.31324C19.5212 2.50102 19.6969 2.73391 19.8173 2.99594C19.9377 3.25796 20 3.54293 20 3.83129V15.5003" stroke="black" stroke-width="2" stroke-linecap="round" stroke-linejoin="round"/>
<path d="M7 8.5L20 6.5" stroke="black" stroke-width="2"/>
<path d="M7 17.5C7 18.2956 6.68393 19.0587 6.12132 19.6213C5.55871 20.1839 4.79565 20.5 4 20.5C3.20435 20.5 2.44129 20.1839 1.87868 19.6213C1.31607 19.0587 1 18.2956 1 17.5C1 15.843 2.343 15.5 4 15.5C5.657 15.5 7 15.843 7 17.5ZM20 15.5C20 16.2956 19.6839 17.0587 19.1213 17.6213C18.5587 18.1839 17.7956 18.5 17 18.5C16.2044 18.5 15.4413 18.1839 14.8787 17.6213C14.3161 17.0587 14 16.2956 14 15.5C14 13.843 15.343 13.5 17 13.5C18.657 13.5 20 13.843 20 15.5Z" stroke="black" stroke-width="2" stroke-linecap="round" stroke-linejoin="round"/>
</svg>
