<svg width="19" height="18" viewBox="0 0 19 18" fill="none" xmlns="http://www.w3.org/2000/svg">
<path d="M0.804977 7.715C0.804977 7.715 3.44123 4.2125 4.99748 4.98275C6.55598 5.753 4.68773 7.079 6.19748 7.77275C7.70498 8.465 9.98273 7.60025 9.47873 5.59775C8.97473 3.59525 8.07923 5.01575 7.38023 3.94175C6.67973 2.867 10.8197 0.5 10.8197 0.5C10.8197 0.5 13.3397 5.4875 14.0567 4.1825C14.9237 2.60375 16.4507 0.98375 18.0347 3.41375C18.0347 3.41375 19.3952 5.22275 18.2192 5.98925C17.0432 6.75575 16.0315 6.32075 15.5897 7.15325C15.1502 7.98725 18.4277 10.223 18.4277 10.223C18.4277 10.223 16.1875 13.8305 14.7332 12.884C13.2782 11.9375 15.0002 10.361 12.7832 9.8915C11.818 9.719 10.2055 10.2965 9.92048 11.6465C9.82298 13.679 11.1235 13.1592 12.0182 14.2535C12.9107 15.3455 8.65523 17.6435 8.65523 17.6435C8.65523 17.6435 7.46723 14.702 5.79773 14.1515C4.12673 13.6002 5.12723 15.7528 3.60923 16.049C2.09123 16.3468 -0.0027734 14.2505 1.01423 12.458C2.03273 10.6655 3.47048 12.425 3.59423 10.9955C3.72173 9.563 0.804227 7.71275 0.804227 7.71275L0.804977 7.715Z" fill="black"/>
</svg>
