<svg width="1277" height="402" viewBox="0 0 1277 402" fill="none" xmlns="http://www.w3.org/2000/svg">
<rect width="1277" height="402" fill="#F9F9F9"/>
<path d="M499.6 149.448C497.936 149.448 496.507 149.171 495.312 148.616C494.117 148.04 493.2 147.24 492.56 146.216C491.92 145.171 491.6 143.955 491.6 142.568H495.024C495.024 143.677 495.387 144.605 496.112 145.352C496.859 146.077 498.021 146.44 499.6 146.44C501.2 146.44 502.427 146.013 503.28 145.16C504.133 144.307 504.56 143.144 504.56 141.672V138.984H504.048C503.685 139.496 503.099 139.987 502.288 140.456C501.477 140.925 500.304 141.16 498.768 141.16C497.467 141.16 496.261 140.872 495.152 140.296C494.043 139.72 493.147 138.899 492.464 137.832C491.803 136.744 491.472 135.453 491.472 133.96V133.576C491.472 132.083 491.813 130.781 492.496 129.672C493.2 128.563 494.171 127.699 495.408 127.08C496.667 126.461 498.107 126.152 499.728 126.152C501.371 126.152 502.8 126.472 504.016 127.112C505.253 127.731 506.213 128.605 506.896 129.736C507.579 130.845 507.92 132.157 507.92 133.672V141.416C507.92 143.165 507.568 144.637 506.864 145.832C506.181 147.027 505.211 147.933 503.952 148.552C502.715 149.149 501.264 149.448 499.6 149.448ZM499.696 138.44C500.677 138.44 501.531 138.248 502.256 137.864C502.981 137.48 503.547 136.957 503.952 136.296C504.357 135.613 504.56 134.813 504.56 133.896V133.64C504.56 132.253 504.112 131.165 503.216 130.376C502.341 129.565 501.168 129.16 499.696 129.16C498.224 129.16 497.04 129.565 496.144 130.376C495.269 131.165 494.832 132.253 494.832 133.64V133.896C494.832 134.813 495.024 135.613 495.408 136.296C495.813 136.957 496.379 137.48 497.104 137.864C497.851 138.248 498.715 138.44 499.696 138.44ZM519.352 149.448C517.666 149.448 516.205 149.139 514.968 148.52C513.73 147.901 512.77 147.027 512.088 145.896C511.426 144.765 511.096 143.453 511.096 141.96V141.608H514.52V141.928C514.52 143.293 514.936 144.392 515.768 145.224C516.621 146.035 517.805 146.44 519.32 146.44C520.877 146.44 522.082 146.013 522.936 145.16C523.789 144.307 524.216 143.155 524.216 141.704V141.416C524.216 140.029 523.789 138.92 522.936 138.088C522.104 137.256 521.037 136.84 519.736 136.84C519.01 136.84 518.402 136.957 517.911 137.192C517.442 137.405 517.058 137.672 516.76 137.992C516.482 138.312 516.248 138.621 516.056 138.92H511.799V126.6H526.808V129.64H515.16V136.232H515.672C515.885 135.869 516.184 135.528 516.568 135.208C516.973 134.867 517.496 134.589 518.135 134.376C518.775 134.163 519.544 134.056 520.44 134.056C521.762 134.056 522.957 134.344 524.024 134.92C525.112 135.475 525.976 136.307 526.616 137.416C527.256 138.504 527.576 139.827 527.576 141.384V141.736C527.576 143.293 527.245 144.648 526.583 145.8C525.922 146.952 524.973 147.848 523.736 148.488C522.52 149.128 521.058 149.448 519.352 149.448ZM533.356 149.416L531.308 147.752L548.812 126.184L550.86 127.848L533.356 149.416ZM547.212 149.352C545.633 149.352 544.385 148.915 543.468 148.04C542.55 147.144 542.092 145.939 542.092 144.424V144.232C542.092 142.696 542.55 141.491 543.468 140.616C544.385 139.72 545.633 139.272 547.212 139.272C548.769 139.272 550.017 139.72 550.956 140.616C551.894 141.491 552.364 142.696 552.364 144.232V144.424C552.364 145.939 551.894 147.144 550.956 148.04C550.038 148.915 548.79 149.352 547.212 149.352ZM547.212 147.112C547.98 147.112 548.577 146.877 549.004 146.408C549.452 145.939 549.676 145.32 549.676 144.552V144.104C549.676 143.315 549.452 142.685 549.004 142.216C548.577 141.747 547.98 141.512 547.212 141.512C546.465 141.512 545.868 141.747 545.42 142.216C544.993 142.685 544.78 143.315 544.78 144.104V144.552C544.78 145.32 544.993 145.939 545.42 146.408C545.868 146.877 546.465 147.112 547.212 147.112ZM534.956 136.328C533.377 136.328 532.118 135.891 531.18 135.016C530.262 134.12 529.804 132.915 529.804 131.4V131.176C529.804 129.64 530.262 128.435 531.18 127.56C532.118 126.685 533.377 126.248 534.956 126.248C536.513 126.248 537.75 126.685 538.668 127.56C539.606 128.435 540.076 129.64 540.076 131.176V131.4C540.076 132.915 539.617 134.12 538.7 135.016C537.782 135.891 536.534 136.328 534.956 136.328ZM534.956 134.088C535.702 134.088 536.289 133.853 536.716 133.384C537.164 132.893 537.388 132.264 537.388 131.496V131.048C537.388 130.28 537.164 129.661 536.716 129.192C536.289 128.723 535.702 128.488 534.956 128.488C534.188 128.488 533.58 128.723 533.132 129.192C532.705 129.661 532.492 130.28 532.492 131.048V131.496C532.492 132.264 532.705 132.893 533.132 133.384C533.58 133.853 534.188 134.088 534.956 134.088ZM872.745 198V175.6H876.041V198H872.745ZM880.932 198V182.224H884.228V198H880.932ZM882.596 180.08C881.956 180.08 881.412 179.877 880.964 179.472C880.537 179.045 880.324 178.501 880.324 177.84C880.324 177.179 880.537 176.645 880.964 176.24C881.412 175.813 881.956 175.6 882.596 175.6C883.257 175.6 883.801 175.813 884.228 176.24C884.655 176.645 884.868 177.179 884.868 177.84C884.868 178.501 884.655 179.045 884.228 179.472C883.801 179.877 883.257 180.08 882.596 180.08ZM889.12 198V182.224H892.352V184.08H892.864C893.162 183.525 893.642 183.035 894.304 182.608C894.965 182.181 895.861 181.968 896.992 181.968C898.165 181.968 899.104 182.213 899.808 182.704C900.533 183.173 901.077 183.781 901.44 184.528H901.952C902.314 183.803 902.837 183.195 903.52 182.704C904.224 182.213 905.216 181.968 906.496 181.968C907.52 181.968 908.426 182.181 909.216 182.608C910.005 183.013 910.634 183.632 911.104 184.464C911.573 185.275 911.808 186.288 911.808 187.504V198H908.512V187.76C908.512 186.8 908.245 186.064 907.712 185.552C907.2 185.019 906.464 184.752 905.503 184.752C904.48 184.752 903.658 185.083 903.04 185.744C902.421 186.405 902.112 187.355 902.112 188.592V198H898.816V187.76C898.816 186.8 898.549 186.064 898.016 185.552C897.504 185.019 896.768 184.752 895.808 184.752C894.784 184.752 893.962 185.083 893.344 185.744C892.725 186.405 892.416 187.355 892.416 188.592V198H889.12ZM916.557 198V182.224H919.853V198H916.557ZM918.221 180.08C917.581 180.08 917.037 179.877 916.589 179.472C916.162 179.045 915.949 178.501 915.949 177.84C915.949 177.179 916.162 176.645 916.589 176.24C917.037 175.813 917.581 175.6 918.221 175.6C918.882 175.6 919.426 175.813 919.853 176.24C920.28 176.645 920.493 177.179 920.493 177.84C920.493 178.501 920.28 179.045 919.853 179.472C919.426 179.877 918.882 180.08 918.221 180.08ZM930.665 198C929.705 198 928.937 197.712 928.361 197.136C927.806 196.56 927.529 195.792 927.529 194.832V185.008H923.177V182.224H927.529V177.008H930.825V182.224H935.529V185.008H930.825V194.256C930.825 194.896 931.123 195.216 931.72 195.216H935.017V198H930.665ZM946.07 198.448C944.47 198.448 943.073 198.117 941.878 197.456C940.684 196.773 939.745 195.824 939.062 194.608C938.401 193.371 938.07 191.941 938.07 190.32V189.936C938.07 188.293 938.401 186.864 939.062 185.648C939.724 184.411 940.641 183.461 941.814 182.8C943.009 182.117 944.385 181.776 945.942 181.776C947.457 181.776 948.78 182.117 949.91 182.8C951.062 183.461 951.958 184.389 952.598 185.584C953.238 186.779 953.558 188.176 953.558 189.776V191.024H941.43C941.473 192.411 941.932 193.52 942.806 194.352C943.702 195.163 944.812 195.568 946.134 195.568C947.372 195.568 948.3 195.291 948.918 194.736C949.558 194.181 950.049 193.541 950.39 192.816L953.11 194.224C952.812 194.821 952.374 195.451 951.798 196.112C951.244 196.773 950.508 197.328 949.59 197.776C948.673 198.224 947.5 198.448 946.07 198.448ZM941.462 188.496H950.198C950.113 187.301 949.686 186.373 948.918 185.712C948.15 185.029 947.148 184.688 945.91 184.688C944.673 184.688 943.66 185.029 942.87 185.712C942.102 186.373 941.633 187.301 941.462 188.496ZM964.054 198.448C962.752 198.448 961.547 198.128 960.438 197.488C959.328 196.848 958.432 195.931 957.75 194.736C957.088 193.52 956.758 192.059 956.758 190.352V189.872C956.758 188.187 957.088 186.736 957.75 185.52C958.411 184.304 959.296 183.376 960.406 182.736C961.515 182.096 962.731 181.776 964.054 181.776C965.078 181.776 965.931 181.904 966.614 182.16C967.318 182.416 967.894 182.747 968.342 183.152C968.79 183.536 969.131 183.941 969.366 184.368H969.878V175.6H973.174V198H969.942V195.76H969.43C969.024 196.443 968.406 197.061 967.574 197.616C966.763 198.171 965.59 198.448 964.054 198.448ZM964.982 195.568C966.411 195.568 967.584 195.109 968.502 194.192C969.44 193.275 969.91 191.963 969.91 190.256V189.968C969.91 188.283 969.451 186.981 968.534 186.064C967.616 185.147 966.432 184.688 964.982 184.688C963.574 184.688 962.4 185.147 961.462 186.064C960.544 186.981 960.086 188.283 960.086 189.968V190.256C960.086 191.963 960.544 193.275 961.462 194.192C962.4 195.109 963.574 195.568 964.982 195.568ZM995.302 198.448C993.766 198.448 992.582 198.171 991.75 197.616C990.939 197.061 990.331 196.443 989.926 195.76H989.414V198H986.182V175.6H989.478V184.368H989.99C990.246 183.941 990.587 183.536 991.014 183.152C991.441 182.747 992.006 182.416 992.71 182.16C993.414 181.904 994.278 181.776 995.302 181.776C996.625 181.776 997.841 182.096 998.95 182.736C1000.06 183.376 1000.94 184.304 1001.61 185.52C1002.27 186.736 1002.6 188.187 1002.6 189.872V190.352C1002.6 192.059 1002.26 193.52 1001.57 194.736C1000.91 195.931 1000.03 196.848 998.918 197.488C997.83 198.128 996.625 198.448 995.302 198.448ZM994.342 195.568C995.771 195.568 996.945 195.109 997.862 194.192C998.801 193.275 999.27 191.963 999.27 190.256V189.968C999.27 188.283 998.811 186.981 997.894 186.064C996.977 185.147 995.793 184.688 994.342 184.688C992.934 184.688 991.761 185.147 990.822 186.064C989.905 186.981 989.446 188.283 989.446 189.968V190.256C989.446 191.963 989.905 193.275 990.822 194.192C991.761 195.109 992.934 195.568 994.342 195.568ZM1006.68 198V175.6H1009.98V198H1006.68ZM1022.26 198.448C1020.68 198.448 1019.27 198.128 1018.04 197.488C1016.82 196.827 1015.86 195.888 1015.16 194.672C1014.45 193.456 1014.1 192.016 1014.1 190.352V189.872C1014.1 188.208 1014.45 186.779 1015.16 185.584C1015.86 184.368 1016.82 183.429 1018.04 182.768C1019.27 182.107 1020.68 181.776 1022.26 181.776C1023.84 181.776 1025.25 182.107 1026.49 182.768C1027.72 183.429 1028.69 184.368 1029.4 185.584C1030.1 186.779 1030.45 188.208 1030.45 189.872V190.352C1030.45 192.016 1030.1 193.456 1029.4 194.672C1028.69 195.888 1027.72 196.827 1026.49 197.488C1025.25 198.128 1023.84 198.448 1022.26 198.448ZM1022.26 195.504C1023.71 195.504 1024.89 195.045 1025.78 194.128C1026.7 193.189 1027.16 191.899 1027.16 190.256V189.968C1027.16 188.325 1026.71 187.045 1025.81 186.128C1024.92 185.189 1023.73 184.72 1022.26 184.72C1020.83 184.72 1019.66 185.189 1018.74 186.128C1017.85 187.045 1017.4 188.325 1017.4 189.968V190.256C1017.4 191.899 1017.85 193.189 1018.74 194.128C1019.66 195.045 1020.83 195.504 1022.26 195.504ZM1041.95 198.448C1040.37 198.448 1038.96 198.128 1037.73 197.488C1036.51 196.827 1035.55 195.888 1034.85 194.672C1034.14 193.456 1033.79 192.016 1033.79 190.352V189.872C1033.79 188.208 1034.14 186.779 1034.85 185.584C1035.55 184.368 1036.51 183.429 1037.73 182.768C1038.96 182.107 1040.37 181.776 1041.95 181.776C1043.53 181.776 1044.94 182.107 1046.17 182.768C1047.41 183.429 1048.38 184.368 1049.09 185.584C1049.79 186.779 1050.14 188.208 1050.14 189.872V190.352C1050.14 192.016 1049.79 193.456 1049.09 194.672C1048.38 195.888 1047.41 196.827 1046.17 197.488C1044.94 198.128 1043.53 198.448 1041.95 198.448ZM1041.95 195.504C1043.4 195.504 1044.57 195.045 1045.47 194.128C1046.39 193.189 1046.85 191.899 1046.85 190.256V189.968C1046.85 188.325 1046.4 187.045 1045.5 186.128C1044.61 185.189 1043.42 184.72 1041.95 184.72C1040.52 184.72 1039.35 185.189 1038.43 186.128C1037.53 187.045 1037.09 188.325 1037.09 189.968V190.256C1037.09 191.899 1037.53 193.189 1038.43 194.128C1039.35 195.045 1040.52 195.504 1041.95 195.504ZM1060.77 198.448C1059.47 198.448 1058.27 198.128 1057.16 197.488C1056.05 196.848 1055.15 195.931 1054.47 194.736C1053.81 193.52 1053.48 192.059 1053.48 190.352V189.872C1053.48 188.187 1053.81 186.736 1054.47 185.52C1055.13 184.304 1056.02 183.376 1057.12 182.736C1058.23 182.096 1059.45 181.776 1060.77 181.776C1061.8 181.776 1062.65 181.904 1063.33 182.16C1064.04 182.416 1064.61 182.747 1065.06 183.152C1065.51 183.536 1065.85 183.941 1066.08 184.368H1066.6V175.6H1069.89V198H1066.66V195.76H1066.15C1065.74 196.443 1065.12 197.061 1064.29 197.616C1063.48 198.171 1062.31 198.448 1060.77 198.448ZM1061.7 195.568C1063.13 195.568 1064.3 195.109 1065.22 194.192C1066.16 193.275 1066.63 191.963 1066.63 190.256V189.968C1066.63 188.283 1066.17 186.981 1065.25 186.064C1064.34 185.147 1063.15 184.688 1061.7 184.688C1060.29 184.688 1059.12 185.147 1058.18 186.064C1057.26 186.981 1056.8 188.283 1056.8 189.968V190.256C1056.8 191.963 1057.26 193.275 1058.18 194.192C1059.12 195.109 1060.29 195.568 1061.7 195.568ZM498.896 247.448C496.891 247.448 495.227 247 493.904 246.104C492.581 245.208 491.771 243.853 491.472 242.04L494.544 241.304C494.715 242.179 495.003 242.872 495.408 243.384C495.813 243.896 496.315 244.259 496.912 244.472C497.531 244.685 498.192 244.792 498.896 244.792C499.941 244.792 500.741 244.589 501.296 244.184C501.872 243.779 502.16 243.256 502.16 242.616C502.16 241.976 501.893 241.507 501.36 241.208C500.827 240.909 500.037 240.664 498.992 240.472L497.904 240.28C496.837 240.088 495.867 239.811 494.992 239.448C494.117 239.085 493.424 238.584 492.912 237.944C492.4 237.304 492.144 236.483 492.144 235.48C492.144 233.987 492.699 232.835 493.808 232.024C494.917 231.192 496.389 230.776 498.224 230.776C499.995 230.776 501.445 231.181 502.576 231.992C503.728 232.781 504.475 233.859 504.816 235.224L501.744 236.088C501.552 235.128 501.147 234.456 500.528 234.072C499.909 233.667 499.141 233.464 498.224 233.464C497.328 233.464 496.624 233.635 496.112 233.976C495.6 234.296 495.344 234.755 495.344 235.352C495.344 235.992 495.589 236.461 496.08 236.76C496.592 237.059 497.275 237.283 498.128 237.432L499.248 237.624C500.379 237.816 501.413 238.083 502.352 238.424C503.291 238.765 504.027 239.256 504.56 239.896C505.115 240.536 505.392 241.389 505.392 242.456C505.392 244.035 504.805 245.261 503.632 246.136C502.459 247.011 500.88 247.448 498.896 247.448ZM515.293 247.288C514.098 247.288 513.031 247.021 512.093 246.488C511.154 245.955 510.418 245.197 509.885 244.216C509.351 243.235 509.085 242.061 509.085 240.696V231.224H512.381V240.472C512.381 241.837 512.722 242.851 513.405 243.512C514.087 244.152 515.037 244.472 516.253 244.472C517.597 244.472 518.674 244.024 519.485 243.128C520.317 242.211 520.733 240.899 520.733 239.192V231.224H524.029V247H520.797V244.632H520.285C519.986 245.272 519.453 245.88 518.685 246.456C517.917 247.011 516.786 247.288 515.293 247.288ZM528.901 253.4V231.224H532.133V233.496H532.645C533.05 232.792 533.658 232.163 534.469 231.608C535.301 231.053 536.485 230.776 538.021 230.776C539.343 230.776 540.549 231.096 541.637 231.736C542.746 232.376 543.631 233.304 544.293 234.52C544.975 235.715 545.317 237.165 545.317 238.872V239.352C545.317 241.059 544.986 242.52 544.325 243.736C543.663 244.931 542.778 245.848 541.669 246.488C540.559 247.128 539.343 247.448 538.021 247.448C536.997 247.448 536.133 247.32 535.429 247.064C534.725 246.808 534.159 246.488 533.733 246.104C533.306 245.699 532.965 245.283 532.709 244.856H532.197V253.4H528.901ZM537.061 244.568C538.511 244.568 539.695 244.109 540.613 243.192C541.53 242.275 541.989 240.963 541.989 239.256V238.968C541.989 237.283 541.519 235.981 540.581 235.064C539.663 234.147 538.49 233.688 537.061 233.688C535.653 233.688 534.479 234.147 533.541 235.064C532.623 235.981 532.165 237.283 532.165 238.968V239.256C532.165 240.963 532.623 242.275 533.541 243.192C534.479 244.109 535.653 244.568 537.061 244.568ZM549.401 253.4V231.224H552.633V233.496H553.145C553.55 232.792 554.158 232.163 554.969 231.608C555.801 231.053 556.985 230.776 558.521 230.776C559.843 230.776 561.049 231.096 562.137 231.736C563.246 232.376 564.131 233.304 564.793 234.52C565.475 235.715 565.817 237.165 565.817 238.872V239.352C565.817 241.059 565.486 242.52 564.825 243.736C564.163 244.931 563.278 245.848 562.169 246.488C561.059 247.128 559.843 247.448 558.521 247.448C557.497 247.448 556.633 247.32 555.929 247.064C555.225 246.808 554.659 246.488 554.233 246.104C553.806 245.699 553.465 245.283 553.209 244.856H552.697V253.4H549.401ZM557.561 244.568C559.011 244.568 560.195 244.109 561.113 243.192C562.03 242.275 562.489 240.963 562.489 239.256V238.968C562.489 237.283 562.019 235.981 561.081 235.064C560.163 234.147 558.99 233.688 557.561 233.688C556.153 233.688 554.979 234.147 554.041 235.064C553.123 235.981 552.665 237.283 552.665 238.968V239.256C552.665 240.963 553.123 242.275 554.041 243.192C554.979 244.109 556.153 244.568 557.561 244.568ZM569.901 247V224.6H573.197V247H569.901ZM579.912 253.4V250.52H588.712C589.31 250.52 589.608 250.2 589.608 249.56V244.696H589.096C588.904 245.123 588.606 245.539 588.2 245.944C587.816 246.328 587.294 246.648 586.632 246.904C585.971 247.16 585.139 247.288 584.136 247.288C582.942 247.288 581.875 247.021 580.936 246.488C579.998 245.955 579.262 245.197 578.728 244.216C578.195 243.235 577.928 242.072 577.928 240.728V231.224H581.224V240.472C581.224 241.837 581.566 242.851 582.248 243.512C582.931 244.152 583.88 244.472 585.096 244.472C586.44 244.472 587.518 244.024 588.328 243.128C589.16 242.232 589.576 240.931 589.576 239.224V231.224H592.872V250.232C592.872 251.192 592.584 251.96 592.008 252.536C591.454 253.112 590.686 253.4 589.704 253.4H579.912ZM735.041 247.448C734.294 247.448 733.665 247.203 733.153 246.712C732.662 246.221 732.417 245.592 732.417 244.824C732.417 244.056 732.662 243.437 733.153 242.968C733.665 242.477 734.294 242.232 735.041 242.232C735.788 242.232 736.406 242.477 736.897 242.968C737.409 243.459 737.665 244.077 737.665 244.824C737.665 245.592 737.409 246.221 736.897 246.712C736.406 247.203 735.788 247.448 735.041 247.448Z" fill="#75B3E6"/>
<path d="M571.293 149.448C569.714 149.448 568.306 149.128 567.069 148.488C565.853 147.827 564.893 146.888 564.189 145.672C563.485 144.456 563.133 143.016 563.133 141.352V140.872C563.133 139.208 563.485 137.779 564.189 136.584C564.893 135.368 565.853 134.429 567.069 133.768C568.306 133.107 569.714 132.776 571.293 132.776C572.871 132.776 574.279 133.107 575.517 133.768C576.754 134.429 577.725 135.368 578.429 136.584C579.133 137.779 579.485 139.208 579.485 140.872V141.352C579.485 143.016 579.133 144.456 578.429 145.672C577.725 146.888 576.754 147.827 575.517 148.488C574.279 149.128 572.871 149.448 571.293 149.448ZM571.293 146.504C572.743 146.504 573.917 146.045 574.813 145.128C575.73 144.189 576.189 142.899 576.189 141.256V140.968C576.189 139.325 575.741 138.045 574.845 137.128C573.949 136.189 572.765 135.72 571.293 135.72C569.863 135.72 568.69 136.189 567.773 137.128C566.877 138.045 566.429 139.325 566.429 140.968V141.256C566.429 142.899 566.877 144.189 567.773 145.128C568.69 146.045 569.863 146.504 571.293 146.504ZM585.843 149V136.008H581.427V133.224H585.843V129.768C585.843 128.808 586.131 128.04 586.707 127.464C587.283 126.888 588.051 126.6 589.01 126.6H593.075V129.384H590.067C589.448 129.384 589.139 129.704 589.139 130.344V133.224H593.683V136.008H589.139V149H585.843ZM611.133 149C610.173 149 609.405 148.712 608.829 148.136C608.275 147.56 607.997 146.792 607.997 145.832V136.008H603.645V133.224H607.997V128.008H611.293V133.224H615.997V136.008H611.293V145.256C611.293 145.896 611.592 146.216 612.189 146.216H615.485V149H611.133ZM619.87 149V126.6H623.166V135.464H623.678C623.891 135.059 624.19 134.664 624.574 134.28C624.979 133.896 625.502 133.587 626.142 133.352C626.803 133.096 627.635 132.968 628.638 132.968C629.832 132.968 630.888 133.235 631.806 133.768C632.744 134.301 633.48 135.059 634.014 136.04C634.547 137 634.814 138.163 634.814 139.528V149H631.518V139.784C631.518 138.419 631.176 137.416 630.494 136.776C629.811 136.115 628.872 135.784 627.678 135.784C626.312 135.784 625.214 136.232 624.382 137.128C623.571 138.024 623.166 139.325 623.166 141.032V149H619.87ZM646.789 149.448C645.189 149.448 643.792 149.117 642.597 148.456C641.402 147.773 640.464 146.824 639.781 145.608C639.12 144.371 638.789 142.941 638.789 141.32V140.936C638.789 139.293 639.12 137.864 639.781 136.648C640.442 135.411 641.36 134.461 642.533 133.8C643.728 133.117 645.104 132.776 646.661 132.776C648.176 132.776 649.498 133.117 650.629 133.8C651.781 134.461 652.677 135.389 653.317 136.584C653.957 137.779 654.277 139.176 654.277 140.776V142.024H642.149C642.192 143.411 642.65 144.52 643.525 145.352C644.421 146.163 645.53 146.568 646.853 146.568C648.09 146.568 649.018 146.291 649.637 145.736C650.277 145.181 650.768 144.541 651.109 143.816L653.829 145.224C653.53 145.821 653.093 146.451 652.517 147.112C651.962 147.773 651.226 148.328 650.309 148.776C649.392 149.224 648.218 149.448 646.789 149.448ZM642.181 139.496H650.917C650.832 138.301 650.405 137.373 649.637 136.712C648.869 136.029 647.866 135.688 646.629 135.688C645.392 135.688 644.378 136.029 643.589 136.712C642.821 137.373 642.352 138.301 642.181 139.496ZM666.401 155.4V133.224H669.633V135.496H670.145C670.55 134.792 671.158 134.163 671.969 133.608C672.801 133.053 673.985 132.776 675.521 132.776C676.843 132.776 678.049 133.096 679.137 133.736C680.246 134.376 681.131 135.304 681.793 136.52C682.475 137.715 682.817 139.165 682.817 140.872V141.352C682.817 143.059 682.486 144.52 681.825 145.736C681.163 146.931 680.278 147.848 679.169 148.488C678.059 149.128 676.843 149.448 675.521 149.448C674.497 149.448 673.633 149.32 672.929 149.064C672.225 148.808 671.659 148.488 671.233 148.104C670.806 147.699 670.465 147.283 670.209 146.856H669.697V155.4H666.401ZM674.561 146.568C676.011 146.568 677.195 146.109 678.113 145.192C679.03 144.275 679.489 142.963 679.489 141.256V140.968C679.489 139.283 679.019 137.981 678.081 137.064C677.163 136.147 675.99 135.688 674.561 135.688C673.153 135.688 671.979 136.147 671.041 137.064C670.123 137.981 669.665 139.283 669.665 140.968V141.256C669.665 142.963 670.123 144.275 671.041 145.192C671.979 146.109 673.153 146.568 674.561 146.568ZM691.797 149.448C690.666 149.448 689.653 149.256 688.757 148.872C687.882 148.488 687.178 147.923 686.645 147.176C686.133 146.429 685.877 145.523 685.877 144.456C685.877 143.368 686.133 142.472 686.645 141.768C687.178 141.043 687.893 140.499 688.789 140.136C689.706 139.773 690.741 139.592 691.893 139.592H696.693V138.568C696.693 137.651 696.415 136.915 695.861 136.36C695.306 135.805 694.453 135.528 693.301 135.528C692.17 135.528 691.306 135.795 690.709 136.328C690.111 136.861 689.717 137.555 689.525 138.408L686.453 137.416C686.709 136.563 687.114 135.795 687.669 135.112C688.245 134.408 689.002 133.843 689.941 133.416C690.879 132.989 692.01 132.776 693.333 132.776C695.381 132.776 696.991 133.299 698.165 134.344C699.338 135.389 699.925 136.872 699.925 138.792V145.288C699.925 145.928 700.223 146.248 700.821 146.248H702.165V149H699.701C698.954 149 698.346 148.808 697.877 148.424C697.407 148.04 697.173 147.517 697.173 146.856V146.76H696.693C696.522 147.08 696.266 147.453 695.925 147.88C695.583 148.307 695.082 148.68 694.421 149C693.759 149.299 692.885 149.448 691.797 149.448ZM692.277 146.728C693.599 146.728 694.666 146.355 695.477 145.608C696.287 144.84 696.693 143.795 696.693 142.472V142.152H692.085C691.21 142.152 690.506 142.344 689.973 142.728C689.439 143.091 689.173 143.635 689.173 144.36C689.173 145.085 689.45 145.661 690.005 146.088C690.559 146.515 691.317 146.728 692.277 146.728ZM705.37 149V133.224H708.602V135.08H709.114C709.37 134.419 709.775 133.939 710.33 133.64C710.906 133.32 711.61 133.16 712.442 133.16H714.33V136.136H712.314C711.247 136.136 710.372 136.435 709.69 137.032C709.007 137.608 708.666 138.504 708.666 139.72V149H705.37ZM723.665 149C722.705 149 721.937 148.712 721.361 148.136C720.806 147.56 720.529 146.792 720.529 145.832V136.008H716.177V133.224H720.529V128.008H723.825V133.224H728.529V136.008H723.825V145.256C723.825 145.896 724.123 146.216 724.72 146.216H728.017V149H723.665ZM732.401 149V133.224H735.697V149H732.401ZM734.065 131.08C733.425 131.08 732.881 130.877 732.433 130.472C732.006 130.045 731.793 129.501 731.793 128.84C731.793 128.179 732.006 127.645 732.433 127.24C732.881 126.813 733.425 126.6 734.065 126.6C734.726 126.6 735.27 126.813 735.697 127.24C736.123 127.645 736.337 128.179 736.337 128.84C736.337 129.501 736.123 130.045 735.697 130.472C735.27 130.877 734.726 131.08 734.065 131.08ZM747.916 149.448C746.402 149.448 745.026 149.128 743.788 148.488C742.572 147.848 741.602 146.92 740.876 145.704C740.172 144.488 739.82 143.027 739.82 141.32V140.904C739.82 139.197 740.172 137.747 740.876 136.552C741.602 135.336 742.572 134.408 743.788 133.768C745.026 133.107 746.402 132.776 747.916 132.776C749.431 132.776 750.722 133.053 751.788 133.608C752.855 134.163 753.708 134.899 754.348 135.816C755.01 136.733 755.436 137.747 755.628 138.856L752.428 139.528C752.322 138.824 752.098 138.184 751.756 137.608C751.415 137.032 750.935 136.573 750.316 136.232C749.698 135.891 748.919 135.72 747.98 135.72C747.063 135.72 746.231 135.933 745.484 136.36C744.759 136.765 744.183 137.363 743.756 138.152C743.33 138.92 743.116 139.859 743.116 140.968V141.256C743.116 142.365 743.33 143.315 743.756 144.104C744.183 144.893 744.759 145.491 745.484 145.896C746.231 146.301 747.063 146.504 747.98 146.504C749.367 146.504 750.423 146.152 751.148 145.448C751.874 144.723 752.332 143.805 752.524 142.696L755.724 143.432C755.468 144.52 755.01 145.523 754.348 146.44C753.708 147.357 752.855 148.093 751.788 148.648C750.722 149.181 749.431 149.448 747.916 149.448ZM759.526 149V133.224H762.822V149H759.526ZM761.19 131.08C760.55 131.08 760.006 130.877 759.558 130.472C759.131 130.045 758.918 129.501 758.918 128.84C758.918 128.179 759.131 127.645 759.558 127.24C760.006 126.813 760.55 126.6 761.19 126.6C761.851 126.6 762.395 126.813 762.822 127.24C763.248 127.645 763.462 128.179 763.462 128.84C763.462 129.501 763.248 130.045 762.822 130.472C762.395 130.877 761.851 131.08 761.19 131.08ZM767.713 155.4V133.224H770.945V135.496H771.457C771.863 134.792 772.471 134.163 773.281 133.608C774.113 133.053 775.297 132.776 776.833 132.776C778.156 132.776 779.361 133.096 780.449 133.736C781.559 134.376 782.444 135.304 783.105 136.52C783.788 137.715 784.129 139.165 784.129 140.872V141.352C784.129 143.059 783.799 144.52 783.137 145.736C782.476 146.931 781.591 147.848 780.481 148.488C779.372 149.128 778.156 149.448 776.833 149.448C775.809 149.448 774.945 149.32 774.241 149.064C773.537 148.808 772.972 148.488 772.545 148.104C772.119 147.699 771.777 147.283 771.521 146.856H771.009V155.4H767.713ZM775.873 146.568C777.324 146.568 778.508 146.109 779.425 145.192C780.343 144.275 780.801 142.963 780.801 141.256V140.968C780.801 139.283 780.332 137.981 779.393 137.064C778.476 136.147 777.303 135.688 775.873 135.688C774.465 135.688 773.292 136.147 772.353 137.064C771.436 137.981 770.977 139.283 770.977 140.968V141.256C770.977 142.963 771.436 144.275 772.353 145.192C773.292 146.109 774.465 146.568 775.873 146.568ZM793.109 149.448C791.979 149.448 790.965 149.256 790.069 148.872C789.195 148.488 788.491 147.923 787.957 147.176C787.445 146.429 787.189 145.523 787.189 144.456C787.189 143.368 787.445 142.472 787.957 141.768C788.491 141.043 789.205 140.499 790.101 140.136C791.019 139.773 792.053 139.592 793.205 139.592H798.005V138.568C798.005 137.651 797.728 136.915 797.173 136.36C796.619 135.805 795.765 135.528 794.613 135.528C793.483 135.528 792.619 135.795 792.021 136.328C791.424 136.861 791.029 137.555 790.837 138.408L787.765 137.416C788.021 136.563 788.427 135.795 788.981 135.112C789.557 134.408 790.315 133.843 791.253 133.416C792.192 132.989 793.323 132.776 794.645 132.776C796.693 132.776 798.304 133.299 799.477 134.344C800.651 135.389 801.237 136.872 801.237 138.792V145.288C801.237 145.928 801.536 146.248 802.133 146.248H803.477V149H801.013C800.267 149 799.659 148.808 799.189 148.424C798.72 148.04 798.485 147.517 798.485 146.856V146.76H798.005C797.835 147.08 797.579 147.453 797.237 147.88C796.896 148.307 796.395 148.68 795.733 149C795.072 149.299 794.197 149.448 793.109 149.448ZM793.589 146.728C794.912 146.728 795.979 146.355 796.789 145.608C797.6 144.84 798.005 143.795 798.005 142.472V142.152H793.397C792.523 142.152 791.819 142.344 791.285 142.728C790.752 143.091 790.485 143.635 790.485 144.36C790.485 145.085 790.763 145.661 791.317 146.088C791.872 146.515 792.629 146.728 793.589 146.728ZM806.682 149V133.224H809.914V135.592H810.426C810.725 134.952 811.258 134.355 812.026 133.8C812.794 133.245 813.935 132.968 815.45 132.968C816.645 132.968 817.701 133.235 818.618 133.768C819.557 134.301 820.293 135.059 820.826 136.04C821.359 137 821.626 138.163 821.626 139.528V149H818.33V139.784C818.33 138.419 817.989 137.416 817.306 136.776C816.623 136.115 815.685 135.784 814.49 135.784C813.125 135.784 812.026 136.232 811.194 137.128C810.383 138.024 809.978 139.325 809.978 141.032V149H806.682ZM831.852 149C830.892 149 830.124 148.712 829.548 148.136C828.993 147.56 828.716 146.792 828.716 145.832V136.008H824.364V133.224H828.716V128.008H832.012V133.224H836.716V136.008H832.012V145.256C832.012 145.896 832.311 146.216 832.908 146.216H836.204V149H831.852ZM847.052 149.448C845.047 149.448 843.383 149 842.06 148.104C840.738 147.208 839.927 145.853 839.628 144.04L842.7 143.304C842.871 144.179 843.159 144.872 843.564 145.384C843.97 145.896 844.471 146.259 845.068 146.472C845.687 146.685 846.348 146.792 847.052 146.792C848.098 146.792 848.898 146.589 849.452 146.184C850.028 145.779 850.316 145.256 850.316 144.616C850.316 143.976 850.05 143.507 849.516 143.208C848.983 142.909 848.194 142.664 847.148 142.472L846.06 142.28C844.994 142.088 844.023 141.811 843.148 141.448C842.274 141.085 841.58 140.584 841.068 139.944C840.556 139.304 840.3 138.483 840.3 137.48C840.3 135.987 840.855 134.835 841.964 134.024C843.074 133.192 844.546 132.776 846.38 132.776C848.151 132.776 849.602 133.181 850.732 133.992C851.884 134.781 852.631 135.859 852.972 137.224L849.9 138.088C849.708 137.128 849.303 136.456 848.684 136.072C848.066 135.667 847.298 135.464 846.38 135.464C845.484 135.464 844.78 135.635 844.268 135.976C843.756 136.296 843.5 136.755 843.5 137.352C843.5 137.992 843.746 138.461 844.236 138.76C844.748 139.059 845.431 139.283 846.284 139.432L847.404 139.624C848.535 139.816 849.57 140.083 850.508 140.424C851.447 140.765 852.183 141.256 852.716 141.896C853.271 142.536 853.548 143.389 853.548 144.456C853.548 146.035 852.962 147.261 851.788 148.136C850.615 149.011 849.036 149.448 847.052 149.448ZM871.477 149C870.517 149 869.749 148.712 869.173 148.136C868.618 147.56 868.341 146.792 868.341 145.832V136.008H863.989V133.224H868.341V128.008H871.637V133.224H876.341V136.008H871.637V145.256C871.637 145.896 871.936 146.216 872.533 146.216H875.829V149H871.477ZM880.213 149V126.6H883.509V135.464H884.021C884.235 135.059 884.533 134.664 884.917 134.28C885.323 133.896 885.845 133.587 886.485 133.352C887.147 133.096 887.979 132.968 888.981 132.968C890.176 132.968 891.232 133.235 892.149 133.768C893.088 134.301 893.824 135.059 894.357 136.04C894.891 137 895.157 138.163 895.157 139.528V149H891.861V139.784C891.861 138.419 891.52 137.416 890.837 136.776C890.155 136.115 889.216 135.784 888.021 135.784C886.656 135.784 885.557 136.232 884.725 137.128C883.915 138.024 883.509 139.325 883.509 141.032V149H880.213ZM899.901 149V133.224H903.197V149H899.901ZM901.565 131.08C900.925 131.08 900.381 130.877 899.933 130.472C899.506 130.045 899.293 129.501 899.293 128.84C899.293 128.179 899.506 127.645 899.933 127.24C900.381 126.813 900.925 126.6 901.565 126.6C902.226 126.6 902.77 126.813 903.197 127.24C903.623 127.645 903.837 128.179 903.837 128.84C903.837 129.501 903.623 130.045 903.197 130.472C902.77 130.877 902.226 131.08 901.565 131.08ZM908.088 149V133.224H911.32V135.592H911.832C912.131 134.952 912.664 134.355 913.432 133.8C914.2 133.245 915.342 132.968 916.856 132.968C918.051 132.968 919.107 133.235 920.024 133.768C920.963 134.301 921.699 135.059 922.232 136.04C922.766 137 923.032 138.163 923.032 139.528V149H919.736V139.784C919.736 138.419 919.395 137.416 918.712 136.776C918.03 136.115 917.091 135.784 915.896 135.784C914.531 135.784 913.432 136.232 912.6 137.128C911.79 138.024 911.384 139.325 911.384 141.032V149H908.088ZM927.776 149V126.6H931.072V139.368H931.584L937.792 133.224H942.176L934.208 140.872L942.432 149H938.08L931.584 142.44H931.072V149H927.776ZM959.477 149C958.517 149 957.749 148.712 957.173 148.136C956.618 147.56 956.341 146.792 956.341 145.832V136.008H951.989V133.224H956.341V128.008H959.637V133.224H964.341V136.008H959.637V145.256C959.637 145.896 959.936 146.216 960.533 146.216H963.829V149H959.477ZM968.213 149V126.6H971.509V135.464H972.021C972.235 135.059 972.533 134.664 972.917 134.28C973.323 133.896 973.845 133.587 974.485 133.352C975.147 133.096 975.979 132.968 976.981 132.968C978.176 132.968 979.232 133.235 980.149 133.768C981.088 134.301 981.824 135.059 982.357 136.04C982.891 137 983.157 138.163 983.157 139.528V149H979.861V139.784C979.861 138.419 979.52 137.416 978.837 136.776C978.155 136.115 977.216 135.784 976.021 135.784C974.656 135.784 973.557 136.232 972.725 137.128C971.915 138.024 971.509 139.325 971.509 141.032V149H968.213ZM995.133 149.448C993.533 149.448 992.135 149.117 990.941 148.456C989.746 147.773 988.807 146.824 988.125 145.608C987.463 144.371 987.133 142.941 987.133 141.32V140.936C987.133 139.293 987.463 137.864 988.125 136.648C988.786 135.411 989.703 134.461 990.877 133.8C992.071 133.117 993.447 132.776 995.005 132.776C996.519 132.776 997.842 133.117 998.973 133.8C1000.12 134.461 1001.02 135.389 1001.66 136.584C1002.3 137.779 1002.62 139.176 1002.62 140.776V142.024H990.493C990.535 143.411 990.994 144.52 991.869 145.352C992.765 146.163 993.874 146.568 995.197 146.568C996.434 146.568 997.362 146.291 997.981 145.736C998.621 145.181 999.111 144.541 999.453 143.816L1002.17 145.224C1001.87 145.821 1001.44 146.451 1000.86 147.112C1000.31 147.773 999.57 148.328 998.653 148.776C997.735 149.224 996.562 149.448 995.133 149.448ZM990.525 139.496H999.261C999.175 138.301 998.749 137.373 997.981 136.712C997.213 136.029 996.21 135.688 994.973 135.688C993.735 135.688 992.722 136.029 991.933 136.712C991.165 137.373 990.695 138.301 990.525 139.496ZM1013.82 149V145.928H1016.82V129.672H1013.82V126.6H1025.18C1026.52 126.6 1027.69 126.835 1028.7 127.304C1029.7 127.752 1030.48 128.403 1031.03 129.256C1031.61 130.088 1031.9 131.08 1031.9 132.232V132.552C1031.9 133.576 1031.7 134.419 1031.32 135.08C1030.94 135.741 1030.47 136.253 1029.91 136.616C1029.38 136.979 1028.87 137.235 1028.38 137.384V137.896C1028.87 138.024 1029.39 138.28 1029.94 138.664C1030.52 139.027 1031 139.539 1031.38 140.2C1031.79 140.861 1031.99 141.725 1031.99 142.792V143.112C1031.99 144.349 1031.7 145.405 1031.13 146.28C1030.55 147.155 1029.75 147.827 1028.73 148.296C1027.73 148.765 1026.56 149 1025.24 149H1013.82ZM1020.31 145.864H1024.82C1025.98 145.864 1026.88 145.587 1027.54 145.032C1028.21 144.477 1028.54 143.709 1028.54 142.728V142.44C1028.54 141.459 1028.21 140.691 1027.54 140.136C1026.9 139.581 1026 139.304 1024.82 139.304H1020.31V145.864ZM1020.31 136.136H1024.82C1025.91 136.136 1026.79 135.869 1027.45 135.336C1028.11 134.781 1028.44 134.035 1028.44 133.096V132.776C1028.44 131.837 1028.11 131.101 1027.45 130.568C1026.81 130.013 1025.93 129.736 1024.82 129.736H1020.31V136.136ZM1035.96 149V126.6H1039.26V149H1035.96ZM1050.2 149.288C1049 149.288 1047.94 149.021 1047 148.488C1046.06 147.955 1045.32 147.197 1044.79 146.216C1044.26 145.235 1043.99 144.061 1043.99 142.696V133.224H1047.29V142.472C1047.29 143.837 1047.63 144.851 1048.31 145.512C1048.99 146.152 1049.94 146.472 1051.16 146.472C1052.5 146.472 1053.58 146.024 1054.39 145.128C1055.22 144.211 1055.64 142.899 1055.64 141.192V133.224H1058.93V149H1055.7V146.632H1055.19C1054.89 147.272 1054.36 147.88 1053.59 148.456C1052.82 149.011 1051.69 149.288 1050.2 149.288ZM1070.34 149.448C1069.03 149.448 1067.83 149.128 1066.72 148.488C1065.61 147.848 1064.71 146.931 1064.03 145.736C1063.37 144.52 1063.04 143.059 1063.04 141.352V140.872C1063.04 139.187 1063.37 137.736 1064.03 136.52C1064.69 135.304 1065.58 134.376 1066.69 133.736C1067.8 133.096 1069.01 132.776 1070.34 132.776C1071.36 132.776 1072.21 132.904 1072.9 133.16C1073.6 133.416 1074.18 133.747 1074.62 134.152C1075.07 134.536 1075.41 134.941 1075.65 135.368H1076.16V126.6H1079.45V149H1076.22V146.76H1075.71C1075.31 147.443 1074.69 148.061 1073.86 148.616C1073.04 149.171 1071.87 149.448 1070.34 149.448ZM1071.26 146.568C1072.69 146.568 1073.87 146.109 1074.78 145.192C1075.72 144.275 1076.19 142.963 1076.19 141.256V140.968C1076.19 139.283 1075.73 137.981 1074.82 137.064C1073.9 136.147 1072.71 135.688 1071.26 135.688C1069.86 135.688 1068.68 136.147 1067.74 137.064C1066.83 137.981 1066.37 139.283 1066.37 140.968V141.256C1066.37 142.963 1066.83 144.275 1067.74 145.192C1068.68 146.109 1069.86 146.568 1071.26 146.568ZM1097.36 149.448C1096.23 149.448 1095.22 149.256 1094.32 148.872C1093.44 148.488 1092.74 147.923 1092.21 147.176C1091.7 146.429 1091.44 145.523 1091.44 144.456C1091.44 143.368 1091.7 142.472 1092.21 141.768C1092.74 141.043 1093.46 140.499 1094.35 140.136C1095.27 139.773 1096.3 139.592 1097.46 139.592H1102.26V138.568C1102.26 137.651 1101.98 136.915 1101.42 136.36C1100.87 135.805 1100.02 135.528 1098.86 135.528C1097.73 135.528 1096.87 135.795 1096.27 136.328C1095.67 136.861 1095.28 137.555 1095.09 138.408L1092.02 137.416C1092.27 136.563 1092.68 135.795 1093.23 135.112C1093.81 134.408 1094.56 133.843 1095.5 133.416C1096.44 132.989 1097.57 132.776 1098.9 132.776C1100.94 132.776 1102.55 133.299 1103.73 134.344C1104.9 135.389 1105.49 136.872 1105.49 138.792V145.288C1105.49 145.928 1105.79 146.248 1106.38 146.248H1107.73V149H1105.26C1104.52 149 1103.91 148.808 1103.44 148.424C1102.97 148.04 1102.74 147.517 1102.74 146.856V146.76H1102.26C1102.08 147.08 1101.83 147.453 1101.49 147.88C1101.15 148.307 1100.64 148.68 1099.98 149C1099.32 149.299 1098.45 149.448 1097.36 149.448ZM1097.84 146.728C1099.16 146.728 1100.23 146.355 1101.04 145.608C1101.85 144.84 1102.26 143.795 1102.26 142.472V142.152H1097.65C1096.77 142.152 1096.07 142.344 1095.54 142.728C1095 143.091 1094.74 143.635 1094.74 144.36C1094.74 145.085 1095.01 145.661 1095.57 146.088C1096.12 146.515 1096.88 146.728 1097.84 146.728ZM1110.93 155.4V133.224H1114.16V135.496H1114.68C1115.08 134.792 1115.69 134.163 1116.5 133.608C1117.33 133.053 1118.52 132.776 1120.05 132.776C1121.37 132.776 1122.58 133.096 1123.67 133.736C1124.78 134.376 1125.66 135.304 1126.32 136.52C1127.01 137.715 1127.35 139.165 1127.35 140.872V141.352C1127.35 143.059 1127.02 144.52 1126.36 145.736C1125.69 146.931 1124.81 147.848 1123.7 148.488C1122.59 149.128 1121.37 149.448 1120.05 149.448C1119.03 149.448 1118.16 149.32 1117.46 149.064C1116.76 148.808 1116.19 148.488 1115.76 148.104C1115.34 147.699 1115 147.283 1114.74 146.856H1114.23V155.4H1110.93ZM1119.09 146.568C1120.54 146.568 1121.73 146.109 1122.64 145.192C1123.56 144.275 1124.02 142.963 1124.02 141.256V140.968C1124.02 139.283 1123.55 137.981 1122.61 137.064C1121.69 136.147 1120.52 135.688 1119.09 135.688C1117.68 135.688 1116.51 136.147 1115.57 137.064C1114.65 137.981 1114.2 139.283 1114.2 140.968V141.256C1114.2 142.963 1114.65 144.275 1115.57 145.192C1116.51 146.109 1117.68 146.568 1119.09 146.568ZM1131.43 155.4V133.224H1134.66V135.496H1135.18C1135.58 134.792 1136.19 134.163 1137 133.608C1137.83 133.053 1139.02 132.776 1140.55 132.776C1141.87 132.776 1143.08 133.096 1144.17 133.736C1145.28 134.376 1146.16 135.304 1146.82 136.52C1147.51 137.715 1147.85 139.165 1147.85 140.872V141.352C1147.85 143.059 1147.52 144.52 1146.86 145.736C1146.19 146.931 1145.31 147.848 1144.2 148.488C1143.09 149.128 1141.87 149.448 1140.55 149.448C1139.53 149.448 1138.66 149.32 1137.96 149.064C1137.26 148.808 1136.69 148.488 1136.26 148.104C1135.84 147.699 1135.5 147.283 1135.24 146.856H1134.73V155.4H1131.43ZM1139.59 146.568C1141.04 146.568 1142.23 146.109 1143.14 145.192C1144.06 144.275 1144.52 142.963 1144.52 141.256V140.968C1144.52 139.283 1144.05 137.981 1143.11 137.064C1142.19 136.147 1141.02 135.688 1139.59 135.688C1138.18 135.688 1137.01 136.147 1136.07 137.064C1135.15 137.981 1134.7 139.283 1134.7 140.968V141.256C1134.7 142.963 1135.15 144.275 1136.07 145.192C1137.01 146.109 1138.18 146.568 1139.59 146.568ZM494.16 198L491.472 182.224H494.768L496.752 195.792H497.264L500.016 182.224H505.36L508.08 195.792H508.592L510.576 182.224H513.872L511.184 198H505.648L502.928 184.464H502.416L499.696 198H494.16ZM524.98 198.448C523.402 198.448 521.994 198.128 520.756 197.488C519.54 196.827 518.58 195.888 517.876 194.672C517.172 193.456 516.82 192.016 516.82 190.352V189.872C516.82 188.208 517.172 186.779 517.876 185.584C518.58 184.368 519.54 183.429 520.756 182.768C521.994 182.107 523.402 181.776 524.98 181.776C526.559 181.776 527.967 182.107 529.204 182.768C530.442 183.429 531.412 184.368 532.116 185.584C532.82 186.779 533.172 188.208 533.172 189.872V190.352C533.172 192.016 532.82 193.456 532.116 194.672C531.412 195.888 530.442 196.827 529.204 197.488C527.967 198.128 526.559 198.448 524.98 198.448ZM524.98 195.504C526.431 195.504 527.604 195.045 528.5 194.128C529.418 193.189 529.876 191.899 529.876 190.256V189.968C529.876 188.325 529.428 187.045 528.532 186.128C527.636 185.189 526.452 184.72 524.98 184.72C523.551 184.72 522.378 185.189 521.46 186.128C520.564 187.045 520.116 188.325 520.116 189.968V190.256C520.116 191.899 520.564 193.189 521.46 194.128C522.378 195.045 523.551 195.504 524.98 195.504ZM543.324 198.288C542.129 198.288 541.062 198.021 540.124 197.488C539.185 196.955 538.449 196.197 537.916 195.216C537.382 194.235 537.116 193.061 537.116 191.696V182.224H540.412V191.472C540.412 192.837 540.753 193.851 541.436 194.512C542.118 195.152 543.068 195.472 544.284 195.472C545.628 195.472 546.705 195.024 547.516 194.128C548.348 193.211 548.764 191.899 548.764 190.192V182.224H552.06V198H548.828V195.632H548.316C548.017 196.272 547.484 196.88 546.716 197.456C545.948 198.011 544.817 198.288 543.324 198.288ZM556.932 198V175.6H560.228V198H556.932ZM571.648 198.448C570.346 198.448 569.141 198.128 568.032 197.488C566.922 196.848 566.026 195.931 565.344 194.736C564.682 193.52 564.352 192.059 564.352 190.352V189.872C564.352 188.187 564.682 186.736 565.344 185.52C566.005 184.304 566.89 183.376 568 182.736C569.109 182.096 570.325 181.776 571.648 181.776C572.672 181.776 573.525 181.904 574.208 182.16C574.912 182.416 575.488 182.747 575.936 183.152C576.384 183.536 576.725 183.941 576.96 184.368H577.472V175.6H580.767V198H577.536V195.76H577.024C576.618 196.443 576 197.061 575.168 197.616C574.357 198.171 573.184 198.448 571.648 198.448ZM572.576 195.568C574.005 195.568 575.178 195.109 576.096 194.192C577.034 193.275 577.504 191.963 577.504 190.256V189.968C577.504 188.283 577.045 186.981 576.128 186.064C575.21 185.147 574.026 184.688 572.576 184.688C571.168 184.688 569.994 185.147 569.056 186.064C568.138 186.981 567.68 188.283 567.68 189.968V190.256C567.68 191.963 568.138 193.275 569.056 194.192C569.994 195.109 571.168 195.568 572.576 195.568ZM602.896 198.448C601.36 198.448 600.176 198.171 599.344 197.616C598.533 197.061 597.925 196.443 597.52 195.76H597.008V198H593.776V175.6H597.072V184.368H597.584C597.84 183.941 598.181 183.536 598.608 183.152C599.034 182.747 599.6 182.416 600.304 182.16C601.008 181.904 601.872 181.776 602.896 181.776C604.218 181.776 605.434 182.096 606.544 182.736C607.653 183.376 608.538 184.304 609.2 185.52C609.861 186.736 610.192 188.187 610.192 189.872V190.352C610.192 192.059 609.85 193.52 609.168 194.736C608.506 195.931 607.621 196.848 606.512 197.488C605.424 198.128 604.218 198.448 602.896 198.448ZM601.936 195.568C603.365 195.568 604.538 195.109 605.456 194.192C606.394 193.275 606.864 191.963 606.864 190.256V189.968C606.864 188.283 606.405 186.981 605.488 186.064C604.57 185.147 603.386 184.688 601.936 184.688C600.528 184.688 599.354 185.147 598.416 186.064C597.498 186.981 597.04 188.283 597.04 189.968V190.256C597.04 191.963 597.498 193.275 598.416 194.192C599.354 195.109 600.528 195.568 601.936 195.568ZM614.276 198V182.224H617.508V184.08H618.02C618.276 183.419 618.681 182.939 619.236 182.64C619.812 182.32 620.516 182.16 621.348 182.16H623.236V185.136H621.22C620.153 185.136 619.278 185.435 618.596 186.032C617.913 186.608 617.572 187.504 617.572 188.72V198H614.276ZM626.651 198V182.224H629.947V198H626.651ZM628.315 180.08C627.675 180.08 627.131 179.877 626.683 179.472C626.256 179.045 626.043 178.501 626.043 177.84C626.043 177.179 626.256 176.645 626.683 176.24C627.131 175.813 627.675 175.6 628.315 175.6C628.976 175.6 629.52 175.813 629.947 176.24C630.373 176.645 630.587 177.179 630.587 177.84C630.587 178.501 630.373 179.045 629.947 179.472C629.52 179.877 628.976 180.08 628.315 180.08ZM641.366 198.448C640.065 198.448 638.86 198.128 637.75 197.488C636.641 196.848 635.745 195.931 635.062 194.736C634.401 193.52 634.07 192.059 634.07 190.352V189.872C634.07 188.187 634.401 186.736 635.062 185.52C635.724 184.304 636.609 183.376 637.718 182.736C638.828 182.096 640.044 181.776 641.366 181.776C642.39 181.776 643.244 181.904 643.926 182.16C644.63 182.416 645.206 182.747 645.654 183.152C646.102 183.536 646.444 183.941 646.678 184.368H647.19V175.6H650.486V198H647.254V195.76H646.742C646.337 196.443 645.718 197.061 644.886 197.616C644.076 198.171 642.902 198.448 641.366 198.448ZM642.294 195.568C643.724 195.568 644.897 195.109 645.814 194.192C646.753 193.275 647.222 191.963 647.222 190.256V189.968C647.222 188.283 646.764 186.981 645.846 186.064C644.929 185.147 643.745 184.688 642.294 184.688C640.886 184.688 639.713 185.147 638.774 186.064C637.857 186.981 637.398 188.283 637.398 189.968V190.256C637.398 191.963 637.857 193.275 638.774 194.192C639.713 195.109 640.886 195.568 642.294 195.568ZM654.57 190.192V189.712C654.57 188.048 654.901 186.629 655.562 185.456C656.245 184.283 657.141 183.376 658.25 182.736C659.36 182.096 660.576 181.776 661.898 181.776C663.434 181.776 664.608 182.064 665.418 182.64C666.25 183.216 666.858 183.835 667.242 184.496H667.754V182.224H670.954V201.232C670.954 202.192 670.666 202.96 670.09 203.536C669.536 204.112 668.768 204.4 667.786 204.4H657.162V201.52H666.762C667.381 201.52 667.69 201.2 667.69 200.56V195.536H667.178C666.944 195.92 666.613 196.315 666.186 196.72C665.76 197.125 665.194 197.456 664.49 197.712C663.808 197.968 662.944 198.096 661.898 198.096C660.576 198.096 659.349 197.787 658.218 197.168C657.109 196.528 656.224 195.621 655.562 194.448C654.901 193.253 654.57 191.835 654.57 190.192ZM662.794 195.216C664.224 195.216 665.397 194.768 666.314 193.872C667.253 192.955 667.722 191.696 667.722 190.096V189.808C667.722 188.165 667.264 186.907 666.346 186.032C665.429 185.136 664.245 184.688 662.794 184.688C661.386 184.688 660.213 185.136 659.274 186.032C658.357 186.907 657.898 188.165 657.898 189.808V190.096C657.898 191.696 658.357 192.955 659.274 193.872C660.213 194.768 661.386 195.216 662.794 195.216ZM683.039 198.448C681.439 198.448 680.042 198.117 678.847 197.456C677.652 196.773 676.714 195.824 676.031 194.608C675.37 193.371 675.039 191.941 675.039 190.32V189.936C675.039 188.293 675.37 186.864 676.031 185.648C676.692 184.411 677.61 183.461 678.783 182.8C679.978 182.117 681.354 181.776 682.911 181.776C684.426 181.776 685.748 182.117 686.879 182.8C688.031 183.461 688.927 184.389 689.567 185.584C690.207 186.779 690.527 188.176 690.527 189.776V191.024H678.399C678.442 192.411 678.9 193.52 679.775 194.352C680.671 195.163 681.78 195.568 683.103 195.568C684.34 195.568 685.268 195.291 685.887 194.736C686.527 194.181 687.018 193.541 687.359 192.816L690.079 194.224C689.78 194.821 689.343 195.451 688.767 196.112C688.212 196.773 687.476 197.328 686.559 197.776C685.642 198.224 684.468 198.448 683.039 198.448ZM678.431 188.496H687.167C687.082 187.301 686.655 186.373 685.887 185.712C685.119 185.029 684.116 184.688 682.879 184.688C681.642 184.688 680.628 185.029 679.839 185.712C679.071 186.373 678.602 187.301 678.431 188.496ZM708.571 198C707.611 198 706.843 197.712 706.267 197.136C705.712 196.56 705.435 195.792 705.435 194.832V185.008H701.083V182.224H705.435V177.008H708.731V182.224H713.435V185.008H708.731V194.256C708.731 194.896 709.029 195.216 709.627 195.216H712.923V198H708.571ZM717.307 198V175.6H720.603V184.464H721.115C721.328 184.059 721.627 183.664 722.011 183.28C722.416 182.896 722.939 182.587 723.579 182.352C724.24 182.096 725.072 181.968 726.075 181.968C727.27 181.968 728.326 182.235 729.243 182.768C730.182 183.301 730.918 184.059 731.451 185.04C731.984 186 732.251 187.163 732.251 188.528V198H728.955V188.784C728.955 187.419 728.614 186.416 727.931 185.776C727.248 185.115 726.31 184.784 725.115 184.784C723.75 184.784 722.651 185.232 721.819 186.128C721.008 187.024 720.603 188.325 720.603 190.032V198H717.307ZM744.227 198.448C742.627 198.448 741.229 198.117 740.035 197.456C738.84 196.773 737.901 195.824 737.219 194.608C736.557 193.371 736.227 191.941 736.227 190.32V189.936C736.227 188.293 736.557 186.864 737.219 185.648C737.88 184.411 738.797 183.461 739.971 182.8C741.165 182.117 742.541 181.776 744.099 181.776C745.613 181.776 746.936 182.117 748.067 182.8C749.219 183.461 750.115 184.389 750.755 185.584C751.395 186.779 751.715 188.176 751.715 189.776V191.024H739.587C739.629 192.411 740.088 193.52 740.963 194.352C741.859 195.163 742.968 195.568 744.291 195.568C745.528 195.568 746.456 195.291 747.075 194.736C747.715 194.181 748.205 193.541 748.547 192.816L751.267 194.224C750.968 194.821 750.531 195.451 749.955 196.112C749.4 196.773 748.664 197.328 747.747 197.776C746.829 198.224 745.656 198.448 744.227 198.448ZM739.619 188.496H748.355C748.269 187.301 747.843 186.373 747.075 185.712C746.307 185.029 745.304 184.688 744.067 184.688C742.829 184.688 741.816 185.029 741.027 185.712C740.259 186.373 739.789 187.301 739.619 188.496ZM763.07 190.192V189.712C763.07 188.048 763.401 186.629 764.062 185.456C764.745 184.283 765.641 183.376 766.75 182.736C767.86 182.096 769.076 181.776 770.398 181.776C771.934 181.776 773.108 182.064 773.918 182.64C774.75 183.216 775.358 183.835 775.742 184.496H776.254V182.224H779.454V201.232C779.454 202.192 779.166 202.96 778.59 203.536C778.036 204.112 777.268 204.4 776.286 204.4H765.662V201.52H775.262C775.881 201.52 776.19 201.2 776.19 200.56V195.536H775.678C775.444 195.92 775.113 196.315 774.686 196.72C774.26 197.125 773.694 197.456 772.99 197.712C772.308 197.968 771.444 198.096 770.398 198.096C769.076 198.096 767.849 197.787 766.718 197.168C765.609 196.528 764.724 195.621 764.062 194.448C763.401 193.253 763.07 191.835 763.07 190.192ZM771.294 195.216C772.724 195.216 773.897 194.768 774.814 193.872C775.753 192.955 776.222 191.696 776.222 190.096V189.808C776.222 188.165 775.764 186.907 774.846 186.032C773.929 185.136 772.745 184.688 771.294 184.688C769.886 184.688 768.713 185.136 767.774 186.032C766.857 186.907 766.398 188.165 766.398 189.808V190.096C766.398 191.696 766.857 192.955 767.774 193.872C768.713 194.768 769.886 195.216 771.294 195.216ZM789.203 198.448C788.072 198.448 787.059 198.256 786.163 197.872C785.288 197.488 784.584 196.923 784.051 196.176C783.539 195.429 783.283 194.523 783.283 193.456C783.283 192.368 783.539 191.472 784.051 190.768C784.584 190.043 785.299 189.499 786.195 189.136C787.112 188.773 788.147 188.592 789.299 188.592H794.099V187.568C794.099 186.651 793.822 185.915 793.267 185.36C792.712 184.805 791.859 184.528 790.707 184.528C789.576 184.528 788.712 184.795 788.115 185.328C787.518 185.861 787.123 186.555 786.931 187.408L783.859 186.416C784.115 185.563 784.52 184.795 785.075 184.112C785.651 183.408 786.408 182.843 787.347 182.416C788.286 181.989 789.416 181.776 790.739 181.776C792.787 181.776 794.398 182.299 795.571 183.344C796.744 184.389 797.331 185.872 797.331 187.792V194.288C797.331 194.928 797.63 195.248 798.227 195.248H799.571V198H797.107C796.36 198 795.752 197.808 795.283 197.424C794.814 197.04 794.579 196.517 794.579 195.856V195.76H794.099C793.928 196.08 793.672 196.453 793.331 196.88C792.99 197.307 792.488 197.68 791.827 198C791.166 198.299 790.291 198.448 789.203 198.448ZM789.683 195.728C791.006 195.728 792.072 195.355 792.883 194.608C793.694 193.84 794.099 192.795 794.099 191.472V191.152H789.491C788.616 191.152 787.912 191.344 787.379 191.728C786.846 192.091 786.579 192.635 786.579 193.36C786.579 194.085 786.856 194.661 787.411 195.088C787.966 195.515 788.723 195.728 789.683 195.728ZM802.776 204.4V182.224H806.008V184.496H806.52C806.925 183.792 807.533 183.163 808.344 182.608C809.176 182.053 810.36 181.776 811.896 181.776C813.218 181.776 814.424 182.096 815.512 182.736C816.621 183.376 817.506 184.304 818.168 185.52C818.85 186.715 819.192 188.165 819.192 189.872V190.352C819.192 192.059 818.861 193.52 818.2 194.736C817.538 195.931 816.653 196.848 815.544 197.488C814.434 198.128 813.218 198.448 811.896 198.448C810.872 198.448 810.008 198.32 809.304 198.064C808.6 197.808 808.034 197.488 807.608 197.104C807.181 196.699 806.84 196.283 806.584 195.856H806.072V204.4H802.776ZM810.936 195.568C812.386 195.568 813.57 195.109 814.488 194.192C815.405 193.275 815.864 191.963 815.864 190.256V189.968C815.864 188.283 815.394 186.981 814.456 186.064C813.538 185.147 812.365 184.688 810.936 184.688C809.528 184.688 808.354 185.147 807.416 186.064C806.498 186.981 806.04 188.283 806.04 189.968V190.256C806.04 191.963 806.498 193.275 807.416 194.192C808.354 195.109 809.528 195.568 810.936 195.568ZM838.824 198.448C837.245 198.448 835.837 198.128 834.6 197.488C833.384 196.827 832.424 195.888 831.72 194.672C831.016 193.456 830.664 192.016 830.664 190.352V189.872C830.664 188.208 831.016 186.779 831.72 185.584C832.424 184.368 833.384 183.429 834.6 182.768C835.837 182.107 837.245 181.776 838.824 181.776C840.403 181.776 841.811 182.107 843.048 182.768C844.285 183.429 845.256 184.368 845.96 185.584C846.664 186.779 847.016 188.208 847.016 189.872V190.352C847.016 192.016 846.664 193.456 845.96 194.672C845.256 195.888 844.285 196.827 843.048 197.488C841.811 198.128 840.403 198.448 838.824 198.448ZM838.824 195.504C840.275 195.504 841.448 195.045 842.344 194.128C843.261 193.189 843.72 191.899 843.72 190.256V189.968C843.72 188.325 843.272 187.045 842.376 186.128C841.48 185.189 840.296 184.72 838.824 184.72C837.395 184.72 836.221 185.189 835.304 186.128C834.408 187.045 833.96 188.325 833.96 189.968V190.256C833.96 191.899 834.408 193.189 835.304 194.128C836.221 195.045 837.395 195.504 838.824 195.504ZM853.374 198V185.008H848.958V182.224H853.374V178.768C853.374 177.808 853.662 177.04 854.238 176.464C854.814 175.888 855.582 175.6 856.542 175.6H860.606V178.384H857.598C856.979 178.384 856.67 178.704 856.67 179.344V182.224H861.214V185.008H856.67V198H853.374ZM605.901 247V231.224H609.197V247H605.901ZM607.565 229.08C606.925 229.08 606.381 228.877 605.933 228.472C605.506 228.045 605.293 227.501 605.293 226.84C605.293 226.179 605.506 225.645 605.933 225.24C606.381 224.813 606.925 224.6 607.565 224.6C608.226 224.6 608.77 224.813 609.197 225.24C609.623 225.645 609.837 226.179 609.837 226.84C609.837 227.501 609.623 228.045 609.197 228.472C608.77 228.877 608.226 229.08 607.565 229.08ZM614.088 247V231.224H617.32V233.592H617.832C618.131 232.952 618.664 232.355 619.432 231.8C620.2 231.245 621.342 230.968 622.856 230.968C624.051 230.968 625.107 231.235 626.024 231.768C626.963 232.301 627.699 233.059 628.232 234.04C628.766 235 629.032 236.163 629.032 237.528V247H625.736V237.784C625.736 236.419 625.395 235.416 624.712 234.776C624.03 234.115 623.091 233.784 621.896 233.784C620.531 233.784 619.432 234.232 618.6 235.128C617.79 236.024 617.384 237.325 617.384 239.032V247H614.088ZM639.766 247L646.166 224.6H652.246L658.614 247H655.062L653.59 241.72H644.822L643.35 247H639.766ZM645.686 238.52H652.726L649.462 226.744H648.95L645.686 238.52ZM663.874 247V234.008H659.458V231.224H663.874V227.768C663.874 226.808 664.162 226.04 664.738 225.464C665.314 224.888 666.082 224.6 667.042 224.6H671.106V227.384H668.098C667.479 227.384 667.17 227.704 667.17 228.344V231.224H671.714V234.008H667.17V247H663.874ZM675.088 247V231.224H678.32V233.08H678.832C679.088 232.419 679.494 231.939 680.048 231.64C680.624 231.32 681.328 231.16 682.16 231.16H684.048V234.136H682.032C680.966 234.136 680.091 234.435 679.408 235.032C678.726 235.608 678.384 236.504 678.384 237.72V247H675.088ZM687.463 247V231.224H690.759V247H687.463ZM689.127 229.08C688.487 229.08 687.943 228.877 687.495 228.472C687.069 228.045 686.855 227.501 686.855 226.84C686.855 226.179 687.069 225.645 687.495 225.24C687.943 224.813 688.487 224.6 689.127 224.6C689.789 224.6 690.333 224.813 690.759 225.24C691.186 225.645 691.399 226.179 691.399 226.84C691.399 227.501 691.186 228.045 690.759 228.472C690.333 228.877 689.789 229.08 689.127 229.08ZM702.979 247.448C701.464 247.448 700.088 247.128 698.851 246.488C697.635 245.848 696.664 244.92 695.939 243.704C695.235 242.488 694.883 241.027 694.883 239.32V238.904C694.883 237.197 695.235 235.747 695.939 234.552C696.664 233.336 697.635 232.408 698.851 231.768C700.088 231.107 701.464 230.776 702.979 230.776C704.493 230.776 705.784 231.053 706.851 231.608C707.917 232.163 708.771 232.899 709.411 233.816C710.072 234.733 710.499 235.747 710.691 236.856L707.491 237.528C707.384 236.824 707.16 236.184 706.819 235.608C706.477 235.032 705.997 234.573 705.379 234.232C704.76 233.891 703.981 233.72 703.043 233.72C702.125 233.72 701.293 233.933 700.547 234.36C699.821 234.765 699.245 235.363 698.819 236.152C698.392 236.92 698.179 237.859 698.179 238.968V239.256C698.179 240.365 698.392 241.315 698.819 242.104C699.245 242.893 699.821 243.491 700.547 243.896C701.293 244.301 702.125 244.504 703.043 244.504C704.429 244.504 705.485 244.152 706.211 243.448C706.936 242.723 707.395 241.805 707.587 240.696L710.787 241.432C710.531 242.52 710.072 243.523 709.411 244.44C708.771 245.357 707.917 246.093 706.851 246.648C705.784 247.181 704.493 247.448 702.979 247.448ZM719.484 247.448C718.354 247.448 717.34 247.256 716.444 246.872C715.57 246.488 714.866 245.923 714.332 245.176C713.82 244.429 713.564 243.523 713.564 242.456C713.564 241.368 713.82 240.472 714.332 239.768C714.866 239.043 715.58 238.499 716.476 238.136C717.394 237.773 718.428 237.592 719.58 237.592H724.38V236.568C724.38 235.651 724.103 234.915 723.548 234.36C722.994 233.805 722.14 233.528 720.988 233.528C719.858 233.528 718.994 233.795 718.396 234.328C717.799 234.861 717.404 235.555 717.212 236.408L714.14 235.416C714.396 234.563 714.802 233.795 715.356 233.112C715.932 232.408 716.69 231.843 717.628 231.416C718.567 230.989 719.698 230.776 721.02 230.776C723.068 230.776 724.679 231.299 725.852 232.344C727.026 233.389 727.612 234.872 727.612 236.792V243.288C727.612 243.928 727.911 244.248 728.508 244.248H729.852V247H727.388C726.642 247 726.034 246.808 725.564 246.424C725.095 246.04 724.86 245.517 724.86 244.856V244.76H724.38C724.21 245.08 723.954 245.453 723.612 245.88C723.271 246.307 722.77 246.68 722.108 247C721.447 247.299 720.572 247.448 719.484 247.448ZM719.964 244.728C721.287 244.728 722.354 244.355 723.164 243.608C723.975 242.84 724.38 241.795 724.38 240.472V240.152H719.772C718.898 240.152 718.194 240.344 717.66 240.728C717.127 241.091 716.86 241.635 716.86 242.36C716.86 243.085 717.138 243.661 717.692 244.088C718.247 244.515 719.004 244.728 719.964 244.728Z" fill="#202020"/>
<circle cx="245" cy="202" r="157" fill="#3D698C"/>
<path d="M402 202C402 170.948 392.792 140.594 375.541 114.775C358.289 88.957 333.769 68.8339 305.081 56.9509C276.393 45.068 244.826 41.9588 214.371 48.0167C183.916 54.0746 155.941 69.0274 133.984 90.9842L245 202H402Z" fill="#47ACFF"/>
<path d="M133.984 90.9842C108.543 116.425 92.612 149.833 88.8572 185.616L245 202L133.984 90.9842Z" fill="#022A3B"/>
<path d="M223.08 271V265.92L218.22 257H220.66L224.02 263.34H224.32L227.68 257H230.12L225.26 265.92V271H223.08ZM234.645 271.28C233.645 271.28 232.772 271.073 232.025 270.66C231.279 270.233 230.692 269.64 230.265 268.88C229.852 268.107 229.645 267.213 229.645 266.2V265.96C229.645 264.933 229.852 264.04 230.265 263.28C230.679 262.507 231.252 261.913 231.985 261.5C232.732 261.073 233.592 260.86 234.565 260.86C235.512 260.86 236.339 261.073 237.045 261.5C237.765 261.913 238.325 262.493 238.725 263.24C239.125 263.987 239.325 264.86 239.325 265.86V266.64H231.745C231.772 267.507 232.059 268.2 232.605 268.72C233.165 269.227 233.859 269.48 234.685 269.48C235.459 269.48 236.039 269.307 236.425 268.96C236.825 268.613 237.132 268.213 237.345 267.76L239.045 268.64C238.859 269.013 238.585 269.407 238.225 269.82C237.879 270.233 237.419 270.58 236.845 270.86C236.272 271.14 235.539 271.28 234.645 271.28ZM231.765 265.06H237.225C237.172 264.313 236.905 263.733 236.425 263.32C235.945 262.893 235.319 262.68 234.545 262.68C233.772 262.68 233.139 262.893 232.645 263.32C232.165 263.733 231.872 264.313 231.765 265.06ZM245.845 271.28C244.592 271.28 243.552 271 242.725 270.44C241.898 269.88 241.392 269.033 241.205 267.9L243.125 267.44C243.232 267.987 243.412 268.42 243.665 268.74C243.918 269.06 244.232 269.287 244.605 269.42C244.992 269.553 245.405 269.62 245.845 269.62C246.498 269.62 246.998 269.493 247.345 269.24C247.705 268.987 247.885 268.66 247.885 268.26C247.885 267.86 247.718 267.567 247.385 267.38C247.052 267.193 246.558 267.04 245.905 266.92L245.225 266.8C244.558 266.68 243.952 266.507 243.405 266.28C242.858 266.053 242.425 265.74 242.105 265.34C241.785 264.94 241.625 264.427 241.625 263.8C241.625 262.867 241.972 262.147 242.665 261.64C243.358 261.12 244.278 260.86 245.425 260.86C246.532 260.86 247.438 261.113 248.145 261.62C248.865 262.113 249.332 262.787 249.545 263.64L247.625 264.18C247.505 263.58 247.252 263.16 246.865 262.92C246.478 262.667 245.998 262.54 245.425 262.54C244.865 262.54 244.425 262.647 244.105 262.86C243.785 263.06 243.625 263.347 243.625 263.72C243.625 264.12 243.778 264.413 244.085 264.6C244.405 264.787 244.832 264.927 245.365 265.02L246.065 265.14C246.772 265.26 247.418 265.427 248.005 265.64C248.592 265.853 249.052 266.16 249.385 266.56C249.732 266.96 249.905 267.493 249.905 268.16C249.905 269.147 249.538 269.913 248.805 270.46C248.072 271.007 247.085 271.28 245.845 271.28Z" fill="white"/>
<path d="M117.46 144V130H121.62L125.42 142.56H125.74V130H127.88V144H123.72L119.92 131.42H119.6V144H117.46ZM135.48 144.28C134.493 144.28 133.613 144.08 132.84 143.68C132.08 143.267 131.48 142.68 131.04 141.92C130.6 141.16 130.38 140.26 130.38 139.22V138.92C130.38 137.88 130.6 136.987 131.04 136.24C131.48 135.48 132.08 134.893 132.84 134.48C133.613 134.067 134.493 133.86 135.48 133.86C136.467 133.86 137.347 134.067 138.12 134.48C138.893 134.893 139.5 135.48 139.94 136.24C140.38 136.987 140.6 137.88 140.6 138.92V139.22C140.6 140.26 140.38 141.16 139.94 141.92C139.5 142.68 138.893 143.267 138.12 143.68C137.347 144.08 136.467 144.28 135.48 144.28ZM135.48 142.44C136.387 142.44 137.12 142.153 137.68 141.58C138.253 140.993 138.54 140.187 138.54 139.16V138.98C138.54 137.953 138.26 137.153 137.7 136.58C137.14 135.993 136.4 135.7 135.48 135.7C134.587 135.7 133.853 135.993 133.28 136.58C132.72 137.153 132.44 137.953 132.44 138.98V139.16C132.44 140.187 132.72 140.993 133.28 141.58C133.853 142.153 134.587 142.44 135.48 142.44Z" fill="white"/>
<path d="M166.441 93.3469L168.28 88.6114L166.979 78.5371L169.253 79.4204L170.09 86.5467L170.37 86.6553L175.797 81.9615L178.072 82.8447L170.312 89.4006L168.474 94.1361L166.441 93.3469ZM177.121 97.7944C176.189 97.4324 175.45 96.9237 174.903 96.2681C174.362 95.6001 174.03 94.8346 173.907 93.9717C173.802 93.1012 173.932 92.1936 174.299 91.249L174.386 91.0253C174.758 90.0683 175.274 89.3103 175.934 88.7515C176.599 88.1802 177.349 87.8346 178.182 87.7148C179.032 87.5873 179.911 87.6998 180.818 88.0521C181.701 88.3948 182.394 88.8929 182.899 89.5464C183.42 90.1923 183.732 90.9357 183.835 91.7765C183.937 92.6174 183.808 93.5039 183.446 94.436L183.163 95.1631L176.097 92.4193C175.809 93.2369 175.825 93.987 176.146 94.6696C176.485 95.3446 177.039 95.8317 177.81 96.131C178.531 96.4109 179.134 96.4593 179.62 96.2761C180.119 96.0977 180.549 95.8358 180.912 95.4905L182.178 96.9262C181.869 97.2066 181.472 97.4743 180.987 97.7293C180.514 97.9891 179.96 98.1458 179.324 98.1993C178.688 98.2527 177.954 98.1178 177.121 97.7944ZM176.688 90.9537L181.778 92.9301C181.998 92.2148 181.96 91.5776 181.662 91.0185C181.369 90.4471 180.862 90.0214 180.141 89.7414C179.42 89.4615 178.753 89.4311 178.138 89.6503C177.541 89.8618 177.058 90.2963 176.688 90.9537ZM187.561 101.848C186.393 101.395 185.525 100.757 184.957 99.9361C184.389 99.1148 184.223 98.1422 184.46 97.0181L186.416 97.2843C186.317 97.8325 186.328 98.3016 186.449 98.6916C186.569 99.0816 186.779 99.4063 187.079 99.6658C187.391 99.93 187.752 100.142 188.162 100.301C188.771 100.538 189.283 100.6 189.698 100.49C190.125 100.384 190.411 100.145 190.556 99.7717C190.701 99.3988 190.652 99.0651 190.409 98.7704C190.166 98.4757 189.761 98.1542 189.196 97.8059L188.605 97.4479C188.027 97.0947 187.524 96.7135 187.097 96.3043C186.669 95.8951 186.379 95.4462 186.225 94.9575C186.072 94.4688 186.108 93.9323 186.335 93.3482C186.673 92.4781 187.257 91.9325 188.087 91.7111C188.921 91.4774 189.873 91.568 190.942 91.9831C191.973 92.3837 192.727 92.948 193.202 93.6761C193.695 94.3966 193.886 95.1932 193.776 96.0659L191.791 95.8743C191.896 95.2715 191.812 94.7883 191.538 94.4246C191.27 94.0485 190.868 93.7567 190.334 93.5491C189.812 93.3464 189.363 93.2866 188.987 93.3696C188.617 93.4402 188.364 93.6495 188.229 93.9976C188.084 94.3704 188.12 94.6994 188.339 94.9844C188.569 95.2742 188.917 95.5592 189.38 95.8392L189.989 96.2045C190.604 96.5722 191.147 96.9616 191.616 97.3728C192.086 97.7841 192.404 98.2364 192.57 98.73C192.748 99.2283 192.717 99.7882 192.475 100.41C192.118 101.329 191.499 101.911 190.617 102.156C189.736 102.4 188.717 102.297 187.561 101.848ZM192.726 106.471L193.153 105.371L193.787 105.618C194.297 105.816 194.65 105.66 194.848 105.15L195.08 104.553L194.8 104.445C194.365 104.276 194.055 104.005 193.871 103.633C193.686 103.261 193.671 102.877 193.826 102.479C193.995 102.044 194.273 101.751 194.66 101.601C195.052 101.439 195.466 101.442 195.901 101.611C196.336 101.78 196.634 102.06 196.797 102.452C196.977 102.837 196.98 103.253 196.806 103.7L196.053 105.639C195.575 106.87 194.721 107.246 193.49 106.768L192.726 106.471ZM199.305 106.108L201.308 96.3088L203.228 97.0545L201.315 105.408L201.613 105.524L206.286 98.2418L209.399 99.4508L207.915 107.971L208.213 108.087L212.438 100.631L214.359 101.377L209.223 109.96L205.998 108.707L207.476 100.206L207.177 100.09L202.53 107.361L199.305 106.108ZM213.064 111.451L216.633 102.26L218.553 103.005L214.984 112.197L213.064 111.451ZM218.088 101.387C217.715 101.242 217.444 101.001 217.274 100.664C217.122 100.318 217.121 99.9533 217.271 99.568C217.42 99.1827 217.665 98.9202 218.006 98.7806C218.363 98.6334 218.728 98.6321 219.101 98.7769C219.486 98.9266 219.755 99.1739 219.907 99.519C220.064 99.8517 220.068 100.211 219.918 100.596C219.768 100.981 219.521 101.25 219.176 101.402C218.836 101.542 218.473 101.537 218.088 101.387ZM221.283 114.643C220.724 114.426 220.342 114.084 220.136 113.618C219.943 113.157 219.956 112.647 220.173 112.088L222.395 106.364L219.86 105.379L220.49 103.757L223.025 104.742L224.205 101.703L226.126 102.449L224.946 105.488L227.686 106.552L227.056 108.174L224.316 107.11L222.223 112.498C222.079 112.87 222.18 113.124 222.528 113.26L224.449 114.005L223.819 115.627L221.283 114.643ZM226.373 116.619L231.441 103.569L233.361 104.314L231.356 109.479L231.654 109.594C231.87 109.407 232.133 109.244 232.444 109.107C232.767 108.975 233.141 108.913 233.567 108.921C234.011 108.922 234.524 109.035 235.108 109.262C235.805 109.533 236.359 109.927 236.773 110.445C237.199 110.968 237.457 111.576 237.546 112.268C237.639 112.948 237.532 113.686 237.223 114.482L235.08 120L233.159 119.254L235.244 113.885C235.553 113.09 235.581 112.428 235.328 111.901C235.08 111.361 234.608 110.956 233.912 110.686C233.117 110.377 232.375 110.389 231.688 110.723C231.013 111.062 230.482 111.728 230.096 112.723L228.293 117.365L226.373 116.619ZM246.26 124.642C245.092 124.188 244.224 123.551 243.656 122.729C243.088 121.908 242.922 120.936 243.158 119.812L245.114 120.078C245.016 120.626 245.027 121.095 245.147 121.485C245.268 121.875 245.478 122.2 245.777 122.459C246.09 122.723 246.451 122.935 246.861 123.094C247.47 123.331 247.982 123.394 248.397 123.283C248.824 123.177 249.11 122.938 249.255 122.565C249.4 122.192 249.35 121.858 249.107 121.564C248.864 121.269 248.46 120.948 247.894 120.599L247.304 120.241C246.726 119.888 246.223 119.507 245.795 119.098C245.368 118.689 245.077 118.24 244.924 117.751C244.77 117.262 244.807 116.726 245.034 116.142C245.372 115.272 245.955 114.726 246.785 114.505C247.62 114.271 248.571 114.361 249.64 114.776C250.672 115.177 251.425 115.741 251.901 116.47C252.393 117.19 252.585 117.987 252.475 118.859L250.489 118.668C250.595 118.065 250.511 117.582 250.237 117.218C249.968 116.842 249.567 116.55 249.032 116.343C248.51 116.14 248.061 116.08 247.686 116.163C247.315 116.234 247.062 116.443 246.927 116.791C246.782 117.164 246.819 117.493 247.037 117.778C247.268 118.068 247.615 118.353 248.079 118.633L248.688 118.998C249.303 119.366 249.845 119.755 250.315 120.166C250.785 120.577 251.103 121.03 251.268 121.523C251.447 122.022 251.415 122.582 251.174 123.203C250.817 124.123 250.198 124.705 249.316 124.949C248.435 125.193 247.416 125.091 246.26 124.642ZM256.596 128.655C255.676 128.298 254.928 127.793 254.352 127.141C253.793 126.48 253.446 125.716 253.311 124.848C253.176 123.981 253.297 123.062 253.673 122.092L253.782 121.813C254.158 120.843 254.687 120.09 255.367 119.553C256.053 119.004 256.824 118.675 257.682 118.564C258.553 118.459 259.448 118.585 260.368 118.942C261.287 119.299 262.033 119.81 262.604 120.476C263.176 121.141 263.529 121.907 263.664 122.775C263.804 123.63 263.685 124.543 263.309 125.512L263.2 125.792C262.824 126.761 262.293 127.521 261.608 128.07C260.922 128.619 260.145 128.946 259.274 129.052C258.408 129.145 257.516 129.013 256.596 128.655ZM257.262 126.94C258.107 127.268 258.894 127.267 259.624 126.935C260.371 126.596 260.93 125.947 261.302 124.99L261.367 124.823C261.738 123.865 261.767 123.018 261.453 122.281C261.143 121.532 260.559 120.99 259.702 120.657C258.869 120.334 258.079 120.342 257.332 120.681C256.603 121.013 256.052 121.657 255.681 122.614L255.615 122.782C255.244 123.739 255.213 124.593 255.522 125.342C255.849 126.084 256.429 126.617 257.262 126.94ZM263.861 131.176L267.43 121.985L269.313 122.716L268.893 123.797L269.191 123.913C269.491 123.658 269.881 123.48 270.363 123.381C270.845 123.282 271.415 123.361 272.074 123.617C272.758 123.882 273.249 124.237 273.548 124.682C273.865 125.12 274.044 125.597 274.086 126.114L274.385 126.23C274.76 125.89 275.202 125.654 275.711 125.522C276.232 125.396 276.866 125.477 277.611 125.767C278.208 125.998 278.688 126.328 279.051 126.755C279.419 127.17 279.646 127.673 279.731 128.263C279.821 128.842 279.729 129.485 279.454 130.194L277.079 136.309L275.159 135.563L277.476 129.597C277.693 129.038 277.704 128.549 277.509 128.13C277.331 127.703 276.963 127.382 276.404 127.164C275.807 126.933 275.254 126.939 274.744 127.185C274.234 127.43 273.839 127.913 273.559 128.634L271.43 134.115L269.51 133.37L271.827 127.404C272.044 126.844 272.055 126.355 271.86 125.936C271.682 125.51 271.314 125.188 270.755 124.971C270.158 124.739 269.605 124.746 269.095 124.991C268.584 125.237 268.189 125.72 267.91 126.441L265.781 131.922L263.861 131.176ZM283.958 139.281C283.026 138.919 282.287 138.41 281.741 137.754C281.199 137.086 280.867 136.321 280.744 135.458C280.639 134.587 280.77 133.68 281.136 132.735L281.223 132.512C281.595 131.555 282.111 130.797 282.771 130.238C283.437 129.666 284.186 129.321 285.019 129.201C285.869 129.074 286.748 129.186 287.656 129.538C288.538 129.881 289.232 130.379 289.736 131.033C290.257 131.679 290.569 132.422 290.672 133.263C290.775 134.104 290.645 134.99 290.283 135.922L290.001 136.649L282.935 133.906C282.646 134.723 282.662 135.473 282.983 136.156C283.322 136.831 283.877 137.318 284.647 137.617C285.368 137.897 285.972 137.946 286.458 137.762C286.956 137.584 287.387 137.322 287.75 136.977L289.016 138.412C288.707 138.693 288.309 138.961 287.824 139.216C287.351 139.475 286.797 139.632 286.161 139.686C285.525 139.739 284.791 139.604 283.958 139.281ZM283.525 132.44L288.615 134.416C288.836 133.701 288.797 133.064 288.499 132.505C288.206 131.933 287.699 131.508 286.978 131.228C286.257 130.948 285.59 130.917 284.975 131.137C284.378 131.348 283.895 131.783 283.525 132.44ZM298.237 144.825C297.578 144.569 297.031 144.228 296.596 143.802C296.173 143.38 295.891 142.892 295.749 142.336C295.62 141.785 295.676 141.199 295.917 140.578C296.163 139.944 296.515 139.48 296.973 139.185C297.448 138.883 297.987 138.728 298.591 138.719C299.208 138.716 299.852 138.844 300.523 139.105L303.319 140.191L303.551 139.594C303.759 139.06 303.763 138.568 303.566 138.119C303.368 137.671 302.934 137.316 302.263 137.056C301.604 136.8 301.04 136.76 300.571 136.935C300.103 137.111 299.716 137.425 299.411 137.879L297.846 136.606C298.188 136.167 298.598 135.811 299.075 135.539C299.57 135.259 300.139 135.101 300.783 135.065C301.426 135.029 302.133 135.16 302.904 135.459C304.097 135.923 304.917 136.592 305.364 137.466C305.811 138.341 305.818 139.337 305.383 140.456L303.914 144.24C303.769 144.613 303.871 144.867 304.219 145.002L305.002 145.307L304.379 146.91L302.943 146.352C302.508 146.184 302.198 145.934 302.011 145.604C301.824 145.274 301.806 144.917 301.956 144.531L301.977 144.475L301.698 144.367C301.526 144.515 301.292 144.674 300.997 144.846C300.701 145.017 300.325 145.121 299.867 145.158C299.414 145.182 298.871 145.071 298.237 144.825ZM299.132 143.349C299.903 143.648 300.609 143.672 301.25 143.421C301.896 143.157 302.369 142.639 302.668 141.869L302.74 141.682L300.055 140.64C299.546 140.442 299.092 140.394 298.695 140.497C298.302 140.588 298.023 140.845 297.859 141.267C297.695 141.69 297.727 142.088 297.953 142.462C298.18 142.836 298.573 143.132 299.132 143.349ZM309.73 149.288C308.971 148.994 308.342 148.534 307.84 147.911C307.339 147.287 307.024 146.55 306.897 145.699C306.786 144.841 306.924 143.915 307.31 142.92L307.419 142.641C307.8 141.659 308.321 140.889 308.982 140.33C309.642 139.771 310.368 139.43 311.159 139.309C311.95 139.187 312.731 139.275 313.501 139.575C314.098 139.806 314.566 140.074 314.906 140.377C315.258 140.686 315.519 141.009 315.688 141.346C315.863 141.671 315.97 141.985 316.01 142.286L316.308 142.402L318.292 137.294L320.212 138.04L315.144 151.09L313.261 150.359L313.768 149.054L313.47 148.938C313.079 149.244 312.579 149.465 311.969 149.6C311.371 149.739 310.625 149.635 309.73 149.288ZM310.922 147.82C311.755 148.143 312.542 148.142 313.284 147.815C314.038 147.493 314.609 146.834 314.995 145.84L315.06 145.672C315.441 144.69 315.468 143.828 315.141 143.086C314.815 142.344 314.228 141.809 313.383 141.481C312.563 141.163 311.776 141.164 311.021 141.486C310.279 141.813 309.718 142.468 309.336 143.45L309.271 143.617C308.885 144.612 308.855 145.48 309.182 146.222C309.522 146.969 310.102 147.501 310.922 147.82ZM321.673 153.926C320.915 153.631 320.285 153.172 319.784 152.548C319.282 151.925 318.968 151.187 318.84 150.337C318.73 149.479 318.868 148.553 319.254 147.558L319.363 147.279C319.744 146.297 320.265 145.526 320.925 144.968C321.586 144.409 322.311 144.068 323.102 143.946C323.894 143.825 324.674 143.913 325.445 144.212C326.042 144.444 326.51 144.712 326.85 145.015C327.202 145.324 327.463 145.647 327.632 145.984C327.806 146.309 327.913 146.623 327.954 146.924L328.252 147.04L330.235 141.932L332.156 142.677L327.088 155.728L325.205 154.997L325.712 153.692L325.414 153.576C325.023 153.882 324.522 154.103 323.912 154.237C323.314 154.377 322.568 154.273 321.673 153.926ZM322.865 152.458C323.698 152.781 324.486 152.779 325.228 152.453C325.982 152.13 326.552 151.472 326.938 150.478L327.004 150.31C327.385 149.328 327.412 148.466 327.085 147.724C326.758 146.982 326.172 146.447 325.327 146.119C324.507 145.8 323.719 145.802 322.965 146.124C322.223 146.451 321.661 147.106 321.28 148.088L321.215 148.255C320.829 149.25 320.799 150.118 321.126 150.86C321.465 151.607 322.045 152.139 322.865 152.458ZM331.391 152.915L332.071 151.162L337.59 153.305L336.909 155.058L331.391 152.915ZM342.386 161.969C341.466 161.612 340.718 161.107 340.142 160.454C339.583 159.794 339.237 159.029 339.101 158.162C338.966 157.294 339.087 156.375 339.464 155.406L339.572 155.126C339.949 154.157 340.477 153.404 341.158 152.867C341.843 152.318 342.614 151.988 343.473 151.878C344.343 151.772 345.238 151.898 346.158 152.256C347.078 152.613 347.823 153.124 348.394 153.789C348.966 154.454 349.319 155.221 349.454 156.089C349.594 156.944 349.476 157.856 349.099 158.826L348.991 159.105C348.614 160.075 348.083 160.834 347.398 161.383C346.713 161.933 345.935 162.26 345.064 162.365C344.199 162.458 343.306 162.326 342.386 161.969ZM343.052 160.254C343.897 160.582 344.685 160.58 345.414 160.248C346.161 159.909 346.72 159.261 347.092 158.304L347.157 158.136C347.529 157.179 347.557 156.332 347.243 155.595C346.933 154.845 346.35 154.304 345.492 153.971C344.659 153.647 343.869 153.655 343.123 153.995C342.393 154.326 341.842 154.971 341.471 155.928L341.406 156.096C341.034 157.053 341.003 157.906 341.313 158.656C341.64 159.398 342.219 159.93 343.052 160.254ZM349.651 164.49L353.22 155.298L355.103 156.029L354.567 157.409L354.866 157.525C355.185 157.22 355.63 156.992 356.203 156.843C356.776 156.693 357.504 156.79 358.386 157.133C359.082 157.403 359.637 157.797 360.051 158.316C360.477 158.839 360.735 159.446 360.824 160.139C360.917 160.819 360.809 161.556 360.501 162.352L358.358 167.87L356.437 167.125L358.522 161.755C358.831 160.96 358.859 160.299 358.606 159.771C358.358 159.231 357.886 158.826 357.19 158.556C356.395 158.247 355.653 158.26 354.966 158.594C354.291 158.932 353.76 159.599 353.374 160.593L351.571 165.235L349.651 164.49ZM364.786 170.667C363.618 170.213 362.75 169.576 362.182 168.755C361.614 167.933 361.448 166.961 361.684 165.837L363.64 166.103C363.542 166.651 363.553 167.12 363.673 167.51C363.794 167.9 364.004 168.225 364.303 168.484C364.616 168.749 364.977 168.96 365.387 169.12C365.996 169.356 366.508 169.419 366.923 169.308C367.35 169.203 367.636 168.963 367.781 168.59C367.926 168.217 367.876 167.884 367.633 167.589C367.39 167.294 366.986 166.973 366.42 166.624L365.83 166.266C365.252 165.913 364.749 165.532 364.321 165.123C363.894 164.714 363.603 164.265 363.45 163.776C363.296 163.287 363.333 162.751 363.56 162.167C363.898 161.297 364.481 160.751 365.311 160.53C366.146 160.296 367.097 160.387 368.166 160.802C369.198 161.202 369.951 161.767 370.427 162.495C370.919 163.215 371.111 164.012 371.001 164.884L369.015 164.693C369.121 164.09 369.037 163.607 368.763 163.243C368.494 162.867 368.093 162.575 367.558 162.368C367.036 162.165 366.587 162.105 366.212 162.188C365.841 162.259 365.588 162.468 365.453 162.816C365.308 163.189 365.345 163.518 365.563 163.803C365.794 164.093 366.141 164.378 366.605 164.658L367.214 165.023C367.829 165.391 368.371 165.78 368.841 166.191C369.311 166.603 369.629 167.055 369.794 167.549C369.973 168.047 369.941 168.607 369.7 169.228C369.343 170.148 368.724 170.73 367.842 170.974C366.961 171.218 365.942 171.116 364.786 170.667Z" fill="white"/>
<path opacity="0.7" d="M227.464 324.336C226.248 324.336 225.176 324.104 224.248 323.64C223.32 323.16 222.6 322.496 222.088 321.648C221.576 320.8 221.32 319.816 221.32 318.696V312.888C221.32 311.576 221.576 310.472 222.088 309.576C222.616 308.68 223.352 308.008 224.296 307.56C225.24 307.096 226.336 306.864 227.584 306.864C228.816 306.864 229.88 307.08 230.776 307.512C231.672 307.928 232.36 308.528 232.84 309.312C233.32 310.08 233.56 310.984 233.56 312.024H231.016C231.016 311.192 230.736 310.504 230.176 309.96C229.632 309.4 228.768 309.12 227.584 309.12C226.384 309.12 225.456 309.44 224.8 310.08C224.16 310.704 223.84 311.576 223.84 312.696V314.712H224.224C224.496 314.328 224.936 313.96 225.544 313.608C226.168 313.256 227.048 313.08 228.184 313.08C229.176 313.08 230.088 313.296 230.92 313.728C231.752 314.16 232.416 314.776 232.912 315.576C233.424 316.376 233.68 317.344 233.68 318.48V318.768C233.68 319.872 233.416 320.848 232.888 321.696C232.36 322.528 231.624 323.176 230.68 323.64C229.752 324.104 228.68 324.336 227.464 324.336ZM227.488 322.08C228.608 322.08 229.496 321.776 230.152 321.168C230.824 320.56 231.16 319.744 231.16 318.72V318.528C231.16 317.84 231.008 317.248 230.704 316.752C230.4 316.24 229.968 315.84 229.408 315.552C228.864 315.264 228.224 315.12 227.488 315.12C226.768 315.12 226.128 315.264 225.568 315.552C225.024 315.84 224.6 316.24 224.296 316.752C223.992 317.248 223.84 317.84 223.84 318.528V318.72C223.84 319.744 224.168 320.56 224.824 321.168C225.496 321.776 226.384 322.08 227.488 322.08ZM242.014 324.336C240.75 324.336 239.654 324.104 238.726 323.64C237.798 323.176 237.078 322.52 236.566 321.672C236.07 320.824 235.822 319.84 235.822 318.72V318.456H238.39V318.696C238.39 319.72 238.702 320.544 239.326 321.168C239.966 321.776 240.854 322.08 241.99 322.08C243.158 322.08 244.062 321.76 244.702 321.12C245.342 320.48 245.662 319.616 245.662 318.528V318.312C245.662 317.272 245.342 316.44 244.702 315.816C244.078 315.192 243.278 314.88 242.302 314.88C241.758 314.88 241.302 314.968 240.934 315.144C240.582 315.304 240.294 315.504 240.07 315.744C239.862 315.984 239.686 316.216 239.542 316.44H236.35V307.2H247.606V309.48H238.87V314.424H239.254C239.414 314.152 239.638 313.896 239.926 313.656C240.23 313.4 240.622 313.192 241.102 313.032C241.582 312.872 242.158 312.792 242.83 312.792C243.822 312.792 244.718 313.008 245.518 313.44C246.334 313.856 246.982 314.48 247.462 315.312C247.942 316.128 248.182 317.12 248.182 318.288V318.552C248.182 319.72 247.934 320.736 247.438 321.6C246.942 322.464 246.23 323.136 245.302 323.616C244.39 324.096 243.294 324.336 242.014 324.336ZM252.517 324.312L250.981 323.064L264.109 306.888L265.645 308.136L252.517 324.312ZM262.909 324.264C261.725 324.264 260.789 323.936 260.101 323.28C259.413 322.608 259.069 321.704 259.069 320.568V320.424C259.069 319.272 259.413 318.368 260.101 317.712C260.789 317.04 261.725 316.704 262.909 316.704C264.077 316.704 265.013 317.04 265.717 317.712C266.421 318.368 266.773 319.272 266.773 320.424V320.568C266.773 321.704 266.421 322.608 265.717 323.28C265.029 323.936 264.093 324.264 262.909 324.264ZM262.909 322.584C263.485 322.584 263.933 322.408 264.253 322.056C264.589 321.704 264.757 321.24 264.757 320.664V320.328C264.757 319.736 264.589 319.264 264.253 318.912C263.933 318.56 263.485 318.384 262.909 318.384C262.349 318.384 261.901 318.56 261.565 318.912C261.245 319.264 261.085 319.736 261.085 320.328V320.664C261.085 321.24 261.245 321.704 261.565 322.056C261.901 322.408 262.349 322.584 262.909 322.584ZM253.717 314.496C252.533 314.496 251.589 314.168 250.885 313.512C250.197 312.84 249.853 311.936 249.853 310.8V310.632C249.853 309.48 250.197 308.576 250.885 307.92C251.589 307.264 252.533 306.936 253.717 306.936C254.885 306.936 255.813 307.264 256.501 307.92C257.205 308.576 257.557 309.48 257.557 310.632V310.8C257.557 311.936 257.213 312.84 256.525 313.512C255.837 314.168 254.901 314.496 253.717 314.496ZM253.717 312.816C254.277 312.816 254.717 312.64 255.037 312.288C255.373 311.92 255.541 311.448 255.541 310.872V310.536C255.541 309.96 255.373 309.496 255.037 309.144C254.717 308.792 254.277 308.616 253.717 308.616C253.141 308.616 252.685 308.792 252.349 309.144C252.029 309.496 251.869 309.96 251.869 310.536V310.872C251.869 311.448 252.029 311.92 252.349 312.288C252.685 312.64 253.141 312.816 253.717 312.816Z" fill="white"/>
<path opacity="0.7" d="M259.296 181.336C258.064 181.336 256.968 181.112 256.008 180.664C255.048 180.216 254.296 179.568 253.752 178.72C253.224 177.872 252.96 176.864 252.96 175.696V175.264H255.48V175.648C255.48 176.704 255.824 177.544 256.512 178.168C257.216 178.776 258.144 179.08 259.296 179.08C260.448 179.08 261.344 178.792 261.984 178.216C262.624 177.64 262.944 176.912 262.944 176.032V175.816C262.944 175.192 262.792 174.688 262.488 174.304C262.184 173.92 261.776 173.64 261.264 173.464C260.752 173.272 260.176 173.176 259.536 173.176H256.488V170.272L262.392 166.792V166.456H253.368V164.2H265.128V167.608L259.488 170.968V171.304H260.52C261.368 171.304 262.168 171.464 262.92 171.784C263.672 172.104 264.28 172.592 264.744 173.248C265.224 173.904 265.464 174.736 265.464 175.744V176.032C265.464 177.104 265.208 178.04 264.696 178.84C264.184 179.624 263.464 180.24 262.536 180.688C261.608 181.12 260.528 181.336 259.296 181.336ZM274.283 181.336C272.331 181.336 270.771 180.784 269.603 179.68C268.451 178.56 267.875 176.88 267.875 174.64V170.56C267.875 168.368 268.451 166.704 269.603 165.568C270.771 164.432 272.331 163.864 274.283 163.864C276.251 163.864 277.811 164.432 278.963 165.568C280.131 166.704 280.715 168.368 280.715 170.56V174.64C280.715 176.88 280.131 178.56 278.963 179.68C277.811 180.784 276.251 181.336 274.283 181.336ZM274.283 179.08C275.611 179.08 276.595 178.704 277.235 177.952C277.875 177.184 278.195 176.112 278.195 174.736V170.416C278.195 169.04 277.851 167.984 277.163 167.248C276.475 166.496 275.515 166.12 274.283 166.12C273.035 166.12 272.075 166.504 271.403 167.272C270.731 168.024 270.395 169.072 270.395 170.416V174.736C270.395 176.144 270.715 177.224 271.355 177.976C272.011 178.712 272.987 179.08 274.283 179.08ZM285.407 181.312L283.871 180.064L296.999 163.888L298.535 165.136L285.407 181.312ZM295.799 181.264C294.615 181.264 293.679 180.936 292.991 180.28C292.303 179.608 291.959 178.704 291.959 177.568V177.424C291.959 176.272 292.303 175.368 292.991 174.712C293.679 174.04 294.615 173.704 295.799 173.704C296.967 173.704 297.903 174.04 298.607 174.712C299.311 175.368 299.663 176.272 299.663 177.424V177.568C299.663 178.704 299.311 179.608 298.607 180.28C297.919 180.936 296.983 181.264 295.799 181.264ZM295.799 179.584C296.375 179.584 296.823 179.408 297.143 179.056C297.479 178.704 297.647 178.24 297.647 177.664V177.328C297.647 176.736 297.479 176.264 297.143 175.912C296.823 175.56 296.375 175.384 295.799 175.384C295.239 175.384 294.791 175.56 294.455 175.912C294.135 176.264 293.975 176.736 293.975 177.328V177.664C293.975 178.24 294.135 178.704 294.455 179.056C294.791 179.408 295.239 179.584 295.799 179.584ZM286.607 171.496C285.423 171.496 284.479 171.168 283.775 170.512C283.087 169.84 282.743 168.936 282.743 167.8V167.632C282.743 166.48 283.087 165.576 283.775 164.92C284.479 164.264 285.423 163.936 286.607 163.936C287.775 163.936 288.703 164.264 289.391 164.92C290.095 165.576 290.447 166.48 290.447 167.632V167.8C290.447 168.936 290.103 169.84 289.415 170.512C288.727 171.168 287.791 171.496 286.607 171.496ZM286.607 169.816C287.167 169.816 287.607 169.64 287.927 169.288C288.263 168.92 288.431 168.448 288.431 167.872V167.536C288.431 166.96 288.263 166.496 287.927 166.144C287.607 165.792 287.167 165.616 286.607 165.616C286.031 165.616 285.575 165.792 285.239 166.144C284.919 166.496 284.759 166.96 284.759 167.536V167.872C284.759 168.448 284.919 168.92 285.239 169.288C285.575 169.64 286.031 169.816 286.607 169.816Z" fill="white"/>
<path opacity="0.7" d="M174.248 188.336C172.984 188.336 171.888 188.104 170.96 187.64C170.032 187.176 169.312 186.52 168.8 185.672C168.304 184.824 168.056 183.84 168.056 182.72V182.456H170.624V182.696C170.624 183.72 170.936 184.544 171.56 185.168C172.2 185.776 173.088 186.08 174.224 186.08C175.392 186.08 176.296 185.76 176.936 185.12C177.576 184.48 177.896 183.616 177.896 182.528V182.312C177.896 181.272 177.576 180.44 176.936 179.816C176.312 179.192 175.512 178.88 174.536 178.88C173.992 178.88 173.536 178.968 173.168 179.144C172.816 179.304 172.528 179.504 172.304 179.744C172.096 179.984 171.92 180.216 171.776 180.44H168.584V171.2H179.84V173.48H171.104V178.424H171.488C171.648 178.152 171.872 177.896 172.16 177.656C172.464 177.4 172.856 177.192 173.336 177.032C173.816 176.872 174.392 176.792 175.064 176.792C176.056 176.792 176.952 177.008 177.752 177.44C178.568 177.856 179.216 178.48 179.696 179.312C180.176 180.128 180.416 181.12 180.416 182.288V182.552C180.416 183.72 180.168 184.736 179.672 185.6C179.176 186.464 178.464 187.136 177.536 187.616C176.624 188.096 175.528 188.336 174.248 188.336ZM184.751 188.312L183.215 187.064L196.343 170.888L197.879 172.136L184.751 188.312ZM195.143 188.264C193.959 188.264 193.023 187.936 192.335 187.28C191.647 186.608 191.303 185.704 191.303 184.568V184.424C191.303 183.272 191.647 182.368 192.335 181.712C193.023 181.04 193.959 180.704 195.143 180.704C196.311 180.704 197.247 181.04 197.951 181.712C198.655 182.368 199.007 183.272 199.007 184.424V184.568C199.007 185.704 198.655 186.608 197.951 187.28C197.263 187.936 196.327 188.264 195.143 188.264ZM195.143 186.584C195.719 186.584 196.167 186.408 196.487 186.056C196.823 185.704 196.991 185.24 196.991 184.664V184.328C196.991 183.736 196.823 183.264 196.487 182.912C196.167 182.56 195.719 182.384 195.143 182.384C194.583 182.384 194.135 182.56 193.799 182.912C193.479 183.264 193.319 183.736 193.319 184.328V184.664C193.319 185.24 193.479 185.704 193.799 186.056C194.135 186.408 194.583 186.584 195.143 186.584ZM185.951 178.496C184.767 178.496 183.823 178.168 183.119 177.512C182.431 176.84 182.087 175.936 182.087 174.8V174.632C182.087 173.48 182.431 172.576 183.119 171.92C183.823 171.264 184.767 170.936 185.951 170.936C187.119 170.936 188.047 171.264 188.735 171.92C189.439 172.576 189.791 173.48 189.791 174.632V174.8C189.791 175.936 189.447 176.84 188.759 177.512C188.071 178.168 187.135 178.496 185.951 178.496ZM185.951 176.816C186.511 176.816 186.951 176.64 187.271 176.288C187.607 175.92 187.775 175.448 187.775 174.872V174.536C187.775 173.96 187.607 173.496 187.271 173.144C186.951 172.792 186.511 172.616 185.951 172.616C185.375 172.616 184.919 172.792 184.583 173.144C184.263 173.496 184.103 173.96 184.103 174.536V174.872C184.103 175.448 184.263 175.92 184.583 176.288C184.919 176.64 185.375 176.816 185.951 176.816Z" fill="white"/>
</svg>
