<svg width="1305" height="559" viewBox="0 0 1305 559" fill="none" xmlns="http://www.w3.org/2000/svg">
<rect y="62" width="1305" height="435" fill="#F6F6F6"/>
<path d="M613.915 326.23V138.7H664.987V326.23H613.915ZM639.451 423.586C628.811 423.586 619.767 420.128 612.319 413.212C605.137 406.03 601.546 396.853 601.546 385.681C601.546 374.509 605.137 365.465 612.319 358.549C619.767 351.367 628.811 347.776 639.451 347.776C650.357 347.776 659.401 351.367 666.583 358.549C673.765 365.465 677.356 374.509 677.356 385.681C677.356 396.853 673.765 406.03 666.583 413.212C659.401 420.128 650.357 423.586 639.451 423.586Z" fill="#75B3E6" fill-opacity="0.52"/>
<path d="M157.627 253V244.481H164.384V210.111H157.627V201.592H184.066C187.199 201.592 189.916 202.131 192.217 203.208C194.567 204.236 196.379 205.729 197.652 207.688C198.974 209.597 199.635 211.898 199.635 214.591V215.325C199.635 217.675 199.194 219.609 198.313 221.127C197.432 222.596 196.379 223.746 195.155 224.579C193.98 225.362 192.854 225.925 191.777 226.268V227.59C192.854 227.884 194.029 228.447 195.302 229.279C196.575 230.062 197.652 231.213 198.533 232.731C199.463 234.248 199.929 236.231 199.929 238.679V239.414C199.929 242.253 199.268 244.701 197.946 246.758C196.624 248.765 194.788 250.307 192.438 251.384C190.137 252.461 187.444 253 184.359 253H157.627ZM174.078 244.187H183.184C185.29 244.187 186.979 243.673 188.252 242.645C189.574 241.617 190.235 240.148 190.235 238.239V237.504C190.235 235.595 189.598 234.126 188.325 233.098C187.052 232.07 185.339 231.556 183.184 231.556H174.078V244.187ZM174.078 222.743H183.037C185.045 222.743 186.685 222.229 187.958 221.2C189.28 220.172 189.941 218.752 189.941 216.941V216.207C189.941 214.346 189.304 212.926 188.031 211.947C186.758 210.919 185.094 210.405 183.037 210.405H174.078V222.743ZM208.158 253V216.574H217.265V220.686H218.587C219.125 219.218 220.007 218.14 221.231 217.455C222.504 216.77 223.973 216.427 225.637 216.427H230.044V224.652H225.49C223.14 224.652 221.206 225.289 219.689 226.562C218.171 227.786 217.412 229.695 217.412 232.29V253H208.158ZM237.276 253V216.574H246.53V253H237.276ZM241.903 212.314C240.238 212.314 238.819 211.776 237.643 210.699C236.517 209.621 235.954 208.202 235.954 206.439C235.954 204.676 236.517 203.257 237.643 202.18C238.819 201.102 240.238 200.564 241.903 200.564C243.617 200.564 245.036 201.102 246.163 202.18C247.289 203.257 247.852 204.676 247.852 206.439C247.852 208.202 247.289 209.621 246.163 210.699C245.036 211.776 243.617 212.314 241.903 212.314ZM271.472 254.028C268.583 254.028 265.866 253.318 263.32 251.898C260.823 250.43 258.816 248.3 257.298 245.509C255.78 242.718 255.021 239.34 255.021 235.374V234.199C255.021 230.234 255.78 226.855 257.298 224.065C258.816 221.274 260.823 219.169 263.32 217.749C265.817 216.28 268.534 215.546 271.472 215.546C273.675 215.546 275.511 215.815 276.98 216.353C278.498 216.843 279.722 217.48 280.652 218.263C281.582 219.046 282.292 219.879 282.782 220.76H284.103V201.592H293.357V253H284.25V248.594H282.928C282.096 249.964 280.799 251.213 279.036 252.339C277.322 253.465 274.801 254.028 271.472 254.028ZM274.262 245.95C277.102 245.95 279.477 245.044 281.386 243.232C283.296 241.372 284.25 238.679 284.25 235.154V234.42C284.25 230.895 283.296 228.226 281.386 226.415C279.526 224.554 277.151 223.624 274.262 223.624C271.423 223.624 269.048 224.554 267.139 226.415C265.229 228.226 264.275 230.895 264.275 234.42V235.154C264.275 238.679 265.229 241.372 267.139 243.232C269.048 245.044 271.423 245.95 274.262 245.95ZM301.854 234.934V233.759C301.854 229.94 302.612 226.684 304.13 223.991C305.648 221.249 307.655 219.169 310.152 217.749C312.698 216.28 315.464 215.546 318.451 215.546C321.78 215.546 324.302 216.133 326.015 217.308C327.729 218.483 328.977 219.707 329.761 220.98H331.083V216.574H340.189V259.463C340.189 261.96 339.455 263.943 337.986 265.411C336.517 266.929 334.559 267.688 332.111 267.688H307.729V259.61H328.879C330.25 259.61 330.936 258.875 330.936 257.406V247.933H329.614C329.124 248.716 328.439 249.524 327.558 250.356C326.676 251.14 325.501 251.8 324.032 252.339C322.564 252.878 320.703 253.147 318.451 253.147C315.464 253.147 312.698 252.437 310.152 251.017C307.655 249.548 305.648 247.468 304.13 244.775C302.612 242.033 301.854 238.753 301.854 234.934ZM321.095 245.068C323.935 245.068 326.309 244.163 328.219 242.351C330.128 240.54 331.083 237.994 331.083 234.713V233.979C331.083 230.65 330.128 228.104 328.219 226.341C326.358 224.53 323.983 223.624 321.095 223.624C318.255 223.624 315.881 224.53 313.971 226.341C312.062 228.104 311.107 230.65 311.107 233.979V234.713C311.107 237.994 312.062 240.54 313.971 242.351C315.881 244.163 318.255 245.068 321.095 245.068ZM350.448 253V216.574H359.702V253H350.448ZM355.075 212.314C353.411 212.314 351.991 211.776 350.816 210.699C349.69 209.621 349.127 208.202 349.127 206.439C349.127 204.676 349.69 203.257 350.816 202.18C351.991 201.102 353.411 200.564 355.075 200.564C356.789 200.564 358.209 201.102 359.335 202.18C360.461 203.257 361.024 204.676 361.024 206.439C361.024 208.202 360.461 209.621 359.335 210.699C358.209 211.776 356.789 212.314 355.075 212.314ZM369.956 253V216.574H379.063V221.347H380.384C380.972 220.074 382.074 218.875 383.689 217.749C385.305 216.574 387.753 215.986 391.033 215.986C393.873 215.986 396.345 216.647 398.451 217.969C400.605 219.242 402.27 221.029 403.445 223.33C404.62 225.582 405.207 228.226 405.207 231.262V253H395.954V231.996C395.954 229.254 395.268 227.198 393.897 225.827C392.575 224.456 390.666 223.771 388.169 223.771C385.329 223.771 383.126 224.726 381.559 226.635C379.993 228.496 379.209 231.115 379.209 234.493V253H369.956ZM413.448 234.934V233.759C413.448 229.94 414.207 226.684 415.725 223.991C417.242 221.249 419.25 219.169 421.747 217.749C424.293 216.28 427.059 215.546 430.045 215.546C433.375 215.546 435.896 216.133 437.61 217.308C439.323 218.483 440.572 219.707 441.355 220.98H442.677V216.574H451.784V259.463C451.784 261.96 451.049 263.943 449.58 265.411C448.112 266.929 446.153 267.688 443.705 267.688H419.323V259.61H440.474C441.845 259.61 442.53 258.875 442.53 257.406V247.933H441.208C440.719 248.716 440.033 249.524 439.152 250.356C438.271 251.14 437.096 251.8 435.627 252.339C434.158 252.878 432.298 253.147 430.045 253.147C427.059 253.147 424.293 252.437 421.747 251.017C419.25 249.548 417.242 247.468 415.725 244.775C414.207 242.033 413.448 238.753 413.448 234.934ZM432.689 245.068C435.529 245.068 437.903 244.163 439.813 242.351C441.722 240.54 442.677 237.994 442.677 234.713V233.979C442.677 230.65 441.722 228.104 439.813 226.341C437.952 224.53 435.578 223.624 432.689 223.624C429.85 223.624 427.475 224.53 425.566 226.341C423.656 228.104 422.701 230.65 422.701 233.979V234.713C422.701 237.994 423.656 240.54 425.566 242.351C427.475 244.163 429.85 245.068 432.689 245.068ZM494.643 253C492.244 253 490.286 252.266 488.768 250.797C487.299 249.279 486.565 247.272 486.565 244.775V224.212H477.458V216.574H486.565V205.264H495.818V216.574H505.806V224.212H495.818V243.159C495.818 244.628 496.504 245.362 497.875 245.362H504.925V253H494.643ZM514.182 253V201.592H523.436V221.054H524.758C525.149 220.27 525.761 219.487 526.594 218.704C527.426 217.92 528.528 217.284 529.899 216.794C531.318 216.256 533.105 215.986 535.26 215.986C538.099 215.986 540.572 216.647 542.677 217.969C544.831 219.242 546.496 221.029 547.671 223.33C548.846 225.582 549.434 228.226 549.434 231.262V253H540.18V231.996C540.18 229.254 539.495 227.198 538.124 225.827C536.802 224.456 534.892 223.771 532.395 223.771C529.556 223.771 527.353 224.726 525.786 226.635C524.219 228.496 523.436 231.115 523.436 234.493V253H514.182ZM576.034 254.028C572.411 254.028 569.204 253.269 566.414 251.752C563.672 250.185 561.518 248.006 559.951 245.215C558.433 242.376 557.674 239.046 557.674 235.228V234.346C557.674 230.527 558.433 227.223 559.951 224.432C561.469 221.592 563.598 219.413 566.34 217.896C569.082 216.329 572.264 215.546 575.887 215.546C579.462 215.546 582.57 216.353 585.214 217.969C587.858 219.536 589.914 221.739 591.383 224.579C592.852 227.369 593.586 230.625 593.586 234.346V237.504H567.075C567.173 240.001 568.103 242.033 569.865 243.6C571.628 245.166 573.782 245.95 576.328 245.95C578.923 245.95 580.832 245.387 582.056 244.261C583.28 243.135 584.211 241.886 584.847 240.515L592.411 244.481C591.726 245.754 590.722 247.149 589.4 248.667C588.127 250.136 586.414 251.409 584.26 252.486C582.105 253.514 579.364 254.028 576.034 254.028ZM567.148 230.601H584.186C583.99 228.496 583.134 226.806 581.616 225.533C580.147 224.26 578.213 223.624 575.814 223.624C573.317 223.624 571.334 224.26 569.865 225.533C568.397 226.806 567.491 228.496 567.148 230.601ZM618.707 234.934V233.759C618.707 229.94 619.466 226.684 620.984 223.991C622.501 221.249 624.509 219.169 627.006 217.749C629.552 216.28 632.318 215.546 635.304 215.546C638.634 215.546 641.155 216.133 642.869 217.308C644.582 218.483 645.831 219.707 646.614 220.98H647.936V216.574H657.043V259.463C657.043 261.96 656.308 263.943 654.839 265.411C653.371 266.929 651.412 267.688 648.964 267.688H624.582V259.61H645.733C647.104 259.61 647.789 258.875 647.789 257.406V247.933H646.467C645.978 248.716 645.292 249.524 644.411 250.356C643.53 251.14 642.355 251.8 640.886 252.339C639.417 252.878 637.557 253.147 635.304 253.147C632.318 253.147 629.552 252.437 627.006 251.017C624.509 249.548 622.501 247.468 620.984 244.775C619.466 242.033 618.707 238.753 618.707 234.934ZM637.948 245.068C640.788 245.068 643.163 244.163 645.072 242.351C646.981 240.54 647.936 237.994 647.936 234.713V233.979C647.936 230.65 646.981 228.104 645.072 226.341C643.211 224.53 640.837 223.624 637.948 223.624C635.109 223.624 632.734 224.53 630.825 226.341C628.915 228.104 627.96 230.65 627.96 233.979V234.713C627.96 237.994 628.915 240.54 630.825 242.351C632.734 244.163 635.109 245.068 637.948 245.068ZM678.612 254.028C676.017 254.028 673.691 253.588 671.635 252.706C669.579 251.776 667.938 250.454 666.714 248.74C665.539 246.978 664.952 244.848 664.952 242.351C664.952 239.854 665.539 237.773 666.714 236.109C667.938 234.395 669.603 233.122 671.708 232.29C673.863 231.409 676.311 230.968 679.052 230.968H689.04V228.912C689.04 227.198 688.502 225.803 687.424 224.726C686.347 223.6 684.634 223.036 682.284 223.036C679.983 223.036 678.269 223.575 677.143 224.652C676.017 225.68 675.282 227.027 674.94 228.691L666.421 225.827C667.008 223.967 667.938 222.278 669.211 220.76C670.533 219.193 672.271 217.945 674.426 217.014C676.629 216.035 679.297 215.546 682.431 215.546C687.229 215.546 691.023 216.745 693.814 219.144C696.604 221.543 698 225.019 698 229.573V243.159C698 244.628 698.685 245.362 700.056 245.362H702.994V253H696.825C695.013 253 693.52 252.559 692.345 251.678C691.17 250.797 690.582 249.622 690.582 248.153V248.08H689.187C688.991 248.667 688.551 249.45 687.865 250.43C687.18 251.36 686.103 252.192 684.634 252.927C683.165 253.661 681.158 254.028 678.612 254.028ZM680.227 246.537C682.822 246.537 684.928 245.827 686.543 244.408C688.208 242.939 689.04 241.005 689.04 238.606V237.871H679.713C678 237.871 676.653 238.239 675.674 238.973C674.695 239.707 674.205 240.736 674.205 242.057C674.205 243.379 674.719 244.456 675.748 245.289C676.776 246.121 678.269 246.537 680.227 246.537ZM709.759 267.688V216.574H718.866V220.98H720.188C721.02 219.56 722.318 218.312 724.08 217.235C725.843 216.109 728.364 215.546 731.645 215.546C734.582 215.546 737.299 216.28 739.796 217.749C742.293 219.169 744.301 221.274 745.818 224.065C747.336 226.855 748.095 230.234 748.095 234.199V235.374C748.095 239.34 747.336 242.718 745.818 245.509C744.301 248.3 742.293 250.43 739.796 251.898C737.299 253.318 734.582 254.028 731.645 254.028C729.441 254.028 727.581 253.759 726.063 253.22C724.594 252.731 723.395 252.094 722.465 251.311C721.583 250.479 720.873 249.646 720.335 248.814H719.013V267.688H709.759ZM728.854 245.95C731.742 245.95 734.117 245.044 735.977 243.232C737.887 241.372 738.842 238.679 738.842 235.154V234.42C738.842 230.895 737.887 228.226 735.977 226.415C734.068 224.554 731.693 223.624 728.854 223.624C726.014 223.624 723.64 224.554 721.73 226.415C719.821 228.226 718.866 230.895 718.866 234.42V235.154C718.866 238.679 719.821 241.372 721.73 243.232C723.64 245.044 726.014 245.95 728.854 245.95ZM792.57 254.028C788.947 254.028 785.692 253.294 782.803 251.825C779.914 250.356 777.638 248.226 775.973 245.436C774.308 242.645 773.476 239.291 773.476 235.374V234.199C773.476 230.283 774.308 226.929 775.973 224.138C777.638 221.347 779.914 219.218 782.803 217.749C785.692 216.28 788.947 215.546 792.57 215.546C796.194 215.546 799.449 216.28 802.338 217.749C805.227 219.218 807.503 221.347 809.168 224.138C810.833 226.929 811.665 230.283 811.665 234.199V235.374C811.665 239.291 810.833 242.645 809.168 245.436C807.503 248.226 805.227 250.356 802.338 251.825C799.449 253.294 796.194 254.028 792.57 254.028ZM792.57 245.803C795.41 245.803 797.76 244.897 799.621 243.086C801.481 241.225 802.411 238.581 802.411 235.154V234.42C802.411 230.992 801.481 228.373 799.621 226.562C797.809 224.701 795.459 223.771 792.57 223.771C789.731 223.771 787.381 224.701 785.52 226.562C783.66 228.373 782.73 230.992 782.73 234.42V235.154C782.73 238.581 783.66 241.225 785.52 243.086C787.381 244.897 789.731 245.803 792.57 245.803ZM825.009 253V224.212H815.756V216.574H825.009V209.817C825.009 207.32 825.744 205.337 827.212 203.869C828.73 202.351 830.688 201.592 833.088 201.592H842.635V209.23H836.319C834.948 209.23 834.263 209.964 834.263 211.433V216.574H843.81V224.212H834.263V253H825.009ZM869.62 253V201.592H878.874V253H869.62ZM889.128 253V216.574H898.381V253H889.128ZM893.755 212.314C892.09 212.314 890.67 211.776 889.495 210.699C888.369 209.621 887.806 208.202 887.806 206.439C887.806 204.676 888.369 203.257 889.495 202.18C890.67 201.102 892.09 200.564 893.755 200.564C895.468 200.564 896.888 201.102 898.014 202.18C899.14 203.257 899.703 204.676 899.703 206.439C899.703 208.202 899.14 209.621 898.014 210.699C896.888 211.776 895.468 212.314 893.755 212.314ZM908.635 253V216.574H917.742V220.54H919.064C919.7 219.316 920.753 218.263 922.222 217.382C923.691 216.451 925.625 215.986 928.024 215.986C930.619 215.986 932.699 216.5 934.266 217.528C935.833 218.508 937.032 219.805 937.865 221.421H939.187C940.019 219.854 941.194 218.557 942.712 217.528C944.229 216.5 946.384 215.986 949.174 215.986C951.427 215.986 953.458 216.476 955.27 217.455C957.13 218.385 958.599 219.83 959.676 221.788C960.802 223.697 961.365 226.121 961.365 229.059V253H952.112V229.72C952.112 227.712 951.598 226.219 950.57 225.24C949.542 224.212 948.097 223.697 946.237 223.697C944.131 223.697 942.491 224.383 941.316 225.754C940.19 227.076 939.627 228.985 939.627 231.482V253H930.374V229.72C930.374 227.712 929.86 226.219 928.831 225.24C927.803 224.212 926.359 223.697 924.499 223.697C922.393 223.697 920.753 224.383 919.578 225.754C918.452 227.076 917.889 228.985 917.889 231.482V253H908.635ZM971.318 253V216.574H980.571V253H971.318ZM975.944 212.314C974.28 212.314 972.86 211.776 971.685 210.699C970.559 209.621 969.996 208.202 969.996 206.439C969.996 204.676 970.559 203.257 971.685 202.18C972.86 201.102 974.28 200.564 975.944 200.564C977.658 200.564 979.078 201.102 980.204 202.18C981.33 203.257 981.893 204.676 981.893 206.439C981.893 208.202 981.33 209.621 980.204 210.699C979.078 211.776 977.658 212.314 975.944 212.314ZM1004.78 253C1002.38 253 1000.42 252.266 998.904 250.797C997.435 249.279 996.7 247.272 996.7 244.775V224.212H987.594V216.574H996.7V205.264H1005.95V216.574H1015.94V224.212H1005.95V243.159C1005.95 244.628 1006.64 245.362 1008.01 245.362H1015.06V253H1004.78ZM1039.62 254.028C1036 254.028 1032.79 253.269 1030 251.752C1027.26 250.185 1025.11 248.006 1023.54 245.215C1022.02 242.376 1021.26 239.046 1021.26 235.228V234.346C1021.26 230.527 1022.02 227.223 1023.54 224.432C1025.06 221.592 1027.19 219.413 1029.93 217.896C1032.67 216.329 1035.85 215.546 1039.48 215.546C1043.05 215.546 1046.16 216.353 1048.8 217.969C1051.45 219.536 1053.5 221.739 1054.97 224.579C1056.44 227.369 1057.18 230.625 1057.18 234.346V237.504H1030.66C1030.76 240.001 1031.69 242.033 1033.46 243.6C1035.22 245.166 1037.37 245.95 1039.92 245.95C1042.51 245.95 1044.42 245.387 1045.65 244.261C1046.87 243.135 1047.8 241.886 1048.44 240.515L1056 244.481C1055.32 245.754 1054.31 247.149 1052.99 248.667C1051.72 250.136 1050 251.409 1047.85 252.486C1045.7 253.514 1042.95 254.028 1039.62 254.028ZM1030.74 230.601H1047.78C1047.58 228.496 1046.72 226.806 1045.21 225.533C1043.74 224.26 1041.8 223.624 1039.4 223.624C1036.91 223.624 1034.92 224.26 1033.46 225.533C1031.99 226.806 1031.08 228.496 1030.74 230.601ZM1080.1 254.028C1077.21 254.028 1074.49 253.318 1071.95 251.898C1069.45 250.43 1067.44 248.3 1065.93 245.509C1064.41 242.718 1063.65 239.34 1063.65 235.374V234.199C1063.65 230.234 1064.41 226.855 1065.93 224.065C1067.44 221.274 1069.45 219.169 1071.95 217.749C1074.45 216.28 1077.16 215.546 1080.1 215.546C1082.3 215.546 1084.14 215.815 1085.61 216.353C1087.13 216.843 1088.35 217.48 1089.28 218.263C1090.21 219.046 1090.92 219.879 1091.41 220.76H1092.73V201.592H1101.99V253H1092.88V248.594H1091.56C1090.73 249.964 1089.43 251.213 1087.67 252.339C1085.95 253.465 1083.43 254.028 1080.1 254.028ZM1082.89 245.95C1085.73 245.95 1088.11 245.044 1090.02 243.232C1091.92 241.372 1092.88 238.679 1092.88 235.154V234.42C1092.88 230.895 1091.92 228.226 1090.02 226.415C1088.15 224.554 1085.78 223.624 1082.89 223.624C1080.05 223.624 1077.68 224.554 1075.77 226.415C1073.86 228.226 1072.9 230.895 1072.9 234.42V235.154C1072.9 238.679 1073.86 241.372 1075.77 243.232C1077.68 245.044 1080.05 245.95 1082.89 245.95ZM268.126 357.028C264.846 357.028 262.324 356.465 260.562 355.339C258.799 354.213 257.502 352.964 256.67 351.594H255.348V356H246.241V304.592H255.495V323.76H256.816C257.355 322.879 258.065 322.046 258.946 321.263C259.876 320.48 261.076 319.843 262.545 319.353C264.063 318.815 265.923 318.546 268.126 318.546C271.064 318.546 273.781 319.28 276.278 320.749C278.775 322.169 280.782 324.274 282.3 327.065C283.818 329.855 284.577 333.234 284.577 337.199V338.374C284.577 342.34 283.818 345.718 282.3 348.509C280.782 351.3 278.775 353.43 276.278 354.898C273.781 356.318 271.064 357.028 268.126 357.028ZM265.336 348.95C268.175 348.95 270.55 348.044 272.459 346.232C274.369 344.372 275.323 341.679 275.323 338.154V337.42C275.323 333.895 274.369 331.226 272.459 329.415C270.599 327.554 268.224 326.624 265.336 326.624C262.496 326.624 260.121 327.554 258.212 329.415C256.302 331.226 255.348 333.895 255.348 337.42V338.154C255.348 341.679 256.302 344.372 258.212 346.232C260.121 348.044 262.496 348.95 265.336 348.95ZM293.073 356V304.592H302.327V356H293.073ZM329.913 357.028C326.29 357.028 323.034 356.294 320.145 354.825C317.257 353.356 314.98 351.226 313.315 348.436C311.651 345.645 310.818 342.291 310.818 338.374V337.199C310.818 333.283 311.651 329.929 313.315 327.138C314.98 324.347 317.257 322.218 320.145 320.749C323.034 319.28 326.29 318.546 329.913 318.546C333.536 318.546 336.792 319.28 339.68 320.749C342.569 322.218 344.846 324.347 346.51 327.138C348.175 329.929 349.007 333.283 349.007 337.199V338.374C349.007 342.291 348.175 345.645 346.51 348.436C344.846 351.226 342.569 353.356 339.68 354.825C336.792 356.294 333.536 357.028 329.913 357.028ZM329.913 348.803C332.752 348.803 335.103 347.897 336.963 346.086C338.824 344.225 339.754 341.581 339.754 338.154V337.42C339.754 333.992 338.824 331.373 336.963 329.562C335.152 327.701 332.801 326.771 329.913 326.771C327.073 326.771 324.723 327.701 322.863 329.562C321.002 331.373 320.072 333.992 320.072 337.42V338.154C320.072 341.581 321.002 344.225 322.863 346.086C324.723 347.897 327.073 348.803 329.913 348.803ZM374.88 357.028C371.257 357.028 368.002 356.294 365.113 354.825C362.224 353.356 359.948 351.226 358.283 348.436C356.618 345.645 355.786 342.291 355.786 338.374V337.199C355.786 333.283 356.618 329.929 358.283 327.138C359.948 324.347 362.224 322.218 365.113 320.749C368.002 319.28 371.257 318.546 374.88 318.546C378.503 318.546 381.759 319.28 384.648 320.749C387.537 322.218 389.813 324.347 391.478 327.138C393.143 329.929 393.975 333.283 393.975 337.199V338.374C393.975 342.291 393.143 345.645 391.478 348.436C389.813 351.226 387.537 353.356 384.648 354.825C381.759 356.294 378.503 357.028 374.88 357.028ZM374.88 348.803C377.72 348.803 380.07 347.897 381.931 346.086C383.791 344.225 384.721 341.581 384.721 338.154V337.42C384.721 333.992 383.791 331.373 381.931 329.562C380.119 327.701 377.769 326.771 374.88 326.771C372.041 326.771 369.691 327.701 367.83 329.562C365.97 331.373 365.039 333.992 365.039 337.42V338.154C365.039 341.581 365.97 344.225 367.83 346.086C369.691 347.897 372.041 348.803 374.88 348.803ZM417.204 357.028C414.316 357.028 411.598 356.318 409.052 354.898C406.555 353.43 404.548 351.3 403.03 348.509C401.513 345.718 400.754 342.34 400.754 338.374V337.199C400.754 333.234 401.513 329.855 403.03 327.065C404.548 324.274 406.555 322.169 409.052 320.749C411.549 319.28 414.267 318.546 417.204 318.546C419.407 318.546 421.243 318.815 422.712 319.353C424.23 319.843 425.454 320.48 426.384 321.263C427.315 322.046 428.024 322.879 428.514 323.76H429.836V304.592H439.089V356H429.983V351.594H428.661C427.829 352.964 426.531 354.213 424.769 355.339C423.055 356.465 420.534 357.028 417.204 357.028ZM419.995 348.95C422.835 348.95 425.209 348.044 427.119 346.232C429.028 344.372 429.983 341.679 429.983 338.154V337.42C429.983 333.895 429.028 331.226 427.119 329.415C425.258 327.554 422.884 326.624 419.995 326.624C417.155 326.624 414.781 327.554 412.871 329.415C410.962 331.226 410.007 333.895 410.007 337.42V338.154C410.007 341.679 410.962 344.372 412.871 346.232C414.781 348.044 417.155 348.95 419.995 348.95ZM483.124 357.028C478.375 357.028 474.483 356 471.447 353.944C468.412 351.887 466.576 348.95 465.939 345.131L474.458 342.928C474.801 344.641 475.364 345.988 476.147 346.967C476.98 347.946 477.983 348.656 479.158 349.097C480.382 349.488 481.704 349.684 483.124 349.684C485.278 349.684 486.87 349.317 487.898 348.583C488.926 347.799 489.44 346.844 489.44 345.718C489.44 344.592 488.95 343.736 487.971 343.148C486.992 342.512 485.425 341.997 483.271 341.606L481.215 341.239C478.669 340.749 476.343 340.088 474.238 339.256C472.133 338.374 470.443 337.175 469.171 335.657C467.898 334.139 467.261 332.181 467.261 329.782C467.261 326.159 468.583 323.393 471.227 321.483C473.871 319.525 477.347 318.546 481.655 318.546C485.719 318.546 489.097 319.451 491.79 321.263C494.483 323.074 496.245 325.449 497.078 328.387L488.485 331.03C488.094 329.17 487.286 327.848 486.062 327.065C484.887 326.281 483.418 325.89 481.655 325.89C479.893 325.89 478.546 326.208 477.616 326.844C476.686 327.432 476.221 328.264 476.221 329.341C476.221 330.516 476.71 331.398 477.69 331.985C478.669 332.524 479.991 332.94 481.655 333.234L483.712 333.601C486.453 334.09 488.926 334.751 491.129 335.584C493.381 336.367 495.144 337.518 496.417 339.035C497.739 340.504 498.4 342.512 498.4 345.057C498.4 348.876 497.004 351.838 494.214 353.944C491.472 356 487.775 357.028 483.124 357.028ZM520.389 356.588C517.549 356.588 515.052 355.951 512.898 354.678C510.792 353.356 509.152 351.545 507.977 349.244C506.802 346.942 506.215 344.299 506.215 341.312V319.574H515.468V340.578C515.468 343.319 516.129 345.376 517.451 346.747C518.822 348.117 520.756 348.803 523.253 348.803C526.092 348.803 528.296 347.873 529.862 346.012C531.429 344.103 532.212 341.459 532.212 338.081V319.574H541.466V356H532.359V351.226H531.037C530.45 352.45 529.348 353.65 527.733 354.825C526.117 356 523.669 356.588 520.389 356.588ZM551.763 370.688V319.574H560.87V323.98H562.191C563.024 322.56 564.321 321.312 566.084 320.235C567.846 319.109 570.368 318.546 573.648 318.546C576.586 318.546 579.303 319.28 581.8 320.749C584.297 322.169 586.304 324.274 587.822 327.065C589.34 329.855 590.099 333.234 590.099 337.199V338.374C590.099 342.34 589.34 345.718 587.822 348.509C586.304 351.3 584.297 353.43 581.8 354.898C579.303 356.318 576.586 357.028 573.648 357.028C571.445 357.028 569.584 356.759 568.067 356.22C566.598 355.731 565.398 355.094 564.468 354.311C563.587 353.479 562.877 352.646 562.338 351.814H561.016V370.688H551.763ZM570.857 348.95C573.746 348.95 576.121 348.044 577.981 346.232C579.891 344.372 580.845 341.679 580.845 338.154V337.42C580.845 333.895 579.891 331.226 577.981 329.415C576.072 327.554 573.697 326.624 570.857 326.624C568.018 326.624 565.643 327.554 563.734 329.415C561.824 331.226 560.87 333.895 560.87 337.42V338.154C560.87 341.679 561.824 344.372 563.734 346.232C565.643 348.044 568.018 348.95 570.857 348.95ZM598.595 370.688V319.574H607.702V323.98H609.024C609.856 322.56 611.154 321.312 612.916 320.235C614.679 319.109 617.2 318.546 620.48 318.546C623.418 318.546 626.135 319.28 628.632 320.749C631.129 322.169 633.137 324.274 634.654 327.065C636.172 329.855 636.931 333.234 636.931 337.199V338.374C636.931 342.34 636.172 345.718 634.654 348.509C633.137 351.3 631.129 353.43 628.632 354.898C626.135 356.318 623.418 357.028 620.48 357.028C618.277 357.028 616.417 356.759 614.899 356.22C613.43 355.731 612.231 355.094 611.3 354.311C610.419 353.479 609.709 352.646 609.171 351.814H607.849V370.688H598.595ZM617.69 348.95C620.578 348.95 622.953 348.044 624.813 346.232C626.723 344.372 627.678 341.679 627.678 338.154V337.42C627.678 333.895 626.723 331.226 624.813 329.415C622.904 327.554 620.529 326.624 617.69 326.624C614.85 326.624 612.475 327.554 610.566 329.415C608.657 331.226 607.702 333.895 607.702 337.42V338.154C607.702 341.679 608.657 344.372 610.566 346.232C612.475 348.044 614.85 348.95 617.69 348.95ZM645.428 356V304.592H654.681V356H645.428ZM668.901 370.688V362.61H688.73C690.101 362.61 690.786 361.875 690.786 360.406V351.226H689.464C689.072 352.059 688.46 352.891 687.628 353.723C686.796 354.556 685.67 355.241 684.25 355.78C682.83 356.318 681.019 356.588 678.815 356.588C675.976 356.588 673.479 355.951 671.324 354.678C669.219 353.356 667.579 351.545 666.404 349.244C665.229 346.942 664.641 344.299 664.641 341.312V319.574H673.895V340.578C673.895 343.319 674.556 345.376 675.878 346.747C677.249 348.117 679.183 348.803 681.679 348.803C684.519 348.803 686.722 347.873 688.289 346.012C689.856 344.103 690.639 341.459 690.639 338.081V319.574H699.893V362.463C699.893 364.96 699.158 366.943 697.689 368.411C696.221 369.929 694.262 370.688 691.814 370.688H668.901ZM728.837 356V319.574H738.09V356H728.837ZM733.463 315.314C731.799 315.314 730.379 314.776 729.204 313.699C728.078 312.621 727.515 311.202 727.515 309.439C727.515 307.676 728.078 306.257 729.204 305.18C730.379 304.102 731.799 303.564 733.463 303.564C735.177 303.564 736.597 304.102 737.723 305.18C738.849 306.257 739.412 307.676 739.412 309.439C739.412 311.202 738.849 312.621 737.723 313.699C736.597 314.776 735.177 315.314 733.463 315.314ZM748.344 356V319.574H757.451V324.347H758.773C759.36 323.074 760.462 321.875 762.077 320.749C763.693 319.574 766.141 318.986 769.421 318.986C772.261 318.986 774.733 319.647 776.839 320.969C778.993 322.242 780.658 324.029 781.833 326.33C783.008 328.582 783.595 331.226 783.595 334.262V356H774.342V334.996C774.342 332.254 773.656 330.198 772.285 328.827C770.964 327.456 769.054 326.771 766.557 326.771C763.717 326.771 761.514 327.726 759.948 329.635C758.381 331.496 757.597 334.115 757.597 337.493V356H748.344ZM807.566 356L821.079 304.592H837.97L851.483 356H841.495L838.705 344.69H820.344L817.554 356H807.566ZM822.621 335.731H836.428L830.185 310.688H828.864L822.621 335.731ZM862.088 356V327.212H852.834V319.574H862.088V312.817C862.088 310.32 862.822 308.337 864.291 306.869C865.809 305.351 867.767 304.592 870.166 304.592H879.713V312.23H873.397C872.027 312.23 871.341 312.964 871.341 314.433V319.574H880.888V327.212H871.341V356H862.088ZM888.052 356V319.574H897.159V323.686H898.481C899.019 322.218 899.9 321.14 901.124 320.455C902.397 319.77 903.866 319.427 905.531 319.427H909.937V327.652H905.384C903.034 327.652 901.1 328.289 899.582 329.562C898.064 330.786 897.306 332.695 897.306 335.29V356H888.052ZM917.17 356V319.574H926.423V356H917.17ZM921.797 315.314C920.132 315.314 918.712 314.776 917.537 313.699C916.411 312.621 915.848 311.202 915.848 309.439C915.848 307.676 916.411 306.257 917.537 305.18C918.712 304.102 920.132 303.564 921.797 303.564C923.51 303.564 924.93 304.102 926.056 305.18C927.182 306.257 927.745 307.676 927.745 309.439C927.745 311.202 927.182 312.621 926.056 313.699C924.93 314.776 923.51 315.314 921.797 315.314ZM953.789 357.028C950.264 357.028 947.057 356.294 944.168 354.825C941.329 353.356 939.077 351.226 937.412 348.436C935.747 345.645 934.915 342.267 934.915 338.301V337.273C934.915 333.307 935.747 329.929 937.412 327.138C939.077 324.347 941.329 322.218 944.168 320.749C947.057 319.28 950.264 318.546 953.789 318.546C957.265 318.546 960.252 319.158 962.749 320.382C965.246 321.606 967.253 323.295 968.771 325.449C970.338 327.554 971.366 329.953 971.855 332.646L962.896 334.556C962.7 333.087 962.259 331.765 961.574 330.59C960.888 329.415 959.909 328.484 958.636 327.799C957.412 327.114 955.87 326.771 954.009 326.771C952.149 326.771 950.46 327.187 948.942 328.019C947.473 328.803 946.298 330.002 945.417 331.618C944.585 333.185 944.168 335.119 944.168 337.42V338.154C944.168 340.455 944.585 342.414 945.417 344.029C946.298 345.596 947.473 346.796 948.942 347.628C950.46 348.411 952.149 348.803 954.009 348.803C956.8 348.803 958.905 348.093 960.325 346.673C961.794 345.204 962.724 343.295 963.116 340.945L972.076 343.075C971.439 345.669 970.338 348.044 968.771 350.198C967.253 352.304 965.246 353.968 962.749 355.192C960.252 356.416 957.265 357.028 953.789 357.028ZM991.019 357.028C988.424 357.028 986.098 356.588 984.042 355.706C981.985 354.776 980.345 353.454 979.121 351.74C977.946 349.978 977.359 347.848 977.359 345.351C977.359 342.854 977.946 340.773 979.121 339.109C980.345 337.395 982.01 336.122 984.115 335.29C986.269 334.409 988.717 333.968 991.459 333.968H1001.45V331.912C1001.45 330.198 1000.91 328.803 999.831 327.726C998.754 326.6 997.041 326.036 994.691 326.036C992.389 326.036 990.676 326.575 989.55 327.652C988.424 328.68 987.689 330.027 987.347 331.691L978.828 328.827C979.415 326.967 980.345 325.278 981.618 323.76C982.94 322.193 984.678 320.945 986.832 320.014C989.036 319.035 991.704 318.546 994.837 318.546C999.636 318.546 1003.43 319.745 1006.22 322.144C1009.01 324.543 1010.41 328.019 1010.41 332.573V346.159C1010.41 347.628 1011.09 348.362 1012.46 348.362H1015.4V356H1009.23C1007.42 356 1005.93 355.559 1004.75 354.678C1003.58 353.797 1002.99 352.622 1002.99 351.153V351.08H1001.59C1001.4 351.667 1000.96 352.45 1000.27 353.43C999.587 354.36 998.509 355.192 997.041 355.927C995.572 356.661 993.564 357.028 991.019 357.028ZM992.634 349.537C995.229 349.537 997.334 348.827 998.95 347.408C1000.61 345.939 1001.45 344.005 1001.45 341.606V340.871H992.12C990.407 340.871 989.06 341.239 988.081 341.973C987.102 342.707 986.612 343.736 986.612 345.057C986.612 346.379 987.126 347.456 988.154 348.289C989.183 349.121 990.676 349.537 992.634 349.537ZM1027.97 357.028C1026.01 357.028 1024.35 356.392 1022.97 355.119C1021.65 353.797 1020.99 352.108 1020.99 350.051C1020.99 347.995 1021.65 346.33 1022.97 345.057C1024.35 343.736 1026.01 343.075 1027.97 343.075C1029.98 343.075 1031.64 343.736 1032.96 345.057C1034.28 346.33 1034.94 347.995 1034.94 350.051C1034.94 352.108 1034.28 353.797 1032.96 355.119C1031.64 356.392 1029.98 357.028 1027.97 357.028Z" fill="#023A83"/>
</svg>
