<svg width="1200" height="474" viewBox="0 0 1200 474" fill="none" xmlns="http://www.w3.org/2000/svg">
<rect x="0.414938" y="0.414938" width="239.023" height="93.7912" fill="#E6E6E6"/>
<rect x="0.414938" y="0.414938" width="239.023" height="93.7912" stroke="#3A3A3A" stroke-width="0.829876"/>
<rect x="0.414938" y="95.036" width="239.023" height="93.7912" fill="#E6E6E6"/>
<path d="M48.9883 150.432V133.004H51.6771V150.432H48.9883ZM55.3843 150.432V138.158H57.8988V140H58.2972C58.5295 139.502 58.9445 139.037 59.542 138.606C60.1395 138.174 61.0275 137.959 62.2059 137.959C63.1353 137.959 63.9569 138.166 64.6706 138.581C65.4009 138.996 65.9735 139.585 66.3884 140.349C66.8034 141.096 67.0109 142 67.0109 143.062V150.432H64.4465V143.262C64.4465 142.199 64.181 141.419 63.6499 140.921C63.1187 140.407 62.3884 140.149 61.459 140.149C60.3967 140.149 59.542 140.498 58.8947 141.195C58.264 141.892 57.9486 142.905 57.9486 144.232V150.432H55.3843ZM70.6515 145.228V142.888H78.0208V145.228H70.6515ZM85.5485 150.78C84.6688 150.78 83.8804 150.631 83.1833 150.332C82.5028 150.033 81.9551 149.593 81.5402 149.013C81.1418 148.432 80.9426 147.726 80.9426 146.896C80.9426 146.05 81.1418 145.353 81.5402 144.805C81.9551 144.241 82.5111 143.818 83.2082 143.535C83.9219 143.253 84.7269 143.112 85.6231 143.112H89.3576V142.315C89.3576 141.602 89.1418 141.029 88.7103 140.598C88.2787 140.166 87.6148 139.95 86.7186 139.95C85.8389 139.95 85.1667 140.158 84.702 140.573C84.2373 140.988 83.9302 141.527 83.7808 142.191L81.3908 141.419C81.59 140.755 81.9053 140.158 82.3368 139.627C82.785 139.079 83.3742 138.639 84.1045 138.307C84.8348 137.975 85.7144 137.809 86.7435 137.809C88.3368 137.809 89.59 138.216 90.5028 139.029C91.4157 139.842 91.8721 140.996 91.8721 142.49V147.544C91.8721 148.042 92.1045 148.291 92.5692 148.291H93.6149V150.432H91.6978C91.1169 150.432 90.6439 150.282 90.2788 149.984C89.9136 149.685 89.731 149.278 89.731 148.764V148.689H89.3576C89.2248 148.938 89.0256 149.228 88.7601 149.56C88.4945 149.892 88.1045 150.183 87.59 150.432C87.0754 150.664 86.3949 150.78 85.5485 150.78ZM85.9219 148.664C86.9509 148.664 87.7808 148.374 88.4115 147.793C89.0422 147.195 89.3576 146.382 89.3576 145.353V145.104H85.7725C85.092 145.104 84.5443 145.253 84.1294 145.552C83.7144 145.834 83.507 146.257 83.507 146.822C83.507 147.386 83.7227 147.834 84.1543 148.166C84.5858 148.498 85.175 148.664 85.9219 148.664ZM96.1082 155.411V138.158H98.6227V139.925H99.021C99.3364 139.378 99.8094 138.888 100.44 138.457C101.087 138.025 102.009 137.809 103.204 137.809C104.233 137.809 105.17 138.058 106.017 138.556C106.88 139.054 107.569 139.776 108.083 140.722C108.614 141.652 108.88 142.78 108.88 144.108V144.481C108.88 145.809 108.623 146.946 108.108 147.892C107.594 148.822 106.905 149.535 106.042 150.033C105.179 150.531 104.233 150.78 103.204 150.78C102.407 150.78 101.735 150.681 101.187 150.481C100.639 150.282 100.199 150.033 99.8675 149.735C99.5356 149.419 99.27 149.096 99.0708 148.764H98.6725V155.411H96.1082ZM102.457 148.54C103.585 148.54 104.507 148.183 105.22 147.469C105.934 146.755 106.291 145.735 106.291 144.407V144.183C106.291 142.871 105.926 141.859 105.195 141.145C104.482 140.432 103.569 140.075 102.457 140.075C101.361 140.075 100.448 140.432 99.7181 141.145C99.0044 141.859 98.6476 142.871 98.6476 144.183V144.407C98.6476 145.735 99.0044 146.755 99.7181 147.469C100.448 148.183 101.361 148.54 102.457 148.54ZM112.057 155.411V138.158H114.572V139.925H114.97C115.286 139.378 115.759 138.888 116.389 138.457C117.037 138.025 117.958 137.809 119.153 137.809C120.182 137.809 121.12 138.058 121.966 138.556C122.829 139.054 123.518 139.776 124.032 140.722C124.564 141.652 124.829 142.78 124.829 144.108V144.481C124.829 145.809 124.572 146.946 124.057 147.892C123.543 148.822 122.854 149.535 121.991 150.033C121.128 150.531 120.182 150.78 119.153 150.78C118.356 150.78 117.684 150.681 117.136 150.481C116.588 150.282 116.149 150.033 115.817 149.735C115.485 149.419 115.219 149.096 115.02 148.764H114.622V155.411H112.057ZM118.406 148.54C119.535 148.54 120.456 148.183 121.169 147.469C121.883 146.755 122.24 145.735 122.24 144.407V144.183C122.24 142.871 121.875 141.859 121.144 141.145C120.431 140.432 119.518 140.075 118.406 140.075C117.31 140.075 116.398 140.432 115.667 141.145C114.954 141.859 114.597 142.871 114.597 144.183V144.407C114.597 145.735 114.954 146.755 115.667 147.469C116.398 148.183 117.31 148.54 118.406 148.54ZM134.352 150.432V133.004H136.916V150.432H134.352ZM146.349 150.78C145.104 150.78 144.017 150.523 143.087 150.008C142.158 149.477 141.427 148.739 140.896 147.793C140.382 146.83 140.125 145.718 140.125 144.457V144.158C140.125 142.88 140.382 141.768 140.896 140.822C141.411 139.859 142.125 139.12 143.037 138.606C143.967 138.075 145.037 137.809 146.249 137.809C147.427 137.809 148.457 138.075 149.336 138.606C150.232 139.12 150.93 139.842 151.427 140.772C151.925 141.701 152.174 142.788 152.174 144.033V145.004H142.739C142.772 146.083 143.129 146.946 143.809 147.593C144.506 148.224 145.369 148.54 146.398 148.54C147.361 148.54 148.083 148.324 148.564 147.892C149.062 147.461 149.444 146.963 149.71 146.398L151.826 147.494C151.593 147.959 151.253 148.448 150.805 148.963C150.374 149.477 149.801 149.909 149.087 150.257C148.374 150.606 147.461 150.78 146.349 150.78ZM142.764 143.037H149.56C149.494 142.108 149.162 141.386 148.564 140.871C147.967 140.34 147.187 140.075 146.224 140.075C145.262 140.075 144.473 140.34 143.859 140.871C143.262 141.386 142.896 142.108 142.764 143.037ZM159.07 150.78C158.191 150.78 157.402 150.631 156.705 150.332C156.025 150.033 155.477 149.593 155.062 149.013C154.664 148.432 154.464 147.726 154.464 146.896C154.464 146.05 154.664 145.353 155.062 144.805C155.477 144.241 156.033 143.818 156.73 143.535C157.444 143.253 158.249 143.112 159.145 143.112H162.879V142.315C162.879 141.602 162.664 141.029 162.232 140.598C161.801 140.166 161.137 139.95 160.24 139.95C159.361 139.95 158.688 140.158 158.224 140.573C157.759 140.988 157.452 141.527 157.303 142.191L154.913 141.419C155.112 140.755 155.427 140.158 155.859 139.627C156.307 139.079 156.896 138.639 157.626 138.307C158.357 137.975 159.236 137.809 160.265 137.809C161.859 137.809 163.112 138.216 164.025 139.029C164.937 139.842 165.394 140.996 165.394 142.49V147.544C165.394 148.042 165.626 148.291 166.091 148.291H167.137V150.432H165.22C164.639 150.432 164.166 150.282 163.801 149.984C163.435 149.685 163.253 149.278 163.253 148.764V148.689H162.879C162.747 148.938 162.547 149.228 162.282 149.56C162.016 149.892 161.626 150.183 161.112 150.432C160.597 150.664 159.917 150.78 159.07 150.78ZM159.444 148.664C160.473 148.664 161.303 148.374 161.933 147.793C162.564 147.195 162.879 146.382 162.879 145.353V145.104H159.294C158.614 145.104 158.066 145.253 157.651 145.552C157.236 145.834 157.029 146.257 157.029 146.822C157.029 147.386 157.245 147.834 157.676 148.166C158.108 148.498 158.697 148.664 159.444 148.664ZM169.63 150.432V138.158H172.144V139.602H172.543C172.742 139.087 173.057 138.714 173.489 138.481C173.937 138.232 174.485 138.108 175.132 138.108H176.601V140.423H175.032C174.203 140.423 173.522 140.656 172.991 141.12C172.46 141.569 172.194 142.266 172.194 143.212V150.432H169.63ZM179.258 150.432V138.158H181.772V140H182.171C182.403 139.502 182.818 139.037 183.415 138.606C184.013 138.174 184.901 137.959 186.079 137.959C187.009 137.959 187.83 138.166 188.544 138.581C189.274 138.996 189.847 139.585 190.262 140.349C190.677 141.096 190.884 142 190.884 143.062V150.432H188.32V143.262C188.32 142.199 188.054 141.419 187.523 140.921C186.992 140.407 186.262 140.149 185.332 140.149C184.27 140.149 183.415 140.498 182.768 141.195C182.137 141.892 181.822 142.905 181.822 144.232V150.432H179.258Z" fill="#3A3A3A"/>
<rect x="0.414938" y="95.036" width="239.023" height="93.7912" stroke="#3A3A3A" stroke-width="0.829876"/>
<rect x="0.414938" y="189.657" width="239.023" height="93.7912" fill="#E6E6E6"/>
<path d="M18.6095 245.053V227.625H25.5307C26.5929 227.625 27.539 227.841 28.3688 228.273C29.2153 228.688 29.8709 229.285 30.3356 230.065C30.817 230.829 31.0576 231.75 31.0576 232.829V233.152C31.0576 234.231 30.8087 235.161 30.3107 235.941C29.8294 236.721 29.1738 237.318 28.3439 237.733C27.5141 238.148 26.5763 238.356 25.5307 238.356H21.2983V245.053H18.6095ZM21.2983 235.916H25.2568C26.2029 235.916 26.958 235.667 27.5224 235.169C28.0867 234.671 28.3688 233.99 28.3688 233.127V232.878C28.3688 231.999 28.0867 231.31 27.5224 230.812C26.958 230.314 26.2029 230.065 25.2568 230.065H21.2983V235.916ZM38.3905 245.277C37.4611 245.277 36.6312 245.069 35.9009 244.654C35.1706 244.239 34.598 243.65 34.1831 242.887C33.7681 242.123 33.5607 241.21 33.5607 240.148V232.779H36.125V239.974C36.125 241.036 36.3905 241.825 36.9217 242.339C37.4528 242.837 38.1914 243.086 39.1374 243.086C40.1831 243.086 41.0213 242.737 41.652 242.04C42.2993 241.327 42.6229 240.306 42.6229 238.978V232.779H45.1872V245.053H42.6727V243.21H42.2744C42.042 243.708 41.6271 244.181 41.0295 244.629C40.432 245.061 39.5524 245.277 38.3905 245.277ZM54.0069 245.401C52.4468 245.401 51.1522 245.053 50.1231 244.356C49.0941 243.659 48.4634 242.605 48.231 241.194L50.621 240.621C50.7538 241.302 50.9779 241.841 51.2932 242.239C51.6086 242.638 51.9986 242.92 52.4634 243.086C52.9447 243.252 53.4592 243.335 54.0069 243.335C54.8202 243.335 55.4426 243.177 55.8741 242.862C56.3223 242.547 56.5463 242.14 56.5463 241.642C56.5463 241.144 56.3389 240.779 55.9239 240.547C55.509 240.314 54.8949 240.123 54.0816 239.974L53.2351 239.825C52.4053 239.675 51.6501 239.459 50.9696 239.177C50.2891 238.895 49.7497 238.505 49.3513 238.007C48.953 237.509 48.7538 236.87 48.7538 236.09C48.7538 234.928 49.1853 234.032 50.0484 233.401C50.9115 232.754 52.0567 232.43 53.4841 232.43C54.8617 232.43 55.9903 232.746 56.87 233.376C57.7663 233.99 58.3472 234.829 58.6127 235.891L56.2227 236.563C56.0733 235.816 55.758 235.293 55.2766 234.995C54.7953 234.679 54.1978 234.522 53.4841 234.522C52.787 234.522 52.2393 234.654 51.8409 234.92C51.4426 235.169 51.2434 235.526 51.2434 235.99C51.2434 236.488 51.4343 236.854 51.8161 237.086C52.2144 237.318 52.7455 237.493 53.4094 237.609L54.2808 237.758C55.1605 237.908 55.9654 238.115 56.6957 238.381C57.426 238.646 57.9986 239.028 58.4136 239.526C58.8451 240.024 59.0609 240.688 59.0609 241.517C59.0609 242.746 58.6044 243.7 57.6916 244.381C56.7787 245.061 55.5505 245.401 54.0069 245.401ZM62.0581 245.053V227.625H64.6225V234.522H65.0208C65.1868 234.206 65.4191 233.899 65.7179 233.6C66.0332 233.302 66.4399 233.061 66.9378 232.878C67.4523 232.679 68.0996 232.58 68.8797 232.58C69.8092 232.58 70.6308 232.787 71.3445 233.202C72.0747 233.617 72.6474 234.206 73.0623 234.97C73.4772 235.717 73.6847 236.621 73.6847 237.683V245.053H71.1204V237.883C71.1204 236.82 70.8548 236.04 70.3237 235.542C69.7926 235.028 69.0623 234.771 68.1328 234.771C67.0706 234.771 66.2158 235.119 65.5685 235.816C64.9378 236.513 64.6225 237.526 64.6225 238.854V245.053H62.0581ZM83.7208 245.053V232.779H86.2353V234.621H86.6337C86.866 234.123 87.281 233.659 87.8785 233.227C88.476 232.795 89.364 232.58 90.5424 232.58C91.4719 232.58 92.2934 232.787 93.0071 233.202C93.7374 233.617 94.31 234.206 94.725 234.97C95.1399 235.717 95.3474 236.621 95.3474 237.683V245.053H92.7831V237.883C92.7831 236.82 92.5175 236.04 91.9864 235.542C91.4553 235.028 90.725 234.771 89.7955 234.771C88.7333 234.771 87.8785 235.119 87.2312 235.816C86.6005 236.513 86.2851 237.526 86.2851 238.854V245.053H83.7208ZM104.789 245.401C103.561 245.401 102.465 245.152 101.503 244.654C100.557 244.14 99.8096 243.41 99.2619 242.464C98.7142 241.517 98.4403 240.397 98.4403 239.103V238.729C98.4403 237.434 98.7142 236.322 99.2619 235.393C99.8096 234.447 100.557 233.717 101.503 233.202C102.465 232.688 103.561 232.43 104.789 232.43C106.017 232.43 107.113 232.688 108.075 233.202C109.038 233.717 109.793 234.447 110.341 235.393C110.888 236.322 111.162 237.434 111.162 238.729V239.103C111.162 240.397 110.888 241.517 110.341 242.464C109.793 243.41 109.038 244.14 108.075 244.654C107.113 245.152 106.017 245.401 104.789 245.401ZM104.789 243.111C105.918 243.111 106.83 242.754 107.527 242.04C108.241 241.31 108.598 240.306 108.598 239.028V238.804C108.598 237.526 108.249 236.53 107.552 235.816C106.855 235.086 105.934 234.721 104.789 234.721C103.677 234.721 102.764 235.086 102.05 235.816C101.353 236.53 101.005 237.526 101.005 238.804V239.028C101.005 240.306 101.353 241.31 102.05 242.04C102.764 242.754 103.677 243.111 104.789 243.111ZM118.499 245.053C117.752 245.053 117.154 244.829 116.706 244.381C116.275 243.932 116.059 243.335 116.059 242.588V234.945H112.673V232.779H116.059V228.721H118.623V232.779H122.283V234.945H118.623V242.14C118.623 242.638 118.856 242.887 119.32 242.887H121.885V245.053H118.499ZM125.296 245.053V232.779H127.86V245.053H125.296ZM126.59 231.111C126.092 231.111 125.669 230.953 125.321 230.638C124.989 230.306 124.823 229.883 124.823 229.368C124.823 228.854 124.989 228.439 125.321 228.123C125.669 227.791 126.092 227.625 126.59 227.625C127.105 227.625 127.528 227.791 127.86 228.123C128.192 228.439 128.358 228.854 128.358 229.368C128.358 229.883 128.192 230.306 127.86 230.638C127.528 230.953 127.105 231.111 126.59 231.111ZM133.881 245.053V234.945H130.446V232.779H133.881V230.09C133.881 229.343 134.105 228.746 134.554 228.298C135.002 227.849 135.599 227.625 136.346 227.625H139.334V229.791H137.168C136.686 229.791 136.446 230.04 136.446 230.538V232.779H141.948V234.945H136.446V245.053H133.881ZM141.948 245.053V232.779H144.512V245.053H141.948ZM143.242 231.186C142.744 231.186 142.321 231.028 141.973 230.712C141.641 230.381 141.475 229.957 141.475 229.443C141.475 228.912 141.641 228.488 141.973 228.173C142.321 227.858 142.744 227.7 143.242 227.7C143.74 227.7 144.155 227.858 144.487 228.173C144.836 228.488 145.01 228.912 145.01 229.443C145.01 229.957 144.836 230.381 144.487 230.712C144.155 231.028 143.74 231.186 143.242 231.186ZM153.997 245.401C152.818 245.401 151.748 245.152 150.785 244.654C149.839 244.156 149.084 243.434 148.52 242.488C147.972 241.542 147.698 240.405 147.698 239.078V238.754C147.698 237.426 147.972 236.298 148.52 235.368C149.084 234.422 149.839 233.7 150.785 233.202C151.748 232.688 152.818 232.43 153.997 232.43C155.175 232.43 156.179 232.646 157.009 233.078C157.839 233.509 158.503 234.082 159.001 234.795C159.515 235.509 159.847 236.298 159.997 237.161L157.507 237.683C157.424 237.136 157.25 236.638 156.984 236.19C156.719 235.742 156.345 235.385 155.864 235.119C155.383 234.854 154.777 234.721 154.047 234.721C153.333 234.721 152.686 234.887 152.105 235.219C151.54 235.534 151.092 235.999 150.76 236.613C150.428 237.21 150.262 237.941 150.262 238.804V239.028C150.262 239.891 150.428 240.629 150.76 241.244C151.092 241.858 151.54 242.322 152.105 242.638C152.686 242.953 153.333 243.111 154.047 243.111C155.125 243.111 155.947 242.837 156.511 242.289C157.076 241.725 157.432 241.011 157.582 240.148L160.071 240.721C159.872 241.567 159.515 242.347 159.001 243.061C158.503 243.775 157.839 244.347 157.009 244.779C156.179 245.194 155.175 245.401 153.997 245.401ZM166.838 245.401C165.959 245.401 165.17 245.252 164.473 244.953C163.793 244.654 163.245 244.215 162.83 243.634C162.432 243.053 162.232 242.347 162.232 241.517C162.232 240.671 162.432 239.974 162.83 239.426C163.245 238.862 163.801 238.439 164.498 238.156C165.212 237.874 166.017 237.733 166.913 237.733H170.647V236.937C170.647 236.223 170.432 235.65 170 235.219C169.568 234.787 168.905 234.571 168.008 234.571C167.129 234.571 166.456 234.779 165.992 235.194C165.527 235.609 165.22 236.148 165.071 236.812L162.681 236.04C162.88 235.376 163.195 234.779 163.627 234.248C164.075 233.7 164.664 233.26 165.394 232.928C166.124 232.596 167.004 232.43 168.033 232.43C169.627 232.43 170.88 232.837 171.793 233.65C172.705 234.464 173.162 235.617 173.162 237.111V242.165C173.162 242.663 173.394 242.912 173.859 242.912H174.905V245.053H172.988C172.407 245.053 171.934 244.903 171.568 244.605C171.203 244.306 171.021 243.899 171.021 243.385V243.31H170.647C170.515 243.559 170.315 243.849 170.05 244.181C169.784 244.513 169.394 244.804 168.88 245.053C168.365 245.285 167.685 245.401 166.838 245.401ZM167.212 243.285C168.241 243.285 169.071 242.995 169.701 242.414C170.332 241.816 170.647 241.003 170.647 239.974V239.725H167.062C166.382 239.725 165.834 239.874 165.419 240.173C165.004 240.455 164.797 240.878 164.797 241.443C164.797 242.007 165.012 242.455 165.444 242.787C165.876 243.119 166.465 243.285 167.212 243.285ZM181.153 245.053C180.406 245.053 179.808 244.829 179.36 244.381C178.929 243.932 178.713 243.335 178.713 242.588V234.945H175.327V232.779H178.713V228.721H181.277V232.779H184.937V234.945H181.277V242.14C181.277 242.638 181.51 242.887 181.974 242.887H184.539V245.053H181.153ZM187.95 245.053V232.779H190.514V245.053H187.95ZM189.244 231.111C188.746 231.111 188.323 230.953 187.975 230.638C187.643 230.306 187.477 229.883 187.477 229.368C187.477 228.854 187.643 228.439 187.975 228.123C188.323 227.791 188.746 227.625 189.244 227.625C189.759 227.625 190.182 227.791 190.514 228.123C190.846 228.439 191.012 228.854 191.012 229.368C191.012 229.883 190.846 230.306 190.514 230.638C190.182 230.953 189.759 231.111 189.244 231.111ZM200.071 245.401C198.842 245.401 197.747 245.152 196.784 244.654C195.838 244.14 195.091 243.41 194.544 242.464C193.996 241.517 193.722 240.397 193.722 239.103V238.729C193.722 237.434 193.996 236.322 194.544 235.393C195.091 234.447 195.838 233.717 196.784 233.202C197.747 232.688 198.842 232.43 200.071 232.43C201.299 232.43 202.394 232.688 203.357 233.202C204.32 233.717 205.075 234.447 205.622 235.393C206.17 236.322 206.444 237.434 206.444 238.729V239.103C206.444 240.397 206.17 241.517 205.622 242.464C205.075 243.41 204.32 244.14 203.357 244.654C202.394 245.152 201.299 245.401 200.071 245.401ZM200.071 243.111C201.199 243.111 202.112 242.754 202.809 242.04C203.523 241.31 203.88 240.306 203.88 239.028V238.804C203.88 237.526 203.531 236.53 202.834 235.816C202.137 235.086 201.216 234.721 200.071 234.721C198.959 234.721 198.046 235.086 197.332 235.816C196.635 236.53 196.286 237.526 196.286 238.804V239.028C196.286 240.306 196.635 241.31 197.332 242.04C198.046 242.754 198.959 243.111 200.071 243.111ZM209.637 245.053V232.779H212.151V234.621H212.549C212.782 234.123 213.197 233.659 213.794 233.227C214.392 232.795 215.28 232.58 216.458 232.58C217.388 232.58 218.209 232.787 218.923 233.202C219.653 233.617 220.226 234.206 220.641 234.97C221.056 235.717 221.263 236.621 221.263 237.683V245.053H218.699V237.883C218.699 236.82 218.433 236.04 217.902 235.542C217.371 235.028 216.641 234.771 215.711 234.771C214.649 234.771 213.794 235.119 213.147 235.816C212.516 236.513 212.201 237.526 212.201 238.854V245.053H209.637Z" fill="#3A3A3A"/>
<rect x="0.414938" y="189.657" width="239.023" height="93.7912" stroke="#3A3A3A" stroke-width="0.829876"/>
<rect x="0.414938" y="284.278" width="239.023" height="93.7912" fill="#E6E6E6"/>
<path d="M34.2185 339.674V324.686H28.8658V322.246H42.26V324.686H36.9073V339.674H34.2185ZM42.9726 339.674V327.4H45.4872V328.844H45.8855C46.0847 328.329 46.4 327.956 46.8316 327.724C47.2797 327.475 47.8274 327.35 48.4747 327.35H49.9436V329.666H48.3751C47.5452 329.666 46.8647 329.898 46.3336 330.363C45.8025 330.811 45.5369 331.508 45.5369 332.454V339.674H42.9726ZM56.0692 340.022C55.1896 340.022 54.4012 339.873 53.7041 339.574C53.0236 339.275 52.4759 338.836 52.0609 338.255C51.6626 337.674 51.4634 336.968 51.4634 336.139C51.4634 335.292 51.6626 334.595 52.0609 334.047C52.4759 333.483 53.0319 333.06 53.729 332.778C54.4427 332.495 55.2477 332.354 56.1439 332.354H59.8784V331.558C59.8784 330.844 59.6626 330.271 59.2311 329.84C58.7995 329.408 58.1356 329.192 57.2394 329.192C56.3597 329.192 55.6875 329.4 55.2228 329.815C54.758 330.23 54.451 330.769 54.3016 331.433L51.9116 330.661C52.1107 329.997 52.4261 329.4 52.8576 328.869C53.3057 328.321 53.895 327.881 54.6253 327.549C55.3555 327.217 56.2352 327.051 57.2643 327.051C58.8576 327.051 60.1107 327.458 61.0236 328.271C61.9365 329.085 62.3929 330.238 62.3929 331.732V336.786C62.3929 337.284 62.6253 337.533 63.09 337.533H64.1356V339.674H62.2186C61.6377 339.674 61.1647 339.524 60.7995 339.226C60.4344 338.927 60.2518 338.52 60.2518 338.006V337.931H59.8784C59.7456 338.18 59.5464 338.471 59.2809 338.802C59.0153 339.134 58.6253 339.425 58.1107 339.674C57.5962 339.906 56.9157 340.022 56.0692 340.022ZM56.4427 337.906C57.4717 337.906 58.3016 337.616 58.9323 337.035C59.563 336.437 59.8784 335.624 59.8784 334.595V334.346H56.2933C55.6128 334.346 55.0651 334.495 54.6501 334.794C54.2352 335.076 54.0277 335.5 54.0277 336.064C54.0277 336.628 54.2435 337.076 54.675 337.408C55.1066 337.74 55.6958 337.906 56.4427 337.906ZM72.0384 340.022C70.86 340.022 69.7895 339.773 68.8268 339.275C67.8808 338.778 67.1256 338.056 66.5613 337.11C66.0135 336.163 65.7397 335.027 65.7397 333.699V333.375C65.7397 332.047 66.0135 330.919 66.5613 329.989C67.1256 329.043 67.8808 328.321 68.8268 327.823C69.7895 327.309 70.86 327.051 72.0384 327.051C73.2169 327.051 74.221 327.267 75.0509 327.699C75.8808 328.13 76.5447 328.703 77.0426 329.417C77.5571 330.13 77.8891 330.919 78.0384 331.782L75.5488 332.305C75.4658 331.757 75.2915 331.259 75.026 330.811C74.7604 330.363 74.387 330.006 73.9057 329.74C73.4243 329.475 72.8185 329.342 72.0882 329.342C71.3745 329.342 70.7272 329.508 70.1463 329.84C69.582 330.155 69.1339 330.62 68.8019 331.234C68.47 331.832 68.304 332.562 68.304 333.425V333.649C68.304 334.512 68.47 335.251 68.8019 335.865C69.1339 336.479 69.582 336.944 70.1463 337.259C70.7272 337.574 71.3745 337.732 72.0882 337.732C73.1671 337.732 73.9886 337.458 74.553 336.91C75.1173 336.346 75.4741 335.632 75.6235 334.769L78.1131 335.342C77.914 336.188 77.5571 336.968 77.0426 337.682C76.5447 338.396 75.8808 338.968 75.0509 339.4C74.221 339.815 73.2169 340.022 72.0384 340.022ZM81.0707 339.674V322.246H83.635V332.18H84.0334L88.8633 327.4H92.274L86.0749 333.35L92.4732 339.674H89.0873L84.0334 334.57H83.635V339.674H81.0707ZM99.7046 340.022C98.4598 340.022 97.3727 339.765 96.4432 339.251C95.5137 338.719 94.7834 337.981 94.2523 337.035C93.7378 336.072 93.4805 334.96 93.4805 333.699V333.4C93.4805 332.122 93.7378 331.01 94.2523 330.064C94.7668 329.101 95.4805 328.363 96.3934 327.848C97.3229 327.317 98.3934 327.051 99.605 327.051C100.783 327.051 101.812 327.317 102.692 327.848C103.588 328.363 104.286 329.085 104.783 330.014C105.281 330.944 105.53 332.031 105.53 333.275V334.246H96.0947C96.1278 335.325 96.4847 336.188 97.1652 336.836C97.8623 337.466 98.7254 337.782 99.7544 337.782C100.717 337.782 101.439 337.566 101.92 337.134C102.418 336.703 102.8 336.205 103.066 335.641L105.182 336.736C104.949 337.201 104.609 337.69 104.161 338.205C103.73 338.719 103.157 339.151 102.443 339.5C101.73 339.848 100.817 340.022 99.7046 340.022ZM96.1195 332.28H102.916C102.85 331.35 102.518 330.628 101.92 330.114C101.323 329.583 100.543 329.317 99.5801 329.317C98.6175 329.317 97.8291 329.583 97.215 330.114C96.6175 330.628 96.2523 331.35 96.1195 332.28ZM108.617 339.674V327.4H111.132V328.844H111.53C111.729 328.329 112.044 327.956 112.476 327.724C112.924 327.475 113.472 327.35 114.119 327.35H115.588V329.666H114.02C113.19 329.666 112.509 329.898 111.978 330.363C111.447 330.811 111.181 331.508 111.181 332.454V339.674H108.617ZM126.806 339.674V329.566H123.371V327.4H126.806V324.711C126.806 323.964 127.03 323.367 127.479 322.919C127.927 322.471 128.524 322.246 129.271 322.246H132.433V324.412H130.093C129.611 324.412 129.371 324.661 129.371 325.159V327.4H132.906V329.566H129.371V339.674H126.806ZM140.647 340.022C139.402 340.022 138.315 339.765 137.386 339.251C136.456 338.719 135.726 337.981 135.195 337.035C134.68 336.072 134.423 334.96 134.423 333.699V333.4C134.423 332.122 134.68 331.01 135.195 330.064C135.71 329.101 136.423 328.363 137.336 327.848C138.266 327.317 139.336 327.051 140.548 327.051C141.726 327.051 142.755 327.317 143.635 327.848C144.531 328.363 145.228 329.085 145.726 330.014C146.224 330.944 146.473 332.031 146.473 333.275V334.246H137.037C137.071 335.325 137.427 336.188 138.108 336.836C138.805 337.466 139.668 337.782 140.697 337.782C141.66 337.782 142.382 337.566 142.863 337.134C143.361 336.703 143.743 336.205 144.008 335.641L146.124 336.736C145.892 337.201 145.552 337.69 145.104 338.205C144.672 338.719 144.1 339.151 143.386 339.5C142.672 339.848 141.759 340.022 140.647 340.022ZM137.062 332.28H143.859C143.793 331.35 143.461 330.628 142.863 330.114C142.266 329.583 141.485 329.317 140.523 329.317C139.56 329.317 138.772 329.583 138.158 330.114C137.56 330.628 137.195 331.35 137.062 332.28ZM153.369 340.022C152.489 340.022 151.701 339.873 151.004 339.574C150.323 339.275 149.776 338.836 149.361 338.255C148.962 337.674 148.763 336.968 148.763 336.139C148.763 335.292 148.962 334.595 149.361 334.047C149.776 333.483 150.332 333.06 151.029 332.778C151.742 332.495 152.547 332.354 153.444 332.354H157.178V331.558C157.178 330.844 156.962 330.271 156.531 329.84C156.099 329.408 155.435 329.192 154.539 329.192C153.659 329.192 152.987 329.4 152.522 329.815C152.058 330.23 151.751 330.769 151.601 331.433L149.211 330.661C149.41 329.997 149.726 329.4 150.157 328.869C150.605 328.321 151.195 327.881 151.925 327.549C152.655 327.217 153.535 327.051 154.564 327.051C156.157 327.051 157.41 327.458 158.323 328.271C159.236 329.085 159.693 330.238 159.693 331.732V336.786C159.693 337.284 159.925 337.533 160.39 337.533H161.435V339.674H159.518C158.937 339.674 158.464 339.524 158.099 339.226C157.734 338.927 157.551 338.52 157.551 338.006V337.931H157.178C157.045 338.18 156.846 338.471 156.581 338.802C156.315 339.134 155.925 339.425 155.41 339.674C154.896 339.906 154.215 340.022 153.369 340.022ZM153.742 337.906C154.771 337.906 155.601 337.616 156.232 337.035C156.863 336.437 157.178 335.624 157.178 334.595V334.346H153.593C152.912 334.346 152.365 334.495 151.95 334.794C151.535 335.076 151.327 335.5 151.327 336.064C151.327 336.628 151.543 337.076 151.975 337.408C152.406 337.74 152.995 337.906 153.742 337.906ZM167.683 339.674C166.937 339.674 166.339 339.45 165.891 339.002C165.459 338.553 165.244 337.956 165.244 337.209V329.566H161.858V327.4H165.244V323.342H167.808V327.4H171.468V329.566H167.808V336.761C167.808 337.259 168.04 337.508 168.505 337.508H171.069V339.674H167.683ZM179.186 339.898C178.256 339.898 177.426 339.69 176.696 339.275C175.966 338.861 175.393 338.271 174.978 337.508C174.563 336.744 174.356 335.832 174.356 334.769V327.4H176.92V334.595C176.92 335.657 177.186 336.446 177.717 336.96C178.248 337.458 178.987 337.707 179.933 337.707C180.978 337.707 181.816 337.358 182.447 336.661C183.094 335.948 183.418 334.927 183.418 333.599V327.4H185.982V339.674H183.468V337.832H183.07C182.837 338.329 182.422 338.802 181.825 339.251C181.227 339.682 180.348 339.898 179.186 339.898ZM189.773 339.674V327.4H192.288V328.844H192.686C192.885 328.329 193.2 327.956 193.632 327.724C194.08 327.475 194.628 327.35 195.275 327.35H196.744V329.666H195.176C194.346 329.666 193.665 329.898 193.134 330.363C192.603 330.811 192.337 331.508 192.337 332.454V339.674H189.773ZM204.59 340.022C203.345 340.022 202.258 339.765 201.328 339.251C200.399 338.719 199.669 337.981 199.138 337.035C198.623 336.072 198.366 334.96 198.366 333.699V333.4C198.366 332.122 198.623 331.01 199.138 330.064C199.652 329.101 200.366 328.363 201.279 327.848C202.208 327.317 203.279 327.051 204.49 327.051C205.669 327.051 206.698 327.317 207.577 327.848C208.474 328.363 209.171 329.085 209.669 330.014C210.167 330.944 210.416 332.031 210.416 333.275V334.246H200.98C201.013 335.325 201.37 336.188 202.05 336.836C202.748 337.466 203.611 337.782 204.64 337.782C205.602 337.782 206.324 337.566 206.806 337.134C207.304 336.703 207.685 336.205 207.951 335.641L210.067 336.736C209.835 337.201 209.494 337.69 209.046 338.205C208.615 338.719 208.042 339.151 207.328 339.5C206.615 339.848 205.702 340.022 204.59 340.022ZM201.005 332.28H207.801C207.735 331.35 207.403 330.628 206.806 330.114C206.208 329.583 205.428 329.317 204.465 329.317C203.503 329.317 202.714 329.583 202.1 330.114C201.503 330.628 201.138 331.35 201.005 332.28Z" fill="#3A3A3A"/>
<rect x="0.414938" y="284.278" width="239.023" height="93.7912" stroke="#3A3A3A" stroke-width="0.829876"/>
<rect x="0.414938" y="378.899" width="239.023" height="93.7912" fill="#E6E6E6"/>
<path d="M67.1347 434.295V431.905H69.475V419.258H67.1347V416.868H74.1057C76.4294 416.868 78.2053 417.457 79.4335 418.635C80.6783 419.814 81.3007 421.59 81.3007 423.963V427.224C81.3007 429.598 80.6783 431.374 79.4335 432.552C78.2053 433.714 76.4294 434.295 74.1057 434.295H67.1347ZM72.1887 431.855H74.1306C75.641 431.855 76.7613 431.473 77.4916 430.71C78.2219 429.946 78.587 428.809 78.587 427.299V423.863C78.587 422.336 78.2219 421.199 77.4916 420.453C76.7613 419.706 75.641 419.332 74.1306 419.332H72.1887V431.855ZM90.1648 434.643C88.9366 434.643 87.8411 434.395 86.8785 433.897C85.9324 433.382 85.1855 432.652 84.6378 431.706C84.0901 430.76 83.8162 429.639 83.8162 428.345V427.971C83.8162 426.677 84.0901 425.565 84.6378 424.635C85.1855 423.689 85.9324 422.959 86.8785 422.444C87.8411 421.93 88.9366 421.673 90.1648 421.673C91.393 421.673 92.4884 421.93 93.4511 422.444C94.4137 422.959 95.1689 423.689 95.7166 424.635C96.2644 425.565 96.5382 426.677 96.5382 427.971V428.345C96.5382 429.639 96.2644 430.76 95.7166 431.706C95.1689 432.652 94.4137 433.382 93.4511 433.897C92.4884 434.395 91.393 434.643 90.1648 434.643ZM90.1648 432.353C91.2934 432.353 92.2063 431.996 92.9034 431.282C93.6171 430.552 93.9739 429.548 93.9739 428.27V428.046C93.9739 426.768 93.6253 425.772 92.9283 425.058C92.2312 424.328 91.31 423.963 90.1648 423.963C89.0527 423.963 88.1399 424.328 87.4262 425.058C86.7291 425.772 86.3805 426.768 86.3805 428.046V428.27C86.3805 429.548 86.7291 430.552 87.4262 431.282C88.1399 431.996 89.0527 432.353 90.1648 432.353ZM105.432 434.643C104.254 434.643 103.183 434.395 102.22 433.897C101.274 433.399 100.519 432.677 99.9548 431.731C99.4071 430.785 99.1333 429.648 99.1333 428.32V427.996C99.1333 426.668 99.4071 425.54 99.9548 424.61C100.519 423.664 101.274 422.942 102.22 422.444C103.183 421.93 104.254 421.673 105.432 421.673C106.61 421.673 107.615 421.888 108.444 422.32C109.274 422.751 109.938 423.324 110.436 424.038C110.951 424.751 111.283 425.54 111.432 426.403L108.942 426.926C108.859 426.378 108.685 425.88 108.42 425.432C108.154 424.984 107.781 424.627 107.299 424.361C106.818 424.096 106.212 423.963 105.482 423.963C104.768 423.963 104.121 424.129 103.54 424.461C102.976 424.776 102.527 425.241 102.196 425.855C101.864 426.453 101.698 427.183 101.698 428.046V428.27C101.698 429.133 101.864 429.872 102.196 430.486C102.527 431.1 102.976 431.565 103.54 431.88C104.121 432.195 104.768 432.353 105.482 432.353C106.561 432.353 107.382 432.079 107.947 431.531C108.511 430.967 108.868 430.253 109.017 429.39L111.507 429.963C111.308 430.809 110.951 431.59 110.436 432.303C109.938 433.017 109.274 433.59 108.444 434.021C107.615 434.436 106.61 434.643 105.432 434.643ZM126.511 434.643C125.333 434.643 124.262 434.395 123.3 433.897C122.354 433.399 121.598 432.677 121.034 431.731C120.486 430.785 120.212 429.648 120.212 428.32V427.996C120.212 426.668 120.486 425.54 121.034 424.61C121.598 423.664 122.354 422.942 123.3 422.444C124.262 421.93 125.333 421.673 126.511 421.673C127.69 421.673 128.694 421.888 129.524 422.32C130.354 422.751 131.017 423.324 131.515 424.038C132.03 424.751 132.362 425.54 132.511 426.403L130.022 426.926C129.939 426.378 129.764 425.88 129.499 425.432C129.233 424.984 128.86 424.627 128.378 424.361C127.897 424.096 127.291 423.963 126.561 423.963C125.847 423.963 125.2 424.129 124.619 424.461C124.055 424.776 123.607 425.241 123.275 425.855C122.943 426.453 122.777 427.183 122.777 428.046V428.27C122.777 429.133 122.943 429.872 123.275 430.486C123.607 431.1 124.055 431.565 124.619 431.88C125.2 432.195 125.847 432.353 126.561 432.353C127.64 432.353 128.461 432.079 129.026 431.531C129.59 430.967 129.947 430.253 130.096 429.39L132.586 429.963C132.387 430.809 132.03 431.59 131.515 432.303C131.017 433.017 130.354 433.59 129.524 434.021C128.694 434.436 127.69 434.643 126.511 434.643ZM135.543 434.295V416.868H138.108V423.764H138.506C138.672 423.448 138.904 423.141 139.203 422.843C139.519 422.544 139.925 422.303 140.423 422.121C140.938 421.921 141.585 421.822 142.365 421.822C143.294 421.822 144.116 422.029 144.83 422.444C145.56 422.859 146.133 423.448 146.548 424.212C146.963 424.959 147.17 425.863 147.17 426.926V434.295H144.606V427.125C144.606 426.063 144.34 425.282 143.809 424.785C143.278 424.27 142.548 424.013 141.618 424.013C140.556 424.013 139.701 424.361 139.054 425.058C138.423 425.756 138.108 426.768 138.108 428.096V434.295H135.543ZM154.67 434.643C153.79 434.643 153.002 434.494 152.304 434.195C151.624 433.897 151.076 433.457 150.661 432.876C150.263 432.295 150.064 431.59 150.064 430.76C150.064 429.913 150.263 429.216 150.661 428.668C151.076 428.104 151.632 427.681 152.329 427.399C153.043 427.116 153.848 426.975 154.744 426.975H158.479V426.179C158.479 425.465 158.263 424.892 157.831 424.461C157.4 424.029 156.736 423.814 155.84 423.814C154.96 423.814 154.288 424.021 153.823 424.436C153.358 424.851 153.051 425.39 152.902 426.054L150.512 425.282C150.711 424.619 151.026 424.021 151.458 423.49C151.906 422.942 152.495 422.502 153.226 422.17C153.956 421.838 154.836 421.673 155.865 421.673C157.458 421.673 158.711 422.079 159.624 422.892C160.537 423.706 160.993 424.859 160.993 426.353V431.407C160.993 431.905 161.226 432.154 161.69 432.154H162.736V434.295H160.819C160.238 434.295 159.765 434.146 159.4 433.847C159.035 433.548 158.852 433.141 158.852 432.627V432.552H158.479C158.346 432.801 158.147 433.092 157.881 433.424C157.616 433.756 157.226 434.046 156.711 434.295C156.197 434.527 155.516 434.643 154.67 434.643ZM155.043 432.527C156.072 432.527 156.902 432.237 157.533 431.656C158.163 431.058 158.479 430.245 158.479 429.216V428.967H154.894C154.213 428.967 153.665 429.116 153.251 429.415C152.836 429.697 152.628 430.121 152.628 430.685C152.628 431.249 152.844 431.697 153.275 432.029C153.707 432.361 154.296 432.527 155.043 432.527ZM168.984 434.295C168.237 434.295 167.64 434.071 167.192 433.623C166.76 433.175 166.544 432.577 166.544 431.83V424.187H163.158V422.021H166.544V417.963H169.109V422.021H172.768V424.187H169.109V431.382C169.109 431.88 169.341 432.129 169.806 432.129H172.37V434.295H168.984Z" fill="#3A3A3A"/>
<rect x="0.414938" y="378.899" width="239.023" height="93.7912" stroke="#3A3A3A" stroke-width="0.829876"/>
<rect x="240.268" y="0.414938" width="239.023" height="93.7912" fill="#E6E6E6"/>
<path d="M286.978 55.8105V53.4205H289.319V40.7732H286.978V38.3832H295.817C296.862 38.3832 297.775 38.5657 298.555 38.9309C299.335 39.2794 299.941 39.7856 300.373 40.4495C300.821 41.0969 301.045 41.8686 301.045 42.7649V43.0139C301.045 43.8105 300.895 44.4661 300.597 44.9807C300.298 45.4952 299.933 45.8935 299.501 46.1757C299.086 46.4578 298.688 46.657 298.306 46.7732V47.1715C298.688 47.2711 299.095 47.4703 299.526 47.7691C299.974 48.0512 300.348 48.4496 300.646 48.9641C300.962 49.4786 301.119 50.1508 301.119 50.9807V51.2296C301.119 52.1923 300.895 53.0139 300.447 53.6944C299.999 54.3749 299.377 54.8977 298.58 55.2628C297.8 55.628 296.895 55.8105 295.866 55.8105H286.978ZM292.032 53.3707H295.543C296.439 53.3707 297.144 53.1549 297.659 52.7234C298.173 52.2919 298.431 51.6944 298.431 50.9309V50.7068C298.431 49.9433 298.173 49.3458 297.659 48.9143C297.161 48.4827 296.456 48.267 295.543 48.267H292.032V53.3707ZM292.032 45.8022H295.543C296.389 45.8022 297.07 45.5948 297.584 45.1798C298.099 44.7483 298.356 44.1674 298.356 43.4371V43.1881C298.356 42.4578 298.099 41.8852 297.584 41.4703C297.086 41.0388 296.406 40.823 295.543 40.823H292.032V45.8022ZM304.209 55.8105V38.3832H306.773V55.8105H304.209ZM316.33 56.1591C315.101 56.1591 314.006 55.9101 313.043 55.4122C312.097 54.8977 311.35 54.1674 310.803 53.2213C310.255 52.2753 309.981 51.1549 309.981 49.8603V49.4869C309.981 48.1923 310.255 47.0803 310.803 46.1508C311.35 45.2047 312.097 44.4744 313.043 43.9599C314.006 43.4454 315.101 43.1881 316.33 43.1881C317.558 43.1881 318.653 43.4454 319.616 43.9599C320.579 44.4744 321.334 45.2047 321.882 46.1508C322.429 47.0803 322.703 48.1923 322.703 49.4869V49.8603C322.703 51.1549 322.429 52.2753 321.882 53.2213C321.334 54.1674 320.579 54.8977 319.616 55.4122C318.653 55.9101 317.558 56.1591 316.33 56.1591ZM316.33 53.8686C317.458 53.8686 318.371 53.5118 319.068 52.7981C319.782 52.0678 320.139 51.0637 320.139 49.7856V49.5616C320.139 48.2836 319.79 47.2877 319.093 46.574C318.396 45.8437 317.475 45.4786 316.33 45.4786C315.218 45.4786 314.305 45.8437 313.591 46.574C312.894 47.2877 312.545 48.2836 312.545 49.5616V49.7856C312.545 51.0637 312.894 52.0678 313.591 52.7981C314.305 53.5118 315.218 53.8686 316.33 53.8686ZM331.647 56.1591C330.419 56.1591 329.323 55.9101 328.36 55.4122C327.414 54.8977 326.668 54.1674 326.12 53.2213C325.572 52.2753 325.298 51.1549 325.298 49.8603V49.4869C325.298 48.1923 325.572 47.0803 326.12 46.1508C326.668 45.2047 327.414 44.4744 328.36 43.9599C329.323 43.4454 330.419 43.1881 331.647 43.1881C332.875 43.1881 333.97 43.4454 334.933 43.9599C335.896 44.4744 336.651 45.2047 337.199 46.1508C337.746 47.0803 338.02 48.1923 338.02 49.4869V49.8603C338.02 51.1549 337.746 52.2753 337.199 53.2213C336.651 54.1674 335.896 54.8977 334.933 55.4122C333.97 55.9101 332.875 56.1591 331.647 56.1591ZM331.647 53.8686C332.775 53.8686 333.688 53.5118 334.385 52.7981C335.099 52.0678 335.456 51.0637 335.456 49.7856V49.5616C335.456 48.2836 335.107 47.2877 334.41 46.574C333.713 45.8437 332.792 45.4786 331.647 45.4786C330.535 45.4786 329.622 45.8437 328.908 46.574C328.211 47.2877 327.863 48.2836 327.863 49.5616V49.7856C327.863 51.0637 328.211 52.0678 328.908 52.7981C329.622 53.5118 330.535 53.8686 331.647 53.8686ZM346.292 56.1591C345.279 56.1591 344.341 55.9101 343.478 55.4122C342.615 54.9143 341.918 54.2006 341.387 53.2711C340.873 52.3251 340.615 51.1881 340.615 49.8603V49.4869C340.615 48.1757 340.873 47.0471 341.387 46.101C341.902 45.1549 342.59 44.433 343.453 43.935C344.316 43.4371 345.263 43.1881 346.292 43.1881C347.088 43.1881 347.752 43.2877 348.283 43.4869C348.831 43.6861 349.279 43.9433 349.628 44.2587C349.976 44.5574 350.242 44.8728 350.424 45.2047H350.823V38.3832H353.387V55.8105H350.873V54.0678H350.474C350.159 54.5989 349.677 55.0803 349.03 55.5118C348.399 55.9433 347.487 56.1591 346.292 56.1591ZM347.014 53.9184C348.126 53.9184 349.038 53.5616 349.752 52.8479C350.482 52.1342 350.848 51.1135 350.848 49.7856V49.5616C350.848 48.2504 350.491 47.2379 349.777 46.5242C349.063 45.8105 348.142 45.4537 347.014 45.4537C345.918 45.4537 345.005 45.8105 344.275 46.5242C343.561 47.2379 343.204 48.2504 343.204 49.5616V49.7856C343.204 51.1135 343.561 52.1342 344.275 52.8479C345.005 53.5616 345.918 53.9184 347.014 53.9184ZM362.786 55.8105V53.4205H365.126V40.7732H362.786V38.3832H369.757C372.08 38.3832 373.856 38.9724 375.084 40.1508C376.329 41.3292 376.952 43.1052 376.952 45.4786V48.74C376.952 51.1135 376.329 52.8894 375.084 54.0678C373.856 55.2296 372.08 55.8105 369.757 55.8105H362.786ZM367.84 53.3707H369.781C371.292 53.3707 372.412 52.989 373.142 52.2255C373.873 51.462 374.238 50.3251 374.238 48.8147V45.379C374.238 43.852 373.873 42.7151 373.142 41.9682C372.412 41.2213 371.292 40.8479 369.781 40.8479H367.84V53.3707ZM385.816 56.1591C384.587 56.1591 383.492 55.9101 382.529 55.4122C381.583 54.8977 380.836 54.1674 380.289 53.2213C379.741 52.2753 379.467 51.1549 379.467 49.8603V49.4869C379.467 48.1923 379.741 47.0803 380.289 46.1508C380.836 45.2047 381.583 44.4744 382.529 43.9599C383.492 43.4454 384.587 43.1881 385.816 43.1881C387.044 43.1881 388.139 43.4454 389.102 43.9599C390.065 44.4744 390.82 45.2047 391.367 46.1508C391.915 47.0803 392.189 48.1923 392.189 49.4869V49.8603C392.189 51.1549 391.915 52.2753 391.367 53.2213C390.82 54.1674 390.065 54.8977 389.102 55.4122C388.139 55.9101 387.044 56.1591 385.816 56.1591ZM385.816 53.8686C386.944 53.8686 387.857 53.5118 388.554 52.7981C389.268 52.0678 389.625 51.0637 389.625 49.7856V49.5616C389.625 48.2836 389.276 47.2877 388.579 46.574C387.882 45.8437 386.961 45.4786 385.816 45.4786C384.704 45.4786 383.791 45.8437 383.077 46.574C382.38 47.2877 382.031 48.2836 382.031 49.5616V49.7856C382.031 51.0637 382.38 52.0678 383.077 52.7981C383.791 53.5118 384.704 53.8686 385.816 53.8686ZM395.382 55.8105V43.5367H397.896V45.379H398.294C398.527 44.8811 398.942 44.4164 399.539 43.9848C400.137 43.5533 401.025 43.3375 402.203 43.3375C403.133 43.3375 403.954 43.545 404.668 43.9599C405.398 44.3749 405.971 44.9641 406.386 45.7276C406.801 46.4744 407.008 47.379 407.008 48.4413V55.8105H404.444V48.6404C404.444 47.5782 404.178 46.7981 403.647 46.3002C403.116 45.7856 402.386 45.5284 401.456 45.5284C400.394 45.5284 399.539 45.8769 398.892 46.574C398.261 47.2711 397.946 48.2836 397.946 49.6114V55.8105H395.382ZM416.45 56.1591C415.221 56.1591 414.126 55.9101 413.163 55.4122C412.217 54.8977 411.47 54.1674 410.923 53.2213C410.375 52.2753 410.101 51.1549 410.101 49.8603V49.4869C410.101 48.1923 410.375 47.0803 410.923 46.1508C411.47 45.2047 412.217 44.4744 413.163 43.9599C414.126 43.4454 415.221 43.1881 416.45 43.1881C417.678 43.1881 418.773 43.4454 419.736 43.9599C420.699 44.4744 421.454 45.2047 422.002 46.1508C422.549 47.0803 422.823 48.1923 422.823 49.4869V49.8603C422.823 51.1549 422.549 52.2753 422.002 53.2213C421.454 54.1674 420.699 54.8977 419.736 55.4122C418.773 55.9101 417.678 56.1591 416.45 56.1591ZM416.45 53.8686C417.578 53.8686 418.491 53.5118 419.188 52.7981C419.902 52.0678 420.259 51.0637 420.259 49.7856V49.5616C420.259 48.2836 419.91 47.2877 419.213 46.574C418.516 45.8437 417.595 45.4786 416.45 45.4786C415.338 45.4786 414.425 45.8437 413.711 46.574C413.014 47.2877 412.665 48.2836 412.665 49.5616V49.7856C412.665 51.0637 413.014 52.0678 413.711 52.7981C414.425 53.5118 415.338 53.8686 416.45 53.8686ZM426.016 55.8105V43.5367H428.53V44.9807H428.929C429.128 44.4661 429.443 44.0927 429.875 43.8603C430.323 43.6114 430.87 43.4869 431.518 43.4869H432.987V45.8022H431.418C430.588 45.8022 429.908 46.0346 429.377 46.4993C428.846 46.9475 428.58 47.6446 428.58 48.5906V55.8105H426.016Z" fill="#3A3A3A"/>
<rect x="240.268" y="0.414938" width="239.023" height="93.7912" stroke="#3A3A3A" stroke-width="0.829876"/>
<rect x="240.268" y="95.036" width="239.023" height="93.7912" fill="#E9E9E9"/>
<path d="M359.78 114.27C344.482 114.27 332.117 126.635 332.117 141.932C332.117 157.229 344.482 169.595 359.78 169.595C375.077 169.595 387.442 157.229 387.442 141.932C387.442 126.635 375.077 114.27 359.78 114.27ZM371.675 153.827C371.419 154.083 371.115 154.287 370.78 154.426C370.445 154.564 370.087 154.636 369.724 154.636C369.362 154.636 369.003 154.564 368.669 154.426C368.334 154.287 368.03 154.083 367.774 153.827L359.78 145.832L351.785 153.827C351.268 154.344 350.567 154.635 349.835 154.635C349.104 154.635 348.402 154.344 347.885 153.827C347.368 153.31 347.077 152.608 347.077 151.877C347.077 151.515 347.148 151.156 347.287 150.821C347.426 150.487 347.629 150.183 347.885 149.927L355.879 141.932L347.885 133.938C347.368 133.42 347.077 132.719 347.077 131.987C347.077 131.256 347.368 130.554 347.885 130.037C348.402 129.52 349.104 129.229 349.835 129.229C350.567 129.229 351.268 129.52 351.785 130.037L359.78 138.032L367.774 130.037C368.03 129.781 368.334 129.578 368.669 129.439C369.004 129.301 369.362 129.229 369.724 129.229C370.087 129.229 370.445 129.301 370.78 129.439C371.114 129.578 371.418 129.781 371.675 130.037C371.931 130.293 372.134 130.597 372.272 130.932C372.411 131.267 372.482 131.625 372.482 131.987C372.482 132.35 372.411 132.708 372.272 133.043C372.134 133.377 371.931 133.681 371.675 133.938L363.68 141.932L371.675 149.927C372.726 150.978 372.726 152.748 371.675 153.827Z" fill="#ADADAD"/>
<rect x="240.268" y="95.036" width="239.023" height="93.7912" stroke="#E9E9E9" stroke-width="0.829876"/>
<rect x="240.268" y="189.657" width="239.023" height="93.7912" fill="#E9E9E9"/>
<g clip-path="url(#clip0_186_437)">
<path fill-rule="evenodd" clip-rule="evenodd" d="M330.734 236.552C330.734 228.849 333.794 221.461 339.241 216.014C344.688 210.567 352.076 207.507 359.78 207.507C367.483 207.507 374.871 210.567 380.318 216.014C385.765 221.461 388.825 228.849 388.825 236.552C388.825 244.256 385.765 251.644 380.318 257.091C374.871 262.538 367.483 265.598 359.78 265.598C352.076 265.598 344.688 262.538 339.241 257.091C333.794 251.644 330.734 244.256 330.734 236.552V236.552ZM358.122 248.984L374.845 228.079L371.824 225.662L357.564 243.481L347.464 235.065L344.986 238.04L358.122 248.988V248.984Z" fill="#75B3E6"/>
</g>
<rect x="240.268" y="189.657" width="239.023" height="93.7912" stroke="#E9E9E9" stroke-width="0.829876"/>
<rect x="240.268" y="284.278" width="239.023" height="93.7912" fill="#E9E9E9"/>
<g clip-path="url(#clip1_186_437)">
<path fill-rule="evenodd" clip-rule="evenodd" d="M330.734 331.174C330.734 323.47 333.794 316.082 339.241 310.635C344.688 305.188 352.076 302.128 359.78 302.128C367.483 302.128 374.871 305.188 380.318 310.635C385.765 316.082 388.825 323.47 388.825 331.174C388.825 338.877 385.765 346.265 380.318 351.712C374.871 357.159 367.483 360.219 359.78 360.219C352.076 360.219 344.688 357.159 339.241 351.712C333.794 346.265 330.734 338.877 330.734 331.174V331.174ZM358.122 343.605L374.845 322.7L371.824 320.283L357.564 338.102L347.464 329.686L344.986 332.661L358.122 343.609V343.605Z" fill="#75B3E6"/>
</g>
<rect x="240.268" y="284.278" width="239.023" height="93.7912" stroke="#E9E9E9" stroke-width="0.829876"/>
<rect x="240.268" y="378.899" width="239.023" height="93.7912" fill="#E9E9E9"/>
<path d="M359.78 398.133C344.482 398.133 332.117 410.498 332.117 425.795C332.117 441.093 344.482 453.458 359.78 453.458C375.077 453.458 387.442 441.093 387.442 425.795C387.442 410.498 375.077 398.133 359.78 398.133ZM371.675 437.69C371.419 437.947 371.115 438.15 370.78 438.289C370.445 438.428 370.087 438.499 369.724 438.499C369.362 438.499 369.003 438.428 368.669 438.289C368.334 438.15 368.03 437.947 367.774 437.69L359.78 429.696L351.785 437.69C351.268 438.207 350.567 438.498 349.835 438.498C349.104 438.498 348.402 438.207 347.885 437.69C347.368 437.173 347.077 436.471 347.077 435.74C347.077 435.378 347.148 435.019 347.287 434.685C347.426 434.35 347.629 434.046 347.885 433.79L355.879 425.795L347.885 417.801C347.368 417.284 347.077 416.582 347.077 415.851C347.077 415.119 347.368 414.418 347.885 413.9C348.402 413.383 349.104 413.093 349.835 413.093C350.567 413.093 351.268 413.383 351.785 413.9L359.78 421.895L367.774 413.9C368.03 413.644 368.334 413.441 368.669 413.303C369.004 413.164 369.362 413.093 369.724 413.093C370.087 413.093 370.445 413.164 370.78 413.303C371.114 413.441 371.418 413.644 371.675 413.9C371.931 414.157 372.134 414.461 372.272 414.795C372.411 415.13 372.482 415.488 372.482 415.851C372.482 416.213 372.411 416.571 372.272 416.906C372.134 417.241 371.931 417.545 371.675 417.801L363.68 425.795L371.675 433.79C372.726 434.841 372.726 436.611 371.675 437.69Z" fill="#ADADAD"/>
<rect x="240.268" y="378.899" width="239.023" height="93.7912" stroke="#E9E9E9" stroke-width="0.829876"/>
<rect x="480.121" y="0.414938" width="239.757" height="93.7912" fill="#E6E6E6"/>
<path d="M529.589 56.1591C528.278 56.1591 527.116 55.9267 526.104 55.462C525.091 54.9973 524.295 54.3168 523.714 53.4205C523.149 52.5076 522.867 51.4039 522.867 50.1093V49.4869H525.531V50.1093C525.531 51.3375 525.896 52.2587 526.627 52.8728C527.374 53.4869 528.361 53.7939 529.589 53.7939C530.834 53.7939 531.772 53.5367 532.403 53.0222C533.033 52.491 533.349 51.8105 533.349 50.9807C533.349 50.433 533.199 49.9848 532.901 49.6363C532.602 49.2877 532.179 49.0139 531.631 48.8147C531.083 48.5989 530.427 48.3998 529.664 48.2172L528.743 47.9931C527.631 47.7276 526.66 47.4039 525.83 47.0222C525.017 46.6238 524.386 46.101 523.938 45.4537C523.49 44.8064 523.266 43.9765 523.266 42.9641C523.266 41.935 523.515 41.0554 524.013 40.3251C524.527 39.5948 525.232 39.0305 526.129 38.6321C527.025 38.2338 528.079 38.0346 529.291 38.0346C530.502 38.0346 531.581 38.2421 532.527 38.657C533.49 39.072 534.245 39.6861 534.793 40.4993C535.34 41.3126 535.614 42.3334 535.614 43.5616V44.4578H532.95V43.5616C532.95 42.8147 532.793 42.2089 532.477 41.7442C532.179 41.2794 531.755 40.9392 531.208 40.7234C530.66 40.5076 530.021 40.3998 529.291 40.3998C528.228 40.3998 527.398 40.6238 526.801 41.072C526.22 41.5035 525.93 42.1093 525.93 42.8894C525.93 43.4205 526.054 43.8603 526.303 44.2089C526.569 44.5408 526.95 44.8147 527.448 45.0305C527.946 45.2462 528.569 45.4371 529.315 45.6031L530.237 45.8271C531.365 46.0761 532.361 46.3998 533.224 46.7981C534.087 47.1798 534.768 47.7027 535.266 48.3666C535.764 49.0305 536.013 49.8852 536.013 50.9309C536.013 51.9765 535.747 52.8894 535.216 53.6695C534.701 54.4496 533.963 55.0637 533 55.5118C532.037 55.9433 530.901 56.1591 529.589 56.1591ZM538.91 55.8105V43.5367H541.474V55.8105H538.91ZM540.204 41.8686C539.707 41.8686 539.283 41.711 538.935 41.3956C538.603 41.0637 538.437 40.6404 538.437 40.1259C538.437 39.6114 538.603 39.1964 538.935 38.8811C539.283 38.5491 539.707 38.3832 540.204 38.3832C540.719 38.3832 541.142 38.5491 541.474 38.8811C541.806 39.1964 541.972 39.6114 541.972 40.1259C541.972 40.6404 541.806 41.0637 541.474 41.3956C541.142 41.711 540.719 41.8686 540.204 41.8686ZM545.28 55.8105V43.5367H547.794V44.9807H548.193C548.425 44.5491 548.798 44.1674 549.313 43.8354C549.828 43.5035 550.525 43.3375 551.404 43.3375C552.317 43.3375 553.047 43.5284 553.595 43.9101C554.159 44.2753 554.583 44.7483 554.865 45.3292H555.263C555.545 44.7649 555.952 44.2919 556.483 43.9101C557.031 43.5284 557.803 43.3375 558.798 43.3375C559.595 43.3375 560.301 43.5035 560.915 43.8354C561.529 44.1508 562.018 44.6321 562.384 45.2794C562.749 45.9101 562.931 46.6985 562.931 47.6446V55.8105H560.367V47.8437C560.367 47.0969 560.159 46.5242 559.745 46.1259C559.346 45.711 558.774 45.5035 558.027 45.5035C557.23 45.5035 556.591 45.7608 556.11 46.2753C555.628 46.7898 555.388 47.5284 555.388 48.491V55.8105H552.823V47.8437C552.823 47.0969 552.616 46.5242 552.201 46.1259C551.803 45.711 551.23 45.5035 550.483 45.5035C549.686 45.5035 549.047 45.7608 548.566 46.2753C548.085 46.7898 547.844 47.5284 547.844 48.491V55.8105H545.28ZM566.626 60.7898V43.5367H569.141V45.3043H569.539C569.855 44.7566 570.328 44.267 570.958 43.8354C571.606 43.4039 572.527 43.1881 573.722 43.1881C574.751 43.1881 575.689 43.4371 576.535 43.935C577.398 44.433 578.087 45.1549 578.601 46.101C579.133 47.0305 579.398 48.1591 579.398 49.4869V49.8603C579.398 51.1881 579.141 52.3251 578.626 53.2711C578.112 54.2006 577.423 54.9143 576.56 55.4122C575.697 55.9101 574.751 56.1591 573.722 56.1591C572.925 56.1591 572.253 56.0595 571.705 55.8603C571.158 55.6612 570.718 55.4122 570.386 55.1135C570.054 54.7981 569.788 54.4744 569.589 54.1425H569.191V60.7898H566.626ZM572.975 53.9184C574.104 53.9184 575.025 53.5616 575.738 52.8479C576.452 52.1342 576.809 51.1135 576.809 49.7856V49.5616C576.809 48.2504 576.444 47.2379 575.714 46.5242C575 45.8105 574.087 45.4537 572.975 45.4537C571.88 45.4537 570.967 45.8105 570.236 46.5242C569.523 47.2379 569.166 48.2504 569.166 49.5616V49.7856C569.166 51.1135 569.523 52.1342 570.236 52.8479C570.967 53.5616 571.88 53.9184 572.975 53.9184ZM582.576 55.8105V38.3832H585.14V55.8105H582.576ZM590.365 60.7898V58.5491H597.211C597.676 58.5491 597.908 58.3002 597.908 57.8022V54.018H597.51C597.36 54.35 597.128 54.6736 596.813 54.989C596.514 55.2877 596.107 55.5367 595.593 55.7359C595.078 55.935 594.431 56.0346 593.651 56.0346C592.721 56.0346 591.892 55.8271 591.161 55.4122C590.431 54.9973 589.858 54.4081 589.443 53.6446C589.028 52.8811 588.821 51.9765 588.821 50.9309V43.5367H591.385V50.7317C591.385 51.7939 591.651 52.5823 592.182 53.0969C592.713 53.5948 593.452 53.8437 594.398 53.8437C595.443 53.8437 596.282 53.4952 596.912 52.7981C597.56 52.101 597.883 51.0886 597.883 49.7608V43.5367H600.448V58.3251C600.448 59.072 600.224 59.6695 599.775 60.1176C599.344 60.5657 598.746 60.7898 597.983 60.7898H590.365ZM609.862 55.8105V53.4205H612.202V40.7732H609.862V38.3832H618.7C619.746 38.3832 620.659 38.5657 621.439 38.9309C622.219 39.2794 622.825 39.7856 623.256 40.4495C623.704 41.0969 623.928 41.8686 623.928 42.7649V43.0139C623.928 43.8105 623.779 44.4661 623.48 44.9807C623.181 45.4952 622.816 45.8935 622.385 46.1757C621.97 46.4578 621.571 46.657 621.19 46.7732V47.1715C621.571 47.2711 621.978 47.4703 622.41 47.7691C622.858 48.0512 623.231 48.4496 623.53 48.9641C623.845 49.4786 624.003 50.1508 624.003 50.9807V51.2296C624.003 52.1923 623.779 53.0139 623.331 53.6944C622.883 54.3749 622.26 54.8977 621.464 55.2628C620.683 55.628 619.779 55.8105 618.75 55.8105H609.862ZM614.916 53.3707H618.426C619.322 53.3707 620.028 53.1549 620.542 52.7234C621.057 52.2919 621.314 51.6944 621.314 50.9309V50.7068C621.314 49.9433 621.057 49.3458 620.542 48.9143C620.044 48.4827 619.339 48.267 618.426 48.267H614.916V53.3707ZM614.916 45.8022H618.426C619.273 45.8022 619.953 45.5948 620.468 45.1798C620.982 44.7483 621.239 44.1674 621.239 43.4371V43.1881C621.239 42.4578 620.982 41.8852 620.468 41.4703C619.97 41.0388 619.289 40.823 618.426 40.823H614.916V45.8022ZM627.092 55.8105V38.3832H629.657V55.8105H627.092ZM639.213 56.1591C637.985 56.1591 636.89 55.9101 635.927 55.4122C634.981 54.8977 634.234 54.1674 633.686 53.2213C633.139 52.2753 632.865 51.1549 632.865 49.8603V49.4869C632.865 48.1923 633.139 47.0803 633.686 46.1508C634.234 45.2047 634.981 44.4744 635.927 43.9599C636.89 43.4454 637.985 43.1881 639.213 43.1881C640.441 43.1881 641.537 43.4454 642.5 43.9599C643.462 44.4744 644.217 45.2047 644.765 46.1508C645.313 47.0803 645.587 48.1923 645.587 49.4869V49.8603C645.587 51.1549 645.313 52.2753 644.765 53.2213C644.217 54.1674 643.462 54.8977 642.5 55.4122C641.537 55.9101 640.441 56.1591 639.213 56.1591ZM639.213 53.8686C640.342 53.8686 641.255 53.5118 641.952 52.7981C642.665 52.0678 643.022 51.0637 643.022 49.7856V49.5616C643.022 48.2836 642.674 47.2877 641.977 46.574C641.28 45.8437 640.358 45.4786 639.213 45.4786C638.101 45.4786 637.188 45.8437 636.475 46.574C635.778 47.2877 635.429 48.2836 635.429 49.5616V49.7856C635.429 51.0637 635.778 52.0678 636.475 52.7981C637.188 53.5118 638.101 53.8686 639.213 53.8686ZM654.53 56.1591C653.302 56.1591 652.207 55.9101 651.244 55.4122C650.298 54.8977 649.551 54.1674 649.003 53.2213C648.456 52.2753 648.182 51.1549 648.182 49.8603V49.4869C648.182 48.1923 648.456 47.0803 649.003 46.1508C649.551 45.2047 650.298 44.4744 651.244 43.9599C652.207 43.4454 653.302 43.1881 654.53 43.1881C655.758 43.1881 656.854 43.4454 657.817 43.9599C658.779 44.4744 659.534 45.2047 660.082 46.1508C660.63 47.0803 660.904 48.1923 660.904 49.4869V49.8603C660.904 51.1549 660.63 52.2753 660.082 53.2213C659.534 54.1674 658.779 54.8977 657.817 55.4122C656.854 55.9101 655.758 56.1591 654.53 56.1591ZM654.53 53.8686C655.659 53.8686 656.572 53.5118 657.269 52.7981C657.983 52.0678 658.339 51.0637 658.339 49.7856V49.5616C658.339 48.2836 657.991 47.2877 657.294 46.574C656.597 45.8437 655.675 45.4786 654.53 45.4786C653.418 45.4786 652.505 45.8437 651.792 46.574C651.095 47.2877 650.746 48.2836 650.746 49.5616V49.7856C650.746 51.0637 651.095 52.0678 651.792 52.7981C652.505 53.5118 653.418 53.8686 654.53 53.8686ZM669.175 56.1591C668.163 56.1591 667.225 55.9101 666.362 55.4122C665.499 54.9143 664.802 54.2006 664.271 53.2711C663.756 52.3251 663.499 51.1881 663.499 49.8603V49.4869C663.499 48.1757 663.756 47.0471 664.271 46.101C664.785 45.1549 665.474 44.433 666.337 43.935C667.2 43.4371 668.146 43.1881 669.175 43.1881C669.972 43.1881 670.636 43.2877 671.167 43.4869C671.715 43.6861 672.163 43.9433 672.511 44.2587C672.86 44.5574 673.125 44.8728 673.308 45.2047H673.706V38.3832H676.271V55.8105H673.756V54.0678H673.358C673.042 54.5989 672.561 55.0803 671.914 55.5118C671.283 55.9433 670.37 56.1591 669.175 56.1591ZM669.897 53.9184C671.009 53.9184 671.922 53.5616 672.636 52.8479C673.366 52.1342 673.731 51.1135 673.731 49.7856V49.5616C673.731 48.2504 673.374 47.2379 672.661 46.5242C671.947 45.8105 671.026 45.4537 669.897 45.4537C668.802 45.4537 667.889 45.8105 667.158 46.5242C666.445 47.2379 666.088 48.2504 666.088 49.5616V49.7856C666.088 51.1135 666.445 52.1342 667.158 52.8479C667.889 53.5616 668.802 53.9184 669.897 53.9184Z" fill="#3A3A3A"/>
<rect x="480.121" y="0.414938" width="239.757" height="93.7912" stroke="#3A3A3A" stroke-width="0.829876"/>
<rect x="480.121" y="95.036" width="239.757" height="93.7912" fill="#E9E9E9"/>
<path d="M600 114.27C584.703 114.27 572.337 126.635 572.337 141.932C572.337 157.229 584.703 169.595 600 169.595C615.297 169.595 627.662 157.229 627.662 141.932C627.662 126.635 615.297 114.27 600 114.27ZM611.895 153.827C611.639 154.083 611.335 154.287 611 154.426C610.666 154.564 610.307 154.636 609.945 154.636C609.582 154.636 609.224 154.564 608.889 154.426C608.554 154.287 608.25 154.083 607.994 153.827L600 145.832L592.005 153.827C591.488 154.344 590.787 154.635 590.055 154.635C589.324 154.635 588.622 154.344 588.105 153.827C587.588 153.31 587.297 152.608 587.297 151.877C587.297 151.515 587.369 151.156 587.507 150.821C587.646 150.487 587.849 150.183 588.105 149.927L596.1 141.932L588.105 133.938C587.588 133.42 587.297 132.719 587.297 131.987C587.297 131.256 587.588 130.554 588.105 130.037C588.622 129.52 589.324 129.229 590.055 129.229C590.787 129.229 591.488 129.52 592.005 130.037L600 138.032L607.994 130.037C608.251 129.781 608.555 129.578 608.889 129.439C609.224 129.301 609.582 129.229 609.945 129.229C610.307 129.229 610.665 129.301 611 129.439C611.335 129.578 611.639 129.781 611.895 130.037C612.151 130.293 612.354 130.597 612.493 130.932C612.631 131.267 612.703 131.625 612.703 131.987C612.703 132.35 612.631 132.708 612.493 133.043C612.354 133.377 612.151 133.681 611.895 133.938L603.9 141.932L611.895 149.927C612.946 150.978 612.946 152.748 611.895 153.827Z" fill="#ADADAD"/>
<rect x="480.121" y="95.036" width="239.757" height="93.7912" stroke="#E9E9E9" stroke-width="0.829876"/>
<rect x="480.121" y="189.657" width="239.757" height="93.7912" fill="#E9E9E9"/>
<g clip-path="url(#clip2_186_437)">
<path fill-rule="evenodd" clip-rule="evenodd" d="M570.954 236.552C570.954 228.849 574.014 221.461 579.461 216.014C584.908 210.567 592.296 207.507 600 207.507C607.703 207.507 615.091 210.567 620.538 216.014C625.985 221.461 629.045 228.849 629.045 236.552C629.045 244.256 625.985 251.644 620.538 257.091C615.091 262.538 607.703 265.598 600 265.598C592.296 265.598 584.908 262.538 579.461 257.091C574.014 251.644 570.954 244.256 570.954 236.552V236.552ZM598.342 248.984L615.065 228.079L612.044 225.662L597.785 243.481L587.684 235.065L585.206 238.04L598.342 248.988V248.984Z" fill="#75B3E6"/>
</g>
<rect x="480.121" y="189.657" width="239.757" height="93.7912" stroke="#E9E9E9" stroke-width="0.829876"/>
<rect x="480.121" y="284.278" width="239.757" height="93.7912" fill="#E9E9E9"/>
<g clip-path="url(#clip3_186_437)">
<path fill-rule="evenodd" clip-rule="evenodd" d="M570.954 331.174C570.954 323.47 574.014 316.082 579.461 310.635C584.908 305.188 592.296 302.128 600 302.128C607.703 302.128 615.091 305.188 620.538 310.635C625.985 316.082 629.045 323.47 629.045 331.174C629.045 338.877 625.985 346.265 620.538 351.712C615.091 357.159 607.703 360.219 600 360.219C592.296 360.219 584.908 357.159 579.461 351.712C574.014 346.265 570.954 338.877 570.954 331.174V331.174ZM598.342 343.605L615.065 322.7L612.044 320.283L597.785 338.102L587.684 329.686L585.206 332.661L598.342 343.609V343.605Z" fill="#75B3E6"/>
</g>
<rect x="480.121" y="284.278" width="239.757" height="93.7912" stroke="#E9E9E9" stroke-width="0.829876"/>
<rect x="480.121" y="378.899" width="239.757" height="93.7912" fill="#E9E9E9"/>
<path d="M600 398.133C584.703 398.133 572.337 410.498 572.337 425.795C572.337 441.093 584.703 453.458 600 453.458C615.297 453.458 627.662 441.093 627.662 425.795C627.662 410.498 615.297 398.133 600 398.133ZM611.895 437.69C611.639 437.947 611.335 438.15 611 438.289C610.666 438.428 610.307 438.499 609.945 438.499C609.582 438.499 609.224 438.428 608.889 438.289C608.554 438.15 608.25 437.947 607.994 437.69L600 429.696L592.005 437.69C591.488 438.207 590.787 438.498 590.055 438.498C589.324 438.498 588.622 438.207 588.105 437.69C587.588 437.173 587.297 436.471 587.297 435.74C587.297 435.378 587.369 435.019 587.507 434.685C587.646 434.35 587.849 434.046 588.105 433.79L596.1 425.795L588.105 417.801C587.588 417.284 587.297 416.582 587.297 415.851C587.297 415.119 587.588 414.418 588.105 413.9C588.622 413.383 589.324 413.093 590.055 413.093C590.787 413.093 591.488 413.383 592.005 413.9L600 421.895L607.994 413.9C608.251 413.644 608.555 413.441 608.889 413.303C609.224 413.164 609.582 413.093 609.945 413.093C610.307 413.093 610.665 413.164 611 413.303C611.335 413.441 611.639 413.644 611.895 413.9C612.151 414.157 612.354 414.461 612.493 414.795C612.631 415.13 612.703 415.488 612.703 415.851C612.703 416.213 612.631 416.571 612.493 416.906C612.354 417.241 612.151 417.545 611.895 417.801L603.9 425.795L611.895 433.79C612.946 434.841 612.946 436.611 611.895 437.69Z" fill="#ADADAD"/>
<rect x="480.121" y="378.899" width="239.757" height="93.7912" stroke="#E9E9E9" stroke-width="0.829876"/>
<rect x="720.708" y="0.414938" width="239.023" height="93.7912" fill="#E6E6E6"/>
<path d="M785.362 55.8105V53.4205H787.702V40.7732H785.362V38.3832H794.2C795.245 38.3832 796.158 38.5657 796.938 38.9309C797.718 39.2794 798.324 39.7856 798.756 40.4495C799.204 41.0969 799.428 41.8686 799.428 42.7649V43.0139C799.428 43.8105 799.279 44.4661 798.98 44.9807C798.681 45.4952 798.316 45.8935 797.884 46.1757C797.47 46.4578 797.071 46.657 796.689 46.7732V47.1715C797.071 47.2711 797.478 47.4703 797.909 47.7691C798.357 48.0512 798.731 48.4496 799.03 48.9641C799.345 49.4786 799.503 50.1508 799.503 50.9807V51.2296C799.503 52.1923 799.279 53.0139 798.831 53.6944C798.382 54.3749 797.76 54.8977 796.963 55.2628C796.183 55.628 795.279 55.8105 794.25 55.8105H785.362ZM790.416 53.3707H793.926C794.822 53.3707 795.528 53.1549 796.042 52.7234C796.557 52.2919 796.814 51.6944 796.814 50.9309V50.7068C796.814 49.9433 796.557 49.3458 796.042 48.9143C795.544 48.4827 794.839 48.267 793.926 48.267H790.416V53.3707ZM790.416 45.8022H793.926C794.772 45.8022 795.453 45.5948 795.967 45.1798C796.482 44.7483 796.739 44.1674 796.739 43.4371V43.1881C796.739 42.4578 796.482 41.8852 795.967 41.4703C795.47 41.0388 794.789 40.823 793.926 40.823H790.416V45.8022ZM802.592 55.8105V38.3832H805.156V55.8105H802.592ZM814.713 56.1591C813.485 56.1591 812.389 55.9101 811.427 55.4122C810.481 54.8977 809.734 54.1674 809.186 53.2213C808.638 52.2753 808.364 51.1549 808.364 49.8603V49.4869C808.364 48.1923 808.638 47.0803 809.186 46.1508C809.734 45.2047 810.481 44.4744 811.427 43.9599C812.389 43.4454 813.485 43.1881 814.713 43.1881C815.941 43.1881 817.037 43.4454 817.999 43.9599C818.962 44.4744 819.717 45.2047 820.265 46.1508C820.813 47.0803 821.086 48.1923 821.086 49.4869V49.8603C821.086 51.1549 820.813 52.2753 820.265 53.2213C819.717 54.1674 818.962 54.8977 817.999 55.4122C817.037 55.9101 815.941 56.1591 814.713 56.1591ZM814.713 53.8686C815.842 53.8686 816.754 53.5118 817.452 52.7981C818.165 52.0678 818.522 51.0637 818.522 49.7856V49.5616C818.522 48.2836 818.174 47.2877 817.476 46.574C816.779 45.8437 815.858 45.4786 814.713 45.4786C813.601 45.4786 812.688 45.8437 811.974 46.574C811.277 47.2877 810.929 48.2836 810.929 49.5616V49.7856C810.929 51.0637 811.277 52.0678 811.974 52.7981C812.688 53.5118 813.601 53.8686 814.713 53.8686ZM830.03 56.1591C828.802 56.1591 827.706 55.9101 826.744 55.4122C825.798 54.8977 825.051 54.1674 824.503 53.2213C823.955 52.2753 823.681 51.1549 823.681 49.8603V49.4869C823.681 48.1923 823.955 47.0803 824.503 46.1508C825.051 45.2047 825.798 44.4744 826.744 43.9599C827.706 43.4454 828.802 43.1881 830.03 43.1881C831.258 43.1881 832.354 43.4454 833.316 43.9599C834.279 44.4744 835.034 45.2047 835.582 46.1508C836.13 47.0803 836.403 48.1923 836.403 49.4869V49.8603C836.403 51.1549 836.13 52.2753 835.582 53.2213C835.034 54.1674 834.279 54.8977 833.316 55.4122C832.354 55.9101 831.258 56.1591 830.03 56.1591ZM830.03 53.8686C831.159 53.8686 832.071 53.5118 832.769 52.7981C833.482 52.0678 833.839 51.0637 833.839 49.7856V49.5616C833.839 48.2836 833.491 47.2877 832.793 46.574C832.096 45.8437 831.175 45.4786 830.03 45.4786C828.918 45.4786 828.005 45.8437 827.291 46.574C826.594 47.2877 826.246 48.2836 826.246 49.5616V49.7856C826.246 51.0637 826.594 52.0678 827.291 52.7981C828.005 53.5118 828.918 53.8686 830.03 53.8686ZM844.675 56.1591C843.662 56.1591 842.725 55.9101 841.862 55.4122C840.998 54.9143 840.301 54.2006 839.77 53.2711C839.256 52.3251 838.998 51.1881 838.998 49.8603V49.4869C838.998 48.1757 839.256 47.0471 839.77 46.101C840.285 45.1549 840.974 44.433 841.837 43.935C842.7 43.4371 843.646 43.1881 844.675 43.1881C845.472 43.1881 846.135 43.2877 846.667 43.4869C847.214 43.6861 847.662 43.9433 848.011 44.2587C848.359 44.5574 848.625 44.8728 848.808 45.2047H849.206V38.3832H851.77V55.8105H849.256V54.0678H848.857C848.542 54.5989 848.061 55.0803 847.413 55.5118C846.783 55.9433 845.87 56.1591 844.675 56.1591ZM845.397 53.9184C846.509 53.9184 847.422 53.5616 848.135 52.8479C848.866 52.1342 849.231 51.1135 849.231 49.7856V49.5616C849.231 48.2504 848.874 47.2379 848.16 46.5242C847.447 45.8105 846.525 45.4537 845.397 45.4537C844.301 45.4537 843.389 45.8105 842.658 46.5242C841.945 47.2379 841.588 48.2504 841.588 49.5616V49.7856C841.588 51.1135 841.945 52.1342 842.658 52.8479C843.389 53.5616 844.301 53.9184 845.397 53.9184ZM855.545 55.8105V38.3832H858.109V55.8105H855.545ZM861.915 55.8105V43.5367H864.479V55.8105H861.915ZM863.21 41.8686C862.712 41.8686 862.289 41.711 861.94 41.3956C861.608 41.0637 861.442 40.6404 861.442 40.1259C861.442 39.6114 861.608 39.1964 861.94 38.8811C862.289 38.5491 862.712 38.3832 863.21 38.3832C863.724 38.3832 864.147 38.5491 864.479 38.8811C864.811 39.1964 864.977 39.6114 864.977 40.1259C864.977 40.6404 864.811 41.0637 864.479 41.3956C864.147 41.711 863.724 41.8686 863.21 41.8686ZM868.285 55.8105V43.5367H870.8V45.379H871.198C871.43 44.8811 871.845 44.4164 872.443 43.9848C873.04 43.5533 873.928 43.3375 875.107 43.3375C876.036 43.3375 876.858 43.545 877.571 43.9599C878.302 44.3749 878.874 44.9641 879.289 45.7276C879.704 46.4744 879.912 47.379 879.912 48.4413V55.8105H877.347V48.6404C877.347 47.5782 877.082 46.7981 876.551 46.3002C876.02 45.7856 875.289 45.5284 874.36 45.5284C873.298 45.5284 872.443 45.8769 871.795 46.574C871.165 47.2711 870.849 48.2836 870.849 49.6114V55.8105H868.285ZM889.229 56.1591C887.984 56.1591 886.897 55.9018 885.967 55.3873C885.038 54.8562 884.308 54.1176 883.776 53.1715C883.262 52.2089 883.005 51.0969 883.005 49.8354V49.5367C883.005 48.2587 883.262 47.1466 883.776 46.2006C884.291 45.2379 885.005 44.4993 885.917 43.9848C886.847 43.4537 887.917 43.1881 889.129 43.1881C890.308 43.1881 891.337 43.4537 892.216 43.9848C893.112 44.4993 893.81 45.2213 894.308 46.1508C894.805 47.0803 895.054 48.1674 895.054 49.4122V50.3832H885.619C885.652 51.462 886.009 52.3251 886.689 52.9724C887.386 53.6031 888.249 53.9184 889.278 53.9184C890.241 53.9184 890.963 53.7027 891.444 53.2711C891.942 52.8396 892.324 52.3417 892.59 51.7774L894.706 52.8728C894.473 53.3375 894.133 53.8271 893.685 54.3417C893.254 54.8562 892.681 55.2877 891.967 55.6363C891.254 55.9848 890.341 56.1591 889.229 56.1591ZM885.644 48.4164H892.44C892.374 47.4869 892.042 46.7649 891.444 46.2504C890.847 45.7193 890.067 45.4537 889.104 45.4537C888.142 45.4537 887.353 45.7193 886.739 46.2504C886.142 46.7649 885.776 47.4869 885.644 48.4164Z" fill="#3A3A3A"/>
<rect x="720.708" y="0.414938" width="239.023" height="93.7912" stroke="#3A3A3A" stroke-width="0.829876"/>
<rect x="720.708" y="95.036" width="239.023" height="93.7912" fill="#E9E9E9"/>
<g clip-path="url(#clip4_186_437)">
<path fill-rule="evenodd" clip-rule="evenodd" d="M811.174 141.931C811.174 134.228 814.234 126.84 819.682 121.393C825.129 115.946 832.517 112.886 840.22 112.886C847.923 112.886 855.311 115.946 860.758 121.393C866.205 126.84 869.266 134.228 869.266 141.931C869.266 149.635 866.205 157.023 860.758 162.47C855.311 167.917 847.923 170.977 840.22 170.977C832.517 170.977 825.129 167.917 819.682 162.47C814.234 157.023 811.174 149.635 811.174 141.931V141.931ZM838.562 154.363L855.285 133.458L852.264 131.041L838.005 148.86L827.905 140.444L825.426 143.419L838.562 154.367V154.363Z" fill="#75B3E6"/>
</g>
<rect x="720.708" y="95.036" width="239.023" height="93.7912" stroke="#E9E9E9" stroke-width="0.829876"/>
<rect x="720.708" y="189.657" width="239.023" height="93.7912" fill="#E9E9E9"/>
<g clip-path="url(#clip5_186_437)">
<path fill-rule="evenodd" clip-rule="evenodd" d="M811.174 236.552C811.174 228.849 814.234 221.461 819.682 216.014C825.129 210.567 832.517 207.507 840.22 207.507C847.923 207.507 855.311 210.567 860.758 216.014C866.205 221.461 869.266 228.849 869.266 236.552C869.266 244.256 866.205 251.644 860.758 257.091C855.311 262.538 847.923 265.598 840.22 265.598C832.517 265.598 825.129 262.538 819.682 257.091C814.234 251.644 811.174 244.256 811.174 236.552V236.552ZM838.562 248.984L855.285 228.079L852.264 225.662L838.005 243.481L827.905 235.065L825.426 238.04L838.562 248.988V248.984Z" fill="#75B3E6"/>
</g>
<rect x="720.708" y="189.657" width="239.023" height="93.7912" stroke="#E9E9E9" stroke-width="0.829876"/>
<rect x="720.708" y="378.899" width="239.023" height="93.7912" fill="#E9E9E9"/>
<path d="M840.22 398.133C824.922 398.133 812.557 410.498 812.557 425.795C812.557 441.093 824.922 453.458 840.22 453.458C855.517 453.458 867.882 441.093 867.882 425.795C867.882 410.498 855.517 398.133 840.22 398.133ZM852.115 437.69C851.859 437.947 851.555 438.15 851.22 438.289C850.885 438.428 850.527 438.499 850.164 438.499C849.802 438.499 849.443 438.428 849.109 438.289C848.774 438.15 848.47 437.947 848.214 437.69L840.22 429.696L832.225 437.69C831.708 438.207 831.006 438.498 830.275 438.498C829.544 438.498 828.842 438.207 828.325 437.69C827.808 437.173 827.517 436.471 827.517 435.74C827.517 435.378 827.588 435.019 827.727 434.685C827.866 434.35 828.069 434.046 828.325 433.79L836.319 425.795L828.325 417.801C827.808 417.284 827.517 416.582 827.517 415.851C827.517 415.119 827.808 414.418 828.325 413.9C828.842 413.383 829.544 413.093 830.275 413.093C831.006 413.093 831.708 413.383 832.225 413.9L840.22 421.895L848.214 413.9C848.47 413.644 848.774 413.441 849.109 413.303C849.444 413.164 849.802 413.093 850.164 413.093C850.527 413.093 850.885 413.164 851.22 413.303C851.554 413.441 851.858 413.644 852.115 413.9C852.371 414.157 852.574 414.461 852.712 414.795C852.851 415.13 852.922 415.488 852.922 415.851C852.922 416.213 852.851 416.571 852.712 416.906C852.574 417.241 852.371 417.545 852.115 417.801L844.12 425.795L852.115 433.79C853.166 434.841 853.166 436.611 852.115 437.69Z" fill="#ADADAD"/>
<rect x="720.708" y="378.899" width="239.023" height="93.7912" stroke="#E9E9E9" stroke-width="0.829876"/>
<rect x="720.708" y="284.278" width="239.023" height="93.7912" fill="#E9E9E9"/>
<g clip-path="url(#clip6_186_437)">
<path fill-rule="evenodd" clip-rule="evenodd" d="M811.174 331.174C811.174 323.47 814.234 316.082 819.682 310.635C825.129 305.188 832.517 302.128 840.22 302.128C847.923 302.128 855.311 305.188 860.758 310.635C866.205 316.082 869.266 323.47 869.266 331.174C869.266 338.877 866.205 346.265 860.758 351.712C855.311 357.159 847.923 360.219 840.22 360.219C832.517 360.219 825.129 357.159 819.682 351.712C814.234 346.265 811.174 338.877 811.174 331.174V331.174ZM838.562 343.605L855.285 322.7L852.264 320.283L838.005 338.102L827.905 329.686L825.426 332.661L838.562 343.609V343.605Z" fill="#75B3E6"/>
</g>
<rect x="720.708" y="284.278" width="239.023" height="93.7912" stroke="#E9E9E9" stroke-width="0.829876"/>
<rect x="960.561" y="0.414938" width="239.023" height="93.7912" fill="#E6E6E6"/>
<path d="M1002.19 55.8105V38.3832H1007.37L1012.1 54.018H1012.5V38.3832H1015.16V55.8105H1009.99L1005.26 40.1508H1004.86V55.8105H1002.19ZM1018.18 55.8105V52.3251L1027.34 41.1466V40.7981H1018.45V38.3832H1030.1V41.8686L1020.94 53.0471V53.3956H1030.2V55.8105H1018.18ZM1038.87 55.8105V53.4205H1041.21V40.7732H1038.87V38.3832H1047.7C1048.75 38.3832 1049.66 38.5657 1050.44 38.9309C1051.22 39.2794 1051.83 39.7856 1052.26 40.4495C1052.71 41.0969 1052.93 41.8686 1052.93 42.7649V43.0139C1052.93 43.8105 1052.78 44.4661 1052.48 44.9807C1052.19 45.4952 1051.82 45.8935 1051.39 46.1757C1050.97 46.4578 1050.58 46.657 1050.19 46.7732V47.1715C1050.58 47.2711 1050.98 47.4703 1051.41 47.7691C1051.86 48.0512 1052.24 48.4496 1052.53 48.9641C1052.85 49.4786 1053.01 50.1508 1053.01 50.9807V51.2296C1053.01 52.1923 1052.78 53.0139 1052.34 53.6944C1051.89 54.3749 1051.26 54.8977 1050.47 55.2628C1049.69 55.628 1048.78 55.8105 1047.75 55.8105H1038.87ZM1043.92 53.3707H1047.43C1048.33 53.3707 1049.03 53.1549 1049.55 52.7234C1050.06 52.2919 1050.32 51.6944 1050.32 50.9309V50.7068C1050.32 49.9433 1050.06 49.3458 1049.55 48.9143C1049.05 48.4827 1048.34 48.267 1047.43 48.267H1043.92V53.3707ZM1043.92 45.8022H1047.43C1048.28 45.8022 1048.96 45.5948 1049.47 45.1798C1049.99 44.7483 1050.24 44.1674 1050.24 43.4371V43.1881C1050.24 42.4578 1049.99 41.8852 1049.47 41.4703C1048.97 41.0388 1048.29 40.823 1047.43 40.823H1043.92V45.8022ZM1056.1 55.8105V38.3832H1058.66V55.8105H1056.1ZM1068.22 56.1591C1066.99 56.1591 1065.89 55.9101 1064.93 55.4122C1063.99 54.8977 1063.24 54.1674 1062.69 53.2213C1062.14 52.2753 1061.87 51.1549 1061.87 49.8603V49.4869C1061.87 48.1923 1062.14 47.0803 1062.69 46.1508C1063.24 45.2047 1063.99 44.4744 1064.93 43.9599C1065.89 43.4454 1066.99 43.1881 1068.22 43.1881C1069.45 43.1881 1070.54 43.4454 1071.5 43.9599C1072.47 44.4744 1073.22 45.2047 1073.77 46.1508C1074.32 47.0803 1074.59 48.1923 1074.59 49.4869V49.8603C1074.59 51.1549 1074.32 52.2753 1073.77 53.2213C1073.22 54.1674 1072.47 54.8977 1071.5 55.4122C1070.54 55.9101 1069.45 56.1591 1068.22 56.1591ZM1068.22 53.8686C1069.35 53.8686 1070.26 53.5118 1070.96 52.7981C1071.67 52.0678 1072.03 51.0637 1072.03 49.7856V49.5616C1072.03 48.2836 1071.68 47.2877 1070.98 46.574C1070.28 45.8437 1069.36 45.4786 1068.22 45.4786C1067.11 45.4786 1066.19 45.8437 1065.48 46.574C1064.78 47.2877 1064.43 48.2836 1064.43 49.5616V49.7856C1064.43 51.0637 1064.78 52.0678 1065.48 52.7981C1066.19 53.5118 1067.11 53.8686 1068.22 53.8686ZM1083.53 56.1591C1082.31 56.1591 1081.21 55.9101 1080.25 55.4122C1079.3 54.8977 1078.56 54.1674 1078.01 53.2213C1077.46 52.2753 1077.19 51.1549 1077.19 49.8603V49.4869C1077.19 48.1923 1077.46 47.0803 1078.01 46.1508C1078.56 45.2047 1079.3 44.4744 1080.25 43.9599C1081.21 43.4454 1082.31 43.1881 1083.53 43.1881C1084.76 43.1881 1085.86 43.4454 1086.82 43.9599C1087.78 44.4744 1088.54 45.2047 1089.09 46.1508C1089.63 47.0803 1089.91 48.1923 1089.91 49.4869V49.8603C1089.91 51.1549 1089.63 52.2753 1089.09 53.2213C1088.54 54.1674 1087.78 54.8977 1086.82 55.4122C1085.86 55.9101 1084.76 56.1591 1083.53 56.1591ZM1083.53 53.8686C1084.66 53.8686 1085.58 53.5118 1086.27 52.7981C1086.99 52.0678 1087.34 51.0637 1087.34 49.7856V49.5616C1087.34 48.2836 1087 47.2877 1086.3 46.574C1085.6 45.8437 1084.68 45.4786 1083.53 45.4786C1082.42 45.4786 1081.51 45.8437 1080.8 46.574C1080.1 47.2877 1079.75 48.2836 1079.75 49.5616V49.7856C1079.75 51.0637 1080.1 52.0678 1080.8 52.7981C1081.51 53.5118 1082.42 53.8686 1083.53 53.8686ZM1098.18 56.1591C1097.17 56.1591 1096.23 55.9101 1095.37 55.4122C1094.5 54.9143 1093.81 54.2006 1093.27 53.2711C1092.76 52.3251 1092.5 51.1881 1092.5 49.8603V49.4869C1092.5 48.1757 1092.76 47.0471 1093.27 46.101C1093.79 45.1549 1094.48 44.433 1095.34 43.935C1096.2 43.4371 1097.15 43.1881 1098.18 43.1881C1098.98 43.1881 1099.64 43.2877 1100.17 43.4869C1100.72 43.6861 1101.17 43.9433 1101.52 44.2587C1101.86 44.5574 1102.13 44.8728 1102.31 45.2047H1102.71V38.3832H1105.27V55.8105H1102.76V54.0678H1102.36C1102.05 54.5989 1101.57 55.0803 1100.92 55.5118C1100.29 55.9433 1099.37 56.1591 1098.18 56.1591ZM1098.9 53.9184C1100.01 53.9184 1100.93 53.5616 1101.64 52.8479C1102.37 52.1342 1102.74 51.1135 1102.74 49.7856V49.5616C1102.74 48.2504 1102.38 47.2379 1101.66 46.5242C1100.95 45.8105 1100.03 45.4537 1098.9 45.4537C1097.81 45.4537 1096.89 45.8105 1096.16 46.5242C1095.45 47.2379 1095.09 48.2504 1095.09 49.5616V49.7856C1095.09 51.1135 1095.45 52.1342 1096.16 52.8479C1096.89 53.5616 1097.81 53.9184 1098.9 53.9184ZM1119.2 56.1591C1118.32 56.1591 1117.54 56.0097 1116.84 55.711C1116.16 55.4122 1115.61 54.9724 1115.2 54.3915C1114.8 53.8105 1114.6 53.1052 1114.6 52.2753C1114.6 51.4288 1114.8 50.7317 1115.2 50.184C1115.61 49.6197 1116.17 49.1964 1116.86 48.9143C1117.58 48.6321 1118.38 48.491 1119.28 48.491H1123.01V47.6944C1123.01 46.9807 1122.8 46.4081 1122.37 45.9765C1121.93 45.545 1121.27 45.3292 1120.37 45.3292C1119.5 45.3292 1118.82 45.5367 1118.36 45.9516C1117.89 46.3666 1117.59 46.906 1117.44 47.5699L1115.05 46.7981C1115.25 46.1342 1115.56 45.5367 1115.99 45.0056C1116.44 44.4578 1117.03 44.018 1117.76 43.6861C1118.49 43.3541 1119.37 43.1881 1120.4 43.1881C1121.99 43.1881 1123.25 43.5948 1124.16 44.4081C1125.07 45.2213 1125.53 46.3749 1125.53 47.8686V52.9226C1125.53 53.4205 1125.76 53.6695 1126.23 53.6695H1127.27V55.8105H1125.35C1124.77 55.8105 1124.3 55.6612 1123.93 55.3624C1123.57 55.0637 1123.39 54.657 1123.39 54.1425V54.0678H1123.01C1122.88 54.3168 1122.68 54.6072 1122.42 54.9392C1122.15 55.2711 1121.76 55.5616 1121.25 55.8105C1120.73 56.0429 1120.05 56.1591 1119.2 56.1591ZM1119.58 54.0429C1120.61 54.0429 1121.44 53.7525 1122.07 53.1715C1122.7 52.574 1123.01 51.7608 1123.01 50.7317V50.4827H1119.43C1118.75 50.4827 1118.2 50.6321 1117.79 50.9309C1117.37 51.213 1117.16 51.6363 1117.16 52.2006C1117.16 52.7649 1117.38 53.213 1117.81 53.545C1118.24 53.8769 1118.83 54.0429 1119.58 54.0429ZM1129.76 60.7898V43.5367H1132.28V45.3043H1132.68C1132.99 44.7566 1133.47 44.267 1134.1 43.8354C1134.74 43.4039 1135.66 43.1881 1136.86 43.1881C1137.89 43.1881 1138.83 43.4371 1139.67 43.935C1140.54 44.433 1141.22 45.1549 1141.74 46.101C1142.27 47.0305 1142.54 48.1591 1142.54 49.4869V49.8603C1142.54 51.1881 1142.28 52.3251 1141.76 53.2711C1141.25 54.2006 1140.56 54.9143 1139.7 55.4122C1138.83 55.9101 1137.89 56.1591 1136.86 56.1591C1136.06 56.1591 1135.39 56.0595 1134.84 55.8603C1134.3 55.6612 1133.86 55.4122 1133.52 55.1135C1133.19 54.7981 1132.93 54.4744 1132.73 54.1425H1132.33V60.7898H1129.76ZM1136.11 53.9184C1137.24 53.9184 1138.16 53.5616 1138.88 52.8479C1139.59 52.1342 1139.95 51.1135 1139.95 49.7856V49.5616C1139.95 48.2504 1139.58 47.2379 1138.85 46.5242C1138.14 45.8105 1137.22 45.4537 1136.11 45.4537C1135.02 45.4537 1134.1 45.8105 1133.37 46.5242C1132.66 47.2379 1132.3 48.2504 1132.3 49.5616V49.7856C1132.3 51.1135 1132.66 52.1342 1133.37 52.8479C1134.1 53.5616 1135.02 53.9184 1136.11 53.9184ZM1145.71 60.7898V43.5367H1148.23V45.3043H1148.63C1148.94 44.7566 1149.41 44.267 1150.05 43.8354C1150.69 43.4039 1151.61 43.1881 1152.81 43.1881C1153.84 43.1881 1154.78 43.4371 1155.62 43.935C1156.49 44.433 1157.17 45.1549 1157.69 46.101C1158.22 47.0305 1158.49 48.1591 1158.49 49.4869V49.8603C1158.49 51.1881 1158.23 52.3251 1157.71 53.2711C1157.2 54.2006 1156.51 54.9143 1155.65 55.4122C1154.78 55.9101 1153.84 56.1591 1152.81 56.1591C1152.01 56.1591 1151.34 56.0595 1150.79 55.8603C1150.24 55.6612 1149.8 55.4122 1149.47 55.1135C1149.14 54.7981 1148.88 54.4744 1148.68 54.1425H1148.28V60.7898H1145.71ZM1152.06 53.9184C1153.19 53.9184 1154.11 53.5616 1154.83 52.8479C1155.54 52.1342 1155.9 51.1135 1155.9 49.7856V49.5616C1155.9 48.2504 1155.53 47.2379 1154.8 46.5242C1154.09 45.8105 1153.17 45.4537 1152.06 45.4537C1150.97 45.4537 1150.05 45.8105 1149.32 46.5242C1148.61 47.2379 1148.25 48.2504 1148.25 49.5616V49.7856C1148.25 51.1135 1148.61 52.1342 1149.32 52.8479C1150.05 53.5616 1150.97 53.9184 1152.06 53.9184Z" fill="#3A3A3A"/>
<rect x="960.561" y="0.414938" width="239.023" height="93.7912" stroke="#3A3A3A" stroke-width="0.829876"/>
<rect x="960.561" y="95.036" width="239.023" height="93.7912" fill="#E9E9E9"/>
<path d="M1080.07 114.27C1064.78 114.27 1052.41 126.635 1052.41 141.932C1052.41 157.229 1064.78 169.595 1080.07 169.595C1095.37 169.595 1107.74 157.229 1107.74 141.932C1107.74 126.635 1095.37 114.27 1080.07 114.27ZM1091.97 153.827C1091.71 154.083 1091.41 154.287 1091.07 154.426C1090.74 154.564 1090.38 154.636 1090.02 154.636C1089.66 154.636 1089.3 154.564 1088.96 154.426C1088.63 154.287 1088.32 154.083 1088.07 153.827L1080.07 145.832L1072.08 153.827C1071.56 154.344 1070.86 154.635 1070.13 154.635C1069.4 154.635 1068.7 154.344 1068.18 153.827C1067.66 153.31 1067.37 152.608 1067.37 151.877C1067.37 151.515 1067.44 151.156 1067.58 150.821C1067.72 150.487 1067.92 150.183 1068.18 149.927L1076.17 141.932L1068.18 133.938C1067.66 133.42 1067.37 132.719 1067.37 131.987C1067.37 131.256 1067.66 130.554 1068.18 130.037C1068.7 129.52 1069.4 129.229 1070.13 129.229C1070.86 129.229 1071.56 129.52 1072.08 130.037L1080.07 138.032L1088.07 130.037C1088.32 129.781 1088.63 129.578 1088.96 129.439C1089.3 129.301 1089.66 129.229 1090.02 129.229C1090.38 129.229 1090.74 129.301 1091.07 129.439C1091.41 129.578 1091.71 129.781 1091.97 130.037C1092.22 130.293 1092.43 130.597 1092.57 130.932C1092.7 131.267 1092.78 131.625 1092.78 131.987C1092.78 132.35 1092.7 132.708 1092.57 133.043C1092.43 133.377 1092.22 133.681 1091.97 133.938L1083.97 141.932L1091.97 149.927C1093.02 150.978 1093.02 152.748 1091.97 153.827Z" fill="#ADADAD"/>
<rect x="960.561" y="95.036" width="239.023" height="93.7912" stroke="#E9E9E9" stroke-width="0.829876"/>
<rect x="960.561" y="189.657" width="239.023" height="93.7912" fill="#E9E9E9"/>
<g clip-path="url(#clip7_186_437)">
<path fill-rule="evenodd" clip-rule="evenodd" d="M1051.03 236.552C1051.03 228.849 1054.09 221.461 1059.53 216.014C1064.98 210.567 1072.37 207.507 1080.07 207.507C1087.78 207.507 1095.16 210.567 1100.61 216.014C1106.06 221.461 1109.12 228.849 1109.12 236.552C1109.12 244.256 1106.06 251.644 1100.61 257.091C1095.16 262.538 1087.78 265.598 1080.07 265.598C1072.37 265.598 1064.98 262.538 1059.53 257.091C1054.09 251.644 1051.03 244.256 1051.03 236.552V236.552ZM1078.42 248.984L1095.14 228.079L1092.12 225.662L1077.86 243.481L1067.76 235.065L1065.28 238.04L1078.42 248.988V248.984Z" fill="#75B3E6"/>
</g>
<rect x="960.561" y="189.657" width="239.023" height="93.7912" stroke="#E9E9E9" stroke-width="0.829876"/>
<rect x="960.561" y="284.278" width="239.023" height="93.7912" fill="#E9E9E9"/>
<g clip-path="url(#clip8_186_437)">
<path fill-rule="evenodd" clip-rule="evenodd" d="M1051.03 331.174C1051.03 323.47 1054.09 316.082 1059.53 310.635C1064.98 305.188 1072.37 302.128 1080.07 302.128C1087.78 302.128 1095.16 305.188 1100.61 310.635C1106.06 316.082 1109.12 323.47 1109.12 331.174C1109.12 338.877 1106.06 346.265 1100.61 351.712C1095.16 357.159 1087.78 360.219 1080.07 360.219C1072.37 360.219 1064.98 357.159 1059.53 351.712C1054.09 346.265 1051.03 338.877 1051.03 331.174V331.174ZM1078.42 343.605L1095.14 322.7L1092.12 320.283L1077.86 338.102L1067.76 329.686L1065.28 332.661L1078.42 343.609V343.605Z" fill="#75B3E6"/>
</g>
<rect x="960.561" y="284.278" width="239.023" height="93.7912" stroke="#E9E9E9" stroke-width="0.829876"/>
<rect x="960.561" y="378.899" width="239.023" height="93.7912" fill="#E9E9E9"/>
<path d="M1080.07 398.133C1064.78 398.133 1052.41 410.498 1052.41 425.795C1052.41 441.093 1064.78 453.458 1080.07 453.458C1095.37 453.458 1107.74 441.093 1107.74 425.795C1107.74 410.498 1095.37 398.133 1080.07 398.133ZM1091.97 437.69C1091.71 437.947 1091.41 438.15 1091.07 438.289C1090.74 438.428 1090.38 438.499 1090.02 438.499C1089.66 438.499 1089.3 438.428 1088.96 438.289C1088.63 438.15 1088.32 437.947 1088.07 437.69L1080.07 429.696L1072.08 437.69C1071.56 438.207 1070.86 438.498 1070.13 438.498C1069.4 438.498 1068.7 438.207 1068.18 437.69C1067.66 437.173 1067.37 436.471 1067.37 435.74C1067.37 435.378 1067.44 435.019 1067.58 434.685C1067.72 434.35 1067.92 434.046 1068.18 433.79L1076.17 425.795L1068.18 417.801C1067.66 417.284 1067.37 416.582 1067.37 415.851C1067.37 415.119 1067.66 414.418 1068.18 413.9C1068.7 413.383 1069.4 413.093 1070.13 413.093C1070.86 413.093 1071.56 413.383 1072.08 413.9L1080.07 421.895L1088.07 413.9C1088.32 413.644 1088.63 413.441 1088.96 413.303C1089.3 413.164 1089.66 413.093 1090.02 413.093C1090.38 413.093 1090.74 413.164 1091.07 413.303C1091.41 413.441 1091.71 413.644 1091.97 413.9C1092.22 414.157 1092.43 414.461 1092.57 414.795C1092.7 415.13 1092.78 415.488 1092.78 415.851C1092.78 416.213 1092.7 416.571 1092.57 416.906C1092.43 417.241 1092.22 417.545 1091.97 417.801L1083.97 425.795L1091.97 433.79C1093.02 434.841 1093.02 436.611 1091.97 437.69Z" fill="#ADADAD"/>
<rect x="960.561" y="378.899" width="239.023" height="93.7912" stroke="#E9E9E9" stroke-width="0.829876"/>
<defs>
<clipPath id="clip0_186_437">
<rect width="58.0913" height="58.0913" fill="white" transform="translate(330.734 207.507)"/>
</clipPath>
<clipPath id="clip1_186_437">
<rect width="58.0913" height="58.0913" fill="white" transform="translate(330.734 302.128)"/>
</clipPath>
<clipPath id="clip2_186_437">
<rect width="58.0913" height="58.0913" fill="white" transform="translate(570.954 207.507)"/>
</clipPath>
<clipPath id="clip3_186_437">
<rect width="58.0913" height="58.0913" fill="white" transform="translate(570.954 302.128)"/>
</clipPath>
<clipPath id="clip4_186_437">
<rect width="58.0913" height="58.0913" fill="white" transform="translate(811.174 112.886)"/>
</clipPath>
<clipPath id="clip5_186_437">
<rect width="58.0913" height="58.0913" fill="white" transform="translate(811.174 207.507)"/>
</clipPath>
<clipPath id="clip6_186_437">
<rect width="58.0913" height="58.0913" fill="white" transform="translate(811.174 302.128)"/>
</clipPath>
<clipPath id="clip7_186_437">
<rect width="58.0913" height="58.0913" fill="white" transform="translate(1051.03 207.507)"/>
</clipPath>
<clipPath id="clip8_186_437">
<rect width="58.0913" height="58.0913" fill="white" transform="translate(1051.03 302.128)"/>
</clipPath>
</defs>
</svg>
