<svg width="1277" height="402" viewBox="0 0 1277 402" fill="none" xmlns="http://www.w3.org/2000/svg">
<rect width="1277" height="402" fill="#F9F9F9"/>
<path d="M499.6 149.448C497.936 149.448 496.507 149.171 495.312 148.616C494.117 148.04 493.2 147.24 492.56 146.216C491.92 145.171 491.6 143.955 491.6 142.568H495.024C495.024 143.677 495.387 144.605 496.112 145.352C496.859 146.077 498.021 146.44 499.6 146.44C501.2 146.44 502.427 146.013 503.28 145.16C504.133 144.307 504.56 143.144 504.56 141.672V138.984H504.048C503.685 139.496 503.099 139.987 502.288 140.456C501.477 140.925 500.304 141.16 498.768 141.16C497.467 141.16 496.261 140.872 495.152 140.296C494.043 139.72 493.147 138.899 492.464 137.832C491.803 136.744 491.472 135.453 491.472 133.96V133.576C491.472 132.083 491.813 130.781 492.496 129.672C493.2 128.563 494.171 127.699 495.408 127.08C496.667 126.461 498.107 126.152 499.728 126.152C501.371 126.152 502.8 126.472 504.016 127.112C505.253 127.731 506.213 128.605 506.896 129.736C507.579 130.845 507.92 132.157 507.92 133.672V141.416C507.92 143.165 507.568 144.637 506.864 145.832C506.181 147.027 505.211 147.933 503.952 148.552C502.715 149.149 501.264 149.448 499.6 149.448ZM499.696 138.44C500.677 138.44 501.531 138.248 502.256 137.864C502.981 137.48 503.547 136.957 503.952 136.296C504.357 135.613 504.56 134.813 504.56 133.896V133.64C504.56 132.253 504.112 131.165 503.216 130.376C502.341 129.565 501.168 129.16 499.696 129.16C498.224 129.16 497.04 129.565 496.144 130.376C495.269 131.165 494.832 132.253 494.832 133.64V133.896C494.832 134.813 495.024 135.613 495.408 136.296C495.813 136.957 496.379 137.48 497.104 137.864C497.851 138.248 498.715 138.44 499.696 138.44ZM519.992 149.448C517.389 149.448 515.309 148.712 513.752 147.24C512.216 145.747 511.448 143.507 511.448 140.52V135.08C511.448 132.157 512.216 129.939 513.752 128.424C515.309 126.909 517.389 126.152 519.992 126.152C522.616 126.152 524.696 126.909 526.232 128.424C527.789 129.939 528.568 132.157 528.568 135.08V140.52C528.568 143.507 527.789 145.747 526.232 147.24C524.696 148.712 522.616 149.448 519.992 149.448ZM519.992 146.44C521.762 146.44 523.074 145.939 523.928 144.936C524.781 143.912 525.208 142.483 525.208 140.648V134.888C525.208 133.053 524.749 131.645 523.832 130.664C522.914 129.661 521.634 129.16 519.992 129.16C518.328 129.16 517.048 129.672 516.152 130.696C515.256 131.699 514.808 133.096 514.808 134.888V140.648C514.808 142.525 515.234 143.965 516.088 144.968C516.962 145.949 518.264 146.44 519.992 146.44ZM534.825 149.416L532.777 147.752L550.281 126.184L552.329 127.848L534.825 149.416ZM548.681 149.352C547.102 149.352 545.854 148.915 544.937 148.04C544.019 147.144 543.561 145.939 543.561 144.424V144.232C543.561 142.696 544.019 141.491 544.937 140.616C545.854 139.72 547.102 139.272 548.681 139.272C550.238 139.272 551.486 139.72 552.425 140.616C553.363 141.491 553.833 142.696 553.833 144.232V144.424C553.833 145.939 553.363 147.144 552.425 148.04C551.507 148.915 550.259 149.352 548.681 149.352ZM548.681 147.112C549.449 147.112 550.046 146.877 550.473 146.408C550.921 145.939 551.145 145.32 551.145 144.552V144.104C551.145 143.315 550.921 142.685 550.473 142.216C550.046 141.747 549.449 141.512 548.681 141.512C547.934 141.512 547.337 141.747 546.889 142.216C546.462 142.685 546.249 143.315 546.249 144.104V144.552C546.249 145.32 546.462 145.939 546.889 146.408C547.337 146.877 547.934 147.112 548.681 147.112ZM536.425 136.328C534.846 136.328 533.587 135.891 532.649 135.016C531.731 134.12 531.273 132.915 531.273 131.4V131.176C531.273 129.64 531.731 128.435 532.649 127.56C533.587 126.685 534.846 126.248 536.425 126.248C537.982 126.248 539.219 126.685 540.137 127.56C541.075 128.435 541.545 129.64 541.545 131.176V131.4C541.545 132.915 541.086 134.12 540.169 135.016C539.251 135.891 538.003 136.328 536.425 136.328ZM536.425 134.088C537.171 134.088 537.758 133.853 538.185 133.384C538.633 132.893 538.857 132.264 538.857 131.496V131.048C538.857 130.28 538.633 129.661 538.185 129.192C537.758 128.723 537.171 128.488 536.425 128.488C535.657 128.488 535.049 128.723 534.601 129.192C534.174 129.661 533.961 130.28 533.961 131.048V131.496C533.961 132.264 534.174 132.893 534.601 133.384C535.049 133.853 535.657 134.088 536.425 134.088ZM1070.71 198.448C1068.7 198.448 1067.04 198 1065.72 197.104C1064.39 196.208 1063.58 194.853 1063.28 193.04L1066.36 192.304C1066.53 193.179 1066.82 193.872 1067.22 194.384C1067.63 194.896 1068.13 195.259 1068.72 195.472C1069.34 195.685 1070 195.792 1070.71 195.792C1071.75 195.792 1072.55 195.589 1073.11 195.184C1073.68 194.779 1073.97 194.256 1073.97 193.616C1073.97 192.976 1073.71 192.507 1073.17 192.208C1072.64 191.909 1071.85 191.664 1070.8 191.472L1069.72 191.28C1068.65 191.088 1067.68 190.811 1066.8 190.448C1065.93 190.085 1065.24 189.584 1064.72 188.944C1064.21 188.304 1063.96 187.483 1063.96 186.48C1063.96 184.987 1064.51 183.835 1065.62 183.024C1066.73 182.192 1068.2 181.776 1070.04 181.776C1071.81 181.776 1073.26 182.181 1074.39 182.992C1075.54 183.781 1076.29 184.859 1076.63 186.224L1073.56 187.088C1073.36 186.128 1072.96 185.456 1072.34 185.072C1071.72 184.667 1070.95 184.464 1070.04 184.464C1069.14 184.464 1068.44 184.635 1067.92 184.976C1067.41 185.296 1067.16 185.755 1067.16 186.352C1067.16 186.992 1067.4 187.461 1067.89 187.76C1068.4 188.059 1069.09 188.283 1069.94 188.432L1071.06 188.624C1072.19 188.816 1073.23 189.083 1074.16 189.424C1075.1 189.765 1075.84 190.256 1076.37 190.896C1076.93 191.536 1077.2 192.389 1077.2 193.456C1077.2 195.035 1076.62 196.261 1075.44 197.136C1074.27 198.011 1072.69 198.448 1070.71 198.448ZM1085.83 198.448C1084.7 198.448 1083.68 198.256 1082.79 197.872C1081.91 197.488 1081.21 196.923 1080.68 196.176C1080.16 195.429 1079.91 194.523 1079.91 193.456C1079.91 192.368 1080.16 191.472 1080.68 190.768C1081.21 190.043 1081.92 189.499 1082.82 189.136C1083.74 188.773 1084.77 188.592 1085.92 188.592H1090.72V187.568C1090.72 186.651 1090.45 185.915 1089.89 185.36C1089.34 184.805 1088.48 184.528 1087.33 184.528C1086.2 184.528 1085.34 184.795 1084.74 185.328C1084.14 185.861 1083.75 186.555 1083.56 187.408L1080.48 186.416C1080.74 185.563 1081.15 184.795 1081.7 184.112C1082.28 183.408 1083.03 182.843 1083.97 182.416C1084.91 181.989 1086.04 181.776 1087.36 181.776C1089.41 181.776 1091.02 182.299 1092.2 183.344C1093.37 184.389 1093.96 185.872 1093.96 187.792V194.288C1093.96 194.928 1094.25 195.248 1094.85 195.248H1096.2V198H1093.73C1092.99 198 1092.38 197.808 1091.91 197.424C1091.44 197.04 1091.2 196.517 1091.2 195.856V195.76H1090.72C1090.55 196.08 1090.3 196.453 1089.96 196.88C1089.61 197.307 1089.11 197.68 1088.45 198C1087.79 198.299 1086.92 198.448 1085.83 198.448ZM1086.31 195.728C1087.63 195.728 1088.7 195.355 1089.51 194.608C1090.32 193.84 1090.72 192.795 1090.72 191.472V191.152H1086.12C1085.24 191.152 1084.54 191.344 1084 191.728C1083.47 192.091 1083.2 192.635 1083.2 193.36C1083.2 194.085 1083.48 194.661 1084.04 195.088C1084.59 195.515 1085.35 195.728 1086.31 195.728ZM1102.17 198L1096.86 182.224H1100.35L1104.54 195.568H1105.05L1109.25 182.224H1112.73L1107.42 198H1102.17ZM1122.6 198.448C1121 198.448 1119.6 198.117 1118.41 197.456C1117.21 196.773 1116.28 195.824 1115.59 194.608C1114.93 193.371 1114.6 191.941 1114.6 190.32V189.936C1114.6 188.293 1114.93 186.864 1115.59 185.648C1116.25 184.411 1117.17 183.461 1118.35 182.8C1119.54 182.117 1120.92 181.776 1122.47 181.776C1123.99 181.776 1125.31 182.117 1126.44 182.8C1127.59 183.461 1128.49 184.389 1129.13 185.584C1129.77 186.779 1130.09 188.176 1130.09 189.776V191.024H1117.96C1118 192.411 1118.46 193.52 1119.34 194.352C1120.23 195.163 1121.34 195.568 1122.67 195.568C1123.9 195.568 1124.83 195.291 1125.45 194.736C1126.09 194.181 1126.58 193.541 1126.92 192.816L1129.64 194.224C1129.34 194.821 1128.91 195.451 1128.33 196.112C1127.77 196.773 1127.04 197.328 1126.12 197.776C1125.2 198.224 1124.03 198.448 1122.6 198.448ZM1117.99 188.496H1126.73C1126.64 187.301 1126.22 186.373 1125.45 185.712C1124.68 185.029 1123.68 184.688 1122.44 184.688C1121.2 184.688 1120.19 185.029 1119.4 185.712C1118.63 186.373 1118.16 187.301 1117.99 188.496ZM1148.13 198C1147.17 198 1146.41 197.712 1145.83 197.136C1145.27 196.56 1145 195.792 1145 194.832V185.008H1140.65V182.224H1145V177.008H1148.29V182.224H1153V185.008H1148.29V194.256C1148.29 194.896 1148.59 195.216 1149.19 195.216H1152.49V198H1148.13ZM1156.87 198V175.6H1160.17V184.464H1160.68C1160.89 184.059 1161.19 183.664 1161.57 183.28C1161.98 182.896 1162.5 182.587 1163.14 182.352C1163.8 182.096 1164.63 181.968 1165.64 181.968C1166.83 181.968 1167.89 182.235 1168.81 182.768C1169.74 183.301 1170.48 184.059 1171.01 185.04C1171.55 186 1171.81 187.163 1171.81 188.528V198H1168.52V188.784C1168.52 187.419 1168.18 186.416 1167.49 185.776C1166.81 185.115 1165.87 184.784 1164.68 184.784C1163.31 184.784 1162.21 185.232 1161.38 186.128C1160.57 187.024 1160.17 188.325 1160.17 190.032V198H1156.87ZM1183.79 198.448C1182.19 198.448 1180.79 198.117 1179.6 197.456C1178.4 196.773 1177.46 195.824 1176.78 194.608C1176.12 193.371 1175.79 191.941 1175.79 190.32V189.936C1175.79 188.293 1176.12 186.864 1176.78 185.648C1177.44 184.411 1178.36 183.461 1179.53 182.8C1180.73 182.117 1182.1 181.776 1183.66 181.776C1185.18 181.776 1186.5 182.117 1187.63 182.8C1188.78 183.461 1189.68 184.389 1190.32 185.584C1190.96 186.779 1191.28 188.176 1191.28 189.776V191.024H1179.15C1179.19 192.411 1179.65 193.52 1180.53 194.352C1181.42 195.163 1182.53 195.568 1183.85 195.568C1185.09 195.568 1186.02 195.291 1186.64 194.736C1187.28 194.181 1187.77 193.541 1188.11 192.816L1190.83 194.224C1190.53 194.821 1190.09 195.451 1189.52 196.112C1188.96 196.773 1188.23 197.328 1187.31 197.776C1186.39 198.224 1185.22 198.448 1183.79 198.448ZM1179.18 188.496H1187.92C1187.83 187.301 1187.41 186.373 1186.64 185.712C1185.87 185.029 1184.87 184.688 1183.63 184.688C1182.39 184.688 1181.38 185.029 1180.59 185.712C1179.82 186.373 1179.35 187.301 1179.18 188.496ZM1195.24 198V182.224H1198.54V198H1195.24ZM1196.91 180.08C1196.27 180.08 1195.72 179.877 1195.28 179.472C1194.85 179.045 1194.64 178.501 1194.64 177.84C1194.64 177.179 1194.85 176.645 1195.28 176.24C1195.72 175.813 1196.27 175.6 1196.91 175.6C1197.57 175.6 1198.11 175.813 1198.54 176.24C1198.97 176.645 1199.18 177.179 1199.18 177.84C1199.18 178.501 1198.97 179.045 1198.54 179.472C1198.11 179.877 1197.57 180.08 1196.91 180.08ZM1203.43 198V182.224H1206.66V184.08H1207.18C1207.43 183.419 1207.84 182.939 1208.39 182.64C1208.97 182.32 1209.67 182.16 1210.5 182.16H1212.39V185.136H1210.38C1209.31 185.136 1208.43 185.435 1207.75 186.032C1207.07 186.608 1206.73 187.504 1206.73 188.72V198H1203.43ZM492.432 247V231.224H495.664V233.08H496.176C496.475 232.525 496.955 232.035 497.616 231.608C498.277 231.181 499.173 230.968 500.304 230.968C501.477 230.968 502.416 231.213 503.12 231.704C503.845 232.173 504.389 232.781 504.752 233.528H505.264C505.627 232.803 506.149 232.195 506.832 231.704C507.536 231.213 508.528 230.968 509.808 230.968C510.832 230.968 511.739 231.181 512.528 231.608C513.317 232.013 513.947 232.632 514.416 233.464C514.885 234.275 515.12 235.288 515.12 236.504V247H511.824V236.76C511.824 235.8 511.557 235.064 511.024 234.552C510.512 234.019 509.776 233.752 508.816 233.752C507.792 233.752 506.971 234.083 506.352 234.744C505.733 235.405 505.424 236.355 505.424 237.592V247H502.128V236.76C502.128 235.8 501.861 235.064 501.328 234.552C500.816 234.019 500.08 233.752 499.12 233.752C498.096 233.752 497.275 234.083 496.656 234.744C496.037 235.405 495.728 236.355 495.728 237.592V247H492.432ZM527.262 247.448C525.683 247.448 524.275 247.128 523.038 246.488C521.822 245.827 520.862 244.888 520.158 243.672C519.454 242.456 519.102 241.016 519.102 239.352V238.872C519.102 237.208 519.454 235.779 520.158 234.584C520.862 233.368 521.822 232.429 523.038 231.768C524.275 231.107 525.683 230.776 527.262 230.776C528.84 230.776 530.248 231.107 531.486 231.768C532.723 232.429 533.694 233.368 534.398 234.584C535.102 235.779 535.454 237.208 535.454 238.872V239.352C535.454 241.016 535.102 242.456 534.398 243.672C533.694 244.888 532.723 245.827 531.486 246.488C530.248 247.128 528.84 247.448 527.262 247.448ZM527.262 244.504C528.712 244.504 529.886 244.045 530.782 243.128C531.699 242.189 532.158 240.899 532.158 239.256V238.968C532.158 237.325 531.71 236.045 530.814 235.128C529.918 234.189 528.734 233.72 527.262 233.72C525.832 233.72 524.659 234.189 523.742 235.128C522.846 236.045 522.398 237.325 522.398 238.968V239.256C522.398 240.899 522.846 242.189 523.742 243.128C524.659 244.045 525.832 244.504 527.262 244.504ZM539.557 247V231.224H542.789V233.592H543.301C543.6 232.952 544.133 232.355 544.901 231.8C545.669 231.245 546.81 230.968 548.325 230.968C549.52 230.968 550.576 231.235 551.493 231.768C552.432 232.301 553.168 233.059 553.701 234.04C554.234 235 554.501 236.163 554.501 237.528V247H551.205V237.784C551.205 236.419 550.864 235.416 550.181 234.776C549.498 234.115 548.56 233.784 547.365 233.784C546 233.784 544.901 234.232 544.069 235.128C543.258 236.024 542.853 237.325 542.853 239.032V247H539.557ZM566.477 247.448C564.877 247.448 563.479 247.117 562.285 246.456C561.09 245.773 560.151 244.824 559.469 243.608C558.807 242.371 558.477 240.941 558.477 239.32V238.936C558.477 237.293 558.807 235.864 559.469 234.648C560.13 233.411 561.047 232.461 562.221 231.8C563.415 231.117 564.791 230.776 566.349 230.776C567.863 230.776 569.186 231.117 570.317 231.8C571.469 232.461 572.365 233.389 573.005 234.584C573.645 235.779 573.965 237.176 573.965 238.776V240.024H561.837C561.879 241.411 562.338 242.52 563.213 243.352C564.109 244.163 565.218 244.568 566.541 244.568C567.778 244.568 568.706 244.291 569.325 243.736C569.965 243.181 570.455 242.541 570.797 241.816L573.517 243.224C573.218 243.821 572.781 244.451 572.205 245.112C571.65 245.773 570.914 246.328 569.997 246.776C569.079 247.224 567.906 247.448 566.477 247.448ZM561.869 237.496H570.605C570.519 236.301 570.093 235.373 569.325 234.712C568.557 234.029 567.554 233.688 566.317 233.688C565.079 233.688 564.066 234.029 563.277 234.712C562.509 235.373 562.039 236.301 561.869 237.496ZM579.756 253.4V250.52H588.556C589.153 250.52 589.452 250.2 589.452 249.56V244.696H588.94C588.748 245.123 588.449 245.539 588.044 245.944C587.66 246.328 587.137 246.648 586.476 246.904C585.815 247.16 584.983 247.288 583.98 247.288C582.785 247.288 581.719 247.021 580.78 246.488C579.841 245.955 579.105 245.197 578.572 244.216C578.039 243.235 577.772 242.072 577.772 240.728V231.224H581.068V240.472C581.068 241.837 581.409 242.851 582.092 243.512C582.775 244.152 583.724 244.472 584.94 244.472C586.284 244.472 587.361 244.024 588.172 243.128C589.004 242.232 589.42 240.931 589.42 239.224V231.224H592.716V250.232C592.716 251.192 592.428 251.96 591.852 252.536C591.297 253.112 590.529 253.4 589.548 253.4H579.756ZM607.473 247L604.785 231.224H608.081L610.065 244.792H610.577L613.329 231.224H618.673L621.392 244.792H621.905L623.889 231.224H627.185L624.497 247H618.961L616.241 233.464H615.729L613.009 247H607.473ZM638.133 247.448C636.533 247.448 635.135 247.117 633.941 246.456C632.746 245.773 631.807 244.824 631.125 243.608C630.463 242.371 630.133 240.941 630.133 239.32V238.936C630.133 237.293 630.463 235.864 631.125 234.648C631.786 233.411 632.703 232.461 633.877 231.8C635.071 231.117 636.447 230.776 638.005 230.776C639.519 230.776 640.842 231.117 641.973 231.8C643.125 232.461 644.021 233.389 644.661 234.584C645.301 235.779 645.621 237.176 645.621 238.776V240.024H633.493C633.535 241.411 633.994 242.52 634.869 243.352C635.765 244.163 636.874 244.568 638.197 244.568C639.434 244.568 640.362 244.291 640.981 243.736C641.621 243.181 642.111 242.541 642.453 241.816L645.173 243.224C644.874 243.821 644.437 244.451 643.861 245.112C643.306 245.773 642.57 246.328 641.653 246.776C640.735 247.224 639.562 247.448 638.133 247.448ZM633.525 237.496H642.261C642.175 236.301 641.749 235.373 640.981 234.712C640.213 234.029 639.21 233.688 637.973 233.688C636.735 233.688 635.722 234.029 634.933 234.712C634.165 235.373 633.695 236.301 633.525 237.496ZM649.588 247V224.6H652.884V247H649.588ZM657.776 247V224.6H661.072V247H657.776ZM667.947 247.448C667.201 247.448 666.571 247.203 666.059 246.712C665.569 246.221 665.323 245.592 665.323 244.824C665.323 244.056 665.569 243.437 666.059 242.968C666.571 242.477 667.201 242.232 667.947 242.232C668.694 242.232 669.313 242.477 669.803 242.968C670.315 243.459 670.571 244.077 670.571 244.824C670.571 245.592 670.315 246.221 669.803 246.712C669.313 247.203 668.694 247.448 667.947 247.448Z" fill="#800080"/>
<path d="M572.762 149.448C571.183 149.448 569.775 149.128 568.538 148.488C567.322 147.827 566.362 146.888 565.658 145.672C564.954 144.456 564.602 143.016 564.602 141.352V140.872C564.602 139.208 564.954 137.779 565.658 136.584C566.362 135.368 567.322 134.429 568.538 133.768C569.775 133.107 571.183 132.776 572.762 132.776C574.34 132.776 575.748 133.107 576.986 133.768C578.223 134.429 579.194 135.368 579.898 136.584C580.602 137.779 580.954 139.208 580.954 140.872V141.352C580.954 143.016 580.602 144.456 579.898 145.672C579.194 146.888 578.223 147.827 576.986 148.488C575.748 149.128 574.34 149.448 572.762 149.448ZM572.762 146.504C574.212 146.504 575.386 146.045 576.282 145.128C577.199 144.189 577.658 142.899 577.658 141.256V140.968C577.658 139.325 577.21 138.045 576.314 137.128C575.418 136.189 574.234 135.72 572.762 135.72C571.332 135.72 570.159 136.189 569.242 137.128C568.346 138.045 567.898 139.325 567.898 140.968V141.256C567.898 142.899 568.346 144.189 569.242 145.128C570.159 146.045 571.332 146.504 572.762 146.504ZM587.311 149V136.008H582.895V133.224H587.311V129.768C587.311 128.808 587.599 128.04 588.175 127.464C588.751 126.888 589.519 126.6 590.479 126.6H594.543V129.384H591.535C590.917 129.384 590.607 129.704 590.607 130.344V133.224H595.151V136.008H590.607V149H587.311ZM612.602 149C611.642 149 610.874 148.712 610.298 148.136C609.743 147.56 609.466 146.792 609.466 145.832V136.008H605.114V133.224H609.466V128.008H612.762V133.224H617.466V136.008H612.762V145.256C612.762 145.896 613.061 146.216 613.658 146.216H616.954V149H612.602ZM621.338 149V126.6H624.634V135.464H625.146C625.36 135.059 625.658 134.664 626.042 134.28C626.448 133.896 626.97 133.587 627.61 133.352C628.272 133.096 629.104 132.968 630.106 132.968C631.301 132.968 632.357 133.235 633.274 133.768C634.213 134.301 634.949 135.059 635.482 136.04C636.016 137 636.282 138.163 636.282 139.528V149H632.986V139.784C632.986 138.419 632.645 137.416 631.962 136.776C631.28 136.115 630.341 135.784 629.146 135.784C627.781 135.784 626.682 136.232 625.85 137.128C625.04 138.024 624.634 139.325 624.634 141.032V149H621.338ZM648.258 149.448C646.658 149.448 645.26 149.117 644.066 148.456C642.871 147.773 641.932 146.824 641.25 145.608C640.588 144.371 640.258 142.941 640.258 141.32V140.936C640.258 139.293 640.588 137.864 641.25 136.648C641.911 135.411 642.828 134.461 644.002 133.8C645.196 133.117 646.572 132.776 648.13 132.776C649.644 132.776 650.967 133.117 652.098 133.8C653.25 134.461 654.146 135.389 654.786 136.584C655.426 137.779 655.746 139.176 655.746 140.776V142.024H643.618C643.66 143.411 644.119 144.52 644.994 145.352C645.89 146.163 646.999 146.568 648.322 146.568C649.559 146.568 650.487 146.291 651.106 145.736C651.746 145.181 652.236 144.541 652.578 143.816L655.298 145.224C654.999 145.821 654.562 146.451 653.986 147.112C653.431 147.773 652.695 148.328 651.778 148.776C650.86 149.224 649.687 149.448 648.258 149.448ZM643.65 139.496H652.386C652.3 138.301 651.874 137.373 651.106 136.712C650.338 136.029 649.335 135.688 648.098 135.688C646.86 135.688 645.847 136.029 645.058 136.712C644.29 137.373 643.82 138.301 643.65 139.496ZM667.87 155.4V133.224H671.102V135.496H671.614C672.019 134.792 672.627 134.163 673.438 133.608C674.27 133.053 675.454 132.776 676.99 132.776C678.312 132.776 679.518 133.096 680.606 133.736C681.715 134.376 682.6 135.304 683.262 136.52C683.944 137.715 684.286 139.165 684.286 140.872V141.352C684.286 143.059 683.955 144.52 683.294 145.736C682.632 146.931 681.747 147.848 680.638 148.488C679.528 149.128 678.312 149.448 676.99 149.448C675.966 149.448 675.102 149.32 674.398 149.064C673.694 148.808 673.128 148.488 672.702 148.104C672.275 147.699 671.934 147.283 671.678 146.856H671.166V155.4H667.87ZM676.03 146.568C677.48 146.568 678.664 146.109 679.582 145.192C680.499 144.275 680.958 142.963 680.958 141.256V140.968C680.958 139.283 680.488 137.981 679.55 137.064C678.632 136.147 677.459 135.688 676.03 135.688C674.622 135.688 673.448 136.147 672.51 137.064C671.592 137.981 671.134 139.283 671.134 140.968V141.256C671.134 142.963 671.592 144.275 672.51 145.192C673.448 146.109 674.622 146.568 676.03 146.568ZM693.266 149.448C692.135 149.448 691.122 149.256 690.226 148.872C689.351 148.488 688.647 147.923 688.114 147.176C687.602 146.429 687.346 145.523 687.346 144.456C687.346 143.368 687.602 142.472 688.114 141.768C688.647 141.043 689.362 140.499 690.258 140.136C691.175 139.773 692.21 139.592 693.362 139.592H698.162V138.568C698.162 137.651 697.884 136.915 697.33 136.36C696.775 135.805 695.922 135.528 694.77 135.528C693.639 135.528 692.775 135.795 692.178 136.328C691.58 136.861 691.186 137.555 690.994 138.408L687.922 137.416C688.178 136.563 688.583 135.795 689.138 135.112C689.714 134.408 690.471 133.843 691.41 133.416C692.348 132.989 693.479 132.776 694.802 132.776C696.85 132.776 698.46 133.299 699.634 134.344C700.807 135.389 701.394 136.872 701.394 138.792V145.288C701.394 145.928 701.692 146.248 702.29 146.248H703.634V149H701.17C700.423 149 699.815 148.808 699.346 148.424C698.876 148.04 698.642 147.517 698.642 146.856V146.76H698.162C697.991 147.08 697.735 147.453 697.394 147.88C697.052 148.307 696.551 148.68 695.89 149C695.228 149.299 694.354 149.448 693.266 149.448ZM693.746 146.728C695.068 146.728 696.135 146.355 696.946 145.608C697.756 144.84 698.162 143.795 698.162 142.472V142.152H693.554C692.679 142.152 691.975 142.344 691.442 142.728C690.908 143.091 690.641 143.635 690.641 144.36C690.641 145.085 690.919 145.661 691.474 146.088C692.028 146.515 692.786 146.728 693.746 146.728ZM706.838 149V133.224H710.07V135.08H710.582C710.838 134.419 711.244 133.939 711.798 133.64C712.374 133.32 713.078 133.16 713.91 133.16H715.798V136.136H713.782C712.716 136.136 711.841 136.435 711.158 137.032C710.476 137.608 710.134 138.504 710.134 139.72V149H706.838ZM725.133 149C724.173 149 723.405 148.712 722.829 148.136C722.275 147.56 721.997 146.792 721.997 145.832V136.008H717.645V133.224H721.997V128.008H725.293V133.224H729.997V136.008H725.293V145.256C725.293 145.896 725.592 146.216 726.189 146.216H729.485V149H725.133ZM733.87 149V133.224H737.166V149H733.87ZM735.534 131.08C734.894 131.08 734.35 130.877 733.902 130.472C733.475 130.045 733.262 129.501 733.262 128.84C733.262 128.179 733.475 127.645 733.902 127.24C734.35 126.813 734.894 126.6 735.534 126.6C736.195 126.6 736.739 126.813 737.166 127.24C737.592 127.645 737.806 128.179 737.806 128.84C737.806 129.501 737.592 130.045 737.166 130.472C736.739 130.877 736.195 131.08 735.534 131.08ZM749.385 149.448C747.87 149.448 746.494 149.128 745.257 148.488C744.041 147.848 743.07 146.92 742.345 145.704C741.641 144.488 741.289 143.027 741.289 141.32V140.904C741.289 139.197 741.641 137.747 742.345 136.552C743.07 135.336 744.041 134.408 745.257 133.768C746.494 133.107 747.87 132.776 749.385 132.776C750.9 132.776 752.19 133.053 753.257 133.608C754.324 134.163 755.177 134.899 755.817 135.816C756.478 136.733 756.905 137.747 757.097 138.856L753.897 139.528C753.79 138.824 753.566 138.184 753.225 137.608C752.884 137.032 752.404 136.573 751.785 136.232C751.166 135.891 750.388 135.72 749.449 135.72C748.532 135.72 747.7 135.933 746.953 136.36C746.228 136.765 745.652 137.363 745.225 138.152C744.798 138.92 744.585 139.859 744.585 140.968V141.256C744.585 142.365 744.798 143.315 745.225 144.104C745.652 144.893 746.228 145.491 746.953 145.896C747.7 146.301 748.532 146.504 749.449 146.504C750.836 146.504 751.892 146.152 752.617 145.448C753.342 144.723 753.801 143.805 753.993 142.696L757.193 143.432C756.937 144.52 756.478 145.523 755.817 146.44C755.177 147.357 754.324 148.093 753.257 148.648C752.19 149.181 750.9 149.448 749.385 149.448ZM760.995 149V133.224H764.291V149H760.995ZM762.659 131.08C762.019 131.08 761.475 130.877 761.027 130.472C760.6 130.045 760.387 129.501 760.387 128.84C760.387 128.179 760.6 127.645 761.027 127.24C761.475 126.813 762.019 126.6 762.659 126.6C763.32 126.6 763.864 126.813 764.291 127.24C764.717 127.645 764.931 128.179 764.931 128.84C764.931 129.501 764.717 130.045 764.291 130.472C763.864 130.877 763.32 131.08 762.659 131.08ZM769.182 155.4V133.224H772.414V135.496H772.926C773.331 134.792 773.939 134.163 774.75 133.608C775.582 133.053 776.766 132.776 778.302 132.776C779.625 132.776 780.83 133.096 781.918 133.736C783.027 134.376 783.913 135.304 784.574 136.52C785.257 137.715 785.598 139.165 785.598 140.872V141.352C785.598 143.059 785.267 144.52 784.606 145.736C783.945 146.931 783.059 147.848 781.95 148.488C780.841 149.128 779.625 149.448 778.302 149.448C777.278 149.448 776.414 149.32 775.71 149.064C775.006 148.808 774.441 148.488 774.014 148.104C773.587 147.699 773.246 147.283 772.99 146.856H772.478V155.4H769.182ZM777.342 146.568C778.793 146.568 779.977 146.109 780.894 145.192C781.811 144.275 782.27 142.963 782.27 141.256V140.968C782.27 139.283 781.801 137.981 780.862 137.064C779.945 136.147 778.771 135.688 777.342 135.688C775.934 135.688 774.761 136.147 773.822 137.064C772.905 137.981 772.446 139.283 772.446 140.968V141.256C772.446 142.963 772.905 144.275 773.822 145.192C774.761 146.109 775.934 146.568 777.342 146.568ZM794.578 149.448C793.447 149.448 792.434 149.256 791.538 148.872C790.663 148.488 789.959 147.923 789.426 147.176C788.914 146.429 788.658 145.523 788.658 144.456C788.658 143.368 788.914 142.472 789.426 141.768C789.959 141.043 790.674 140.499 791.57 140.136C792.487 139.773 793.522 139.592 794.674 139.592H799.474V138.568C799.474 137.651 799.197 136.915 798.642 136.36C798.087 135.805 797.234 135.528 796.082 135.528C794.951 135.528 794.087 135.795 793.49 136.328C792.893 136.861 792.498 137.555 792.306 138.408L789.234 137.416C789.49 136.563 789.895 135.795 790.45 135.112C791.026 134.408 791.783 133.843 792.722 133.416C793.661 132.989 794.791 132.776 796.114 132.776C798.162 132.776 799.773 133.299 800.946 134.344C802.119 135.389 802.706 136.872 802.706 138.792V145.288C802.706 145.928 803.005 146.248 803.602 146.248H804.946V149H802.482C801.735 149 801.127 148.808 800.658 148.424C800.189 148.04 799.954 147.517 799.954 146.856V146.76H799.474C799.303 147.08 799.047 147.453 798.706 147.88C798.365 148.307 797.863 148.68 797.202 149C796.541 149.299 795.666 149.448 794.578 149.448ZM795.058 146.728C796.381 146.728 797.447 146.355 798.258 145.608C799.069 144.84 799.474 143.795 799.474 142.472V142.152H794.866C793.991 142.152 793.287 142.344 792.754 142.728C792.221 143.091 791.954 143.635 791.954 144.36C791.954 145.085 792.231 145.661 792.786 146.088C793.341 146.515 794.098 146.728 795.058 146.728ZM808.151 149V133.224H811.383V135.592H811.895C812.193 134.952 812.727 134.355 813.495 133.8C814.263 133.245 815.404 132.968 816.919 132.968C818.113 132.968 819.169 133.235 820.087 133.768C821.025 134.301 821.761 135.059 822.295 136.04C822.828 137 823.095 138.163 823.095 139.528V149H819.799V139.784C819.799 138.419 819.457 137.416 818.775 136.776C818.092 136.115 817.153 135.784 815.959 135.784C814.593 135.784 813.495 136.232 812.663 137.128C811.852 138.024 811.447 139.325 811.447 141.032V149H808.151ZM833.321 149C832.361 149 831.593 148.712 831.017 148.136C830.462 147.56 830.185 146.792 830.185 145.832V136.008H825.833V133.224H830.185V128.008H833.481V133.224H838.185V136.008H833.481V145.256C833.481 145.896 833.779 146.216 834.377 146.216H837.673V149H833.321ZM848.521 149.448C846.516 149.448 844.852 149 843.529 148.104C842.206 147.208 841.396 145.853 841.097 144.04L844.169 143.304C844.34 144.179 844.628 144.872 845.033 145.384C845.438 145.896 845.94 146.259 846.537 146.472C847.156 146.685 847.817 146.792 848.521 146.792C849.566 146.792 850.366 146.589 850.921 146.184C851.497 145.779 851.785 145.256 851.785 144.616C851.785 143.976 851.518 143.507 850.985 143.208C850.452 142.909 849.662 142.664 848.617 142.472L847.529 142.28C846.462 142.088 845.492 141.811 844.617 141.448C843.742 141.085 843.049 140.584 842.537 139.944C842.025 139.304 841.769 138.483 841.769 137.48C841.769 135.987 842.324 134.835 843.433 134.024C844.542 133.192 846.014 132.776 847.849 132.776C849.62 132.776 851.07 133.181 852.201 133.992C853.353 134.781 854.1 135.859 854.441 137.224L851.369 138.088C851.177 137.128 850.772 136.456 850.153 136.072C849.534 135.667 848.766 135.464 847.849 135.464C846.953 135.464 846.249 135.635 845.737 135.976C845.225 136.296 844.969 136.755 844.969 137.352C844.969 137.992 845.214 138.461 845.705 138.76C846.217 139.059 846.9 139.283 847.753 139.432L848.873 139.624C850.004 139.816 851.038 140.083 851.977 140.424C852.916 140.765 853.652 141.256 854.185 141.896C854.74 142.536 855.017 143.389 855.017 144.456C855.017 146.035 854.43 147.261 853.257 148.136C852.084 149.011 850.505 149.448 848.521 149.448ZM872.946 149C871.986 149 871.218 148.712 870.642 148.136C870.087 147.56 869.81 146.792 869.81 145.832V136.008H865.458V133.224H869.81V128.008H873.106V133.224H877.81V136.008H873.106V145.256C873.106 145.896 873.404 146.216 874.002 146.216H877.298V149H872.946ZM881.682 149V126.6H884.978V135.464H885.49C885.703 135.059 886.002 134.664 886.386 134.28C886.791 133.896 887.314 133.587 887.954 133.352C888.615 133.096 889.447 132.968 890.45 132.968C891.645 132.968 892.701 133.235 893.618 133.768C894.557 134.301 895.293 135.059 895.826 136.04C896.359 137 896.626 138.163 896.626 139.528V149H893.33V139.784C893.33 138.419 892.989 137.416 892.306 136.776C891.623 136.115 890.685 135.784 889.49 135.784C888.125 135.784 887.026 136.232 886.194 137.128C885.383 138.024 884.978 139.325 884.978 141.032V149H881.682ZM901.37 149V133.224H904.666V149H901.37ZM903.034 131.08C902.394 131.08 901.85 130.877 901.402 130.472C900.975 130.045 900.762 129.501 900.762 128.84C900.762 128.179 900.975 127.645 901.402 127.24C901.85 126.813 902.394 126.6 903.034 126.6C903.695 126.6 904.239 126.813 904.666 127.24C905.092 127.645 905.306 128.179 905.306 128.84C905.306 129.501 905.092 130.045 904.666 130.472C904.239 130.877 903.695 131.08 903.034 131.08ZM909.557 149V133.224H912.789V135.592H913.301C913.6 134.952 914.133 134.355 914.901 133.8C915.669 133.245 916.81 132.968 918.325 132.968C919.52 132.968 920.576 133.235 921.493 133.768C922.432 134.301 923.168 135.059 923.701 136.04C924.234 137 924.501 138.163 924.501 139.528V149H921.205V139.784C921.205 138.419 920.864 137.416 920.181 136.776C919.498 136.115 918.56 135.784 917.365 135.784C916 135.784 914.901 136.232 914.069 137.128C913.258 138.024 912.853 139.325 912.853 141.032V149H909.557ZM929.245 149V126.6H932.541V139.368H933.053L939.261 133.224H943.645L935.677 140.872L943.901 149H939.549L933.053 142.44H932.541V149H929.245ZM960.946 149C959.986 149 959.218 148.712 958.642 148.136C958.087 147.56 957.81 146.792 957.81 145.832V136.008H953.458V133.224H957.81V128.008H961.106V133.224H965.81V136.008H961.106V145.256C961.106 145.896 961.404 146.216 962.002 146.216H965.298V149H960.946ZM969.682 149V126.6H972.978V135.464H973.49C973.703 135.059 974.002 134.664 974.386 134.28C974.791 133.896 975.314 133.587 975.954 133.352C976.615 133.096 977.447 132.968 978.45 132.968C979.645 132.968 980.701 133.235 981.618 133.768C982.557 134.301 983.293 135.059 983.826 136.04C984.359 137 984.626 138.163 984.626 139.528V149H981.33V139.784C981.33 138.419 980.989 137.416 980.306 136.776C979.623 136.115 978.685 135.784 977.49 135.784C976.125 135.784 975.026 136.232 974.194 137.128C973.383 138.024 972.978 139.325 972.978 141.032V149H969.682ZM996.602 149.448C995.002 149.448 993.604 149.117 992.41 148.456C991.215 147.773 990.276 146.824 989.594 145.608C988.932 144.371 988.602 142.941 988.602 141.32V140.936C988.602 139.293 988.932 137.864 989.594 136.648C990.255 135.411 991.172 134.461 992.346 133.8C993.54 133.117 994.916 132.776 996.474 132.776C997.988 132.776 999.311 133.117 1000.44 133.8C1001.59 134.461 1002.49 135.389 1003.13 136.584C1003.77 137.779 1004.09 139.176 1004.09 140.776V142.024H991.962C992.004 143.411 992.463 144.52 993.338 145.352C994.234 146.163 995.343 146.568 996.666 146.568C997.903 146.568 998.831 146.291 999.45 145.736C1000.09 145.181 1000.58 144.541 1000.92 143.816L1003.64 145.224C1003.34 145.821 1002.91 146.451 1002.33 147.112C1001.77 147.773 1001.04 148.328 1000.12 148.776C999.204 149.224 998.031 149.448 996.602 149.448ZM991.994 139.496H1000.73C1000.64 138.301 1000.22 137.373 999.45 136.712C998.682 136.029 997.679 135.688 996.442 135.688C995.204 135.688 994.191 136.029 993.402 136.712C992.634 137.373 992.164 138.301 991.994 139.496ZM1023.89 149.448C1022.29 149.448 1020.86 149.107 1019.61 148.424C1018.35 147.72 1017.35 146.696 1016.63 145.352C1015.9 144.008 1015.54 142.365 1015.54 140.424V135.176C1015.54 132.253 1016.34 130.024 1017.94 128.488C1019.54 126.931 1021.71 126.152 1024.44 126.152C1027.13 126.152 1029.19 126.888 1030.65 128.36C1032.1 129.811 1032.82 131.763 1032.82 134.216V134.376H1029.4V134.12C1029.4 133.203 1029.22 132.381 1028.85 131.656C1028.49 130.909 1027.95 130.323 1027.22 129.896C1026.5 129.469 1025.57 129.256 1024.44 129.256C1022.73 129.256 1021.4 129.779 1020.44 130.824C1019.48 131.848 1019 133.277 1019 135.112V140.488C1019 142.301 1019.48 143.741 1020.44 144.808C1021.4 145.853 1022.74 146.376 1024.47 146.376C1026.18 146.376 1027.42 145.907 1028.21 144.968C1029 144.029 1029.4 142.813 1029.4 141.32V140.904H1023.38V137.928H1032.82V149H1029.62V146.728H1029.11C1028.92 147.133 1028.63 147.549 1028.25 147.976C1027.88 148.403 1027.35 148.755 1026.65 149.032C1025.96 149.309 1025.05 149.448 1023.89 149.448ZM1037.37 149V133.224H1040.6V135.08H1041.11C1041.37 134.419 1041.77 133.939 1042.33 133.64C1042.91 133.32 1043.61 133.16 1044.44 133.16H1046.33V136.136H1044.31C1043.25 136.136 1042.37 136.435 1041.69 137.032C1041.01 137.608 1040.67 138.504 1040.67 139.72V149H1037.37ZM1049.74 149V133.224H1053.04V149H1049.74ZM1051.41 131.08C1050.77 131.08 1050.22 130.877 1049.78 130.472C1049.35 130.045 1049.14 129.501 1049.14 128.84C1049.14 128.179 1049.35 127.645 1049.78 127.24C1050.22 126.813 1050.77 126.6 1051.41 126.6C1052.07 126.6 1052.61 126.813 1053.04 127.24C1053.47 127.645 1053.68 128.179 1053.68 128.84C1053.68 129.501 1053.47 130.045 1053.04 130.472C1052.61 130.877 1052.07 131.08 1051.41 131.08ZM1057.93 149V133.224H1061.16V135.592H1061.68C1061.97 134.952 1062.51 134.355 1063.28 133.8C1064.04 133.245 1065.19 132.968 1066.7 132.968C1067.89 132.968 1068.95 133.235 1069.87 133.768C1070.81 134.301 1071.54 135.059 1072.08 136.04C1072.61 137 1072.88 138.163 1072.88 139.528V149H1069.58V139.784C1069.58 138.419 1069.24 137.416 1068.56 136.776C1067.87 136.115 1066.93 135.784 1065.74 135.784C1064.37 135.784 1063.28 136.232 1062.44 137.128C1061.63 138.024 1061.23 139.325 1061.23 141.032V149H1057.93ZM1084.15 149.448C1082.85 149.448 1081.64 149.128 1080.53 148.488C1079.42 147.848 1078.53 146.931 1077.84 145.736C1077.18 144.52 1076.85 143.059 1076.85 141.352V140.872C1076.85 139.187 1077.18 137.736 1077.84 136.52C1078.5 135.304 1079.39 134.376 1080.5 133.736C1081.61 133.096 1082.82 132.776 1084.15 132.776C1085.17 132.776 1086.02 132.904 1086.71 133.16C1087.41 133.416 1087.99 133.747 1088.44 134.152C1088.88 134.536 1089.22 134.941 1089.46 135.368H1089.97V126.6H1093.27V149H1090.04V146.76H1089.52C1089.12 147.443 1088.5 148.061 1087.67 148.616C1086.86 149.171 1085.68 149.448 1084.15 149.448ZM1085.08 146.568C1086.5 146.568 1087.68 146.109 1088.6 145.192C1089.53 144.275 1090 142.963 1090 141.256V140.968C1090 139.283 1089.54 137.981 1088.63 137.064C1087.71 136.147 1086.53 135.688 1085.08 135.688C1083.67 135.688 1082.49 136.147 1081.56 137.064C1080.64 137.981 1080.18 139.283 1080.18 140.968V141.256C1080.18 142.963 1080.64 144.275 1081.56 145.192C1082.49 146.109 1083.67 146.568 1085.08 146.568ZM1111.17 149.448C1110.04 149.448 1109.03 149.256 1108.13 148.872C1107.26 148.488 1106.55 147.923 1106.02 147.176C1105.51 146.429 1105.25 145.523 1105.25 144.456C1105.25 143.368 1105.51 142.472 1106.02 141.768C1106.55 141.043 1107.27 140.499 1108.16 140.136C1109.08 139.773 1110.12 139.592 1111.27 139.592H1116.07V138.568C1116.07 137.651 1115.79 136.915 1115.24 136.36C1114.68 135.805 1113.83 135.528 1112.68 135.528C1111.55 135.528 1110.68 135.795 1110.08 136.328C1109.49 136.861 1109.09 137.555 1108.9 138.408L1105.83 137.416C1106.08 136.563 1106.49 135.795 1107.04 135.112C1107.62 134.408 1108.38 133.843 1109.32 133.416C1110.25 132.989 1111.39 132.776 1112.71 132.776C1114.76 132.776 1116.37 133.299 1117.54 134.344C1118.71 135.389 1119.3 136.872 1119.3 138.792V145.288C1119.3 145.928 1119.6 146.248 1120.2 146.248H1121.54V149H1119.08C1118.33 149 1117.72 148.808 1117.25 148.424C1116.78 148.04 1116.55 147.517 1116.55 146.856V146.76H1116.07C1115.9 147.08 1115.64 147.453 1115.3 147.88C1114.96 148.307 1114.46 148.68 1113.8 149C1113.13 149.299 1112.26 149.448 1111.17 149.448ZM1111.65 146.728C1112.97 146.728 1114.04 146.355 1114.85 145.608C1115.66 144.84 1116.07 143.795 1116.07 142.472V142.152H1111.46C1110.59 142.152 1109.88 142.344 1109.35 142.728C1108.81 143.091 1108.55 143.635 1108.55 144.36C1108.55 145.085 1108.83 145.661 1109.38 146.088C1109.93 146.515 1110.69 146.728 1111.65 146.728ZM1124.74 155.4V133.224H1127.98V135.496H1128.49C1128.89 134.792 1129.5 134.163 1130.31 133.608C1131.14 133.053 1132.33 132.776 1133.86 132.776C1135.19 132.776 1136.39 133.096 1137.48 133.736C1138.59 134.376 1139.48 135.304 1140.14 136.52C1140.82 137.715 1141.16 139.165 1141.16 140.872V141.352C1141.16 143.059 1140.83 144.52 1140.17 145.736C1139.51 146.931 1138.62 147.848 1137.51 148.488C1136.4 149.128 1135.19 149.448 1133.86 149.448C1132.84 149.448 1131.98 149.32 1131.27 149.064C1130.57 148.808 1130 148.488 1129.58 148.104C1129.15 147.699 1128.81 147.283 1128.55 146.856H1128.04V155.4H1124.74ZM1132.9 146.568C1134.36 146.568 1135.54 146.109 1136.46 145.192C1137.37 144.275 1137.83 142.963 1137.83 141.256V140.968C1137.83 139.283 1137.36 137.981 1136.42 137.064C1135.51 136.147 1134.33 135.688 1132.9 135.688C1131.5 135.688 1130.32 136.147 1129.38 137.064C1128.47 137.981 1128.01 139.283 1128.01 140.968V141.256C1128.01 142.963 1128.47 144.275 1129.38 145.192C1130.32 146.109 1131.5 146.568 1132.9 146.568ZM1145.24 155.4V133.224H1148.48V135.496H1148.99C1149.39 134.792 1150 134.163 1150.81 133.608C1151.64 133.053 1152.83 132.776 1154.36 132.776C1155.69 132.776 1156.89 133.096 1157.98 133.736C1159.09 134.376 1159.98 135.304 1160.64 136.52C1161.32 137.715 1161.66 139.165 1161.66 140.872V141.352C1161.66 143.059 1161.33 144.52 1160.67 145.736C1160.01 146.931 1159.12 147.848 1158.01 148.488C1156.9 149.128 1155.69 149.448 1154.36 149.448C1153.34 149.448 1152.48 149.32 1151.77 149.064C1151.07 148.808 1150.5 148.488 1150.08 148.104C1149.65 147.699 1149.31 147.283 1149.05 146.856H1148.54V155.4H1145.24ZM1153.4 146.568C1154.86 146.568 1156.04 146.109 1156.96 145.192C1157.87 144.275 1158.33 142.963 1158.33 141.256V140.968C1158.33 139.283 1157.86 137.981 1156.92 137.064C1156.01 136.147 1154.83 135.688 1153.4 135.688C1152 135.688 1150.82 136.147 1149.88 137.064C1148.97 137.981 1148.51 139.283 1148.51 140.968V141.256C1148.51 142.963 1148.97 144.275 1149.88 145.192C1150.82 146.109 1152 146.568 1153.4 146.568ZM494.16 198L491.472 182.224H494.768L496.752 195.792H497.264L500.016 182.224H505.36L508.08 195.792H508.592L510.576 182.224H513.872L511.184 198H505.648L502.928 184.464H502.416L499.696 198H494.16ZM524.98 198.448C523.402 198.448 521.994 198.128 520.756 197.488C519.54 196.827 518.58 195.888 517.876 194.672C517.172 193.456 516.82 192.016 516.82 190.352V189.872C516.82 188.208 517.172 186.779 517.876 185.584C518.58 184.368 519.54 183.429 520.756 182.768C521.994 182.107 523.402 181.776 524.98 181.776C526.559 181.776 527.967 182.107 529.204 182.768C530.442 183.429 531.412 184.368 532.116 185.584C532.82 186.779 533.172 188.208 533.172 189.872V190.352C533.172 192.016 532.82 193.456 532.116 194.672C531.412 195.888 530.442 196.827 529.204 197.488C527.967 198.128 526.559 198.448 524.98 198.448ZM524.98 195.504C526.431 195.504 527.604 195.045 528.5 194.128C529.418 193.189 529.876 191.899 529.876 190.256V189.968C529.876 188.325 529.428 187.045 528.532 186.128C527.636 185.189 526.452 184.72 524.98 184.72C523.551 184.72 522.378 185.189 521.46 186.128C520.564 187.045 520.116 188.325 520.116 189.968V190.256C520.116 191.899 520.564 193.189 521.46 194.128C522.378 195.045 523.551 195.504 524.98 195.504ZM543.324 198.288C542.129 198.288 541.062 198.021 540.124 197.488C539.185 196.955 538.449 196.197 537.916 195.216C537.382 194.235 537.116 193.061 537.116 191.696V182.224H540.412V191.472C540.412 192.837 540.753 193.851 541.436 194.512C542.118 195.152 543.068 195.472 544.284 195.472C545.628 195.472 546.705 195.024 547.516 194.128C548.348 193.211 548.764 191.899 548.764 190.192V182.224H552.06V198H548.828V195.632H548.316C548.017 196.272 547.484 196.88 546.716 197.456C545.948 198.011 544.817 198.288 543.324 198.288ZM556.932 198V175.6H560.228V198H556.932ZM571.648 198.448C570.346 198.448 569.141 198.128 568.032 197.488C566.922 196.848 566.026 195.931 565.344 194.736C564.682 193.52 564.352 192.059 564.352 190.352V189.872C564.352 188.187 564.682 186.736 565.344 185.52C566.005 184.304 566.89 183.376 568 182.736C569.109 182.096 570.325 181.776 571.648 181.776C572.672 181.776 573.525 181.904 574.208 182.16C574.912 182.416 575.488 182.747 575.936 183.152C576.384 183.536 576.725 183.941 576.96 184.368H577.472V175.6H580.767V198H577.536V195.76H577.024C576.618 196.443 576 197.061 575.168 197.616C574.357 198.171 573.184 198.448 571.648 198.448ZM572.576 195.568C574.005 195.568 575.178 195.109 576.096 194.192C577.034 193.275 577.504 191.963 577.504 190.256V189.968C577.504 188.283 577.045 186.981 576.128 186.064C575.21 185.147 574.026 184.688 572.576 184.688C571.168 184.688 569.994 185.147 569.056 186.064C568.138 186.981 567.68 188.283 567.68 189.968V190.256C567.68 191.963 568.138 193.275 569.056 194.192C569.994 195.109 571.168 195.568 572.576 195.568ZM593.776 198V182.224H597.072V198H593.776ZM595.44 180.08C594.8 180.08 594.256 179.877 593.808 179.472C593.381 179.045 593.168 178.501 593.168 177.84C593.168 177.179 593.381 176.645 593.808 176.24C594.256 175.813 594.8 175.6 595.44 175.6C596.101 175.6 596.645 175.813 597.072 176.24C597.498 176.645 597.712 177.179 597.712 177.84C597.712 178.501 597.498 179.045 597.072 179.472C596.645 179.877 596.101 180.08 595.44 180.08ZM601.963 198V182.224H605.195V184.08H605.707C606.006 183.525 606.486 183.035 607.147 182.608C607.809 182.181 608.705 181.968 609.835 181.968C611.009 181.968 611.947 182.213 612.651 182.704C613.377 183.173 613.921 183.781 614.283 184.528H614.795C615.158 183.803 615.681 183.195 616.363 182.704C617.067 182.213 618.059 181.968 619.339 181.968C620.363 181.968 621.27 182.181 622.059 182.608C622.849 183.013 623.478 183.632 623.947 184.464C624.417 185.275 624.651 186.288 624.651 187.504V198H621.355V187.76C621.355 186.8 621.089 186.064 620.555 185.552C620.043 185.019 619.307 184.752 618.347 184.752C617.323 184.752 616.502 185.083 615.883 185.744C615.265 186.405 614.955 187.355 614.955 188.592V198H611.659V187.76C611.659 186.8 611.393 186.064 610.859 185.552C610.347 185.019 609.611 184.752 608.651 184.752C607.627 184.752 606.806 185.083 606.187 185.744C605.569 186.405 605.259 187.355 605.259 188.592V198H601.963ZM629.401 204.4V182.224H632.633V184.496H633.145C633.55 183.792 634.158 183.163 634.969 182.608C635.801 182.053 636.985 181.776 638.521 181.776C639.843 181.776 641.049 182.096 642.137 182.736C643.246 183.376 644.131 184.304 644.793 185.52C645.475 186.715 645.817 188.165 645.817 189.872V190.352C645.817 192.059 645.486 193.52 644.825 194.736C644.163 195.931 643.278 196.848 642.169 197.488C641.059 198.128 639.843 198.448 638.521 198.448C637.497 198.448 636.633 198.32 635.929 198.064C635.225 197.808 634.659 197.488 634.233 197.104C633.806 196.699 633.465 196.283 633.209 195.856H632.697V204.4H629.401ZM637.561 195.568C639.011 195.568 640.195 195.109 641.113 194.192C642.03 193.275 642.489 191.963 642.489 190.256V189.968C642.489 188.283 642.019 186.981 641.081 186.064C640.163 185.147 638.99 184.688 637.561 184.688C636.153 184.688 634.979 185.147 634.041 186.064C633.123 186.981 632.665 188.283 632.665 189.968V190.256C632.665 191.963 633.123 193.275 634.041 194.192C634.979 195.109 636.153 195.568 637.561 195.568ZM654.797 198.448C653.666 198.448 652.653 198.256 651.757 197.872C650.882 197.488 650.178 196.923 649.645 196.176C649.133 195.429 648.877 194.523 648.877 193.456C648.877 192.368 649.133 191.472 649.645 190.768C650.178 190.043 650.893 189.499 651.789 189.136C652.706 188.773 653.741 188.592 654.893 188.592H659.693V187.568C659.693 186.651 659.415 185.915 658.861 185.36C658.306 184.805 657.453 184.528 656.301 184.528C655.17 184.528 654.306 184.795 653.709 185.328C653.111 185.861 652.717 186.555 652.525 187.408L649.453 186.416C649.709 185.563 650.114 184.795 650.669 184.112C651.245 183.408 652.002 182.843 652.941 182.416C653.879 181.989 655.01 181.776 656.333 181.776C658.381 181.776 659.991 182.299 661.165 183.344C662.338 184.389 662.925 185.872 662.925 187.792V194.288C662.925 194.928 663.223 195.248 663.821 195.248H665.165V198H662.701C661.954 198 661.346 197.808 660.877 197.424C660.407 197.04 660.173 196.517 660.173 195.856V195.76H659.693C659.522 196.08 659.266 196.453 658.925 196.88C658.583 197.307 658.082 197.68 657.421 198C656.759 198.299 655.885 198.448 654.797 198.448ZM655.277 195.728C656.599 195.728 657.666 195.355 658.477 194.608C659.287 193.84 659.693 192.795 659.693 191.472V191.152H655.085C654.21 191.152 653.506 191.344 652.973 191.728C652.439 192.091 652.173 192.635 652.173 193.36C652.173 194.085 652.45 194.661 653.005 195.088C653.559 195.515 654.317 195.728 655.277 195.728ZM675.323 198.448C673.808 198.448 672.432 198.128 671.195 197.488C669.979 196.848 669.008 195.92 668.283 194.704C667.579 193.488 667.227 192.027 667.227 190.32V189.904C667.227 188.197 667.579 186.747 668.283 185.552C669.008 184.336 669.979 183.408 671.195 182.768C672.432 182.107 673.808 181.776 675.323 181.776C676.837 181.776 678.128 182.053 679.195 182.608C680.261 183.163 681.115 183.899 681.755 184.816C682.416 185.733 682.843 186.747 683.035 187.856L679.835 188.528C679.728 187.824 679.504 187.184 679.163 186.608C678.821 186.032 678.341 185.573 677.723 185.232C677.104 184.891 676.325 184.72 675.387 184.72C674.469 184.72 673.637 184.933 672.891 185.36C672.165 185.765 671.589 186.363 671.163 187.152C670.736 187.92 670.523 188.859 670.523 189.968V190.256C670.523 191.365 670.736 192.315 671.163 193.104C671.589 193.893 672.165 194.491 672.891 194.896C673.637 195.301 674.469 195.504 675.387 195.504C676.773 195.504 677.829 195.152 678.555 194.448C679.28 193.723 679.739 192.805 679.931 191.696L683.131 192.432C682.875 193.52 682.416 194.523 681.755 195.44C681.115 196.357 680.261 197.093 679.195 197.648C678.128 198.181 676.837 198.448 675.323 198.448ZM692.258 198C691.298 198 690.53 197.712 689.954 197.136C689.4 196.56 689.122 195.792 689.122 194.832V185.008H684.77V182.224H689.122V177.008H692.418V182.224H697.122V185.008H692.418V194.256C692.418 194.896 692.717 195.216 693.314 195.216H696.61V198H692.258ZM717.439 198.448C715.668 198.448 714.143 198.128 712.863 197.488C711.604 196.848 710.623 195.931 709.919 194.736C709.236 193.52 708.895 192.048 708.895 190.32V175.6H712.383V190.416C712.383 191.995 712.82 193.211 713.695 194.064C714.569 194.917 715.817 195.344 717.439 195.344C719.06 195.344 720.308 194.917 721.183 194.064C722.057 193.211 722.495 191.995 722.495 190.416V175.6H725.951V190.32C725.951 192.048 725.609 193.52 724.927 194.736C724.244 195.931 723.263 196.848 721.983 197.488C720.703 198.128 719.188 198.448 717.439 198.448ZM730.557 198V182.224H733.789V184.592H734.301C734.6 183.952 735.133 183.355 735.901 182.8C736.669 182.245 737.81 181.968 739.325 181.968C740.52 181.968 741.576 182.235 742.493 182.768C743.432 183.301 744.168 184.059 744.701 185.04C745.234 186 745.501 187.163 745.501 188.528V198H742.205V188.784C742.205 187.419 741.864 186.416 741.181 185.776C740.498 185.115 739.56 184.784 738.365 184.784C737 184.784 735.901 185.232 735.069 186.128C734.258 187.024 733.853 188.325 733.853 190.032V198H730.557ZM750.245 198V182.224H753.541V198H750.245ZM751.909 180.08C751.269 180.08 750.725 179.877 750.277 179.472C749.85 179.045 749.637 178.501 749.637 177.84C749.637 177.179 749.85 176.645 750.277 176.24C750.725 175.813 751.269 175.6 751.909 175.6C752.57 175.6 753.114 175.813 753.541 176.24C753.967 176.645 754.181 177.179 754.181 177.84C754.181 178.501 753.967 179.045 753.541 179.472C753.114 179.877 752.57 180.08 751.909 180.08ZM762.08 198L756.768 182.224H760.256L764.448 195.568H764.96L769.152 182.224H772.64L767.328 198H762.08ZM782.508 198.448C780.908 198.448 779.51 198.117 778.316 197.456C777.121 196.773 776.182 195.824 775.5 194.608C774.838 193.371 774.508 191.941 774.508 190.32V189.936C774.508 188.293 774.838 186.864 775.5 185.648C776.161 184.411 777.078 183.461 778.252 182.8C779.446 182.117 780.822 181.776 782.38 181.776C783.894 181.776 785.217 182.117 786.348 182.8C787.5 183.461 788.396 184.389 789.036 185.584C789.676 186.779 789.996 188.176 789.996 189.776V191.024H777.868C777.91 192.411 778.369 193.52 779.244 194.352C780.14 195.163 781.249 195.568 782.572 195.568C783.809 195.568 784.737 195.291 785.356 194.736C785.996 194.181 786.486 193.541 786.828 192.816L789.548 194.224C789.249 194.821 788.812 195.451 788.236 196.112C787.681 196.773 786.945 197.328 786.028 197.776C785.11 198.224 783.937 198.448 782.508 198.448ZM777.9 188.496H786.636C786.55 187.301 786.124 186.373 785.356 185.712C784.588 185.029 783.585 184.688 782.348 184.688C781.11 184.688 780.097 185.029 779.308 185.712C778.54 186.373 778.07 187.301 777.9 188.496ZM793.963 198V182.224H797.195V184.08H797.707C797.963 183.419 798.369 182.939 798.923 182.64C799.499 182.32 800.203 182.16 801.035 182.16H802.923V185.136H800.907C799.841 185.136 798.966 185.435 798.283 186.032C797.601 186.608 797.259 187.504 797.259 188.72V198H793.963ZM812.459 198.448C810.453 198.448 808.789 198 807.467 197.104C806.144 196.208 805.333 194.853 805.035 193.04L808.107 192.304C808.277 193.179 808.565 193.872 808.971 194.384C809.376 194.896 809.877 195.259 810.475 195.472C811.093 195.685 811.755 195.792 812.459 195.792C813.504 195.792 814.304 195.589 814.859 195.184C815.435 194.779 815.723 194.256 815.723 193.616C815.723 192.976 815.456 192.507 814.923 192.208C814.389 191.909 813.6 191.664 812.555 191.472L811.467 191.28C810.4 191.088 809.429 190.811 808.555 190.448C807.68 190.085 806.987 189.584 806.475 188.944C805.963 188.304 805.707 187.483 805.707 186.48C805.707 184.987 806.261 183.835 807.371 183.024C808.48 182.192 809.952 181.776 811.786 181.776C813.557 181.776 815.008 182.181 816.139 182.992C817.291 183.781 818.037 184.859 818.379 186.224L815.307 187.088C815.115 186.128 814.709 185.456 814.091 185.072C813.472 184.667 812.704 184.464 811.786 184.464C810.891 184.464 810.187 184.635 809.675 184.976C809.163 185.296 808.907 185.755 808.907 186.352C808.907 186.992 809.152 187.461 809.643 187.76C810.155 188.059 810.837 188.283 811.691 188.432L812.811 188.624C813.941 188.816 814.976 189.083 815.915 189.424C816.853 189.765 817.589 190.256 818.123 190.896C818.677 191.536 818.955 192.389 818.955 193.456C818.955 195.035 818.368 196.261 817.195 197.136C816.021 198.011 814.443 198.448 812.459 198.448ZM822.807 198V182.224H826.103V198H822.807ZM824.471 180.08C823.831 180.08 823.287 179.877 822.839 179.472C822.412 179.045 822.199 178.501 822.199 177.84C822.199 177.179 822.412 176.645 822.839 176.24C823.287 175.813 823.831 175.6 824.471 175.6C825.132 175.6 825.676 175.813 826.103 176.24C826.53 176.645 826.743 177.179 826.743 177.84C826.743 178.501 826.53 179.045 826.103 179.472C825.676 179.877 825.132 180.08 824.471 180.08ZM836.915 198C835.955 198 835.187 197.712 834.611 197.136C834.056 196.56 833.779 195.792 833.779 194.832V185.008H829.427V182.224H833.779V177.008H837.075V182.224H841.779V185.008H837.075V194.256C837.075 194.896 837.373 195.216 837.97 195.216H841.267V198H836.915ZM847.475 204.4V201.52H856.275C856.872 201.52 857.171 201.2 857.171 200.56V195.696H856.659C856.467 196.123 856.168 196.539 855.763 196.944C855.379 197.328 854.856 197.648 854.195 197.904C853.533 198.16 852.701 198.288 851.699 198.288C850.504 198.288 849.437 198.021 848.499 197.488C847.56 196.955 846.824 196.197 846.291 195.216C845.757 194.235 845.491 193.072 845.491 191.728V182.224H848.787V191.472C848.787 192.837 849.128 193.851 849.811 194.512C850.493 195.152 851.443 195.472 852.659 195.472C854.003 195.472 855.08 195.024 855.891 194.128C856.723 193.232 857.139 191.931 857.139 190.224V182.224H860.435V201.232C860.435 202.192 860.147 202.96 859.571 203.536C859.016 204.112 858.248 204.4 857.267 204.4H847.475ZM879.927 198.448C877.922 198.448 876.258 198 874.935 197.104C873.613 196.208 872.802 194.853 872.503 193.04L875.575 192.304C875.746 193.179 876.034 193.872 876.439 194.384C876.845 194.896 877.346 195.259 877.943 195.472C878.562 195.685 879.223 195.792 879.927 195.792C880.973 195.792 881.773 195.589 882.327 195.184C882.903 194.779 883.191 194.256 883.191 193.616C883.191 192.976 882.925 192.507 882.391 192.208C881.858 191.909 881.069 191.664 880.023 191.472L878.935 191.28C877.869 191.088 876.898 190.811 876.023 190.448C875.149 190.085 874.455 189.584 873.943 188.944C873.431 188.304 873.175 187.483 873.175 186.48C873.175 184.987 873.73 183.835 874.839 183.024C875.949 182.192 877.421 181.776 879.255 181.776C881.026 181.776 882.477 182.181 883.607 182.992C884.759 183.781 885.506 184.859 885.847 186.224L882.775 187.088C882.583 186.128 882.178 185.456 881.559 185.072C880.941 184.667 880.173 184.464 879.255 184.464C878.359 184.464 877.655 184.635 877.143 184.976C876.631 185.296 876.375 185.755 876.375 186.352C876.375 186.992 876.621 187.461 877.111 187.76C877.623 188.059 878.306 188.283 879.159 188.432L880.279 188.624C881.41 188.816 882.445 189.083 883.383 189.424C884.322 189.765 885.058 190.256 885.591 190.896C886.146 191.536 886.423 192.389 886.423 193.456C886.423 195.035 885.837 196.261 884.663 197.136C883.49 198.011 881.911 198.448 879.927 198.448ZM895.852 198C894.892 198 894.124 197.712 893.548 197.136C892.993 196.56 892.716 195.792 892.716 194.832V185.008H888.364V182.224H892.716V177.008H896.012V182.224H900.716V185.008H896.012V194.256C896.012 194.896 896.311 195.216 896.908 195.216H900.204V198H895.852ZM910.636 198.288C909.442 198.288 908.375 198.021 907.436 197.488C906.498 196.955 905.762 196.197 905.228 195.216C904.695 194.235 904.428 193.061 904.428 191.696V182.224H907.724V191.472C907.724 192.837 908.066 193.851 908.748 194.512C909.431 195.152 910.38 195.472 911.596 195.472C912.94 195.472 914.018 195.024 914.828 194.128C915.66 193.211 916.076 191.899 916.076 190.192V182.224H919.372V198H916.14V195.632H915.628C915.33 196.272 914.796 196.88 914.028 197.456C913.26 198.011 912.13 198.288 910.636 198.288ZM930.773 198.448C929.471 198.448 928.266 198.128 927.157 197.488C926.047 196.848 925.151 195.931 924.469 194.736C923.807 193.52 923.477 192.059 923.477 190.352V189.872C923.477 188.187 923.807 186.736 924.469 185.52C925.13 184.304 926.015 183.376 927.125 182.736C928.234 182.096 929.45 181.776 930.773 181.776C931.797 181.776 932.65 181.904 933.333 182.16C934.037 182.416 934.613 182.747 935.061 183.152C935.509 183.536 935.85 183.941 936.085 184.368H936.597V175.6H939.892V198H936.661V195.76H936.149C935.743 196.443 935.125 197.061 934.293 197.616C933.482 198.171 932.309 198.448 930.773 198.448ZM931.701 195.568C933.13 195.568 934.303 195.109 935.221 194.192C936.159 193.275 936.629 191.963 936.629 190.256V189.968C936.629 188.283 936.17 186.981 935.253 186.064C934.335 185.147 933.151 184.688 931.701 184.688C930.293 184.688 929.119 185.147 928.181 186.064C927.263 186.981 926.805 188.283 926.805 189.968V190.256C926.805 191.963 927.263 193.275 928.181 194.192C929.119 195.109 930.293 195.568 931.701 195.568ZM951.977 198.448C950.377 198.448 948.979 198.117 947.785 197.456C946.59 196.773 945.651 195.824 944.969 194.608C944.307 193.371 943.977 191.941 943.977 190.32V189.936C943.977 188.293 944.307 186.864 944.969 185.648C945.63 184.411 946.547 183.461 947.721 182.8C948.915 182.117 950.291 181.776 951.849 181.776C953.363 181.776 954.686 182.117 955.817 182.8C956.969 183.461 957.865 184.389 958.505 185.584C959.145 186.779 959.465 188.176 959.465 189.776V191.024H947.337C947.379 192.411 947.838 193.52 948.713 194.352C949.609 195.163 950.718 195.568 952.041 195.568C953.278 195.568 954.206 195.291 954.825 194.736C955.465 194.181 955.955 193.541 956.297 192.816L959.017 194.224C958.718 194.821 958.281 195.451 957.705 196.112C957.15 196.773 956.414 197.328 955.497 197.776C954.579 198.224 953.406 198.448 951.977 198.448ZM947.369 188.496H956.105C956.019 187.301 955.593 186.373 954.825 185.712C954.057 185.029 953.054 184.688 951.817 184.688C950.579 184.688 949.566 185.029 948.777 185.712C948.009 186.373 947.539 187.301 947.369 188.496ZM963.432 198V182.224H966.664V184.592H967.176C967.475 183.952 968.008 183.355 968.776 182.8C969.544 182.245 970.685 181.968 972.2 181.968C973.395 181.968 974.451 182.235 975.368 182.768C976.307 183.301 977.043 184.059 977.576 185.04C978.109 186 978.376 187.163 978.376 188.528V198H975.08V188.784C975.08 187.419 974.739 186.416 974.056 185.776C973.373 185.115 972.435 184.784 971.24 184.784C969.875 184.784 968.776 185.232 967.944 186.128C967.133 187.024 966.728 188.325 966.728 190.032V198H963.432ZM988.602 198C987.642 198 986.874 197.712 986.298 197.136C985.743 196.56 985.466 195.792 985.466 194.832V185.008H981.114V182.224H985.466V177.008H988.762V182.224H993.466V185.008H988.762V194.256C988.762 194.896 989.061 195.216 989.658 195.216H992.954V198H988.602ZM1003.8 198.448C1001.8 198.448 1000.13 198 998.81 197.104C997.488 196.208 996.677 194.853 996.378 193.04L999.45 192.304C999.621 193.179 999.909 193.872 1000.31 194.384C1000.72 194.896 1001.22 195.259 1001.82 195.472C1002.44 195.685 1003.1 195.792 1003.8 195.792C1004.85 195.792 1005.65 195.589 1006.2 195.184C1006.78 194.779 1007.07 194.256 1007.07 193.616C1007.07 192.976 1006.8 192.507 1006.27 192.208C1005.73 191.909 1004.94 191.664 1003.9 191.472L1002.81 191.28C1001.74 191.088 1000.77 190.811 999.898 190.448C999.024 190.085 998.33 189.584 997.818 188.944C997.306 188.304 997.05 187.483 997.05 186.48C997.05 184.987 997.605 183.835 998.714 183.024C999.824 182.192 1001.3 181.776 1003.13 181.776C1004.9 181.776 1006.35 182.181 1007.48 182.992C1008.63 183.781 1009.38 184.859 1009.72 186.224L1006.65 187.088C1006.46 186.128 1006.05 185.456 1005.43 185.072C1004.82 184.667 1004.05 184.464 1003.13 184.464C1002.23 184.464 1001.53 184.635 1001.02 184.976C1000.51 185.296 1000.25 185.755 1000.25 186.352C1000.25 186.992 1000.5 187.461 1000.99 187.76C1001.5 188.059 1002.18 188.283 1003.03 188.432L1004.15 188.624C1005.28 188.816 1006.32 189.083 1007.26 189.424C1008.2 189.765 1008.93 190.256 1009.47 190.896C1010.02 191.536 1010.3 192.389 1010.3 193.456C1010.3 195.035 1009.71 196.261 1008.54 197.136C1007.36 198.011 1005.79 198.448 1003.8 198.448ZM1028.23 198C1027.27 198 1026.5 197.712 1025.92 197.136C1025.37 196.56 1025.09 195.792 1025.09 194.832V185.008H1020.74V182.224H1025.09V177.008H1028.39V182.224H1033.09V185.008H1028.39V194.256C1028.39 194.896 1028.69 195.216 1029.28 195.216H1032.58V198H1028.23ZM1043.79 198.448C1042.21 198.448 1040.81 198.128 1039.57 197.488C1038.35 196.827 1037.39 195.888 1036.69 194.672C1035.98 193.456 1035.63 192.016 1035.63 190.352V189.872C1035.63 188.208 1035.98 186.779 1036.69 185.584C1037.39 184.368 1038.35 183.429 1039.57 182.768C1040.81 182.107 1042.21 181.776 1043.79 181.776C1045.37 181.776 1046.78 182.107 1048.02 182.768C1049.25 183.429 1050.22 184.368 1050.93 185.584C1051.63 186.779 1051.98 188.208 1051.98 189.872V190.352C1051.98 192.016 1051.63 193.456 1050.93 194.672C1050.22 195.888 1049.25 196.827 1048.02 197.488C1046.78 198.128 1045.37 198.448 1043.79 198.448ZM1043.79 195.504C1045.24 195.504 1046.42 195.045 1047.31 194.128C1048.23 193.189 1048.69 191.899 1048.69 190.256V189.968C1048.69 188.325 1048.24 187.045 1047.34 186.128C1046.45 185.189 1045.26 184.72 1043.79 184.72C1042.36 184.72 1041.19 185.189 1040.27 186.128C1039.38 187.045 1038.93 188.325 1038.93 189.968V190.256C1038.93 191.899 1039.38 193.189 1040.27 194.128C1041.19 195.045 1042.36 195.504 1043.79 195.504Z" fill="black"/>
<circle cx="245" cy="202" r="157" fill="#8547C8"/>
<path d="M402 202C402 170.948 392.792 140.594 375.541 114.775C358.289 88.957 333.769 68.8339 305.081 56.9509C276.393 45.068 244.826 41.9588 214.371 48.0167C183.916 54.0746 155.941 69.0274 133.984 90.9842L245 202H402Z" fill="#820D8C"/>
<path d="M133.984 90.9842C108.543 116.425 92.612 149.833 88.8572 185.616L245 202L133.984 90.9842Z" fill="#FF3DF7"/>
<path d="M226.128 285V276.872L218.352 262.6H222.256L227.632 272.744H228.112L233.488 262.6H237.392L229.616 276.872V285H226.128ZM244.633 285.448C243.033 285.448 241.635 285.117 240.441 284.456C239.246 283.773 238.307 282.824 237.625 281.608C236.963 280.371 236.633 278.941 236.633 277.32V276.936C236.633 275.293 236.963 273.864 237.625 272.648C238.286 271.411 239.203 270.461 240.377 269.8C241.571 269.117 242.947 268.776 244.505 268.776C246.019 268.776 247.342 269.117 248.473 269.8C249.625 270.461 250.521 271.389 251.161 272.584C251.801 273.779 252.121 275.176 252.121 276.776V278.024H239.993C240.035 279.411 240.494 280.52 241.369 281.352C242.265 282.163 243.374 282.568 244.697 282.568C245.934 282.568 246.862 282.291 247.481 281.736C248.121 281.181 248.611 280.541 248.953 279.816L251.673 281.224C251.374 281.821 250.937 282.451 250.361 283.112C249.806 283.773 249.07 284.328 248.153 284.776C247.235 285.224 246.062 285.448 244.633 285.448ZM240.025 275.496H248.761C248.675 274.301 248.249 273.373 247.481 272.712C246.713 272.029 245.71 271.688 244.473 271.688C243.235 271.688 242.222 272.029 241.433 272.712C240.665 273.373 240.195 274.301 240.025 275.496ZM262.552 285.448C260.547 285.448 258.883 285 257.56 284.104C256.238 283.208 255.427 281.853 255.128 280.04L258.2 279.304C258.371 280.179 258.659 280.872 259.064 281.384C259.47 281.896 259.971 282.259 260.568 282.472C261.187 282.685 261.848 282.792 262.552 282.792C263.598 282.792 264.398 282.589 264.952 282.184C265.528 281.779 265.816 281.256 265.816 280.616C265.816 279.976 265.55 279.507 265.016 279.208C264.483 278.909 263.694 278.664 262.648 278.472L261.56 278.28C260.494 278.088 259.523 277.811 258.648 277.448C257.774 277.085 257.08 276.584 256.568 275.944C256.056 275.304 255.8 274.483 255.8 273.48C255.8 271.987 256.355 270.835 257.464 270.024C258.574 269.192 260.046 268.776 261.88 268.776C263.651 268.776 265.102 269.181 266.232 269.992C267.384 270.781 268.131 271.859 268.472 273.224L265.4 274.088C265.208 273.128 264.803 272.456 264.184 272.072C263.566 271.667 262.798 271.464 261.88 271.464C260.984 271.464 260.28 271.635 259.768 271.976C259.256 272.296 259 272.755 259 273.352C259 273.992 259.246 274.461 259.736 274.76C260.248 275.059 260.931 275.283 261.784 275.432L262.904 275.624C264.035 275.816 265.07 276.083 266.008 276.424C266.947 276.765 267.683 277.256 268.216 277.896C268.771 278.536 269.048 279.389 269.048 280.456C269.048 282.035 268.462 283.261 267.288 284.136C266.115 285.011 264.536 285.448 262.552 285.448Z" fill="white"/>
<path d="M118.336 155V132.6H124.992L131.072 152.696H131.584V132.6H135.008V155H128.352L122.272 134.872H121.76V155H118.336ZM147.168 155.448C145.589 155.448 144.181 155.128 142.944 154.488C141.728 153.827 140.768 152.888 140.064 151.672C139.36 150.456 139.008 149.016 139.008 147.352V146.872C139.008 145.208 139.36 143.779 140.064 142.584C140.768 141.368 141.728 140.429 142.944 139.768C144.181 139.107 145.589 138.776 147.168 138.776C148.746 138.776 150.154 139.107 151.392 139.768C152.629 140.429 153.6 141.368 154.304 142.584C155.008 143.779 155.36 145.208 155.36 146.872V147.352C155.36 149.016 155.008 150.456 154.304 151.672C153.6 152.888 152.629 153.827 151.392 154.488C150.154 155.128 148.746 155.448 147.168 155.448ZM147.168 152.504C148.618 152.504 149.792 152.045 150.688 151.128C151.605 150.189 152.064 148.899 152.064 147.256V146.968C152.064 145.325 151.616 144.045 150.72 143.128C149.824 142.189 148.64 141.72 147.168 141.72C145.738 141.72 144.565 142.189 143.648 143.128C142.752 144.045 142.304 145.325 142.304 146.968V147.256C142.304 148.899 142.752 150.189 143.648 151.128C144.565 152.045 145.738 152.504 147.168 152.504Z" fill="white"/>
<path d="M165.761 97.3739L167.898 91.8704L166.386 80.1621L169.029 81.1886L170.002 89.4707L170.327 89.5969L176.635 84.1418L179.278 85.1683L170.26 92.7875L168.123 98.291L165.761 97.3739ZM178.173 102.543C177.09 102.122 176.231 101.531 175.596 100.769C174.966 99.9925 174.58 99.1029 174.438 98.1C174.315 97.0883 174.467 96.0336 174.894 94.9357L174.995 94.6757C175.426 93.5635 176.026 92.6826 176.794 92.0331C177.567 91.3692 178.438 90.9676 179.406 90.8283C180.394 90.6802 181.416 90.8108 182.47 91.2203C183.496 91.6186 184.302 92.1974 184.888 92.957C185.494 93.7077 185.857 94.5716 185.976 95.5488C186.095 96.526 185.944 97.5563 185.524 98.6397L185.196 99.4847L176.984 96.2959C176.648 97.246 176.667 98.1178 177.04 98.9111C177.434 99.6956 178.078 100.262 178.974 100.609C179.812 100.935 180.513 100.991 181.078 100.778C181.657 100.571 182.157 100.267 182.579 99.8651L184.051 101.534C183.692 101.86 183.23 102.171 182.666 102.467C182.117 102.769 181.472 102.951 180.733 103.013C179.995 103.075 179.141 102.919 178.173 102.543ZM177.67 94.5926L183.585 96.8895C183.841 96.0582 183.797 95.3176 183.45 94.6679C183.11 94.0037 182.521 93.509 181.683 93.1836C180.845 92.8583 180.069 92.823 179.355 93.0777C178.661 93.3236 178.1 93.8285 177.67 94.5926ZM190.307 107.254C188.949 106.727 187.94 105.986 187.28 105.032C186.62 104.077 186.427 102.947 186.702 101.641L188.975 101.95C188.861 102.587 188.874 103.132 189.014 103.585C189.153 104.039 189.398 104.416 189.746 104.718C190.109 105.025 190.528 105.271 191.005 105.456C191.713 105.731 192.308 105.804 192.79 105.675C193.287 105.552 193.619 105.274 193.787 104.841C193.956 104.407 193.898 104.019 193.616 103.677C193.333 103.335 192.863 102.961 192.206 102.556L191.52 102.14C190.848 101.73 190.264 101.287 189.767 100.811C189.27 100.335 188.932 99.8137 188.754 99.2457C188.575 98.6777 188.618 98.0543 188.882 97.3754C189.274 96.3642 189.953 95.73 190.917 95.4728C191.887 95.2011 192.993 95.3065 194.235 95.7889C195.434 96.2544 196.31 96.9103 196.862 97.7565C197.435 98.5939 197.657 99.5197 197.529 100.534L195.222 100.311C195.345 99.6107 195.247 99.0491 194.929 98.6264C194.616 98.1893 194.15 97.8501 193.529 97.6089C192.922 97.3733 192.4 97.3038 191.964 97.4003C191.533 97.4824 191.239 97.7256 191.082 98.1301C190.914 98.5634 190.957 98.9457 191.21 99.277C191.478 99.6138 191.882 99.945 192.42 100.27L193.128 100.695C193.843 101.122 194.474 101.575 195.02 102.053C195.565 102.531 195.935 103.056 196.128 103.63C196.335 104.209 196.298 104.86 196.018 105.582C195.603 106.651 194.883 107.327 193.859 107.611C192.834 107.895 191.65 107.776 190.307 107.254ZM196.309 112.627L196.805 111.349L197.542 111.635C198.134 111.865 198.546 111.684 198.776 111.091L199.045 110.398L198.72 110.272C198.214 110.076 197.854 109.761 197.64 109.329C197.425 108.896 197.408 108.449 197.587 107.987C197.784 107.481 198.107 107.141 198.557 106.967C199.012 106.778 199.493 106.782 199.999 106.978C200.504 107.175 200.851 107.501 201.04 107.956C201.249 108.403 201.252 108.887 201.051 109.407L200.175 111.66C199.62 113.09 198.627 113.527 197.197 112.972L196.309 112.627ZM203.955 112.205L206.283 100.816L208.515 101.683L206.291 111.392L206.637 111.526L212.068 103.063L215.687 104.468L213.961 114.37L214.308 114.505L219.219 105.839L221.45 106.706L215.482 116.681L211.734 115.226L213.451 105.345L213.104 105.21L207.704 113.661L203.955 112.205ZM219.946 118.414L224.094 107.732L226.325 108.599L222.177 119.281L219.946 118.414ZM225.784 106.718C225.351 106.55 225.036 106.27 224.839 105.877C224.662 105.476 224.661 105.052 224.835 104.604C225.008 104.156 225.293 103.851 225.689 103.689C226.104 103.518 226.529 103.516 226.962 103.685C227.41 103.858 227.722 104.146 227.899 104.547C228.081 104.934 228.085 105.351 227.911 105.799C227.737 106.247 227.45 106.559 227.049 106.735C226.653 106.898 226.232 106.892 225.784 106.718ZM229.498 122.124C228.848 121.871 228.404 121.474 228.165 120.933C227.941 120.397 227.955 119.804 228.207 119.154L230.79 112.502L227.844 111.358L228.576 109.473L231.522 110.617L232.894 107.085L235.126 107.952L233.754 111.484L236.939 112.72L236.207 114.606L233.022 113.369L230.591 119.631C230.422 120.064 230.54 120.359 230.945 120.516L233.177 121.383L232.445 123.268L229.498 122.124ZM235.413 124.421L241.303 109.253L243.535 110.12L241.204 116.122L241.551 116.257C241.802 116.038 242.108 115.849 242.469 115.69C242.844 115.537 243.279 115.465 243.774 115.474C244.29 115.475 244.887 115.607 245.566 115.871C246.374 116.185 247.019 116.643 247.5 117.245C247.996 117.853 248.295 118.56 248.398 119.364C248.507 120.154 248.382 121.012 248.023 121.936L245.532 128.35L243.3 127.483L245.723 121.243C246.082 120.319 246.115 119.55 245.821 118.937C245.533 118.31 244.984 117.839 244.175 117.525C243.251 117.166 242.389 117.18 241.59 117.568C240.805 117.962 240.189 118.736 239.74 119.892L237.645 125.287L235.413 124.421ZM257.464 133.332C256.698 133.035 256.063 132.639 255.557 132.143C255.066 131.653 254.738 131.085 254.573 130.439C254.422 129.799 254.488 129.118 254.768 128.396C255.054 127.659 255.463 127.12 255.995 126.777C256.547 126.427 257.174 126.246 257.876 126.236C258.592 126.232 259.34 126.381 260.12 126.684L263.371 127.946L263.64 127.253C263.881 126.632 263.887 126.06 263.657 125.539C263.427 125.017 262.922 124.605 262.142 124.302C261.377 124.005 260.722 123.958 260.177 124.163C259.632 124.367 259.183 124.732 258.828 125.26L257.009 123.78C257.407 123.27 257.883 122.856 258.438 122.54C259.013 122.215 259.675 122.031 260.423 121.989C261.17 121.947 261.992 122.1 262.888 122.447C264.274 122.986 265.227 123.763 265.747 124.78C266.267 125.796 266.274 126.954 265.769 128.254L264.061 132.653C263.893 133.086 264.011 133.381 264.416 133.538L265.326 133.892L264.602 135.755L262.934 135.107C262.428 134.911 262.067 134.621 261.85 134.238C261.633 133.854 261.612 133.439 261.786 132.991L261.811 132.926L261.486 132.8C261.286 132.971 261.015 133.157 260.671 133.356C260.328 133.555 259.89 133.676 259.358 133.719C258.832 133.747 258.201 133.618 257.464 133.332ZM258.504 131.617C259.4 131.965 260.22 131.992 260.965 131.7C261.716 131.393 262.266 130.792 262.613 129.896L262.697 129.679L259.577 128.468C258.985 128.238 258.458 128.183 257.996 128.303C257.539 128.408 257.216 128.706 257.025 129.197C256.834 129.688 256.871 130.151 257.134 130.586C257.397 131.021 257.854 131.364 258.504 131.617ZM270.82 138.519C269.939 138.177 269.207 137.643 268.624 136.918C268.042 136.193 267.676 135.336 267.528 134.348C267.4 133.351 267.56 132.274 268.009 131.119L268.135 130.794C268.578 129.652 269.184 128.757 269.951 128.108C270.719 127.458 271.562 127.063 272.482 126.921C273.401 126.779 274.308 126.882 275.204 127.23C275.897 127.499 276.442 127.81 276.836 128.163C277.246 128.522 277.549 128.897 277.746 129.289C277.948 129.667 278.073 130.031 278.119 130.382L278.466 130.516L280.771 124.579L283.003 125.446L277.113 140.613L274.925 139.764L275.514 138.247L275.167 138.112C274.713 138.468 274.132 138.724 273.423 138.881C272.728 139.043 271.86 138.923 270.82 138.519ZM272.206 136.813C273.174 137.189 274.089 137.186 274.951 136.807C275.828 136.432 276.491 135.667 276.94 134.512L277.015 134.317C277.458 133.175 277.49 132.174 277.11 131.311C276.73 130.449 276.049 129.827 275.067 129.446C274.113 129.076 273.198 129.078 272.322 129.452C271.459 129.832 270.806 130.592 270.363 131.734L270.288 131.929C269.839 133.084 269.804 134.093 270.184 134.956C270.579 135.823 271.253 136.443 272.206 136.813ZM276.679 145.432L277.428 143.503L278.88 144.067C279.299 144.23 279.592 144.094 279.761 143.661L284.59 131.224L286.822 132.09L281.824 144.961C281.572 145.611 281.182 146.058 280.655 146.302C280.128 146.546 279.525 146.537 278.846 146.273L276.679 145.432ZM286.281 130.21C285.847 130.041 285.532 129.761 285.335 129.369C285.159 128.968 285.157 128.543 285.331 128.096C285.505 127.648 285.79 127.343 286.185 127.18C286.601 127.009 287.025 127.008 287.459 127.176C287.906 127.35 288.219 127.638 288.395 128.039C288.578 128.425 288.582 128.843 288.408 129.29C288.234 129.738 287.947 130.05 287.545 130.227C287.15 130.389 286.728 130.384 286.281 130.21ZM290.004 145.844C289.196 145.529 288.543 145.068 288.048 144.46C287.553 143.853 287.253 143.146 287.15 142.342C287.047 141.537 287.175 140.672 287.534 139.748L290.025 133.334L292.256 134.201L289.825 140.463C289.466 141.387 289.431 142.163 289.719 142.79C290.013 143.403 290.571 143.869 291.395 144.189C292.305 144.543 293.152 144.522 293.937 144.129C294.741 143.727 295.368 142.948 295.817 141.792L297.912 136.397L300.143 137.263L295.995 147.945L293.807 147.096L294.43 145.492L294.083 145.358C293.712 145.712 293.191 145.984 292.52 146.172C291.854 146.346 291.016 146.236 290.004 145.844ZM303.553 151.229C302.196 150.702 301.187 149.961 300.527 149.007C299.867 148.052 299.674 146.922 299.949 145.616L302.222 145.925C302.108 146.562 302.12 147.107 302.26 147.561C302.4 148.014 302.644 148.391 302.993 148.693C303.355 149 303.775 149.246 304.252 149.431C304.96 149.706 305.555 149.779 306.037 149.65C306.533 149.527 306.866 149.249 307.034 148.816C307.202 148.383 307.145 147.995 306.863 147.652C306.58 147.31 306.11 146.936 305.453 146.531L304.766 146.115C304.095 145.705 303.51 145.262 303.013 144.786C302.517 144.311 302.179 143.789 302.001 143.221C301.822 142.653 301.865 142.029 302.128 141.35C302.521 140.339 303.199 139.705 304.164 139.448C305.134 139.176 306.24 139.282 307.482 139.764C308.681 140.23 309.557 140.885 310.109 141.732C310.682 142.569 310.904 143.495 310.776 144.509L308.469 144.286C308.591 143.586 308.493 143.024 308.175 142.602C307.863 142.164 307.396 141.825 306.775 141.584C306.169 141.348 305.647 141.279 305.211 141.375C304.78 141.457 304.486 141.701 304.329 142.105C304.161 142.539 304.203 142.921 304.457 143.252C304.725 143.589 305.128 143.92 305.667 144.246L306.375 144.67C307.09 145.097 307.72 145.55 308.266 146.028C308.812 146.506 309.181 147.032 309.374 147.605C309.582 148.184 309.545 148.835 309.265 149.557C308.849 150.626 308.13 151.303 307.105 151.586C306.081 151.87 304.897 151.751 303.553 151.229ZM314.454 155.113C313.804 154.861 313.36 154.464 313.121 153.922C312.897 153.387 312.911 152.794 313.164 152.144L315.747 145.492L312.8 144.347L313.532 142.462L316.479 143.607L317.85 140.075L320.082 140.941L318.71 144.473L321.896 145.71L321.164 147.595L317.978 146.358L315.547 152.62C315.379 153.054 315.497 153.349 315.901 153.506L318.133 154.372L317.401 156.257L314.454 155.113ZM320.369 157.41L324.517 146.728L326.706 147.578L326.218 148.835L326.565 148.969C326.913 148.672 327.367 148.466 327.927 148.351C328.487 148.236 329.149 148.327 329.915 148.625C330.709 148.933 331.281 149.346 331.628 149.863C331.996 150.372 332.204 150.927 332.254 151.528L332.6 151.662C333.037 151.266 333.55 150.992 334.142 150.839C334.747 150.692 335.484 150.787 336.35 151.123C337.044 151.393 337.601 151.776 338.024 152.272C338.452 152.754 338.715 153.338 338.814 154.025C338.919 154.697 338.811 155.445 338.491 156.269L335.732 163.376L333.5 162.509L336.192 155.575C336.445 154.925 336.458 154.357 336.231 153.87C336.025 153.374 335.597 153 334.947 152.748C334.253 152.479 333.61 152.486 333.017 152.772C332.425 153.057 331.965 153.618 331.64 154.456L329.167 160.826L326.935 159.96L329.627 153.026C329.88 152.376 329.893 151.808 329.666 151.321C329.46 150.825 329.031 150.451 328.381 150.198C327.688 149.929 327.045 149.937 326.452 150.222C325.859 150.507 325.4 151.069 325.075 151.907L322.601 158.277L320.369 157.41ZM343.727 166.829C342.643 166.409 341.784 165.817 341.149 165.055C340.52 164.279 340.134 163.389 339.991 162.387C339.869 161.375 340.021 160.32 340.447 159.222L340.548 158.962C340.98 157.85 341.58 156.969 342.347 156.32C343.12 155.656 343.991 155.254 344.959 155.115C345.948 154.967 346.969 155.097 348.024 155.507C349.049 155.905 349.855 156.484 350.441 157.243C351.047 157.994 351.41 158.858 351.529 159.835C351.649 160.813 351.498 161.843 351.077 162.926L350.749 163.771L342.537 160.582C342.201 161.533 342.22 162.404 342.594 163.198C342.987 163.982 343.632 164.548 344.527 164.896C345.365 165.221 346.066 165.278 346.631 165.065C347.21 164.857 347.711 164.553 348.133 164.152L349.604 165.82C349.245 166.146 348.783 166.457 348.219 166.754C347.67 167.056 347.026 167.238 346.287 167.3C345.548 167.362 344.695 167.205 343.727 166.829ZM343.223 158.879L349.139 161.176C349.395 160.345 349.35 159.604 349.004 158.954C348.663 158.29 348.074 157.795 347.236 157.47C346.399 157.145 345.623 157.11 344.909 157.364C344.215 157.61 343.653 158.115 343.223 158.879ZM351.601 169.538L355.749 158.856L357.938 159.706L357.315 161.309L357.662 161.444C358.032 161.089 358.55 160.825 359.216 160.651C359.882 160.477 360.728 160.59 361.753 160.988C362.562 161.302 363.207 161.76 363.688 162.363C364.183 162.97 364.483 163.677 364.586 164.481C364.695 165.272 364.569 166.129 364.21 167.054L361.72 173.467L359.488 172.601L361.911 166.36C362.27 165.436 362.303 164.667 362.009 164.054C361.721 163.427 361.172 162.956 360.363 162.642C359.438 162.283 358.577 162.298 357.778 162.686C356.993 163.079 356.377 163.854 355.928 165.009L353.833 170.405L351.601 169.538ZM368.644 176.156C367.994 175.903 367.55 175.507 367.311 174.965C367.087 174.429 367.101 173.836 367.354 173.186L369.937 166.534L366.99 165.39L367.722 163.505L370.669 164.649L372.04 161.117L374.272 161.984L372.9 165.516L376.086 166.753L375.354 168.638L372.168 167.401L369.737 173.663C369.569 174.096 369.687 174.391 370.091 174.548L372.323 175.415L371.591 177.3L368.644 176.156ZM378.819 180.456C377.461 179.929 376.452 179.188 375.792 178.233C375.132 177.279 374.939 176.148 375.214 174.842L377.487 175.151C377.373 175.789 377.385 176.334 377.525 176.787C377.665 177.24 377.909 177.618 378.258 177.919C378.62 178.226 379.04 178.472 379.517 178.657C380.225 178.932 380.82 179.005 381.302 178.877C381.798 178.754 382.131 178.476 382.299 178.042C382.467 177.609 382.41 177.221 382.128 176.879C381.845 176.536 381.375 176.162 380.718 175.758L380.032 175.341C379.36 174.931 378.775 174.488 378.279 174.012C377.782 173.537 377.444 173.015 377.266 172.447C377.087 171.879 377.13 171.256 377.393 170.577C377.786 169.566 378.465 168.932 379.429 168.674C380.399 168.403 381.505 168.508 382.747 168.99C383.946 169.456 384.822 170.112 385.374 170.958C385.947 171.795 386.169 172.721 386.041 173.735L383.734 173.513C383.856 172.812 383.758 172.251 383.441 171.828C383.128 171.391 382.661 171.052 382.04 170.81C381.434 170.575 380.912 170.505 380.476 170.602C380.045 170.684 379.751 170.927 379.594 171.332C379.426 171.765 379.468 172.147 379.722 172.478C379.99 172.815 380.393 173.146 380.932 173.472L381.64 173.896C382.355 174.324 382.985 174.776 383.531 175.254C384.077 175.732 384.446 176.258 384.639 176.832C384.847 177.411 384.81 178.061 384.53 178.784C384.115 179.853 383.395 180.529 382.37 180.813C381.346 181.096 380.162 180.977 378.819 180.456Z" fill="white"/>
<path opacity="0.7" d="M227.464 324.336C226.248 324.336 225.176 324.104 224.248 323.64C223.32 323.16 222.6 322.496 222.088 321.648C221.576 320.8 221.32 319.816 221.32 318.696V312.888C221.32 311.576 221.576 310.472 222.088 309.576C222.616 308.68 223.352 308.008 224.296 307.56C225.24 307.096 226.336 306.864 227.584 306.864C228.816 306.864 229.88 307.08 230.776 307.512C231.672 307.928 232.36 308.528 232.84 309.312C233.32 310.08 233.56 310.984 233.56 312.024H231.016C231.016 311.192 230.736 310.504 230.176 309.96C229.632 309.4 228.768 309.12 227.584 309.12C226.384 309.12 225.456 309.44 224.8 310.08C224.16 310.704 223.84 311.576 223.84 312.696V314.712H224.224C224.496 314.328 224.936 313.96 225.544 313.608C226.168 313.256 227.048 313.08 228.184 313.08C229.176 313.08 230.088 313.296 230.92 313.728C231.752 314.16 232.416 314.776 232.912 315.576C233.424 316.376 233.68 317.344 233.68 318.48V318.768C233.68 319.872 233.416 320.848 232.888 321.696C232.36 322.528 231.624 323.176 230.68 323.64C229.752 324.104 228.68 324.336 227.464 324.336ZM227.488 322.08C228.608 322.08 229.496 321.776 230.152 321.168C230.824 320.56 231.16 319.744 231.16 318.72V318.528C231.16 317.84 231.008 317.248 230.704 316.752C230.4 316.24 229.968 315.84 229.408 315.552C228.864 315.264 228.224 315.12 227.488 315.12C226.768 315.12 226.128 315.264 225.568 315.552C225.024 315.84 224.6 316.24 224.296 316.752C223.992 317.248 223.84 317.84 223.84 318.528V318.72C223.84 319.744 224.168 320.56 224.824 321.168C225.496 321.776 226.384 322.08 227.488 322.08ZM242.494 324.336C240.542 324.336 238.982 323.784 237.814 322.68C236.662 321.56 236.086 319.88 236.086 317.64V313.56C236.086 311.368 236.662 309.704 237.814 308.568C238.982 307.432 240.542 306.864 242.494 306.864C244.462 306.864 246.022 307.432 247.174 308.568C248.342 309.704 248.926 311.368 248.926 313.56V317.64C248.926 319.88 248.342 321.56 247.174 322.68C246.022 323.784 244.462 324.336 242.494 324.336ZM242.494 322.08C243.822 322.08 244.806 321.704 245.446 320.952C246.086 320.184 246.406 319.112 246.406 317.736V313.416C246.406 312.04 246.062 310.984 245.374 310.248C244.686 309.496 243.726 309.12 242.494 309.12C241.246 309.12 240.286 309.504 239.614 310.272C238.942 311.024 238.606 312.072 238.606 313.416V317.736C238.606 319.144 238.926 320.224 239.566 320.976C240.222 321.712 241.198 322.08 242.494 322.08ZM253.618 324.312L252.082 323.064L265.21 306.888L266.746 308.136L253.618 324.312ZM264.01 324.264C262.826 324.264 261.89 323.936 261.202 323.28C260.514 322.608 260.17 321.704 260.17 320.568V320.424C260.17 319.272 260.514 318.368 261.202 317.712C261.89 317.04 262.826 316.704 264.01 316.704C265.178 316.704 266.114 317.04 266.818 317.712C267.522 318.368 267.874 319.272 267.874 320.424V320.568C267.874 321.704 267.522 322.608 266.818 323.28C266.13 323.936 265.194 324.264 264.01 324.264ZM264.01 322.584C264.586 322.584 265.034 322.408 265.354 322.056C265.69 321.704 265.858 321.24 265.858 320.664V320.328C265.858 319.736 265.69 319.264 265.354 318.912C265.034 318.56 264.586 318.384 264.01 318.384C263.45 318.384 263.002 318.56 262.666 318.912C262.346 319.264 262.186 319.736 262.186 320.328V320.664C262.186 321.24 262.346 321.704 262.666 322.056C263.002 322.408 263.45 322.584 264.01 322.584ZM254.818 314.496C253.634 314.496 252.69 314.168 251.986 313.512C251.298 312.84 250.954 311.936 250.954 310.8V310.632C250.954 309.48 251.298 308.576 251.986 307.92C252.69 307.264 253.634 306.936 254.818 306.936C255.986 306.936 256.914 307.264 257.602 307.92C258.306 308.576 258.658 309.48 258.658 310.632V310.8C258.658 311.936 258.314 312.84 257.626 313.512C256.938 314.168 256.002 314.496 254.818 314.496ZM254.818 312.816C255.378 312.816 255.818 312.64 256.138 312.288C256.474 311.92 256.642 311.448 256.642 310.872V310.536C256.642 309.96 256.474 309.496 256.138 309.144C255.818 308.792 255.378 308.616 254.818 308.616C254.242 308.616 253.786 308.792 253.45 309.144C253.13 309.496 252.97 309.96 252.97 310.536V310.872C252.97 311.448 253.13 311.92 253.45 312.288C253.786 312.64 254.242 312.816 254.818 312.816Z" fill="white"/>
<path opacity="0.7" d="M259.296 181.336C258.064 181.336 256.968 181.112 256.008 180.664C255.048 180.216 254.296 179.568 253.752 178.72C253.224 177.872 252.96 176.864 252.96 175.696V175.264H255.48V175.648C255.48 176.704 255.824 177.544 256.512 178.168C257.216 178.776 258.144 179.08 259.296 179.08C260.448 179.08 261.344 178.792 261.984 178.216C262.624 177.64 262.944 176.912 262.944 176.032V175.816C262.944 175.192 262.792 174.688 262.488 174.304C262.184 173.92 261.776 173.64 261.264 173.464C260.752 173.272 260.176 173.176 259.536 173.176H256.488V170.272L262.392 166.792V166.456H253.368V164.2H265.128V167.608L259.488 170.968V171.304H260.52C261.368 171.304 262.168 171.464 262.92 171.784C263.672 172.104 264.28 172.592 264.744 173.248C265.224 173.904 265.464 174.736 265.464 175.744V176.032C265.464 177.104 265.208 178.04 264.696 178.84C264.184 179.624 263.464 180.24 262.536 180.688C261.608 181.12 260.528 181.336 259.296 181.336ZM274.283 181.336C272.331 181.336 270.771 180.784 269.603 179.68C268.451 178.56 267.875 176.88 267.875 174.64V170.56C267.875 168.368 268.451 166.704 269.603 165.568C270.771 164.432 272.331 163.864 274.283 163.864C276.251 163.864 277.811 164.432 278.963 165.568C280.131 166.704 280.715 168.368 280.715 170.56V174.64C280.715 176.88 280.131 178.56 278.963 179.68C277.811 180.784 276.251 181.336 274.283 181.336ZM274.283 179.08C275.611 179.08 276.595 178.704 277.235 177.952C277.875 177.184 278.195 176.112 278.195 174.736V170.416C278.195 169.04 277.851 167.984 277.163 167.248C276.475 166.496 275.515 166.12 274.283 166.12C273.035 166.12 272.075 166.504 271.403 167.272C270.731 168.024 270.395 169.072 270.395 170.416V174.736C270.395 176.144 270.715 177.224 271.355 177.976C272.011 178.712 272.987 179.08 274.283 179.08ZM285.407 181.312L283.871 180.064L296.999 163.888L298.535 165.136L285.407 181.312ZM295.799 181.264C294.615 181.264 293.679 180.936 292.991 180.28C292.303 179.608 291.959 178.704 291.959 177.568V177.424C291.959 176.272 292.303 175.368 292.991 174.712C293.679 174.04 294.615 173.704 295.799 173.704C296.967 173.704 297.903 174.04 298.607 174.712C299.311 175.368 299.663 176.272 299.663 177.424V177.568C299.663 178.704 299.311 179.608 298.607 180.28C297.919 180.936 296.983 181.264 295.799 181.264ZM295.799 179.584C296.375 179.584 296.823 179.408 297.143 179.056C297.479 178.704 297.647 178.24 297.647 177.664V177.328C297.647 176.736 297.479 176.264 297.143 175.912C296.823 175.56 296.375 175.384 295.799 175.384C295.239 175.384 294.791 175.56 294.455 175.912C294.135 176.264 293.975 176.736 293.975 177.328V177.664C293.975 178.24 294.135 178.704 294.455 179.056C294.791 179.408 295.239 179.584 295.799 179.584ZM286.607 171.496C285.423 171.496 284.479 171.168 283.775 170.512C283.087 169.84 282.743 168.936 282.743 167.8V167.632C282.743 166.48 283.087 165.576 283.775 164.92C284.479 164.264 285.423 163.936 286.607 163.936C287.775 163.936 288.703 164.264 289.391 164.92C290.095 165.576 290.447 166.48 290.447 167.632V167.8C290.447 168.936 290.103 169.84 289.415 170.512C288.727 171.168 287.791 171.496 286.607 171.496ZM286.607 169.816C287.167 169.816 287.607 169.64 287.927 169.288C288.263 168.92 288.431 168.448 288.431 167.872V167.536C288.431 166.96 288.263 166.496 287.927 166.144C287.607 165.792 287.167 165.616 286.607 165.616C286.031 165.616 285.575 165.792 285.239 166.144C284.919 166.496 284.759 166.96 284.759 167.536V167.872C284.759 168.448 284.919 168.92 285.239 169.288C285.575 169.64 286.031 169.816 286.607 169.816Z" fill="white"/>
<path opacity="0.7" d="M173.168 188V172.976H172.784L170.024 178.64H167.36L171.08 171.2H175.688V188H173.168ZM185.158 188.336C183.206 188.336 181.646 187.784 180.478 186.68C179.326 185.56 178.75 183.88 178.75 181.64V177.56C178.75 175.368 179.326 173.704 180.478 172.568C181.646 171.432 183.206 170.864 185.158 170.864C187.126 170.864 188.686 171.432 189.838 172.568C191.006 173.704 191.59 175.368 191.59 177.56V181.64C191.59 183.88 191.006 185.56 189.838 186.68C188.686 187.784 187.126 188.336 185.158 188.336ZM185.158 186.08C186.486 186.08 187.47 185.704 188.11 184.952C188.75 184.184 189.07 183.112 189.07 181.736V177.416C189.07 176.04 188.726 174.984 188.038 174.248C187.35 173.496 186.39 173.12 185.158 173.12C183.91 173.12 182.95 173.504 182.278 174.272C181.606 175.024 181.27 176.072 181.27 177.416V181.736C181.27 183.144 181.59 184.224 182.23 184.976C182.886 185.712 183.862 186.08 185.158 186.08ZM196.282 188.312L194.746 187.064L207.874 170.888L209.41 172.136L196.282 188.312ZM206.674 188.264C205.49 188.264 204.554 187.936 203.866 187.28C203.178 186.608 202.834 185.704 202.834 184.568V184.424C202.834 183.272 203.178 182.368 203.866 181.712C204.554 181.04 205.49 180.704 206.674 180.704C207.842 180.704 208.778 181.04 209.482 181.712C210.186 182.368 210.538 183.272 210.538 184.424V184.568C210.538 185.704 210.186 186.608 209.482 187.28C208.794 187.936 207.858 188.264 206.674 188.264ZM206.674 186.584C207.25 186.584 207.698 186.408 208.018 186.056C208.354 185.704 208.522 185.24 208.522 184.664V184.328C208.522 183.736 208.354 183.264 208.018 182.912C207.698 182.56 207.25 182.384 206.674 182.384C206.114 182.384 205.666 182.56 205.33 182.912C205.01 183.264 204.85 183.736 204.85 184.328V184.664C204.85 185.24 205.01 185.704 205.33 186.056C205.666 186.408 206.114 186.584 206.674 186.584ZM197.482 178.496C196.298 178.496 195.354 178.168 194.65 177.512C193.962 176.84 193.618 175.936 193.618 174.8V174.632C193.618 173.48 193.962 172.576 194.65 171.92C195.354 171.264 196.298 170.936 197.482 170.936C198.65 170.936 199.578 171.264 200.266 171.92C200.97 172.576 201.322 173.48 201.322 174.632V174.8C201.322 175.936 200.978 176.84 200.29 177.512C199.602 178.168 198.666 178.496 197.482 178.496ZM197.482 176.816C198.042 176.816 198.482 176.64 198.802 176.288C199.138 175.92 199.306 175.448 199.306 174.872V174.536C199.306 173.96 199.138 173.496 198.802 173.144C198.482 172.792 198.042 172.616 197.482 172.616C196.906 172.616 196.45 172.792 196.114 173.144C195.794 173.496 195.634 173.96 195.634 174.536V174.872C195.634 175.448 195.794 175.92 196.114 176.288C196.45 176.64 196.906 176.816 197.482 176.816Z" fill="white"/>
</svg>
