<svg width="466" height="344" viewBox="0 0 466 344" fill="none" xmlns="http://www.w3.org/2000/svg">
<rect width="466" height="344" fill="#10B4FA"/>
<path transform="translate(69, 140)" d="M0.057684 54V0.357893H10.1731V22.5044H30.0973V0.357893H40.2126V54H30.0973V31.7002H10.1731V54H0.057684ZM67.9724 55.0728C64.1919 55.0728 60.8457 54.281 57.9337 52.6973C55.0728 51.0625 52.8249 48.7891 51.1901 45.8771C49.6064 42.914 48.8145 39.44 48.8145 35.4552V34.5356C48.8145 30.5507 49.6064 27.1023 51.1901 24.1903C52.7738 21.2272 54.9961 18.9538 57.857 17.3701C60.718 15.7353 64.0387 14.9179 67.8192 14.9179C71.5486 14.9179 74.7926 15.7608 77.5514 17.4467C80.3101 19.0815 82.4558 21.3805 83.9884 24.3436C85.521 27.2556 86.2874 30.6529 86.2874 34.5356V37.8307H58.6234C58.7255 40.4362 59.6962 42.5564 61.5354 44.1912C63.3745 45.826 65.6224 46.6434 68.2789 46.6434C70.9866 46.6434 72.979 46.0559 74.2562 44.8808C75.5334 43.7058 76.5041 42.4031 77.1682 40.9726L85.0613 45.1107C84.346 46.439 83.2987 47.895 81.9194 49.4787C80.5911 51.0114 78.803 52.3396 76.5552 53.4636C74.3073 54.5364 71.4464 55.0728 67.9724 55.0728ZM58.7 30.6274H76.4785C76.2742 28.4306 75.3801 26.6681 73.7964 25.3398C72.2638 24.0115 70.2458 23.3474 67.7425 23.3474C65.1371 23.3474 63.068 24.0115 61.5354 25.3398C60.0027 26.6681 59.0576 28.4306 58.7 30.6274ZM89.0401 54L102.834 34.8421L89.1934 15.9907H100.382L109.041 28.6349H110.42L119.08 15.9907H130.268L116.627 34.8421L130.421 54H119.08L110.42 41.2025H109.041L100.382 54H89.0401ZM148.965 55.0728C146.257 55.0728 143.83 54.6131 141.685 53.6935C139.539 52.7228 137.828 51.3434 136.55 49.5554C135.324 47.7162 134.711 45.4939 134.711 42.8884C134.711 40.2829 135.324 38.1117 136.55 36.3747C137.828 34.5867 139.565 33.2584 141.761 32.3899C144.009 31.4703 146.564 31.0105 149.425 31.0105H159.846V28.8648C159.846 27.0768 159.285 25.6208 158.161 24.4968C157.037 23.3218 155.249 22.7343 152.796 22.7343C150.395 22.7343 148.607 23.2963 147.432 24.4202C146.257 25.4931 145.491 26.898 145.133 28.6349L136.244 25.6463C136.857 23.705 137.828 21.9425 139.156 20.3587C140.535 18.7239 142.349 17.4212 144.597 16.4505C146.896 15.4288 149.68 14.9179 152.95 14.9179C157.956 14.9179 161.916 16.1695 164.828 18.6728C167.74 21.1761 169.196 24.8034 169.196 29.5545V43.7314C169.196 45.264 169.911 46.0303 171.341 46.0303H174.406V54H167.969C166.079 54 164.521 53.5402 163.295 52.6206C162.069 51.7011 161.456 50.4749 161.456 48.9423V48.8657H160C159.795 49.4787 159.336 50.2961 158.62 51.3179C157.905 52.2886 156.781 53.1571 155.249 53.9234C153.716 54.6897 151.621 55.0728 148.965 55.0728ZM150.651 47.2564C153.358 47.2564 155.555 46.5156 157.241 45.0341C158.978 43.5015 159.846 41.4835 159.846 38.9802V38.2139H150.114C148.326 38.2139 146.921 38.5971 145.9 39.3634C144.878 40.1297 144.367 41.2025 144.367 42.5819C144.367 43.9613 144.903 45.0852 145.976 45.9537C147.049 46.8222 148.607 47.2564 150.651 47.2564ZM181.466 69.3263V15.9907H190.968V20.5886H192.348C193.216 19.1071 194.57 17.8043 196.409 16.6804C198.248 15.5054 200.88 14.9179 204.302 14.9179C207.368 14.9179 210.203 15.6842 212.808 17.2168C215.414 18.6984 217.509 20.8952 219.092 23.8072C220.676 26.7192 221.468 30.2442 221.468 34.3823V35.6084C221.468 39.7465 220.676 43.2716 219.092 46.1836C217.509 49.0956 215.414 51.3179 212.808 52.8505C210.203 54.3321 207.368 55.0728 204.302 55.0728C202.003 55.0728 200.062 54.7919 198.478 54.2299C196.946 53.719 195.694 53.0549 194.723 52.2375C193.804 51.369 193.063 50.5005 192.501 49.632H191.122V69.3263H181.466ZM201.39 46.6434C204.405 46.6434 206.882 45.6982 208.824 43.808C210.816 41.8667 211.812 39.0568 211.812 35.3785V34.6122C211.812 30.9339 210.816 28.1496 208.824 26.2594C206.831 24.318 204.353 23.3474 201.39 23.3474C198.427 23.3474 195.95 24.318 193.957 26.2594C191.965 28.1496 190.968 30.9339 190.968 34.6122V35.3785C190.968 39.0568 191.965 41.8667 193.957 43.808C195.95 45.6982 198.427 46.6434 201.39 46.6434ZM242.135 55.0728C239.427 55.0728 237.001 54.6131 234.855 53.6935C232.709 52.7228 230.998 51.3434 229.721 49.5554C228.495 47.7162 227.882 45.4939 227.882 42.8884C227.882 40.2829 228.495 38.1117 229.721 36.3747C230.998 34.5867 232.735 33.2584 234.932 32.3899C237.18 31.4703 239.734 31.0105 242.595 31.0105H253.017V28.8648C253.017 27.0768 252.455 25.6208 251.331 24.4968C250.207 23.3218 248.419 22.7343 245.967 22.7343C243.565 22.7343 241.777 23.2963 240.602 24.4202C239.427 25.4931 238.661 26.898 238.303 28.6349L229.414 25.6463C230.027 23.705 230.998 21.9425 232.326 20.3587C233.706 18.7239 235.519 17.4212 237.767 16.4505C240.066 15.4288 242.85 14.9179 246.12 14.9179C251.126 14.9179 255.086 16.1695 257.998 18.6728C260.91 21.1761 262.366 24.8034 262.366 29.5545V43.7314C262.366 45.264 263.081 46.0303 264.511 46.0303H267.577V54H261.14C259.249 54 257.691 53.5402 256.465 52.6206C255.239 51.7011 254.626 50.4749 254.626 48.9423V48.8657H253.17C252.966 49.4787 252.506 50.2961 251.791 51.3179C251.075 52.2886 249.951 53.1571 248.419 53.9234C246.886 54.6897 244.792 55.0728 242.135 55.0728ZM243.821 47.2564C246.529 47.2564 248.725 46.5156 250.411 45.0341C252.148 43.5015 253.017 41.4835 253.017 38.9802V38.2139H243.285C241.496 38.2139 240.092 38.5971 239.07 39.3634C238.048 40.1297 237.537 41.2025 237.537 42.5819C237.537 43.9613 238.074 45.0852 239.146 45.9537C240.219 46.8222 241.777 47.2564 243.821 47.2564ZM277.727 69.3263V60.8968H298.417C299.848 60.8968 300.563 60.1305 300.563 58.5979V49.0189H299.184C298.775 49.8874 298.136 50.7559 297.268 51.6244C296.399 52.4929 295.224 53.2081 293.743 53.7701C292.261 54.3321 290.371 54.6131 288.072 54.6131C285.109 54.6131 282.504 53.9489 280.256 52.6206C278.059 51.2413 276.347 49.351 275.121 46.9499C273.895 44.5488 273.282 41.79 273.282 38.6737V15.9907H282.938V37.9074C282.938 40.7683 283.627 42.914 285.007 44.3444C286.437 45.7749 288.455 46.4901 291.061 46.4901C294.024 46.4901 296.323 45.5194 297.958 43.5781C299.592 41.5857 300.41 38.8269 300.41 35.3019V15.9907H310.065V60.7436C310.065 63.3491 309.299 65.4181 307.766 66.9507C306.234 68.5345 304.19 69.3263 301.636 69.3263H277.727Z" fill="white"/>
</svg>