<svg width="1305" height="559" viewBox="0 0 1305 559" fill="none" xmlns="http://www.w3.org/2000/svg">
<rect y="62" width="1305" height="435" fill="#F6F6F6"/>
<path d="M613.915 326.23V138.7H664.987V326.23H613.915ZM639.451 423.586C628.811 423.586 619.767 420.128 612.319 413.212C605.137 406.03 601.546 396.853 601.546 385.681C601.546 374.509 605.137 365.465 612.319 358.549C619.767 351.367 628.811 347.776 639.451 347.776C650.357 347.776 659.401 351.367 666.583 358.549C673.765 365.465 677.356 374.509 677.356 385.681C677.356 396.853 673.765 406.03 666.583 413.212C659.401 420.128 650.357 423.586 639.451 423.586Z" fill="#FFD0D0"/>
<path d="M178.382 306.028C172.017 306.028 166.974 304.266 163.253 300.74C159.532 297.166 157.672 292.075 157.672 285.465V273.127C157.672 266.517 159.532 261.45 163.253 257.925C166.974 254.351 172.017 252.564 178.382 252.564C184.698 252.564 189.569 254.302 192.997 257.778C196.473 261.205 198.211 265.93 198.211 271.952V272.393H188.664V271.658C188.664 268.623 187.807 266.126 186.093 264.167C184.429 262.209 181.858 261.23 178.382 261.23C174.955 261.23 172.262 262.282 170.304 264.388C168.345 266.493 167.366 269.357 167.366 272.98V285.612C167.366 289.186 168.345 292.05 170.304 294.204C172.262 296.31 174.955 297.362 178.382 297.362C181.858 297.362 184.429 296.383 186.093 294.425C187.807 292.417 188.664 289.92 188.664 286.934V285.612H198.211V286.64C198.211 292.662 196.473 297.411 192.997 300.887C189.569 304.315 184.698 306.028 178.382 306.028ZM223.735 306.028C220.112 306.028 216.856 305.294 213.968 303.825C211.079 302.356 208.802 300.226 207.138 297.436C205.473 294.645 204.641 291.291 204.641 287.374V286.199C204.641 282.283 205.473 278.929 207.138 276.138C208.802 273.347 211.079 271.218 213.968 269.749C216.856 268.28 220.112 267.546 223.735 267.546C227.358 267.546 230.614 268.28 233.503 269.749C236.391 271.218 238.668 273.347 240.333 276.138C241.997 278.929 242.83 282.283 242.83 286.199V287.374C242.83 291.291 241.997 294.645 240.333 297.436C238.668 300.226 236.391 302.356 233.503 303.825C230.614 305.294 227.358 306.028 223.735 306.028ZM223.735 297.803C226.575 297.803 228.925 296.897 230.786 295.086C232.646 293.225 233.576 290.581 233.576 287.154V286.42C233.576 282.992 232.646 280.373 230.786 278.562C228.974 276.701 226.624 275.771 223.735 275.771C220.896 275.771 218.546 276.701 216.685 278.562C214.825 280.373 213.894 282.992 213.894 286.42V287.154C213.894 290.581 214.825 293.225 216.685 295.086C218.546 296.897 220.896 297.803 223.735 297.803ZM251.371 305V253.592H260.625V305H251.371ZM270.879 305V253.592H280.132V305H270.879ZM306.984 306.028C303.361 306.028 300.154 305.269 297.363 303.752C294.621 302.185 292.467 300.006 290.9 297.215C289.382 294.376 288.624 291.046 288.624 287.228V286.346C288.624 282.527 289.382 279.223 290.9 276.432C292.418 273.592 294.548 271.413 297.289 269.896C300.031 268.329 303.214 267.546 306.837 267.546C310.411 267.546 313.52 268.353 316.164 269.969C318.807 271.536 320.864 273.739 322.333 276.579C323.801 279.369 324.536 282.625 324.536 286.346V289.504H298.024C298.122 292.001 299.052 294.033 300.815 295.6C302.577 297.166 304.731 297.95 307.277 297.95C309.872 297.95 311.782 297.387 313.006 296.261C314.23 295.135 315.16 293.886 315.796 292.515L323.361 296.481C322.675 297.754 321.672 299.149 320.35 300.667C319.077 302.136 317.363 303.409 315.209 304.486C313.055 305.514 310.313 306.028 306.984 306.028ZM298.097 282.601H315.135C314.94 280.496 314.083 278.806 312.565 277.533C311.096 276.26 309.162 275.624 306.763 275.624C304.266 275.624 302.283 276.26 300.815 277.533C299.346 278.806 298.44 280.496 298.097 282.601ZM331.009 286.934V285.759C331.009 281.94 331.768 278.684 333.286 275.991C334.804 273.249 336.811 271.169 339.308 269.749C341.854 268.28 344.62 267.546 347.607 267.546C350.936 267.546 353.458 268.133 355.171 269.308C356.885 270.483 358.133 271.707 358.917 272.98H360.238V268.574H369.345V311.463C369.345 313.96 368.611 315.943 367.142 317.411C365.673 318.929 363.715 319.688 361.267 319.688H336.885V311.61H358.035C359.406 311.61 360.092 310.875 360.092 309.406V299.933H358.77C358.28 300.716 357.595 301.524 356.713 302.356C355.832 303.14 354.657 303.8 353.188 304.339C351.719 304.878 349.859 305.147 347.607 305.147C344.62 305.147 341.854 304.437 339.308 303.017C336.811 301.548 334.804 299.468 333.286 296.775C331.768 294.033 331.009 290.753 331.009 286.934ZM350.251 297.068C353.09 297.068 355.465 296.163 357.374 294.351C359.284 292.54 360.238 289.994 360.238 286.713V285.979C360.238 282.65 359.284 280.104 357.374 278.341C355.514 276.53 353.139 275.624 350.251 275.624C347.411 275.624 345.036 276.53 343.127 278.341C341.218 280.104 340.263 282.65 340.263 285.979V286.713C340.263 289.994 341.218 292.54 343.127 294.351C345.036 296.163 347.411 297.068 350.251 297.068ZM396.202 306.028C392.579 306.028 389.372 305.269 386.581 303.752C383.839 302.185 381.685 300.006 380.118 297.215C378.601 294.376 377.842 291.046 377.842 287.228V286.346C377.842 282.527 378.601 279.223 380.118 276.432C381.636 273.592 383.766 271.413 386.508 269.896C389.249 268.329 392.432 267.546 396.055 267.546C399.629 267.546 402.738 268.353 405.382 269.969C408.026 271.536 410.082 273.739 411.551 276.579C413.019 279.369 413.754 282.625 413.754 286.346V289.504H387.242C387.34 292.001 388.27 294.033 390.033 295.6C391.795 297.166 393.95 297.95 396.495 297.95C399.09 297.95 401 297.387 402.224 296.261C403.448 295.135 404.378 293.886 405.014 292.515L412.579 296.481C411.893 297.754 410.89 299.149 409.568 300.667C408.295 302.136 406.581 303.409 404.427 304.486C402.273 305.514 399.531 306.028 396.202 306.028ZM387.315 282.601H404.354C404.158 280.496 403.301 278.806 401.783 277.533C400.314 276.26 398.38 275.624 395.981 275.624C393.484 275.624 391.502 276.26 390.033 277.533C388.564 278.806 387.658 280.496 387.315 282.601ZM440.637 305V268.574H449.89V305H440.637ZM445.264 264.314C443.599 264.314 442.179 263.776 441.004 262.699C439.878 261.621 439.315 260.202 439.315 258.439C439.315 256.676 439.878 255.257 441.004 254.18C442.179 253.102 443.599 252.564 445.264 252.564C446.977 252.564 448.397 253.102 449.523 254.18C450.649 255.257 451.212 256.676 451.212 258.439C451.212 260.202 450.649 261.621 449.523 262.699C448.397 263.776 446.977 264.314 445.264 264.314ZM475.273 306.028C470.524 306.028 466.632 305 463.596 302.944C460.561 300.887 458.725 297.95 458.088 294.131L466.607 291.928C466.95 293.641 467.513 294.988 468.296 295.967C469.129 296.946 470.132 297.656 471.307 298.097C472.531 298.488 473.853 298.684 475.273 298.684C477.427 298.684 479.018 298.317 480.047 297.583C481.075 296.799 481.589 295.844 481.589 294.718C481.589 293.592 481.099 292.736 480.12 292.148C479.141 291.512 477.574 290.997 475.42 290.606L473.364 290.239C470.818 289.749 468.492 289.088 466.387 288.256C464.282 287.374 462.592 286.175 461.319 284.657C460.046 283.139 459.41 281.181 459.41 278.782C459.41 275.159 460.732 272.393 463.376 270.483C466.02 268.525 469.496 267.546 473.804 267.546C477.868 267.546 481.246 268.451 483.939 270.263C486.632 272.074 488.394 274.449 489.227 277.387L480.634 280.03C480.242 278.17 479.435 276.848 478.211 276.065C477.036 275.281 475.567 274.89 473.804 274.89C472.042 274.89 470.695 275.208 469.765 275.844C468.835 276.432 468.37 277.264 468.37 278.341C468.37 279.516 468.859 280.398 469.838 280.985C470.818 281.524 472.14 281.94 473.804 282.234L475.861 282.601C478.602 283.09 481.075 283.751 483.278 284.584C485.53 285.367 487.293 286.518 488.566 288.035C489.888 289.504 490.549 291.512 490.549 294.057C490.549 297.876 489.153 300.838 486.362 302.944C483.621 305 479.924 306.028 475.273 306.028ZM515.542 286.934V285.759C515.542 281.94 516.301 278.684 517.818 275.991C519.336 273.249 521.343 271.169 523.84 269.749C526.386 268.28 529.153 267.546 532.139 267.546C535.468 267.546 537.99 268.133 539.703 269.308C541.417 270.483 542.666 271.707 543.449 272.98H544.771V268.574H553.877V311.463C553.877 313.96 553.143 315.943 551.674 317.411C550.205 318.929 548.247 319.688 545.799 319.688H521.417V311.61H542.568C543.938 311.61 544.624 310.875 544.624 309.406V299.933H543.302C542.812 300.716 542.127 301.524 541.246 302.356C540.364 303.14 539.189 303.8 537.721 304.339C536.252 304.878 534.391 305.147 532.139 305.147C529.153 305.147 526.386 304.437 523.84 303.017C521.343 301.548 519.336 299.468 517.818 296.775C516.301 294.033 515.542 290.753 515.542 286.934ZM534.783 297.068C537.623 297.068 539.997 296.163 541.907 294.351C543.816 292.54 544.771 289.994 544.771 286.713V285.979C544.771 282.65 543.816 280.104 541.907 278.341C540.046 276.53 537.672 275.624 534.783 275.624C531.943 275.624 529.569 276.53 527.659 278.341C525.75 280.104 524.795 282.65 524.795 285.979V286.713C524.795 289.994 525.75 292.54 527.659 294.351C529.569 296.163 531.943 297.068 534.783 297.068ZM580.734 306.028C577.111 306.028 573.904 305.269 571.113 303.752C568.372 302.185 566.217 300.006 564.651 297.215C563.133 294.376 562.374 291.046 562.374 287.228V286.346C562.374 282.527 563.133 279.223 564.651 276.432C566.168 273.592 568.298 271.413 571.04 269.896C573.782 268.329 576.964 267.546 580.587 267.546C584.161 267.546 587.27 268.353 589.914 269.969C592.558 271.536 594.614 273.739 596.083 276.579C597.552 279.369 598.286 282.625 598.286 286.346V289.504H571.774C571.872 292.001 572.803 294.033 574.565 295.6C576.328 297.166 578.482 297.95 581.028 297.95C583.623 297.95 585.532 297.387 586.756 296.261C587.98 295.135 588.91 293.886 589.547 292.515L597.111 296.481C596.426 297.754 595.422 299.149 594.1 300.667C592.827 302.136 591.114 303.409 588.959 304.486C586.805 305.514 584.063 306.028 580.734 306.028ZM571.848 282.601H588.886C588.69 280.496 587.833 278.806 586.315 277.533C584.847 276.26 582.913 275.624 580.514 275.624C578.017 275.624 576.034 276.26 574.565 277.533C573.096 278.806 572.191 280.496 571.848 282.601ZM620.476 305C618.077 305 616.119 304.266 614.601 302.797C613.132 301.279 612.398 299.272 612.398 296.775V276.212H603.291V268.574H612.398V257.264H621.651V268.574H629.436V276.212H621.651V295.159C621.651 296.628 622.336 297.362 623.707 297.362H630.758V305H620.476ZM644.417 305C642.018 305 640.06 304.266 638.542 302.797C637.073 301.279 636.339 299.272 636.339 296.775V276.212H629.436V268.574H636.339V257.264H645.592V268.574H655.58V276.212H645.592V295.159C645.592 296.628 646.278 297.362 647.649 297.362H654.699V305H644.417ZM663.969 305V268.574H673.223V305H663.969ZM668.596 264.314C666.931 264.314 665.511 263.776 664.336 262.699C663.21 261.621 662.647 260.202 662.647 258.439C662.647 256.676 663.21 255.257 664.336 254.18C665.511 253.102 666.931 252.564 668.596 252.564C670.309 252.564 671.729 253.102 672.855 254.18C673.981 255.257 674.544 256.676 674.544 258.439C674.544 260.202 673.981 261.621 672.855 262.699C671.729 263.776 670.309 264.314 668.596 264.314ZM683.477 305V268.574H692.583V273.347H693.905C694.493 272.074 695.594 270.875 697.21 269.749C698.826 268.574 701.274 267.986 704.554 267.986C707.394 267.986 709.866 268.647 711.971 269.969C714.126 271.242 715.79 273.029 716.965 275.33C718.14 277.582 718.728 280.226 718.728 283.262V305H709.474V283.996C709.474 281.254 708.789 279.198 707.418 277.827C706.096 276.456 704.187 275.771 701.69 275.771C698.85 275.771 696.647 276.726 695.08 278.635C693.513 280.496 692.73 283.115 692.73 286.493V305H683.477ZM726.969 286.934V285.759C726.969 281.94 727.727 278.684 729.245 275.991C730.763 273.249 732.77 271.169 735.267 269.749C737.813 268.28 740.579 267.546 743.566 267.546C746.895 267.546 749.417 268.133 751.13 269.308C752.844 270.483 754.092 271.707 754.876 272.98H756.198V268.574H765.304V311.463C765.304 313.96 764.57 315.943 763.101 317.411C761.632 318.929 759.674 319.688 757.226 319.688H732.844V311.61H753.994C755.365 311.61 756.051 310.875 756.051 309.406V299.933H754.729C754.239 300.716 753.554 301.524 752.673 302.356C751.791 303.14 750.616 303.8 749.147 304.339C747.679 304.878 745.818 305.147 743.566 305.147C740.579 305.147 737.813 304.437 735.267 303.017C732.77 301.548 730.763 299.468 729.245 296.775C727.727 294.033 726.969 290.753 726.969 286.934ZM746.21 297.068C749.05 297.068 751.424 296.163 753.334 294.351C755.243 292.54 756.198 289.994 756.198 286.713V285.979C756.198 282.65 755.243 280.104 753.334 278.341C751.473 276.53 749.098 275.624 746.21 275.624C743.37 275.624 740.996 276.53 739.086 278.341C737.177 280.104 736.222 282.65 736.222 285.979V286.713C736.222 289.994 737.177 292.54 739.086 294.351C740.996 296.163 743.37 297.068 746.21 297.068ZM810.808 306.028C807.185 306.028 803.978 305.269 801.187 303.752C798.445 302.185 796.291 300.006 794.724 297.215C793.207 294.376 792.448 291.046 792.448 287.228V286.346C792.448 282.527 793.207 279.223 794.724 276.432C796.242 273.592 798.372 271.413 801.114 269.896C803.855 268.329 807.038 267.546 810.661 267.546C814.235 267.546 817.344 268.353 819.988 269.969C822.632 271.536 824.688 273.739 826.157 276.579C827.626 279.369 828.36 282.625 828.36 286.346V289.504H801.848C801.946 292.001 802.876 294.033 804.639 295.6C806.401 297.166 808.556 297.95 811.102 297.95C813.696 297.95 815.606 297.387 816.83 296.261C818.054 295.135 818.984 293.886 819.621 292.515L827.185 296.481C826.499 297.754 825.496 299.149 824.174 300.667C822.901 302.136 821.187 303.409 819.033 304.486C816.879 305.514 814.137 306.028 810.808 306.028ZM801.922 282.601H818.96C818.764 280.496 817.907 278.806 816.389 277.533C814.92 276.26 812.986 275.624 810.587 275.624C808.09 275.624 806.108 276.26 804.639 277.533C803.17 278.806 802.264 280.496 801.922 282.601ZM830.998 305L844.217 286.64L831.145 268.574H841.867L850.166 280.691H851.488L859.787 268.574H870.509L857.436 286.64L870.656 305H859.787L851.488 292.736H850.166L841.867 305H830.998ZM877.691 319.688V268.574H886.798V272.98H888.119C888.952 271.56 890.249 270.312 892.012 269.235C893.774 268.109 896.296 267.546 899.576 267.546C902.514 267.546 905.231 268.28 907.728 269.749C910.225 271.169 912.232 273.274 913.75 276.065C915.268 278.855 916.027 282.234 916.027 286.199V287.374C916.027 291.34 915.268 294.718 913.75 297.509C912.232 300.3 910.225 302.43 907.728 303.898C905.231 305.318 902.514 306.028 899.576 306.028C897.373 306.028 895.512 305.759 893.995 305.22C892.526 304.731 891.326 304.094 890.396 303.311C889.515 302.479 888.805 301.646 888.266 300.814H886.944V319.688H877.691ZM896.785 297.95C899.674 297.95 902.049 297.044 903.909 295.232C905.818 293.372 906.773 290.679 906.773 287.154V286.42C906.773 282.895 905.818 280.226 903.909 278.415C902 276.554 899.625 275.624 896.785 275.624C893.946 275.624 891.571 276.554 889.662 278.415C887.752 280.226 886.798 282.895 886.798 286.42V287.154C886.798 290.679 887.752 293.372 889.662 295.232C891.571 297.044 893.946 297.95 896.785 297.95ZM941.121 306.028C937.498 306.028 934.291 305.269 931.5 303.752C928.758 302.185 926.604 300.006 925.037 297.215C923.52 294.376 922.761 291.046 922.761 287.228V286.346C922.761 282.527 923.52 279.223 925.037 276.432C926.555 273.592 928.685 271.413 931.427 269.896C934.168 268.329 937.351 267.546 940.974 267.546C944.548 267.546 947.657 268.353 950.301 269.969C952.945 271.536 955.001 273.739 956.47 276.579C957.939 279.369 958.673 282.625 958.673 286.346V289.504H932.161C932.259 292.001 933.189 294.033 934.952 295.6C936.714 297.166 938.869 297.95 941.415 297.95C944.009 297.95 945.919 297.387 947.143 296.261C948.367 295.135 949.297 293.886 949.934 292.515L957.498 296.481C956.812 297.754 955.809 299.149 954.487 300.667C953.214 302.136 951.5 303.409 949.346 304.486C947.192 305.514 944.45 306.028 941.121 306.028ZM932.235 282.601H949.273C949.077 280.496 948.22 278.806 946.702 277.533C945.233 276.26 943.299 275.624 940.9 275.624C938.403 275.624 936.421 276.26 934.952 277.533C933.483 278.806 932.577 280.496 932.235 282.601ZM966.909 305V268.574H976.016V273.347H977.338C977.925 272.074 979.027 270.875 980.642 269.749C982.258 268.574 984.706 267.986 987.986 267.986C990.826 267.986 993.299 268.647 995.404 269.969C997.558 271.242 999.223 273.029 1000.4 275.33C1001.57 277.582 1002.16 280.226 1002.16 283.262V305H992.907V283.996C992.907 281.254 992.221 279.198 990.851 277.827C989.529 276.456 987.619 275.771 985.122 275.771C982.283 275.771 980.079 276.726 978.513 278.635C976.946 280.496 976.163 283.115 976.163 286.493V305H966.909ZM1027.29 306.028C1022.54 306.028 1018.65 305 1015.62 302.944C1012.58 300.887 1010.74 297.95 1010.11 294.131L1018.63 291.928C1018.97 293.641 1019.53 294.988 1020.32 295.967C1021.15 296.946 1022.15 297.656 1023.33 298.097C1024.55 298.488 1025.87 298.684 1027.29 298.684C1029.45 298.684 1031.04 298.317 1032.07 297.583C1033.09 296.799 1033.61 295.844 1033.61 294.718C1033.61 293.592 1033.12 292.736 1032.14 292.148C1031.16 291.512 1029.59 290.997 1027.44 290.606L1025.38 290.239C1022.84 289.749 1020.51 289.088 1018.41 288.256C1016.3 287.374 1014.61 286.175 1013.34 284.657C1012.07 283.139 1011.43 281.181 1011.43 278.782C1011.43 275.159 1012.75 272.393 1015.39 270.483C1018.04 268.525 1021.51 267.546 1025.82 267.546C1029.89 267.546 1033.27 268.451 1035.96 270.263C1038.65 272.074 1040.41 274.449 1041.25 277.387L1032.65 280.03C1032.26 278.17 1031.45 276.848 1030.23 276.065C1029.05 275.281 1027.59 274.89 1025.82 274.89C1024.06 274.89 1022.71 275.208 1021.78 275.844C1020.85 276.432 1020.39 277.264 1020.39 278.341C1020.39 279.516 1020.88 280.398 1021.86 280.985C1022.84 281.524 1024.16 281.94 1025.82 282.234L1027.88 282.601C1030.62 283.09 1033.09 283.751 1035.3 284.584C1037.55 285.367 1039.31 286.518 1040.58 288.035C1041.91 289.504 1042.57 291.512 1042.57 294.057C1042.57 297.876 1041.17 300.838 1038.38 302.944C1035.64 305 1031.94 306.028 1027.29 306.028ZM1050.68 305V268.574H1059.93V305H1050.68ZM1055.3 264.314C1053.64 264.314 1052.22 263.776 1051.04 262.699C1049.92 261.621 1049.35 260.202 1049.35 258.439C1049.35 256.676 1049.92 255.257 1051.04 254.18C1052.22 253.102 1053.64 252.564 1055.3 252.564C1057.02 252.564 1058.44 253.102 1059.56 254.18C1060.69 255.257 1061.25 256.676 1061.25 258.439C1061.25 260.202 1060.69 261.621 1059.56 262.699C1058.44 263.776 1057.02 264.314 1055.3 264.314ZM1077.82 305L1066.22 268.574H1076.06L1084.5 298.244H1085.83L1094.27 268.574H1104.11L1092.51 305H1077.82ZM1125.94 306.028C1122.32 306.028 1119.11 305.269 1116.32 303.752C1113.58 302.185 1111.42 300.006 1109.86 297.215C1108.34 294.376 1107.58 291.046 1107.58 287.228V286.346C1107.58 282.527 1108.34 279.223 1109.86 276.432C1111.37 273.592 1113.5 271.413 1116.25 269.896C1118.99 268.329 1122.17 267.546 1125.79 267.546C1129.37 267.546 1132.48 268.353 1135.12 269.969C1137.76 271.536 1139.82 273.739 1141.29 276.579C1142.76 279.369 1143.49 282.625 1143.49 286.346V289.504H1116.98C1117.08 292.001 1118.01 294.033 1119.77 295.6C1121.53 297.166 1123.69 297.95 1126.23 297.95C1128.83 297.95 1130.74 297.387 1131.96 296.261C1133.19 295.135 1134.12 293.886 1134.75 292.515L1142.32 296.481C1141.63 297.754 1140.63 299.149 1139.31 300.667C1138.03 302.136 1136.32 303.409 1134.17 304.486C1132.01 305.514 1129.27 306.028 1125.94 306.028ZM1117.05 282.601H1134.09C1133.9 280.496 1133.04 278.806 1131.52 277.533C1130.05 276.26 1128.12 275.624 1125.72 275.624C1123.22 275.624 1121.24 276.26 1119.77 277.533C1118.3 278.806 1117.4 280.496 1117.05 282.601Z" fill="#BD4D4D"/>
</svg>
