<svg width="20" height="16" viewBox="0 0 24 16" fill="none" xmlns="http://www.w3.org/2000/svg">
<path d="M15.6698 0.996622H21.6585V2.44953H15.6698V0.996622ZM9.66904 6.74522C10.9929 6.11182 11.6863 5.14822 11.6863 3.65929C11.6863 0.714446 9.49493 0 6.96435 0H0V14.7812H7.15947C9.84315 14.7812 12.3617 13.4904 12.3617 10.4886C12.3617 8.6334 11.4852 7.26154 9.66904 6.74522ZM3.24803 2.52158H6.29493C7.46867 2.52158 8.52233 2.84878 8.52233 4.21163C8.52233 5.46642 7.70281 5.97073 6.54109 5.97073H3.24803V2.52158ZM6.7152 12.2717H3.24503V8.20113H6.78424C8.21313 8.20113 9.1167 8.7985 9.1167 10.3114C9.1167 11.8004 8.03902 12.2717 6.7152 12.2717ZM24 9.58499C24 6.41801 22.1478 3.77936 18.7977 3.77936C15.5407 3.77936 13.3253 6.23189 13.3253 9.4469C13.3253 12.779 15.4236 15.0664 18.7977 15.0664C21.3523 15.0664 23.0064 13.9167 23.8019 11.4642H21.2113C20.9291 12.3797 19.7824 12.86 18.8908 12.86C17.1677 12.86 16.2672 11.8514 16.2672 10.1373H23.979C23.988 9.96022 24 9.77411 24 9.58499ZM16.2672 8.28218C16.3602 6.8743 17.2998 5.99475 18.7047 5.99475C20.1816 5.99475 20.9201 6.86229 21.0492 8.28218H16.2672Z" fill="black"/>
</svg>
