<svg width="14" height="19" viewBox="0 0 14 19" fill="none" xmlns="http://www.w3.org/2000/svg">
<path d="M13.25 0.75C13.4312 0.750008 13.6063 0.815643 13.7429 0.934767C13.8795 1.05389 13.9684 1.21845 13.993 1.398L14 1.5V17.5C13.9999 17.69 13.9278 17.8729 13.798 18.0118C13.6683 18.1506 13.4907 18.2351 13.3011 18.248C13.1115 18.261 12.9241 18.2015 12.7767 18.0816C12.6293 17.9617 12.5329 17.7902 12.507 17.602L12.5 17.5V12.5H10.25C10.0688 12.5 9.89366 12.4344 9.75707 12.3152C9.62048 12.1961 9.53165 12.0316 9.507 11.852L9.5 11.75V4.5C9.5 3.50544 9.89509 2.55161 10.5983 1.84835C11.3016 1.14509 12.2554 0.75 13.25 0.75ZM7.25 0.75C7.43124 0.750008 7.60634 0.815643 7.74293 0.934767C7.87952 1.05389 7.96835 1.21845 7.993 1.398L8 1.5V5.5C8 7.453 6.6 9.078 4.75 9.43V17.5C4.74994 17.69 4.67776 17.8729 4.54803 18.0118C4.4183 18.1506 4.2407 18.2351 4.05112 18.248C3.86154 18.261 3.67411 18.2015 3.5267 18.0816C3.37929 17.9617 3.2829 17.7902 3.257 17.602L3.25 17.5V9.43C2.37077 9.2619 1.57328 8.80387 0.985023 8.12914C0.396765 7.45441 0.0517037 6.60194 0.00500011 5.708L0 5.5V1.5C5.82426e-05 1.30998 0.0722443 1.12706 0.201972 0.988208C0.331701 0.849358 0.509299 0.764926 0.69888 0.751974C0.888462 0.739022 1.07589 0.798515 1.2233 0.918432C1.37071 1.03835 1.4671 1.20975 1.493 1.398L1.5 1.5V5.5C1.5 6.62 2.236 7.567 3.25 7.886V1.5C3.25006 1.30998 3.32224 1.12706 3.45197 0.988208C3.5817 0.849358 3.7593 0.764926 3.94888 0.751974C4.13846 0.739022 4.32589 0.798515 4.4733 0.918432C4.62071 1.03835 4.7171 1.20975 4.743 1.398L4.75 1.5V7.885C5.2272 7.73461 5.64834 7.4446 5.95905 7.05243C6.26975 6.66026 6.45575 6.18395 6.493 5.685L6.5 5.5V1.5C6.5 1.30109 6.57902 1.11032 6.71967 0.96967C6.86032 0.829018 7.05109 0.75 7.25 0.75ZM12.5 11V2.378C12.0889 2.52349 11.7289 2.7852 11.4637 3.13135C11.1985 3.47751 11.0395 3.89322 11.006 4.328L11 4.5V11H12.5V2.378V11Z" fill="black"/>
</svg>
