<svg width="16" height="16" viewBox="0 0 16 16" fill="none" xmlns="http://www.w3.org/2000/svg">
<path d="M0.5 2.24242C0.5 1.73736 0.66892 1.3207 1.00676 0.99242C1.34459 0.66414 1.78379 0.5 2.32432 0.5C2.85522 0.5 3.28474 0.66161 3.61293 0.98485C3.95077 1.31818 4.11969 1.75252 4.11969 2.28788C4.11969 2.77273 3.9556 3.17676 3.62741 3.5C3.28958 3.83333 2.84556 4 2.29537 4H2.28089C1.75 4 1.32047 3.83333 0.99228 3.5C0.66409 3.16667 0.5 2.74747 0.5 2.24242ZM0.68822 15.5V5.37879H3.90251V15.5H0.68822ZM5.6834 15.5H8.8977V9.8485C8.8977 9.4949 8.9363 9.2222 9.0135 9.0303C9.1486 8.6869 9.3538 8.3965 9.6289 8.1591C9.904 7.9217 10.249 7.803 10.6641 7.803C11.7452 7.803 12.2857 8.5657 12.2857 10.0909V15.5H15.5V9.697C15.5 8.202 15.1622 7.0682 14.4865 6.2955C13.8108 5.52273 12.918 5.13636 11.8079 5.13636C10.5627 5.13636 9.5927 5.69697 8.8977 6.8182V6.8485H8.8832L8.8977 6.8182V5.37879H5.6834C5.7027 5.70202 5.71236 6.7071 5.71236 8.3939C5.71236 10.0808 5.7027 12.4495 5.6834 15.5Z" fill="black"/>
</svg>
